<svg viewBox="0 0 477.6 512" xmlns="http://www.w3.org/2000/svg"><path d="M247 116v-2s4 2 0 2zm1 9l3-7v-3l-3 10zm-12-19l-1-1c-1 3 2 2 1 1zm30 18v4l-1-4v-2 12l3-6v2c1 1 1-2 1-3l4-1c1-4-1-9-1-13 1-1 2 1 2 2v9c1 1 2-2 2-3v-10c1-1 1 1 1 2v7c1 1 1-2 1-3v-6c2-1 4 7 3 4l-3-31V74v10l4 18c0 3-2 8 0 10s2-5 3-7l1-14-2-7v2c0-8-2-20-11-25v7c0-5 1-8-4-12-1-1-2-4-3-3v10l2 27v7c0 1 3 4 0 4V90c0-2 0-5-1-4-2 2-1 7-2 10l-7 12 2 11v14l-2-3c0 1 2 2 1 3 0 0-1 2-2 1l-1-11v19c1 1 1-6 1-6 1-2 0 5 1 5l4-4c5-5-3-16 2-22 1-1 2 7 2 9zm-21-6l2-3-11 5v1c0 2 6-2 9-3zm2 6v-4l-8 13c0 1 2 2 1 3h-3l1-1c-3 5-8 17-2 22v-2s1-2 2-1l3 4v-3h-2c0-2 3-4 1-6-1-2-3 0-2-2l1-4 2 2v-5l4-8 1-3h-2v-3l3 1v-3zm29-1l-2 3v-2l2-1zm-48-3c-2-2-3 1-3 0l-8-7c-5-5-7-16-6-23 0-1 0 5 1 4l9-16-1-18c0-6 2-15-6-15-7 0-5 4-5 8h-1c-3 0 1-5 0-6-7-2-7 8-7 10-1 1-1-5-1-6l-1 2c-6 6-6 13-3 20v-1c2 1 2 6 3 5v-7l1 3c0 2 0 5 2 6 1 1 1-6 2-6 1-1 0 6 1 5v-7l2-1c1 4-2 13-4 16-8 8-20 3-26-4l-3-7v9l2 8-3-3-2-4-2-5c-1 8-2 17 2 25 3 12 13 1 19 5 4 3 4 16 6 21l9 14c0 4-4 9-2 13l4 1c0 2-6 0-4 4 0 0 1 8 5 9l3-2v4l2 1v-3c3 3-2 11 7 8 0-1-3-1-2-2 0-2 2-2 2-3l2-3c-1 1-2-5-1-6 0-2 0 1 0 0l-2-3-1-5v-1l-7 3c-1-1 1-2 1-3l1-4c0-2 4 3 5 2 0-1 0-11 1-10 0 4-2 9 0 13l3 4v-5l-1-3v4l-1-2v-7c0-1 1 5 2 4v-6l1 2v10c0 1 0 4 2 3v-12l-2 8c-1-2-2-10 0-11 0-1 2 2 3 1 0-1 0-4 1-3v6l1-5 1-10 1 6 1-8 1 8v-5l-1-10v-5l-1-1c-2 5 2 7 0 13h-2l-1 9c-2 0-1-3-1-5 0-4 4-16 2-18zm20 9l-1 1 1 3-1 9 2 2c1-5 0-14-1-15zm41-16l2 3 1 4v8l3-1c4 2-6-11-6-14zm-17 19l1 1 1-5c1 5 0 10-1 15l-1-2c0-3-3-8 0-9zm24 3c4 0 0 5-3 3-1-1 3-3 3-3zm-43 9v2c1-6 4-23 0-28v26zm10-2v1l-1-4 1-1s-6 4-5 5c1 0 5 0 2 2-1 1-1-1-2-1l-1 6v4h7l1 3c3 1 1-2 1-3h2c1-2-1-9-1-9 2-1 7 1 6 3h-4l2 5c1 0 5-2 3-2 0 0-3 0-2-2h2l1-6 1 3v10h5c2-1 0-5 0-5l3-1c2-3 2-7 5-9 1-1 1 3 2 4l4 1c4-1 6-4 8-6 15-16 16-42 9-61-1-2-7-17-10-19-2-2 0 11-1 8v-9h1l-10-11c-1-1-5-5-5-3 2 3 5 5 5 8 1 2 1 9-2 8l-7-5c-1-1-1-5-2-4 0 1-1 17 2 17 2 0 0-7 0-5 0 3 0 13 3 15v-1l1-6c2 2-1 5-1 7l3 5v14c0 3-7 22-12 26-2 2-9 5-9 10v-2l-3 3v5l-1-4-1 1v5zm-32 0l-1 4c-1 1-1-1-1-2-1-1-2-4 2-2zm0 17l1-1v-3c0-1 3-1 3-3-1-1-5 4-4 7zm44 1v3l2-3c1-2-2 1-3 0 0-2-1-3-3-4v2s0-2-2-1c0 2 3 4 2 6-2 1-3-3-5-4v1c-1 1-3-1-4-1l1-2-3 8c4 3 3-7 4-5l1 3 3 2v1h-2c1 1 3 3 3 5 2 1 2-3 2-4 0-4 3-9 4-7zm-59 7c1 0 7-1 3 2l-3 1c-2 1 4 1 2 3l-5-2c-1-1 3-5 3-5-3-1-4 1-4-2s1 3 4 3zm74-2l-3 3 3-3zm2 3c-3 2-8 0-11 5-1 2 6 1 6 1l9 3 2-3c2-1 5-1 5-4 1-1-1-3-1-3 1-1 3 1 3 1l8-8 10-13c14-23 17-50 8-76-7-18-21-37-40-46-7-4-11-5-20-8-2-1-6-3-7-1v11l11 3c2 0 0-5 1-4v5l7 3 1-2h1v3l14 10c1 1 1-4 1-3v4c4 6 10 11 13 17l8 20c6 23-1 48-17 67l-14 15 2 3zm-84-6v6-6zm-10 6l-8-8c-7-6-9-8-16-18-8-11-12-24-14-36-1-17 3-35 13-49 5-8 16-14 23-21V26l2 3v7l11-5 5-3s4 2 5 0l-1-11-10 3-1 8v-8c-6-1-18 7-22 9-26 16-35 34-42 61v-3c0-6 2-11 4-16 3-8 9-18 15-25 9-10 21-19 34-25l26-7-1-7V4l-2 9v-3l1-8-7 1v6l-1-6-10 3v5c-1 2 0-4-1-5l-1 1-4 1-1 3c-3 1 8-8 0-3-17 11-36 19-48 33a96 96 0 00-13 99c16 33 33 42 62 55 2 0 4 5 7 6v-3c-2-1-7 0-4-4h2l-1-2-2 1-2-1h3l-3-1c-1-2 0-7 4-4v3l1-3 1-8 1 5h2v4c0 1 3 3 4 2v-3l3 1-1-3-4-1 2-3v-3l4-1h-2l-4-2 1-1-7-5c-1-1-1 4-1 3l-2-4zm3-4l-1-3c-1 1 1 5 1 3zm106 5l-5 4-1 10v-10l-1 2-2 1-9 6 3-2h-2l-3-3c-1 0-2 5-5 3-4-2 2-1 2-2 1-2-4-2-6-1l-1 7h6v1c0 2-1 0-2 1v5c1 2 5-4 5 0l-8 5c-1 0 0-4-1-3v5l4-1 1 2c2 1 0-4 1-5l6-3c3-1 2 3 3 2l2-4c1-1 2 2 2 1 3-2 8-3 9-5 2-1-1-3-1-3h4v2l20-17c11-12 19-26 23-41 11-41-7-81-44-107v9c-2-2 1-8-2-10l-7-4v5l-2-6v3l-1-3-13-6v4c-2 0 0-6-2-5v11l15 7 13 9c2 1-1-6 1-5v6l13 14c8 12 15 30 16 44 2 18-3 37-12 53l-19 24zm-33 13v2l1-5v1l2-1-2 1c1 0 1 2 2 1 3-1-2-1-3 1zm15 15v-2c-2-1-4 2-4 1l6-3v1c0 1 0 3-2 3zm-171-15l-24 3-8 2s0 8-1 7v-7c-1-2-4 0-5 2v7c-2 3-4 7-3 11l1-1v-4c2-3 3 4 4 3l1-5c0-2-1 3 1 4l6-2 8-1v-5c0-2 2-6 3-4 1 4 0 13-1 18 0 1-2 6-1 7l10-3v-5s0-2 1-1v5l8-2 1-11 1 11c6 1 11-2 18-2h9c2 0 9 3 9 1 0-4-17-5-9-11 3-2 13 2 17 3l14 5s2-2 3-1c0 0-3 1-1 2l16 7c2 1 3 5 7 7v-2l2-2h-3c-1-3 2-6 2-8l-4-2c-2-3-57-27-82-26zm171 20v1c0 2 2-1 2 0 1 0 2 6 0 6l-1-4c0-1-1 4-4 2-1-1 3-5 1-5-2-1-1 3-2 4h-2l1 2-2 1 4-1v5l-5 1s2 1 1 2c0 0-1-2-2-1l-2 4c0 2 4 1 4 2l-1 3h4v1c-1 3-5 0-3 2v4l3-3c2-1 7-4 8-8v-3c1-1 1 1 1 2 1 1 4-1 2-2 0 0-2-1-1-2l3 1 13-9c21-13 49-16 74-10 38 9 66 41 72 74v31l-1 10v-2c-1-4-2-10-1-14 0-2 2 2 2 3v2c1-10 1-19-1-28l-1 4v-5 1h-4c-1-1 2-2 2-2h-2l-1 1v-3l5-1-6-16a92 92 0 00-62-52c-15-4-28-6-42 2-7 4-9 9-10 15v3c-2 0 1 0 0 0-6 1-13 2-16 6-1 2-6 12 0 13 1 1 3 0 5-1 13-4 13-7 26-10 21-4 40-6 59 3 24 12 22 24 33 44v15c-1-3-2-6-5-7v9l-1 2c0-2 2-13-1-11-6 3-5 18-6 23l-8 21c-2 4-7 6-7 10v-1l-11 11c-7 5-13 9-22 11-22 6-45 2-65-5-4-1-23-8-24 0l4 8v-2l2-8c1 1 3 6 1 9 0 1 0-1 0 0v3c1 1 0 0 0 0l1-1c2 0 0 1 0 1 0 2 4 3 7 4l13 7v-2l4 4 5 1 7 2 3-1v2c10 2 21 2 32 1l9-3c2 0 4 2 2 3-2 3-4-1-5-1l-10 3c-20 3-39 0-58-9-9-4-16-11-25-15-1 0 1 5-1 4l-1-5c-1-1-11-8-11-11l2-6c1-5 0-11-5-15l-1-2-1-2v4c0 1 0 2-1 1l-1-7c0-1-1-4-2-3v8l-2-1h-3l-1-6 4 1v-1l-5-7v1h-1c-1-1 2-3 0-3l-4 3c0 1 0 3-1 2 0-1 0-11-1-10 0 5 2 11 1 16l-1 3-3 1v3l-1-3 2 8v-1l2-1c2 4 0 6 2 10 1 1 1 4 3 3v-6l1-2v11c1 3 5 4 5 5l1 3 4 1-2 1 5 4 7 9c26 19 48 32 84 32 38 1 51-9 82-28l-1-1v-12l1 4 1-12v15l-1 5v1c4 0 9-12 9-13v-4c1 2 0 6 1 4v-2c1-1 0 6 1 5 5-1 6-7 7-11l1 2c5-4 6-9 5-15l-2 2v-6c0-1 1 4 2 3l1-10c0-9 3-19 2-28l-1 2v16l-1-1v-17 18l-1-2v-19c-1-12 1-25 1-37v-11c2 11 3 23 3 35l-1 14 1 2c1 1 1-2 3-1l1 3c1-3-1-9-1-12v-4c0 1-2 7-2 1l2-11 1-1c2 5-3 12 2 16 2 1 0-6 0-9 1-2 0-6 2-6 1-1 1 1 1 1 1-3-1-9-1-12v-4l-1-3v8l-1-1-1 3-1 2v-20l-3-3v9c-2-6 0-11-3-17-1-1-1-4-3-4 0 0 1 10-1 8v-9h1l-3-4-2-2v19l-1-5v-15c0-2-6-7-7-8 0 0 1 5-1 3v1c-2-3 2-3 0-5l-8-8c-1-1-1 5-1 4s-1-9-3-7l-1 5v-5c-25-15-35-22-65-25-32-3-42 3-71 13l1 2c0 1-10 2-12 5zm-105-4l3 4c-3 0-4-5-3-4zm6 1l3-1-3 1zm132 12h-2c-1 0 4-3 2 0zm-32 1l5-3c1 2-5 5-5 3zm-170 6v9l18 1 20 7c6 2 11 7 17 5 3-2 3-6 2-9-2-8-45-18-57-13zm81 5l-5 1c-2-1 5-3 5-1zm-5 1h3c1 2-5 1-3 0zm-14 2l2 2 3 3c2 1 0 8 4 10 0 0 4-2 5 1 2 4-4 3-5 4l1 5-2 1c0 1-7 11-14 12-3 0-8-7-10-9a59 59 0 00-55-12c2 0 0 2-1 2v-2c-1-1-1 6-1 7l-2-2c0-1 2-3 1-4l-3 1 2 2-4-1-7 2-2 2c0 2 6 0 7 1v2c2 0 0-2 1-2 0-1 6-2 7-1 1 0-4 1-2 2h5l-1 2c1 1 3 0 5 3 0 2-3 3-4 3-2 0-1-6-1-6l-3 1-3-2c-2 1-1 8 0 10l4-1 8-2v-2c4-1 22 5 23 5 6 4 8 10 8 17 0 8-5 9 2 14 3 1-1 5-1 8 1 5 9 9 15 10 14 2 31-15 36-26l-2 1c0-3 1-5 3-6l-2-3h3v2l1-6c1-4 4-10 2-14h-2l-3-4v-4l-4-1c-1-2 5-6 5-6l-5-6h-3v-3l-11-10zm26 0c0-1-3-5-3-3-1 4 0 10 2 14v-2l1-9zm97 5c-2 0-1-3-1-3l-2 4c-1 0-4 0-6 2 0 2 4 3 3 5l-4 1-1-4-1 3-2 1h2c1 2-1 3-1 6l3 2c1 1-1 2-2 4l-2 1c3 1 8-1 10 1v3l-3 1 4 1c1 1-2 1-2 2l1 4c1 4 0-4 3 0l-1 5-2-1c-1 1 1 3-1 5 0 0-1-2-2-1l-3 2c-1 0-4-2-5-1-1 2 9 1 9 2l-1 6s-3-2-4-1l-1 3-2-1-4 10c2 1 2-3 3-3 3-1 5 0 4 3l-8 2c3 4 15 10 18 12 6 2 16 6 19 3 1-1 4 2 4 1v-4c1-2 2 3 3 3 3-1 2-3 2-3h3c3-2 3-10 2-12h-2c0-4 5 0 5-4 1-8-3-10 1-19 5-8 15-12 24-12 7 0 12 1 18 5 8 4 7 6 11 13 1 1 6 0 6 4l1 10v20c0 2 2 0 3 0h6c3-5-4-6-7-12-1-3 6-7 8-7v1c7 0 0-13-2-18-1-5-5-10-8-14-10-11-18-12-33-15-6-2-19-1-27 2 0 0 3 0 1 1 0 0-1-2-2-1l-7 2-4 3c-2 2-9 11-12 10-12-4-17-13-17-23 0-5 10-13 13-17l-4 1c-2 1-1 6-4 6zm36 7l-5 4c-4 2-13 10-13 14 0 2 5-3 7-4s6-2 6-5c1-1 2 1 2 1l4-2c7-1 21-3 27-1 20 5 35 12 42 30l3 18c1 2 8 3 8 7l1 3c0 4-9 3-10 5-3 5 4 11-1 16l-6 1c-4 6-6 10-12 15l-16 10-7 2 1 1-4 1 13-2c23-7 48-35 46-58-1-19-4-27-16-41l-10-9-6-2c17 6 22 18 33 29 4 4 14 12 11-1-4-24-27-38-53-42-15-1-31 2-45 10zm-146 23l-1 1c-2-5 5-1 1-1zm-12 3c1-1 1 1 2 2 1 0 4-6 5-2 2 7-9 1-7 0zm134 1c1 1 1 4-1 4l1-4zm-128 9h-2c-2-2 8 0 2 0zm115 1l-3-1c0-2 6-2 3 1zm-121 13c4-3 7 7 2 9-2 2-5-7-2-9zm31 5c2-3 4-6 8-3 5 3-9 7-8 3zm-19 0l4-1c1 0 2-3 3-2l-7 3zm114-1c2-4 9 4 8 6l-8-6zm-38 11v-3 3zm-6-7s0 9-1 8c0-2 2-8-1-7-4 1-1 10-1 12s0 5 1 4l1-4 1 9 1 4-1-13-2-1c0-2 1-3 2-3l1 2c1-1-1-12-1-11zm-49 9l-6 11c-1 0-6 7-3 7l2-1c0 3-4 4-5 3l1-3-5 5c-5 3-14 13-18 9-4-3 2-8 7-13 0 0-3-3 0-5h3v2c1-1 6-5 3-7-3-1-2 4-2 4h-3l-19 12c-2 1 2 1 2 1-1 1-2-1-2-1-11 4-18 7-28 6l-9-2-4 1-2-2c-2 1 0 3-1 4-1 2-4 0-5 0-2 2 4 1 4 1l-1 3c0 2 4 4 6 5 6 6 16 10 25 11l9 1c1 1-3 2-6 3l-12 4v2h-9c-1 1 1 2 1 2-1 1-1-2-1-2l-10 2-1 3v-3c-1-1-2 3-4 3v-3c-2-1-5 3-6 1l1-1h-7l-2-1-1 4v-4l-3 1-1-1c0 1 0 3-1 2l-1-2 1-1-2 4v-4l-1 1v-1l-8-3v2c0 1 2-1 2 1l-2 4c0 2 1 5-1 5l-1-13-1 5 1 1c1 4-3 5-1 8l2-1 3 3c6 1 11 5 14 0 0 0 2 5 3 2 0-1-1-6 1-7 1-1 1 4 1 4v3-7l1-2v5l2 1s-4 4-2 4c27 6 60-12 78-28l3-6h3l-2 2 9-13v-3h3c2-1-3-3 0-5h2l2-6 2-7s-2 0-1-1l3-2v-7zm-14-2c1-2-3 0-3 1v2l-15 6c-9 5-19 8-31 8h-9c-1 1-3 2-4 1l-5-4v2c-3-2 0-5 0-7 0-1-3-1-1-2l1 1c3-6 9-13 6-19-2-4-14-2-16-2l-3 4c-1 0-3-1-4 2 2 0 0 3-1 3v-2c-1 0-4 4-3 5 0 0 3 0 2 1 0 0-4 2-3 3 1 0 1-3 4-2l-1 2h3l2 3-2 1s2 0 2 2h1l-2 3c0 2 3 2 3 2 0 1-4 3-1 4h5c1 1-4 2-2 3l3 1c1 2-2 2-1 3l13 5v-2l3 2c4 2 13-1 17-2 8-2 15-6 21-10l21-18zm69 7v-6c1-1 2 5 0 6zm0-8c0-2-2-5-3-3 0 0 3 4 1 5-1 1 0-4-2-4v4c4 0 2 2 2 6l2 4v-12zm-73 10v2l7-12-2 2c-1 1-8 6-5 8zm102-5l2 2 1 2c0 2-3-6-3-4zm-93 8v-6c0-2 2 2 3 2 0-1 1-6 4-2 0 1-5 8-7 6zm34 2l-2-3s-1 3-2 2l1-6c3-1 4 6 3 7zm-1 6c2 3 5-3 5-3v2c1 1 1-4 1-5l-1-3s0 2-1 1l1-7v-6 5c-1 2-4 2-4 4l4-1c2 0-3 3-4 3 0 1-2 8-1 10zm-5-11l2-1c0-5 1-12-1-16v3l-1 5-3-2-1 2c-3-1-3-4-3-5-1-1-1 1-1 2l-2 2 2 2v-3c1-1 2 3 3 4 5 1 5 8 5 7zm67 7c1 1 2-1 2-1v2l7 4c17 10 47 16 60-4 3-4 3-7 3-11 0-8-7-18-16-20-3 0-13 0-14 6l9 18c0 12-12 5-18 7 0 1 1 2-2 2l-1-2-6-1c-7 0-18-3-26-8-4-1-22-17-13-5l15 13zm-17-13l-4-4 5 7h-1l2 3c5 5 9 11 14 14v-2l2 1-2 1c2 3 4 4 4 7 3 4-4 3-5 2-2-1-5-4-8-3h-2l3 3 3 3 13 6 13 6h9l2 2c6 2 16 5 22 3 38-8 49-39 41-68l-1 1-5-1c-1-3-3-5-1-7l3-2c1-4-10-12-12-13-12-6-38-4-39 12h12c5 2 11 3 14 7 7 6 8 14 9 22 1 4 0 5-1 9-2 8-8 12-15 15-25 15-71-20-75-24zm-11 6c2-1 3 2 3 3h1v2c-2 1-5-3-4-5zm-42-1l-2-1c-1 1 0 4-1 3l-1-5v-3c-2 2 1 6 1 7h-2l-5-1c-3-2 3-5 3-5 0-3-3 0-4 1v-1l-3 14v10-11l-4 7c-2 5-5 15-9 18-13 12-25 25-43 32-13 5-17 5-27 7l-7 2-14-1 3 1h-3v2l-2-3-1 3c-2-2 2-3 2-6h-1l-1 3c-6 0-11-3-16-4-1 0-3-3-4-2-2 1 1 8-2 10l1-10-1 3c-3 0 0-4-3-4v1l-1 7v2c-2-1-1-9-1-11 0 0-2 4-3 3v-3h2l-5-2-1 6v3l-1-7-2-4c-1 6-1 17 3 21l10 3-1-2 3-1c1 2 0 6 5 5v-3l1 3 5 1c7 0 18 2 28 1v-1l2 1 24-3c23-6 44-19 60-35v-10l2 7v2c2-1 10-13 10-14v-1l2-1c-1-8-2-10-1-19v-6c1-2 2-7 3-6v10l2 14c0 1 0 0 0 0l3-6c0-1 4-14 2-16l-2 1c-3 2-3 4-3 7v5c-2-5 0-17 0-18zm17 9c0-1 5-9 6-7s-5 9-6 7zm-8 16c0 8 4 24 0 32-1 2-1-1-2-1-2 4 5 7 1 8v4c-3-9-2-18-2-29 0 0 0 3-1 2v-6l-1-3-1 14 1 5v-4c1 5 3 18 1 20 0 1 2 5 1 6h-2v7l-1-10v-17c-3 15-1 30-4 44v-9l-2 11c-1 1-1-1-1-1-3 7-6 15-7 22v7-7c-8 7-11 19-12 28-1 2 0-5-1-4-16 15-28 29-46 41 0 0-14 12-15 15-1 2 15 1 15 1l15-2 32-1 1-9v9l10-3 1 2c6 0 24 2 28 0l1-9h-10l-26-1-30 2-16 2 4-1 13-2 45-3v-4 4h20v-4l1 4c17 3 32 3 48 7h-4l-9-2-35-2v4l-1 5 57 3s17 2 19 0c3-2-7-11-7-11-17-12-22-21-34-33v3l-1-3-2-3-13-14c-6-8-11-25-14-35-5-18-4-19-6-38l-3-13 1 7v16l1 46 1 12v8c1-3 0-7 2-8l2 1v13l4 4c5 10 13 18 23 25l7 5 3 1c-8 0-17-3-26-4l-1 5-1-5-9-1-2 4s-1-5-2-4v4h-1c-2 0 1-3-1-4-1-1-6 1-6 1s-3-2-4-1v7l-1-7h-5c-2 1-1 5-1 4v-4l-28 3-9 1h-2c8-5 17-7 23-15v-5c0-1-1 5 2 4 6-4 6-10 7-16 0-1-1 5 2 5 2 0 4-13 4-15v-5c2 0 0 9 0 9v3c2-1 6-18 6-19v-7l2 3v1l2-6v-17l1 2v4l1-5v7h-1c1 6 2 21 7 25v-4l-1-11s0 3-1 2l-1-33 1-34c1-1-1-9-1-14 0-4 2-14 0-20v7c0 1 0 3-2 2v-12l2 1c1-1-3 2-3 6zm3-10l-2-4 2 4zm91-2l1 2h1l-2-2zm-114 1l5 1c1 3-3 6-3 7-1 1-4 0-3-1 0-1-2-3 1-7zm71 6c0 2-2-1-3-2l3 2zm-54 1v-3l-1 3c-1 1 5-3 1 0zm8 0l1 2 1-3c1 3-2 1-2 1zm-39 4h-2 2zm71-1l3-1c1 1 1 6-3 1zm31 7c0 4-6 0-5-2 1-1 5 2 5 2zm-117 11l4-4c2 0-4 6-4 4zm75-4h2s-2 2-2 0zm-19 2c2-3 5 2 5 2 1-1 1-3 2-2s-8 3-7 0zm19 10v1-1zm-47-169l1-4v-1l1 6c0-3-2-9 0-5 1 1 3-3 3-2l-2 8 2-3v3l6 3s0-2 1-1c0 0 0 4 3 3l1-2c1-2-4-18-4-22h3v-10 2l5-1-3-1-1-8c1-1 1 1 2 2l2 4c2 3 1 12 0 16 0 2 0-10-1-7l-1 22c1 2 1-10 1-7v12l1-2v-29c1-2 1 3 1 5v-10c0-2 13 4 6 0-6-3 1-3 0-6l1-2v4l1 3c0-5-2-7 1-10h-1l1-3 1 2c3 0 0-3 2-3l2 1v4c1 1 4 2 2 3l-3-1v2c2 0 4-1 4 1 2 3-1 5-1 8l3 15 3-2 2-3v-14l1 4-1 10 1 5v-6c1-1 1 2 1 2l1-2h-2l3-4v2l2 6h3c-2 2-10 6-11 9-1 6 2 15 1 22v-8c0-1 0-3-1-2v7l-1-5c0-2 1-11-2-12v3l-1 18c0 3 3 8-1 8-1-1 1-5-1-5s-2 10-2 13v29c1-2 1 6 1 5 4-12 7-22 4-35l-1 2v5c-1 1 1-5-1-5-1 0-2 6-3 5-2-11 14-27 22-31 3-1 5 1 3 2h-3l3 2c1-1 1-12 5-6 2 2-4 7-4 7l-14 12c-1 3 2 13-1 16v-15c0-1 0 0 0 0l-3 4v18c5-4 6-10 10-15l3-4 1-1c-4 9-10 16-12 25-1 9 6 23 0 32v-8l-1-15v-5c-4 8 0 17-1 26l-1-1 2 14v-7h2v11l-2-4 1 4-1 3c-1-6 1-14-2-18v3l-2 9-3-1h-2c0-6 2-11 1-16v-1c-2 0-1 9-1 10v3l-1 4h-1c0-7 3-21 1-26v2l-1 9-2 18c2 3 3-5 3-1v2h-1l-2 3v-4c0-3-2-6-3-8 0-1 0-4-1-3l-1 10-1-8-1-11c0-13-3-26-2-38 2-13 5-22 8-32v-10l-8 4c-2 1-5 0-7 2-3 3 2 14 1 18v41c1 6 4 15 3 23-1 6 8 8 7 14l-1 2c-1 0 0 8-7 8v-6l6-2c1-3-7-4-8-5 0-3 3-7 2-9 0-2-2-4-3-5v14-7c-1-2-1 2-3 4v-14c0-7-7-20-13-24-2-1 0 3 0 4 0 3-1 6 1 9v-2c0 8 3 17 3 26h-3c-2-3-4-7-9-7l-1 3c-2 0 1-3 1-4 0-3 2-2 3-3v-6c-1-1-1 1-1 1l-3-3-3 1v-3l1 2 2-2c2-5-10-9-6-13h7s-3 4 0 4c2 0 5-4 6-3 1 0 0 5 1 4 1-3-1-6 1-8l3-1-1-4-2-2c-2-1-2-7-3-5-3 1 1 1 1 3-1 1-4 3 0 5 1 0 1-4 3-2l-2 4v1l-9-10-1-1h3l-4-1c-3-3 2-8 5-6 1 0-3 3 0 4 0 0 2-3 5-2 2 1 5 8 8 10l3 5c1 1 2 6 3 5 1-3-1-6-1-9v-28l1 4v-4c1-2-1-6-2-8-2-2-3-6-6-7-2-1-1 5-1 4l-1-10-1-3v-1l1 8-5-5c-4-2-2-3 4-3zm2-6v-2l3-2c-3-1-4 2-5 2-2 0-2-2-4-1-2 0 1 2-2 2h-1c-1-1 3-6 0-4s6 5 9 5zm5-14h2c1-2-3-1-1-3h2l-2-3c-1-4 2-3 3-3l-2 27v4c-2-3-2-20-2-22zm8-7v-2c-3 0-1 2 0 2zm6-20c1-2 1 4 1 4 2 1 4 5 3 9 0 1-4 3-5 2 0-1-1-11 1-15zm6-2v2c2 0 1 1 2 2s2 4 0 5l-3-1s1 0 0 0c-2 1 1-8 1-8zm29 14c-1 0-1 4-2 3l2-3zm2 1c-1 0 5-1 5 1l2 6-5 1-2-7c0-2 0 0 0 0 2-1 4-1 0-1zm-1 32c3 2-1 4-2 3l-1-9c2-1 3 5 3 6zm3 31l1 16c0 2 2-5 4-6s7 3 7 4c1 1-2 2-2 2l3 1c-11 15-17 24-12 43l5 14-3-1c-3-1-1-2-3-3-2-2 0 2-3 2v-2l-2-1v-1 2l-2-3 1 8s0-7 1-5c2 1 2 7-1 7l-2-4-1 1 1-2-3-8c-1-2-2 10-2 10 4 0 1-5 1-8v-25c1-1 1 4 1 3 4-7 4-13 4-19v-7l1-2v14l1-2v-3c0-4 1-4 2-7v4l1-5v-23 2l2 4zm-25 81c1 0 0 4-1 3-1-3 2-6 2-6 0-5-1 2-1 3zm-1-1c2 0 1-3 0-4l-4-1c-2 0-1-3-3-3-2 1 7 7 7 8zm-18-18v3c1 2-2 0 0-3zm-9 14l-1 3c-1-4 1-4 1-3zm5-8s0 1 0 0c0-4-5-4-6 0-1 1 1 1 1 2l1 3 4-5zm-29-3c4-2 5 2 6 2v-7c0 1-2 5 0 4h1c1 2-1 4-1 5v4c-1 0-7-7-6-8zm-1-3l-2 3 2-6 1 1v-4h4c0 1-3 1-3 3 0 1 3 0 4 2 1 4-5 0-6 1zm10-31h-9v-2l4 1c0-1 1-3 3-3l1-3 1 7zm5-28c1-1-5-8-5-7-2 1 1 8 5 7zm0-1l-3-4c-1-1 2-5 2-5l-4-1-1-2v3l-1 3 2 1v3c-4 2-3-7-5-9l1 2-1 4h-2c-1-3 2-5 2-7l-3-1 4-2v-5c1-2 8 8 9 9l2 2c2-2-2-11 0-14 1-1 2 3 2 5l-1 9 2 6v2h4v11l1 2c-2 0-2-3-4-4l-2-5c-1-1-1 1-1 1l-3-4zm-9 2l2-3s-3 1-2 3zm0-27c0-2-1 4 1 5v-8c-2-3-2 4-5 1v-8c-2 2-3 10-1 13l5-3zm88 59l-1-2 1 2zm-3 8v-3c1-1 3 1 3-1v-1c-1-1-4 4-3 5zm-7 15v-7c1-1 1 1 1 2v10l-1-5zm-15 12v-1 1zm-15-127l-1 1c0-1 1-9-4-7l4 2c1 2-2 8 1 9v-5zm-29 51v7-7zm1-105l2 2v-10l-1-4v-1l-2 20 1-7zm-26 138v1-1zM81 218v-13l-3 1 2 6 1 6zm14 9v3h-2v3l10-3v-5c4-1-1 6 1 3 3-2 10-1 14-1l-1-2v-6l-6 1-1 2v-1c-3-1-12 4-15 6zm-17-5l-1-5v-2c-2 4 1 9 1 7zm6 14v2l9-6v-2c-1-2-9 5-9 6zm20-4l-1 5c-2-1 1-6 0-5-7 1-13 3-19 6l1 2s-3 1-2 3l1 1 1 3c4 0 1-6 5-4 5 3-1 4 0 4l2 2v-2l2 1 14-6v-4h-4c-1-2 3-3 4-3 1-2 1 7 1 7l13-3 1-2 2 2 18 1c7 2 14 5 21 10 2 2 7 8 7 6l-7-10a64 64 0 00-44-15c-1 0 0 3-1 2l-1-2h-5v6h-2c-1-1 3-6 2-6-1-1-9 1-9 1zm-21 5c0 2 0-4-2-2-1 1 2 2 2 2zm-2 4c-3 0-8 5-8 7-1 3 1 5 1 7v4l-1-9 2 1v-4c0-1 1 8 2 7 1-2-1-4-1-5l2-1 2 9c0 1-5 1-4 2h4l1 1v-5c0-5 3-12 2-16l-2 2zm-4 15l1 2c0-3 0-3-1-2zm-13-14v-7l-1-20-1 3c0 1 1 8-1 9s-2-10-2-10l-1 1-1 6v-5l-1 4 1 7c1 3 2 15 0 18-1 2-2-5-2-7v-20c-1-1-2 2-2 2l-6 7c-4 4-6 5-9 11h1v2l-1 9v-10c-3 1-7 11-8 15l2 1v1l-3-1c-8 22-10 47 1 68 4 6 0-7 1-7l1 6c0 3 0 11 5 12v-6l1-1c5 4-1 7 1 10 1 3 6 3 6 5 0 3 1 6 5 8 2 1-2-5 0-5s0 2 3 2l1-2h1l-1-4v4c-1 1-1-2-1-3v-6l-3-2-1-3c-1 1 1 4-1 4l-2-9c-1 1 0 3 1 4v4c1 2-1 3-2 3v2l-1-10-4-1 1-3 2 2c1 1 1-4 1-5-5-14-9-26-7-41l1-11v-4h2v-2l-2 9c0 1 2 1 2 3l-2-1v5s5 0 2 2l-2-1v15s2-1 2 1v1l-2-1c-1 2 1 6 2 8l1 6 4 9 2 5 2 1 1-6v1l3-1-3-4 3-2v-16 2l-1 6v-3c0-1-3-2-2-4v-4h3c1-2-1-2-1-2-2-1 1-2 1-2h-3v-2l2-10 1-4-3-2v-1h3l5-15-1-2c0-1 4 0 4-2 0-6-3-14 0-19v4l1 12 2-2v-9zm35 3l-4-1 4 1zm-46-6l1 4-1-4zm20 9v-9l-3 2c-2 2-7 6-5 10l2 2c0 1-3 1-1 4 1 1 1-3 1-3l4-2 2-4zm-11 5v14l1-4 2-3c0-2-2 0-2 0l-1-7zm8 6l1-2c1 0-5 2-1 2zm38-3c2 0 1 1 0 2-1 0 3 2 2 3-6 3-3-5-2-5zm-44 4v-2 1h3v-2l-1 2v-2l-2 3zm52 1s-12 4-11 5l3 1h-1l2 7c1 1-1 3 1 3l2-2-3-2h5l-2 1 1 4c3 0 1-5 3-7l1 9 2-2 2 3-2 1h-2l-1-1c0 1 2 4-2 2l-1-1c-1-2 4-4 3-4-3 0-3 3-5 3v-2c-1-1-3 1-2 2s4 0 7 3l1 5-1 1 1-3c1-4 10-8 14-10 4 0 9-3 12-2 1 0 2 4 3 3 1-6-7-14-11-15-5-2-5 0-6 0l-1-2h-12zm-50 1l1 1c0-1-2-4-1-1zm64-1l2 1c-1-2-3-1-2-1zm-83 7s1 13-2 10c-1-1 1-7 1-8-1-2-2 6-2 5v-8l2 2v-12c3 3 1 8 1 11zm65 2c-1-2 4-2 1-3-1-1-4 1-4 1-1-2 1-3 1-3 3-1 13 1 15 3 1 1-3 3-2 5v4l2 1c-3 1-3-1-3-2v-7l-3 1h-7zm-69 5v1c0 1-3 4 0-1zm0 7l2 4c-2 0-2-5-2-4zm4 1l1 8c1 1 0 3-1 5v6l-1-4 1-6v-1c-1-2-2 4-2 3v-11l1 3 1-3zm7 19l2 6 1 4-1-18c-1-1-2 5-2 8zm64-12l1-2 1 3c1-3-3-1-2-1zm-86-3c3 1 2 4 2 6v2l-2 3-3-5c0-1 2-7 3-6zm98 9h-1c0-5 3 0 1 0zm-86 0h1v8s5 1 4 3l-4-1-2 1c-2-1 0-11 1-11zm17 11h2v2s2-5 3-3l-2-2v2c-1 1-3-1 0-2h-3v3zm-9 5v1l-2 2h-2l-1 10v-4s1-11 5-9zm-23-7h2c0 2-2 1-2 0zm-1 21l-1-3c-1 3 1 6 1 8l-1-2v-5l-1-4v3c-6-15-6-34-3-49 3-14 13-27 20-40v-16c0-2-2-6 1-6 2 1 1 13 1 15v5l8-10c1-2 4-6 5-4l1-2 4-1v-6l-1-11v-2c-5 0-14 8-17 11v4c0 1 0-5-1-4l-19 17c-34 40-33 95 1 134 4 6 11 11 18 16h2c1 1 3 9 7 7v-11l1-12-2 1 1-2-6-5c-1 0-1 2-2 1l1-1-1-2v9l-1 2v-9l-3 1c-1-1 2-2 3-3l-3-2-2-5c-2 4 2 8 1 10l-1-1-1 4-1-14h-2v-2h2l-9-14zm28 2l3 1 2 2v-4c-2-1-5 1-5 1zm-10 4c2 0-3-8-1-7 3 2 1 7 1 7zm65 33h-2v-2l2 2zm-57-33v-3 3zm76 4l-2 1 1 4c-3 2 1-6 1-5zm-84 12l-5-3c-1 1 5 5 5 3zm21 0c1 1 3 2 3 0l1-1-4 1zm0 4c3 2 6 0 5-2-2-1-6 1-5 2zm-15 0c-2 1 1 4 2 4v-2c2 0 1-2 2-4v-5 4l-4 3zm-18 1c0-2-3-6-2-8 2-1 2 2 3 3l-1 5zm88 4v6l3 5v-14l-3 3zm-67 3l3 2 1-1 3 1-5-3v2-2c0-1-5-2-2 1zm41-3l-1 5 1 1v-6zm9 4l3-3-3 3zm-12 1l2 1v-9l-2 2h2c0 2-2 3-2 2v-1 5zm-1-5c-1 0-3 4-2 6l2-6zm-28 9l1-1-1 1 10 6v-3l-6-2-1 2 1-2-4-1zm-6-4l1 4-1-4zm22 4v-3h2v-2s1 2 2 1c2-1-8-4-8-5l1 1v5c-2 1-3-3-3-4l1 4h-2c-1 4 7 4 7 3zm9-5l-2-10v4c-1 2 2 8 2 6zm-41 7c-2 3 0-7 1-4l-1 4zm38 5v-2c-3 0-2 3-2 3-1 1-2-1-2-1-1 0 3 2 4 0zm3-1l-2-4 2 4zm-16 2h-5c-1 2 5 1 4 2s2 0 1-2zm44 5l1-5c0-1 1 6-1 5zm23 0c0 1 3 4 4 2l-4-2zm-26 6v-1 1zm-24 8c2-2 2 1 2 1 1 1 0-2 2-1 1 1-7 2-4 0zm6 0l2 1c0 2-6 4-2-1zM53 277l2 4 1 1 1-9 1-1h-4c-1 0 3 2 2 3l-2 2h-1zm8 6l1 16v-6c0-4 2 1 2 1v-11l1-2 1 21 2 7-4-1c-1 1 0 5-1 4l-2-5 1 4 1 7v-1c0-2-2-5 0-5l4 7s0 1 0 0c0 0 3-3 1-4s-1 2-2 1c-3-1 0-3 0-4h-1c2 0 6 5 6 6l-5 1c1 5 15 17 10 22l-1-1-4-6-8-10h-2v-3c0 1 0 12-2 11-1 0 0-2-2-2l2 3c0 1 4-2 4 2l1 3-5 3 2 2c1 0 0-3 4-1 0 0 5 6 6 4v-5c1 1 0 7 2 5l2-2 1 1v-4c4 1 5 6 8 7h3l-2 1c-1 2 0 3 1 4 0 1 0-4 1-3 0 0 3 4 6 3v-1l-1-4 2-1c-4-3-5-3-7-7l-1 2-2-2c-2-1-7-4-8-7l-1-11v-4l1 4 5 6 14 13 1 6v-6l8 4v-1c4 0 9 4 14 4l1-2-7-1c-4-1-12-3-14-6-3-1 0-8-2-11l-1-2c-3 1 0 10 0 12l-2-1v-4l-1-7v10c-1 2-3-1-3-3l1-2-1-10-2-3v15c-1 2-2-2-2-3-2-1-1-3-1-5v-18l-2-9-1-2c-4 9 0 18 0 27 0 2-3-2-3-3-2-2-1-5-1-8l-1 4v-14c0-6-2-13-1-19l1 2c2-7-1-12 2-18 0-2 0-5 3-4v11l1 1 1-14c0-2 1-4 2-3v4l2 14 2-3c0-5-4-15 0-18 3-5 2-1 2 6 0 1 0 6 1 5l1-7-1 1c-1-1 1-2 1-2 0-1-2-3-1-4l1 1-1-3 2-4-9 10v-2c-1 0-2 4-2-1l-1-4h-1v8l2-1c1 1-1 5-2 5v-3l-5 7-2-7 1 2-1 5v4c-3-3 2-13-6-11v1c0 2 3 1 4 2 0 1-4 0-4 2l-1 5c0 5 4 0 5 1 0 1-2 1-2 3h2c-4 0-9-1-11 1-3 1 0 2 0 8zm2 14l-1 2h2v2l-1-4zm3-27l-2-2c-3-1-3 2-3 4h-2l4 1 1-2-1 3 3-4zm7-10v-5 5zm12-11l-3-2 1 6 2-4zm14 6c-1-1 1-3 1-2-4 1-1 3-1 5h-3l5 1-1-2c1-1 2 2 3 1l-4-3zm-3-1l-1-1 1 1zm6 12l-4 4c-4 2-5 6-6 9l-1 3v-7l-1-2 1 10c0 9-4 13-1 24 2 10 9 16 14 24v11l1-2v-5l-1-4 7 7v4l2-3 7 5v-2l1 1c-2-1-7-3-8-6-2-2 1-7 0-9-1-1-1 2-2 3v4c-1 2-1-2-2-3l-5-4c-4-4-8-10-10-16v-7h-1v6c-3-10-4-20 0-29 1-4 2-8 6-11l4-4-1-1s3 1 5-1c0-1-3-1-5 1zm12 27l2-2 1 2c0-2-3 0-3 0zm-3 15c-1 5 2 13 10 19l-1-3 2 2v-5h-2l1-3-1-2v8c-6-2-10-18-6-21l-3 5zm11 20c1 2 5 4 7 4l1-2-2-1-1 2-5-3zm0 1s-2 1-1 2h1l-1 2v2c-3 0-7-11-7-12v4l2 4 2 9 1-3c1 2 1 4 3 5v-2l3 1-3-4-1 3v-3l-2-1s3-3 3-7zm-11 19v1c-4 0 0 0 0-1h-3l3 3h-1c3 0 2-3 1-3zm-16 6c1 3 3-2 3-2s0 4 1 2-9-7-4 0zm-4 0l-2 1 2-1zm-13 0l2-6-2-4c-2 1 0 7 0 9h-2v-4l-3 1c-1 0-1-4-2-2s2 3 3 3v2l2-1v5l2-2v-1zm-11 0l3 5c0 2 1-1 2-1l-1 2c0 1 1 4 2 3l1-7s-2 2-2 0l-5-2zm-2-5c2 1-3-4-3-5 0 0 0 5 3 5zm-9-4c-2 4 3 7 7 6l2-2h-4l-5-4zm-1-4l1 1-1-3v2c-1 1 0-2-1-2l1 2zm12-20h-3c-1 0 4-4 1-4-2 0 2 10 2 4zm-11 0v1c3 1 0-3 0-1zm6-8s-5 2-4 3l4-3zm0-1l-3-1v-2c-1 1 2 3 3 3zm-3-10l2-2-2 2zm0-16c0-1 3-4 0-6-1-1-1 2-1 3l1 3zm53 0l-2 1 2 2v-3zm-5 63l-2-1c-1 1 2 1 2 1zm-12-1c-1 5-1 0-2-1l2 1zm-8-98l4-1h-5c-1 0 0 2 1 1zm-14 56l1 9 1 3c-8-14-10-33-1-47v3l-2 7c-1 4-5 17 0 17 2 0 0 6 1 8zm-20 21h-3c-1 2 3 8 3 7v-7zm313-21l-2-4s-1 3-1 0 6 3 3 4zm48-5v-8c-3-4-3 11-3 11v4l3-7zm-6 3h1l1 1-2-1zm-119 26l-2-2 2 2zm77-8l-2-1c1-1 2 1 2 1zm-24 21l-1 1c0-1 0-4 3-4 4 0 0 4-2 3zm61-18h-2v-2s-4 0-2-1l3-3c-5 0-6 7-8 11l-13 15-8 5c-1 2 4-1 5-2l6-3c6-3 16-13 19-20zm34 1c-2 0 0-2 0-4h-1c-3 0 1 1 1 1l-2 1 1 1c0-3 4 3 1 1zm-68 29l-4-1 3-1-1-1-5 4 1 3c2 1 0-3 1-3 4 2 5 2 5-1zm96-29h-3v-8 3c0 3 3 5 3 5zm-64-14l-2 3c0 1-3 3-2 5 2 2 4-6 4-8zm8 4l-6 9h3l2-2c2-3 2-11 1-7zm-22 10c-3 1-1-1-1-2 0 0 0 2-1 1l2 1zm7-44c1 1 1 5 3 5 4-2-3-5-3-5zm-1 2v-1l-1 1v-2l1 2zm-142-83l-1 2v5l-1 2 1-2c1-1 3-5 1-7zm-1-8l1-1c0-5-3 0-1 1zm1 74v-6s0-2-1-1l1 7zm-19-42l3 28v11l1 3v-1l1 2c0-11-3-46-5-43zm15-118V97c-1-2-7 4-7 2l7-4v-9l-1 6c-1-4-1-14 1-19v1c2 0 2-4 0-5-1-1-5-3-6-1-1 4 3 11 1 16l-1-2-1-3V68l-2 2v4l-1-5h-2c-3 12 10 41 12 38zm-11-50l1 3v-3l1 3v8c3-8-1-16-1-22 0-1-3-5-5-4v9-9l-6-1v25c-1 2-3 6-1 8l1-1c1-1 2-2 1-3 0-1 0 0 0 0l1-18v-5c1-1 1-3 2-2v25l-1-1v3l3-2V55v9c3-2 4-7 4-7zm11-16c2 0 1-4 0-5l-5-1h5v-7c1-1 1 3 1 2l1-6h-14c-1 1 10 17 12 17zm-12-26h-3l-1 5v-5l-4 1h-1v8s0 3 1 2v-4l1 4c0 1 1-3 3-3v2l4-1v-9c0 1 0 2 0 0zm0-15h-7v13h3V7c1-1 0 6 1 6h3V0zm-15 41h6V30v3l1 8v-2l1-4c0-2-10 0-8 6zm3 67v8l2 1c2-7 2-19 1-26-1-3 0-7 1-10l2-4v-3c-8 1-6 30-6 34zM122 346c-1-1-2-2-3-1v1h3zm79-194c1-6-2-12-5-18l-2-3-1-3c-3 10 1 24 7 33l1-9zm7-13l1-5-1 5zm22 115v-3c-3 0-1 21-1 8l1-5zm2-39v-5 7l2 5 1 2c2-5-4-12-3-9zm-2-99c0 2 0 5 1 4l-1-4zm2-14c0 1 2 4 3 3V90c-1-1-3 3-3 4-2 2-1 7 0 8zm-3-6V86l1-12c-3 0-1 5-1 8 0 4-2 14 0 14zm3-10v-4 4zm-3-52l1-3c0-2-3-1-1 3zm-8 75l1 6c0-9 3-26 0-34l-6 8c-5 7-2 21 5 26v-6zm1 204v12c-1 2-1-2-1-3l1-9zm-1-17v10-10zm-125 6v-4 4zm-4-98c-1-2-2 2-3 3-3 2-7 9 0 10h9v-16c-2-2-5 0-5 2-1 4 0 3-1 1zm-7 96v-2 2zm-3-87h2c0-3-3-3-2 0zm-2 93l-2-4 2 4zm19-8l-1-4 1 4zm11-77l1-3c0-2-2 1-1 3zM277 5v2l-1-2-7-2 2 12 7 2c2-1 0-13-1-12zm-12-3l1 9 2 3h1c2-3-3-13-4-12zm-1 0h-4v11c2 1 4 1 4-1V2zm-7 23c-1 1 2 13 5 14l4 2c3-3-8-16-9-16zm5 47v7c1 1 1-2 1-4l-1-3zm-2-10s-1 3-2 2l-1-7c0-1-1-4-2-3l1 23c1 2-1 7 1 7s1-3 1-4v-8l1-6 1 11V62zm6-9c2 0 1-4 0-5 0-1-6-6-8-6l8 11zm-7-15c-2-2-9-2-12-3l2 2 5 2v-1l1 3 2-1v2c1 1 2-4 2-4zm-3-23l-7-1v10l6 1 1-8 1 8-1-10zm-1-6l-1-1-1 3V6l-2-6-1 3-1-3v12l7 1c2-2 0-4-1-4zm-5 61l3 4c2-5 4-16 1-21l-1-2c-6-3-3 17-3 19zm-1-13l-1-2-1 12 2 3V57zm1 55c1 0 5-6 3-7-5-3-6 7-6 9 1 1 3-3 3-2zm8-6v-5l1-1v5c1-3 3-20 1-22l-3 6c-2 4-7 10-4 15 1 1 5-3 5-1s-4 5-5 7v3l1-2s4-3 4-5zm-7-12l2-1-2 1zm0-5l-2 4-2 2c1 1 6-6 4-6zm2-15v8l-3-5c0 4 4 1 3-3zm1-27v5l1 2c1-1 0-8-1-7zm-1 230l1-2c0-2-1-5 1-6v2c2-2-2 5-2 6zm-5 172c0-1 0-4-1-3v11l2 4c1-3 0-11-1-12zm-1 22c-1 1 2 6 2 4 1-3 1-6-2-4zm-1 13l-1-7h-11l-4 1h-1c6-8 9-14 11-24v-2c1-1 1 5 1 5 0 3 0 9 4 12v-1l1-5 1 7c1-8 0-15-5-22v2l-1-7c0-1 0-4-1-3l-3 13-7 12-1 5v-3c-2 0-2 2-2 3-2 3-1 9-2 10-3 2 0-6-2-6l-7 8v4c-2 1 0-3-2-3l-3 3-1 1c7 1 19 0 26-2v-3c1 0 3 6 5 3v-5 5h6l1-1c5 3 5-4 2-7h-1c-3 0-2 8-3 7zm59-364v10c-1-2-2-10 0-10zm-5-69v-1 1zm-16-16l-1-1 1 11 1 4c1-5 1-14-1-14zm-9 12c-1-1-7-6-9-6v5c0 4 5 6 7 9 2 2 2 7 5 7V50c0-1-2-4-3-3zm-1 30v15c0 2-1 8-2 6-3-10 0-10 0-10l2-11zm-12 113l1-1v-4l-1 5zm4-89c1-1 1 2 1 2v8l-1-10zm-3-7V82l-1 4 1 8zm-60 384v-1c-9 6-16 13-26 17l3-1 5-4c8-5 10-8 18-15v-2 1l2-3 8-8 12-20 1-7v-2s0 3 1 2c3-7 4-16 5-24v10c-3 7-3 15-5 21l-13 22v6c-1 2 0-5-1-4-6 4-10 13-10 12zm13-23c-3-2 1-11 1-11 0 3 0 12-1 11zm11-3v2c0 3-2-2 0-2zm0-17l-1 2 1-2zm28 36c-1-1 0-5-1-4v15l-1 3 10 1c1-2-1-5 1-6v6l4 1h4c-1-3-10-13-15-15v2c0 2-1-3-2-3zm-2-38c1-1 1 3 1 4l-1-4zm1 34l-1-3v-2l-4-9 5 14zm-18-44v-4 4zm1 17s0 2-1 1l1-1zm25-176v-3c-3 3 0 5 0 3zm-2 34v-5 7h-3l1-7h1l1 5zm4-17v-4 4zm11-34l2 7c1-4-2-8-2-7zm170 10v8l-1 3 1-11zm-4 28v-2c1-2-4-3 0 2zm3 30c1-1 2 2 2 3 0 2-5 0-2-3zm5 11c-2 1-1-3-1-5v-11l1-8h1c1 7 1 24-1 24zm9-72c0-1 0-4 1-3 3 2 3 12 0 13l-1-10zM58 281v-2 2zm-10-23v-2c-1-2 2-2 0 2zM245 0l-1 6c0 2-3 6 0 6 2 0 1-4 1-6V0zm4 245v-4c0-2 0-6-1-4v10c0 7-2 13-3 19s0 7 1 12l1 5c3-9 2-32 2-38zm9-241c0-1 0-4-1-3l1 3zM65 195h-2v9c1 1 2-8 2-9zm5 22l-2-6v4l-1-3v9c4-10 0 5 3 10v-14zm0-19v-6c-3-1-3 4-3 4 0 6-2 10 0 16l1-4 2 3v-13zm181 0v3c4-1 4-4 5-6 3-3 8-10 4-14 0-2-2 2-3 4s-6 10-6 13zm2-85l-3 3 3-3zm-34-69c0 1 0 4 1 3 2-5-2-4-1-3zm-37 29c2 7 8 14 17 11l3-3c0-1-3-4-4-3l-2 2c-2-3-4-11-4-14-1-4 0-9 3-13l4-3v-2c-6 1-19 19-17 25zM77 208v-1c-2-1-6 3-7 4l2-2-2 2c3 0 7-2 7-3zm162 196v2c0 1 2 0 0-2zm-3-366c-1 1 0 5 1 6 3 2 8-8-1-6zm-14 43l3-7-3 7zm9 173c-1 4-1 14 1 18l3 4v2c2-8-4-25-4-24zm-8-58l-1-3 1 3zM118 331l1 1v5c-1 1-2-5-1-6zM263 65s0 7 1 6c5-5-2-7-1-6zm-9-18v-1c0-3-3 1 0 1zm-8 430h1c2-3-2 0-1 0zm10-435l-1-1c0 1 3 1 1 1zm-40 435l-2 1 2-1zm9-11c-2-1-2 1-2 2l2-2zm1-299v3l1 2-1-5zm20-15c-1-5-4 5-1 4l1-4z"/></svg>
