<svg viewBox="0 0 422.3 512" xmlns="http://www.w3.org/2000/svg"><path d="M0 256l4-3-1 6-1-1s0-1 0 0l-2-2zm7-5l4-3-1 15-1-1-2-11zm314-78v-1 1zm-1-4l1 1h-1v-1zm102 87c-1 1-56 36-112 98l1-12-1-6v-15c-1-10-2-9-3 11l1 25c-42 45-75 97-97 155-36-92-99-162-147-205v-6h-1v5l-26-23-3-18c0-8 0-11-1-9v9h1v16l-7-5 1-3v-15h-1l-1 13c0-3 0-3-1 0v3l-3-2v-5c-1 1-1-3-2-2v6l-4-3v-8c-1-1-2 2-2 6l-1-1v-7c-2 1-1-1-1-11 0 10 1 14 2 18 1 1 0-12 1-13 1 3 3 0 3-9l1 4v-5l10-7h1v-1l4-3v15l-16 9h8l13-8v5-5c28-19 92-68 129-129-35 49-78 87-110 111v-5h-1v5l-21 15v-15l4-3v4h1v-5l24-20 1 4v-6C115 159 178 89 211 0c15 37 33 72 56 104l11 15v9h1v-8l9 12 2 3 1 23s1 1 2-4v6l1-13-1-9 3 4v1h1l-2 17v1l1 12-5-5v-1h-1l-4-5v-1s1 0 0 0v-3h-1v3c0-7 0-13-1-12l-1 9-12-15v6-6l11 17c0 11 2 11 1 1l2 3v5c1 1 1-1 1-4l10 11v18-2h-1v1l-3-3v-13c-1-3-1 7-2 5v6l-12-14v-7h1c0 6 0 9 1 8v-11s-1 0 0 0l-1-2h-2l-2 1v2l1 1h1v6l-3-3v-5h-1v4l-2-3v-7h-1v6c-23-28-44-61-59-100-33 78-89 145-159 192 2 1 111 70 159 192 16-43 41-80 66-109v5h1v-6l5-6v19c1 1 1-15 1-19l6-8v5h1v-5l1-1v2h1v-3l12-12v32c1 0 2-2 2-8v-26l3-3c0 7 0 15 1 14l-1-15c32-30 59-47 60-48-1 0-14-8-32-23v-4c0-5-1-1-1-2v5l-21-18v-5 4l-5-4v-4h-1v3l-4-4v-3h-1v2l-2-2-1-1-1-1-2-2 1-13v-4l3 4 3 8v-5l11 10h-1v1h2l9 8 1 1h1l10 8h-1v1h-2l-1 1v2l1 1h1s0-1 0 0l1-1v-2l2-1 10 8v9c1 1 1-5 2-2v-6c24 18 43 30 43 30h7c-21-13-42-27-62-43-1 0 0 0 0 0v-2l-2-1-1 1-6-4v-2h-1l1 1h-1v-1h1l-1-1h-2l-10-9v-8h-1v7l-7-6 1-1v-1h-3l-2-2 1-12v-2 15l2-9h1l1-1-1-1c0-3 1-4 1 0v-14l1 1 2 2-2 6 1 1-1 1v7l1-6h1v4h1v-4-2l1-1-1-1-1-5 1 1 2 2v2-1l1 16 2 1c0 8 1 14 2 14v-26l2 2 1 1 1 16v-12h1l1-1 1 1c0 5 1 6 1 1 49 50 91 76 92 77zm-145-83zm43 4v4h-1l1-4zm6-2v1-1zm-23 5l-2-2c1 1 1 0 2-7v9zm-3-1v1l-2-2-2-2v-3l5 5-1 1zm-1 18l1 13-2-5c-1 1-1-5-2-11l3 3zm1 13l1 2h1v4l1 6v3l-1 1 1 2-3-3v-15zm0 17v4c0 9-1 8-2 6v1l-1-1v-1l1-1v-4l-1-1v3h-1l1-3h-1v-1l1 1-1-1a217 217 0 012-4h2v2zm-1 22l4-1-1 25h-3l-1-1v1h-1v-6h-1v6l-5-2-1-16v-1h2l2-1h1l1-1s0 1 0 0v-1l2-1v-1l1 1v-1zm-10 22l-6-4c3-1 4-5 4-5l-6-2v-12l-1-2v13c-11-5-9-14-3-17l1 15v-16l3-1h1c2 0 5 0 6 3l-2 2v-1l-1 1-1 3 1 2 2 2 1 1h1v3h-1l1 1v14zm9-25h-2v-9l2 9zm-2-22l-4-1 1-1h1-1l2-7v7h1v-4h1v-1h-1v-11l2 1v17c-1-2-1-6-2-4v4zM34 247v-1 1zm-6-6h-1v9c1 1 1-2 1-9zm1 21v7zm10-17v2zm1 13v9h1l-1-9zm4-4h-1v6h1zm1 11h-1v6h1zm6 12h-1v7h1zm7-45l-1-3h1zm3 54h-1v6h1zm0-45h-1v9l1-9zm2 43h-1v11h1zm4-13c0-3 0-2-1-2 0 8 2 9 1 2zm1-62c-1 10 0 12 1 11 0-10 0-12-1-11zm202-55v-9h-1l1 9zm-5 103v-9 9zm-3-142h-1c0 8 0 10 1 9zm3 191v-3h1l-1 3zm0-23l-4-2c-6-2-11-4-14-1l-1 1c-6-12-20 18-3 29-9-2-22-7-33-15-15-12-38-25-57-23l1-8c-1-19-26-39-46-19l-6 8c3-9 9-19 25-25 13-4 25 0 34 3 7 3 11 4 14 2l1-2c6 13 20-17 4-29 9 3 21 8 32 16 15 12 38 24 57 23v16h1c2 6 7 11 12 15v6h1v-6l4 2c0 5 0 7 1 6v-5h2l8 1c0 7 2 6 2 0l2-1-1 7h-1v1l-5 2c0-4 0-7-1-5v5c-10 3-20 1-28-2v-1h-1v1zm1-44v-6zm1-45h-1v-3l1-1zm-1-3c-2 1-4 3-5 6l-2 1 4-17h1l1-8 3 17h-1v-4l-1 5zm2-59h-1v7h1zm0 24h1v-7h-1zm2 101l-1-2v-5h1zm0-37h-1v-6h1zm1-51c-1 1-1-2-1-5l1 1zm0-26zm21 51s0 6-1 5l-1-11 2 2v4zm-1 13v7h-1v-7zm-2-30c0-3 0-2-1-2 0 7 1 9 1 5l1-1h-1v-2zm-5-40h1v-7h-1zm-2 21h1v3l-1-1v-2zm1 58v-3 3zm0-3c-2-3-6-6-13-8-2-1-4-5-3-9 1-3 6-5 10-4l1 7v-6l4 1 4 3-1 12c1 0 2 6 2 13l-5 7v-1c1-2 3-6 2-10h1v-1l-1 1-1-4v-7zm-1-74v-7zm-1 40v-1l1 1v9l-1-1 1-1h-1v-7zm0-8v-9 2h-1v1h1v6zm-2-30h1v-11h-1zm-2 36v-4l1 1c0 3 0 4-1 3zm0-36v-7zm-3 128l-1 11c0 2 0-4 1-2zm0-98h-1v-3l1 1zm0-32v6zm1 83v13-13zm1 122h-1v13l1-13zm0-21v-5h1c0 5 0 6-1 5zm0-5c-3 0-5-1-7-3l1 6c-5-1-13-3-15-9l2 1h3l1-1 1-1v-1l-1-2h-1v1h1l-1 1v-1h-1v-1h1l-2-1-3 2v1c0-2 1-4 6-4 8 0 14 4 23 3v5l1-5v3h1v-3l9-3v5l-4 3c-3 2-9 4-14 4v-4h-1zm1 20h1l-1 1zm1-6h-1v-7h1zm0-26h-1v-2h1zm-1-2l-11-1v-18c8 3 17 5 28 2v1c0 4 0 7 1 5v-6l4-2v6h1v-6 4h1v-4l1-1v8c-5 6-13 10-21 11 0-4 0-8-1-6v7h-2v-5h-1zm0-73h1v10l-1 1v-11zm0-45c1-2 1 2 1 7l-1-1v-6zm4 81l-1-8 1 1v7zm-1 41v-4l1-1c0 4 0 7-1 5zm2-36l1-3v3h-1zm1 60h1-1zm2-26v3h-1l1-3zm0-144l-1 1v-3l1 1v1zm0 142c1-1 1 1 1 5h-1zm1-71l1-11 2-5-1 13-1 1h1l-2 2zm1 39h1v3l-1-1v-2zm0 47c1-2 1-3 2-2v8h-2zm2 17c0-5-1-1-1-2-1 8 1 9 1 2zm0 28v6zm1-41h1v1h-1zm1-84v4-4zm-1-19c0-3 1-3 2 0v8l-1 1h-1v-9zm2 99h1v3l-1 1zm0-77l-1-2 1-1h1l2-1v6l-1-1c0 1 0 0 0 0h-2v-1zm14-26c-1 3-1-7-1-13l1 1zm-3-19v-7zm-3 70v-8 8zm-3 7h-1v-1h1zm-2-45zm0-24v-1l1 1h-1zm1 0zm-1-2v-10l1 1-1 9zm-1-43h1c0-9-1-10-1-6zm1 144l1 2h-1v-2zm1 13c-1 2-1-2-1-6l1-1v7zm0 36h-1v13c1 3 1-8 1-13zm1-32v6zm1 0v6zm1-37h1v1h-1zm1 67v11zm1-37v7zm0-102v-13 13zm3 122h-1c0 9 0 22 1 21v-21zm0-32l-1 2v-1l3-3 1 8-2 2-1-8zm-1-56v-18l1 1-1 17zm0-32h1v2l-2-4v-12l1 1v13zm2 77l5-2c5-2 5 1 4 3l-6 6v-1 1l-2 2-1-3v-6zm2-47c2-3 2-8-2-14l-1-1v-1l2-1-1-2v1h-1v-1h1-1v-9l6 9v1l1-1 1 2c7 12 11 24 4 35-3 6-7 9-11 10l2-9 1-1h1l1-1v-1l1-2-2-3-1-1h-1l-1 1h-1v-8l1-1v2h1v-4zm0-7v7l-1 2 1-9zm1 67v-6zm2-86v-10l1 1 1 18c-1-5-1-10-2-9zm1 24v-9h-1c0 7 0 10 1 9zm-1 62c0-1 0 0 0 0zm2 0c-1-1-1 2-1 8h1zm1 32h-1v6h1zm3-120v-3 1zm2-22c-1 1-1 1-1-1l1 1zm0 73h-1l1-1zm-1 0c-2 5-6 9-12 13v-6c5-2 9-5 12-9v2zm0-6h1v3l-1 1zm1-17h-1c0 8 0 9 1 8zm1-41h-1v9l1-9zm2 99h-1v8c1 1 1-2 1-8zm-1-13v-5l1-15 1-1v1c1 15-1 25-2 20zm1-20l-6 4c8-10 9-21 9-25v-1l5 18-7 3-1-1v2zm2 28zm3-51h1v-11h-1zm-1 15c0-3 0-2-1-2 0 8 1 9 1 2zm0 49zm2-30c-1 1-1-1-1-11 1-1 1 2 1 11zm9 26h-1v6h1zm3-30h-1v-7h1zm11-56c1 1 1 4 2 2v3l-2-1zm-41-53v-10l1 1-1 9zM211 28s-19 51-43 88c0 0 35-55 43-79zm80 211c-3-4-8-3-8-3l4-1 1 2h1l1 1h1v1zm8 6l-1-7c3 3 3 7 3 7h-2zm-18-15l1-1v11h-1c-1-14 1-17 1-12l-1 2zm0-40l-1-1-2-6 2 3v1h1v3zm1 0v-2 2zm-5-1h-6l4-7zm-3-10l-4 9-3-16h1l-1-2 7 9zm-19 33l1-7h1v-1l3-4c-1 4 0 9 2 14 9 25-26 19-28 9 4 4 7 5 10 5l4-1c5-2 8-9 7-15zm9-43l-6 26-3-24c2-2 5-5 9-2zm-7 31l-2 3h-1v1l-1 8c1 6-2 11-6 13l4-26h1l1-1-1-1h-1l1-8h1v-1h-1l2-9v-1zm-4-29l-7 45-2-61c3 7 6 13 9 16zm-9 55c-3 0-6-2-10-6l2-2-2-2 8-55zm-2-76l-9 56-2-50c4-8 4-16 3-25l8 19zm-88 40h-1c11 0 30 0 45 4 1 0 14 7 25 21l-3 1c-11 3-26-24-66-26zm21 37l-2 5c-1 1-6 0-11-2-9-4-22-9-36-4l-15 9 4-6c10-25 54-28 60-2zm44-19l-6-6 3-5zm-2-14l6-4-3 15zm-6 6l-7-5h11zm10 9h1l8-45 1 52-5-1-5-6zm4-31c-1-3-3-6-6-8 3-2 7-5 9-9zm-71-6c14-18 28-37 40-58 4-6 15-18 27-4l7 11c5 12 6 24 2 33h-1v2c-4 9-13 15-23 17l-35 5c16-4 40-6 46-31 2-10-2-25-8-27-10-4-25 11-27 28-5 28 32 7 18-5 0 0 4-5 8-2s1 22-16 29c-18 7-15-9-15-9s-9 3-8 13c0 0-22 13-15-3zm10 14c7-1 8-4 5-5l48-10c5 3 8 10 6 15-3 7-12 9-24 6-19-5-42-4-52-4l17-2zm-55 32l19-18c5-4 19-9 25-2l-1-6c6 1 14 3 15 11 0 1-1 3-6 3-11 0-18-6-35 1 0 0-5 15-14 17-5 2-4-2-3-6zm-46 38l11-2-3 8-8-6zm10 7l2-7 4 12-6-5zm4-9l10-3-6 18zm6 17l5-18 3 25-8-7zm11 9l4-18v2c-1 9 0 17 1 20l-5-4zm-1-5l-3-25 10-5zm9-32l5-3-6 9zm216 23v-2l3-5-3 7zm-126 83l-2-52 6 1 4 5zm5-15c1 4 3 7 6 9-3 2-7 5-9 9zm5-26l2 11-5 4zm1-3l6 6-3 5zm8 7l7 6h-11zm-12-14l3-1c11-3 26 23 66 26h1c-11 0-30 0-45-4-1 0-14-8-25-21zm106-10v-6l6-4-4 6-2 4zm-40-3v18c-9-2-16-8-18-17 0-3 1-4 2-5s6 0 11 2l5 2zm-98 16c0 6-2 10-5 12 1-4 1-9-2-15-9-25 26-18 29-8-7-6-11-5-14-4-6 2-9 9-8 15zm-39-6c-2 5-2 10-1 14-15-19-32-40-21-58 13-22 33-5 33-5-3 1-4 5-4 5 31 8 5 31-1 18-7-12-29-3-17 14 4 4 8 6 13 6l-2 6zm-7-27s7-4 9 3 9 6 9 6c-16 6-18-9-18-9zm20 15s-13 19 12 25c1 1 4 5 2 8-1 5-11 7-17 1-7-6-9-23 3-34zm-3 39l4 1 2 5-6-6zm6 2h7l-4 8zm4 10l4-8 3 15-7-7zm6-11c3-1 6-4 7-7l1-1-6 25zm4 21l6-25 3 23c-2 2-5 5-9 2zm7-31c2-2 4-6 4-12-1-6 2-11 6-13l-7 48zm4 28l7-44 2 60-9-16zm8-54c4 0 7 2 11 5l-2 3 3 1h-1l-8 56zm3 75l9-55 1 51c-2 7-3 15-2 23l-8-19zm89-23c-16 19-31 40-44 63-5 7-14 13-24 1l-7-11c-5-12-6-24-2-33h1v-2c5-9 13-15 23-17l35-6c-16 5-40 7-46 32-2 10 2 25 8 27 10 4 25-11 27-28 5-29-32-7-17 5 0 0-5 4-9 1s-1-21 16-28c18-7 15 9 15 9s9-3 8-13c0 0 20-12 16 0zm-11-12c-7 1-8 4-5 5l-48 10c-5-3-8-10-6-15 1-3 3-5 6-6 5-2 11-2 18 0 19 5 42 4 52 3l-17 3zm44-33l1 9-7 7v-4s2-7 6-12zm23-53l-2-13 9 8-2 24-2-8h1c-1 0 0 0 0 0h-1l-3-11zm7 22l2-23 5 21-7 2zm4-24l9 7-4 13zm6 21l4-11 3 9-7 2zm16-3l-7 1-3-10 11 8-1 1zm-52-74v4l-3-3v-4l3 3zm-7 62v4h-1v-3l1-1zm-34 40v-2h1l-1 2zm21-123v3l-1-1v-3l1 1zm-4 28v4l-1-2v-2h1zm4 7v-7h2v-1l-1-1v-4l1 2 1 18-3-7zm3 20zm2 54l-1 4-1-4h2zm10 11v3h-1v-2l1-1zm-6-67v-10 10zm0 70v2h-1v-2h1zm4-12l1 3h-2v-3h1zm3 21v-2l3-4v3l-3 3zm0-10v-2l3-2v2l-3 2zm0-9v-2l3-1v2l-3 1zm36-42zm-51 77h-1 1zm15-13s-1 0 0 0c0 0 0-1 0 0zm-22 16h1v-2l-1 1v1zm42-45l1-1h-1zm-39 30zm-19 11h-1l1 1zm32-29v-1h-1v1h1zm-11 4s1 0 0 0c0 0 0 1 0 0zm59-51h2v-1h-1l-1 1zm-15 11v-1 1zm12-11l-1 1h1l1-1h-1zm-24 10h-2l1 1 1-1zm-56 43v1h1zm8-6l1-1 2-1v-1l-1-1h-1l1 1-1-1h1l-1-1h-2v1l-1 1 2 2v1zm10-9v-1 1zm29-27v1h1v-1h-1zm30-27l-1 1v-1l1-1zm-7 6h-1l1 1v-1zm-35 25h-1v-1zm-2-4zm-25 30l-1-1v1h1zm80-67zm-82 62v1-1zm81-66c-1 0-1 0 0 0h-1 1zm-3 0v1h1v-1h-1zm-8-8h-1l-1 1v2h1c1 0 2-1 1-2v-1h1-1zm-17 15h-1l1 1v-1zm7-11v1h1l1-1v-1h-1l-1 1zm-3-5v-1 1zm-12 2c0-1 0 0 0 0h-2v4s1 0 0 0l1 2h1l1-1 2-1v-3l-1-1v2l-1-1v-1h-1zm-3 6zm-58 48c-1 0-1 0 0 0h-1 1zm80-67v1h1zm-8 2v1h-1l1 1 1 1 1-1-1-2h-1zm-26 23h-1 1zm1-3h1v-1l-1 1zm8-11v-1l-1 1h1zm7-13h-2l1 1zm1-4l-1-1v1h1zm-39 28zm38-36h1v1l-1-1zm-35 30h-1 1zm14-20l1-1h-1v1zm-40 31h-1 1zm34-38v1-1zm-20 12l-1-1v1h1zm14-13zm8-10l-1-1v1h1zm-10 2h1v1l-1-1zm-30 27v-1h-1l1 1zm6-7s0 1 0 0zm26-34h-1v1zm15 83v-1l1-1v1l-1 1zm-43-5h-2l1 1zm57 31l-1 1v-1h-1l1-1 1 1zm-1-1h-1l1-1h1l-1 1zm-53 54z" fill="#b30000"/></svg>
