<svg viewBox="0 0 431.5 512" xmlns="http://www.w3.org/2000/svg"><path d="M58 49c1 5 2 4 2 12l-2 2v-2h-2v3l-1-5h2c1-2-1-2-3-2v12l-1 1h-1v-6h1v-2h-2c0-3 0-5-1-3v8l-1-3V50l1-1h1v-2l2-1v6l-1 1h2v-2h-1v-5l3-3 1 1v-1l1-1v5h-2c0 2 1 3 2 2zm1 0h-1 1zm-12 1l-7 9-1-3 12-12v3l-1 2v-3l-1 3h-2v1zm15-1h2v2c-2 0-2-1-2-2zm-22 1v2h-2l2-2zm28 2l-1-2v2h1zm-7 4v-2 2zm10 0h-1v-1h1v1zm1-1h1c1 2-1 2-1 0zm-28 2h-2v-1h2v1zm2 0v2h-3c0-2 1-2 3-2zm39 3v-2c7-1 13 1 16 6 10 11 0 22-4 25l1-1h-1v-6h-1v6c0-4 0-10-4-13l-5-2h-4v1h-4v-3c-1-4-1-6-2-5v9l-4 2-5 1-1 3v-3h-1v-1l1-2h-1v-6l5-5h2v-1l3-2-1 2h2v-3l1 2v-2l2-1 1 12h1V60h3zm0-3v1h-2l2-1zm-14 1c1 2-2 1-1 0h1zm-8 2h1v-1h-1v1zm13 0h1l-1 1v-1zm-23 2h1v-1h-1v1zm-9 1h-2v-1l2-1v2zm19-2v1h1v-1h-1zm19 1h2v-1h-2v1zm-31 2l-1-1v-1h1l1 2h-1zm19 0c-1-3 1-3 3-2v1l-2 1h-1zm-13 0h-1v-2h1v2zm30-1v1h1l-1-1zm-3 3h2v-2h-1l-1 2zm-25-2c1-4 1-4 1 0v-3l6-6v12l-1 3-3-1v2h2l-1 2v-1h-2l1 2-1 2c0-2 0-3-1-2v-2l-1-5v-3zm-1 2v5l-2-1 1-1v-1h-1v-3l2-2v3zm-16 0h-1v-1h1v1zm12 0v-1h-1c-1 1 0 1 1 1zm-32 1c0-2-1-2-2-2-1 2 1 2 2 2zm39 0v-2 2zm6 0h-1v-1h1v1zm-27 1v5c0 1 1-3 1 2v2h-1l1 2v5h-1v-4l-1 1v-1 5h-1l-2-1-1 1v-3l4-2c-1-1-2-3-4-2 0-1 0-1 0 0v3l-1 2h1l-1 4v9h-1v2c0-2-1-1-1 2v4h-2l1-3h-3V90l1 4v-4l1-3h-1l-1-2 1-9 2-5v10h-2v2h2v3h-1l1 1v9h-1v2h1c0 1 0 2 1 1v-5h2v-4h-1V68l1-2c0 4 0 8 1 7v-3h1v-1h-1v-5l5-5v7l-1 2h1zm11 1h-1v-3l2 2-1 1zm35-2h-1v1h1v-1zm-27 2h-1v-1l1-1v2zm-5 1v-2 2zm0-2v-1l2-2v6l-1 3-1-6zm7 2v-2 2zm-15-1c0 2 0 3-2 3v-3h2zm19 3l-1-1 1-1v2zm-43-2h-1v1h1v-1zm54 0h-2v2l2-2zm-57 0l-2 1v1h2v-2zm21 0h1v2l-1-2zm-11 3v3l-4 9v-1h-1v-2l4-7v1-1l1-3v1zm1-1c1 1 0 1-1 1v-1h1zm42 2l-1-2h-3v1l4 1zm-9 0h-1l1-1v1zm-22-1h1v2l-1-2zm25 1h1v-1h-1v1zm16 2l1-2v-1h1v3h-2zm-55-1h-1v-1h1v1zm36 0h-1v-1h1v1zm10-1v-6 6l-2 1v1c2 0 3 1 3-1l-1-1zm-8 3l1-2v2h-1zm21-2v1h-1c0-1 0-2 1-1zm-37 0l2-3v1l1 1c0 3 0 4 1 1v2l-1 2h1v1l-1-2h-2v4l-1 5v1-2h-3l3-2v-6l-2 1v2h-2l2-3v-2h3l-1-1zm29 0l-1 1 2-2v11c-1-1-2-1-1-3h-1l1-2-1-1 1-2-1 1v-1h1v-2zm-32 1h1v2l-1-2zm38 4l-4 1 1-5 3 1v3zm-43-3v2-2zm2 3v-2h3v2h-3zm-31 0l1-2c-1-1-2 1-1 2zm4-2h-1v7-6h1v-1zm-1 1v-1 1zm62 1l-1 2-1-1c1 1 1 0 1-1h-3l4-2v2zm7-1h1v1h-1v-1zm2 1l-1 2 1-2zm1 2c-1-3 3-3 2 0h-2zm24-1v-1c-1 0-2 0-1 1h1zm-70 2v-2h2c0 1 0 2-2 2zm-9 0h-1 1zm10 1l-1 3v-3h1zm-1 3v1h-1v-1h1zm38-5v-1 1zm21-1h-2v3h2v-3zm-63 1h-1v1h1v-1zm35 1v5-5zm0 0v-1 3h-2l1 3h1v3h-2l1 1h2v-1h-1v-3h2v-2h-2c2 0 1-2 1-3h-1zm21 1h-1v-1h1v1zm-68 2v-1 1zm14 1h-1v-2l1 2zm-4 1l-1-1 1 1zm-25-1v-3H8v3h2zm20 0v-2h-1l1 2zm49-1h4c0 3-2 3-2 4h-1v-3 2l-1-3zm-62 0h-1v2h2l-1-2zm15 0v2l-1-1v-1h1zm-6 1v2h-1v-2h1zm2 3l1-3v3h-1zm11 1l-1-1v-2h2l-1 3zm-1-1v1l-1-1h1zm0 2h-1l1-1v1zm-3-1l1-3-1 3zm60-2v-1h1l-1 1zm-67 0v-1 1zm61-1l3 1c0 2-1 1-3 2v-3zm-6 2v1h-1v-1h1zM9 92h2v-2H9v2zm23 2c-1-2 0-3 1-4v4c-1 0-1-2-1 0zm47-3v1h-1v-1h1zm-57 3v5-5zm0-1v1-1zm0 0l2-5 2 15h-1v3h1v16h-1v2l1-1v3l-1 2v3h2l-2 1v5h2v8h-1v-8 4l-1-1h-2v2h3v4h1v1c1 3 1-8 1-16v-12l2-1v-2c-2 0-2-1-2-2v-3h1c-1-3-1-5 1-7v6h2v9c-3 1-2 6-3 8h1v2h-1v1h1l-1 2v11h-1v-1 6h-1c1 2-2 2-2 4l3 1 1-3-1-1v-3h1v5c2 0 2-1 2-2h-1 1v3h-2v1l2 1v1h-2v-1c-1 0-2 0-1 2v6h1v4c-1-1-1 1-1 3h1v6l-1-1v-1l-1-4v-1l-3-7 1 1v-1l3-1v-3h-3v-5h-1l-1 3h1v5l-2-8v-1l-2-15-1-5c3 0 2-3 0-3v-12l1-1v-8h2V94l1-1h-1zm58 3l2 2h1v6h1l1 1 1-3h-2v1-5c9 3 22-6 24-18 2-10-1-20-10-23h4l1 2v-1c14 4 22 15 29 25 4 8 8 17 10 26-1 9-5 16-9 14-10-4-9-21-9-21-10 3-7 16-7 16-3-5-11-9-16-5v1c-3 2-3 6-3 12v16-10c4 14 18 14 18 14-12-1-12-28 7-24l1 1h-1v1h2v-1c20 5 9 44-14 33l-1-1-9-2-2-2v-1h-1v2l-10 1v-1l-1-3 1-2h-1l-1-4v-4h-2v8h1v-5 1h1v11h-4c2 0 1-2 2-3 1 0 2 0 1-1l-2-1 1-6h-2l2-1c0-2-3 0-2-2 0 0 1 1 1-1l-2-2h-1l1-2 1 1c1-2 0-3-1-3 0-3-2-5-2-5v-9 1l-1-2h1v-5l-1-1 1 1v-3h2v1h1l1-1c-2-1 0-3-1-3v-2l-1-2h1v-1h-1v-1 6c-1 1-2 2-3 1l-1 3v-2l2-2-1-1-1 1v-4h1v-2h-1l-1-2v2h-3c0 2 2 2 2 3 1 1-2 2-2 2 1-2 0-5-1-6l1-4h-2l1-1c1-1-2 0-1-1v-2h-1l-2-4v-2l1-2 1 1v-2l2-2 1 2s0-2 2-1v5c1-1 0 1 1 1v1l-2 1v2l2-2 3 4h-1c-1-2-5-1-5 2 2 0 5-2 5 1h-2c0 2 2 1 3 1l1-2zm0-3v-4 5-1zm0 1l6 2-2 1h-1v1l-4-4 1-1v1zm5-1h1v1h-1v-1zm-60 0h-2v1h2v-1zm14 0v2h-1l1-2zm47 0h1v1h-1v-1zm-51 1l-1 2v-2h1zm69 0h-1v1h1v-1zm-82 1l1 2v-2h-1zm69 1h-1v-1l1 1zm-78 0h-1v-2l-1 10h1v-7h1v-1zm-1 1v-1 1zm88 2c3 0 3-4 0-3v3zm-85-2v2c2 2 2-4 0-2zm59 0h-1v1h1v-1zm35 0l-3 1v2c2 0 2-1 3-3zm-89 0l-1 4v1l-1 9h-2v2h1v9h-1v2h1v8l2 10h-1v1h1l1 5h-1v1h1l2 10v2-1l2 6h-1v1h1l2 5v1h1l1 2v1l-2 4c2 0 1-2 2-1v-1l1 2-1 3v-2 3h-1l-1-3v3l-1 1v-2h-1v8c0 2 1 3 1 1v-1l1-1h-1v-3h1v10c1-2 1 8 1 14l-5-7h1v-4h-1v2l-1-1v-4h-1v3l-6-14 1-18h1v-2h-2v9l-3-1v2l3 1v8l-1-3v-2h-1l-3-9v-1 1c-6-18-9-35-9-45 0-16 3-32 8-46v-1l5-13v9h1v-9l5-11c0 2 0 3 1 1v-2l3-5v7c1 3 1-2 1-10l1-1-1 23v14l-4 15zm8 87v-1 1zm-6-87v1l-2 1v-2h2zm69 2c0 1-1 3 1 3v-3h-1zm-53 1v2h-1v-2h1zm73 5c0 1 2 1 2-1s-3-2-2 1zm-33 0h1v-2h-1v2zm22-2c-1 2 0 3 2 2l-2-2zm-78 2v1-2 1zm-2 2v-3h1l-1 3zm-4 0v-2h-1c0 1 0 3 1 2zm65-2h1v1l-1-1zm5 1v-1 1zm-2-1c0 2 1 3 2 3v-3h-2zm12 1v2l2-1-2-1zm-15 1h1l-1 4v-4zm16 2h1v-1h-1v1zm7 1v-2h-2c0 2 1 3 2 2zm-85-1v-8h1l-1 8zm-1 2v-2h1v2h-1zm73 0v-2h-1l1 2zm-67 0h1v-1h-1v1zm61 0v-1 1zm0-1v-1h-1v7h1v-5h1v-1h-1zm1 0v1h2c0-1 0-2-2-1zm-2 0h-1v1h1v-1zm-66 1c0 2 0 2 2 2l-1 2-2-2 1-2zm5 0c-1 0-2 1-2 3l2 1v-4zm-8 3h1v-2h-2l1 2zm13 5c-1-1 0-3-2-3v-3h2v6zm65-6l-1 2 1-2zm-82 3c0 4 0 5 1 4v-9h-1v4c-2-1-2 0-2 1h2zm10-1v2-2zm0 0v-4h-1c0 6 0 11 1 10h1v-3h-1v-1h1v-2h-1zm59 4l1-2 1 3c2-1 0-3 0-4h-3l1 3zm3-3v1c1 1 2-2 0-1zm5 1h1v-1h-1v1zm-70-1h1v1h-1v-1zm-9 1H8v1c1 1 1 0 1-1zm7 2v-1h-1c-1 0 0 2 1 1zm82-1c2 0 3 1 3 3h-3v-3zm-77 0v3-3zm-17 2H3v2h1v-2zm11 2h1v-2h-1v2zm13-2v1h-2l2-1zm57 0h-1c0 2-2 1-3 3l3 1 1-4zm-58 2l-1 1v-1h1zm-10 0v2-2zm-9 1c0 2 1 4 3 3 0-2-2-2-2-3H8zm82 3h3c2-4-4-5-3 0zm35-3h-1 1zm-102 4v4c-1 1 1 2 1 1v-5h1v-2h-2v2zm63-2h-1c-1 1 1 2 1 0zm-64 2v-2h-1l1 2zm83-2h1v1h-1v-1zM3 126H2c-1 1 0 1 1 1v-1zm75 1v-1h1v1h-1zm40 0h1v-1h-1v1zm-39 2l3-1-1-2c-1 0-2 1-2 3zm11-3v-3h-1v3l-1 3h1v1h1v-1h1l-1-3zm-3 0h-1v1h1v-1zm5 1v2l1-2h-1zm-15 0v2h2c0-1 0-2-2-2zm21 0v2-2zm-79 4v-1 1zm4-1v-7h-1v6l1 1zm7 0v-1 1zm81 1v-2h-1c-1 0-1 2 1 2zm-101-2v2h1c1-2 0-2-1-2zm6 0h-1l1 2v-2zm2 2v1h-1v-1h1zm77 0h-1v1l1-1zm-9 4l-1-4h-1v4h2zm10-2v6h1v-6l1-2h-2v2zm-69 4v-5 5zm52-4h2v2l-2-2zm31 0h-1v1h1v-1zm-88 2h1v-1h-1v1zm66 0v-1h-1c-1 1 0 1 1 1zm-68 1c2 0 2 2 3 1 1-2-1-2-3-3v2zm13 0l-2 10-1 1 1-12v2l2-1zm1-1v2l-1-1 1-1zm58 1v-1h-2c0 1 0 2 2 1zm-85 2l1-2-3-1-1 2 3 1zm97-3h1v2l-1-2zm-85 1h1v1l-2 1 1-2zm70 0h-1v1h1v-1zm-73 2h-1v2h1v-2zm12 1v2l1-2h-1zm85 3v-2h-1l1 2zm-20 1h2v-2h-2v2zm-74 0v-1 1zm73-1h-2v1h2v-1zm6 3v-2h-2c0 2 0 3 2 2zm-68-2v3h-1v-3h1zm-5 5v-3c-1-2-4-2-4 3h4zm64-1v-2h-1c-1 1 0 3 1 2zm-80 1v-2H7v2h2zm77 1l1-2v2h-1zm-74 0h2v-1h-2v1zm8 0v-1 1zm9 0h1v1h-1v-1zm66 3v-3h-2c0 1 0 3 2 3zm15-1l-1-2c-1 2 0 2 1 2zm-95 1v-2h-1c-1 1-1 2 1 2zm6-1h1v1l-1-1zm90 1h1v-1h-1v1zm-21 1v-2h-1l1 2zm9 1l-1-2h1v2zm0-3v1l2 1v1h-2v-3zm-81 2h1v-1h-1v1zm69-1h1v2l-1-2zm-71 2v-1 1zm6 0h-1v-1h1v1zm3-1v2h-1l1-2zm71 3h1l-1 2v-2zm-3 1c0 2-2 1-2 0h2zm-77 2h2v-2h-1l-1 2zm76 1h-1v-1h1v1zm-83 0H8v2h1v-2zm20 0v2-2zm1 0v2h-1v-2h1zm68 2v-1 1zm-77 4l1-4h-2l-2 2-1-2-1 3c3 0 3 3 5 1zm71-4h1v1h-1v-1zm0 0v2-2zm2 1h4l-1 3c-2 0-2-2-3-3zm-3 5v-3h2c1 2-1 3-2 3zm9-1h-2v-2c2 0 2 1 2 2zm-75-1l-1 1 1-1zm-5 4h2v-3h-1c1 2-1 1-1 3zm77-3h1v1l-1-1zm11 1h-1v-1c1-1 1 0 1 1zm-74 0v-1h-1c0 1 0 2 1 1zm66-1h2v2c-2 0-2-1-2-2zm5 0c1 2 0 2-1 1v-1h1zm-16 0c2 0 1 2 2 3h-3l1-3zm-73 1v2-2zm10 0h1v2l-1-2zm6 3l-1 4v-9l1 1 1-1 1 1v8h-1v-6h-1v2zm1-2v2h-1v-2h1zm59 2c0-1 0-2 1-1l-1 1zm3 0h-2v-1h2v1zm-73 0h-1v2h1v-2zm68 3v-3h2v2c0 2-1 1-2 1zm-62-1h-1l-1-1c1-1 2 0 2 1zm59-1c2 0 3 2 3 4l-1-1-2-2v-1zm-65 1l-1 2h1v-2zm73 3v-1h1v1h-1zm-7 2l1-1-3-1 2 2zm-68-1v-1h-1v1h1zm83-1h1v2l-1-2zm-18 0c0 3 1 3 2 4l-1-4h-1zm7 0h1v2h-1v-2zm4 2c2 0 2 0 2 2l-2-2zm-7 1v2h1l-1-2zm8 2v-1l7 1c23 1 42-12 51-31l-2 4c-4 7-11 17-20 25-10 8-20 12-29 12l-9-2h1l-2-1v1l-5-2c2-1 2-3 1-4-2-1-2 1-2 3l-2-1v-1l-4-5v-2h2l1-2 1 1v-4l1 1 2 2 3 3h1l3 1c-1 0-2 1-1 2h2zm0-1l-1-1 1 1zm-79 8c2 0 3-2 3-5-2 0-1-1-1-3h-3v3h2v2c-2 0-2 2-1 3zm74-6v-2l-2 1 2 1zm-55 5l-1 4-2-5 1-1 1-1-1-1v-5 5h-1v-2l-1-3 1-2v-1l1 1 2 1c0 1 0 2-1 1l1 9zm4-5l-1 4-3 1-1-3c1-2 3-4 5-2zm70-1h-1l-1 3h2v-3zm-87 1h-1v-4h-1v17l1-1v-11h1v-1zm-2 1l1-1v1h-1zm23-1c1-4 1-1 1 1l-1 1v-1h1v-1h-1zm-1 1v-1h1v1h-1zm-20 4l1-3v3h-1zm5-3h-1v-1l1 1zm59 3v-1l1 1h-1zm-72-4v1-1zm82 5l-2-4-4-1c0 3 4 1 3 4 2 0 1 2 3 1zm-13-4h1v1c0 1-2 1-1-1zm19 0h-2v2h2v-2zm-53 2c2 0 2 1 2 2-2 1-2 0-2-2zm-21 1c0 1 0 2-1 1l1 7h-1v-11l1 1h1v1l-1 1zm2-1v-1h2v4l-1-1v-2h-1zm1 2l-3-1 1-1h1l1 2zm45 1c2 1 1-1 1-3l-1 3zm-57 0h1v-2h-1v2zm53 0v-2l1 2h-1zm0-2v-3c1 1 0-2 1-1 2 0 1 2 2 2 2 0 3 2 5 0l2 1v-1c2 3 5 5 8 6v1h1l11 1c10 0 20-3 31-12 6-5 13-12 17-20-5 15-20 43-51 49h-2l-2 1v-2l-1 2h-4l-5-5-7-8-2-7v-3l-2 1h-1l1-2h-2zm31 1v-1h-1c0 1 0 2 1 1zm-34-1v5l-2-2v-3h2zm-2 3v2l-1 3v-5l1-3h-1l1 3zm-34 0h-1v-1h1v1zm4-1l-1 2-2-1v-1h3zm17 0h-2v-1c3 1 0-4 3-3l1 2 1 2h-1v2l-2-1c0 2 1 3 3 3v2l-1 1-3-6h1v-1zm-2 1v-1l1 1h-1zm-30 0h1v1h-1v-1zm5 1h-1v-1h1v1zm1-1h1v1c-1 1-1 0-1-1zm37 1v-1h1v1h-1zm11 0h1v-1h-1v1zm3-1v2l4 1c1-3-2-4-4-3zm12 0v2l-1-1v-1h1zm-71 2v-1h-1c-1 1 0 1 1 1zm49-1h2v1c-2 1-2 0-2-1zm-34 2v3h2v-1l3 7v3l-6-10v-1h1v-1zm-1 1v7h-1v1h1v9h-1c0 16 1 14 3 17l-4-6 2-26h-2v-1h1l1-1zm-2 1v-2 2zm3-4v2l-1-2-1 2 1-2h1zm30 0v1-1zm-38 1v2h-1v-2h1zm45 0h1v2h-1v-2zm9 0h-2c-1 3 3 3 2 0zm13 2v-2h-1c-1 1-1 2 1 2zm-74 0v-1h1v1h-1zm5 0h-1v-1l1 1zm37 1h-1 1zm0 4v1h-1v-2 1h1zm-1-6h1v2h-1v3c-2-1-1-4 0-5zm9 0l-1 4c-2 0-1-3-1-4h2zm1 0v-3l1-4v6c-1-1-1 5-1 3v-2zm20 3v-2l-2-1c0 2 1 3 2 3zm-24 1l-3-1v-2l2 1h1v2zm-17-3l2 1c0 1-2 1-2-1zm7 4l-1-2 1-1h1v3h-1zm48-2h1v-1h-1v1zm-17 2c-1-1-3-1-2-3h-2v3c2-1 3 3 4 0zm15-2c-1 1-1-1-2-1l1 4h1v-3zm-71 3l-2 3-1-5c2-1 1 1 2 1l1-2v3zm39-2l2-1 1 2v1c-2 0-3-1-3-2zm3 1v-6 8-2zm-23 2l1 3-1 1-1-3c-2 1-2 3-5 3l2-2v-3l1-1 1 1v-2c3 1 3 2 4 0l-1 3h-1zm3-3h1v2l-1-2zm25 1h1v-1h-1v1zm-21-1v2-2zm0 0l1-1v4-3h-1zm42 2v-2h-1l1 2zm-22 1h-1v-1h1v1zm-55 2v5h-1l1 1v1h1v-7h-1l1-3c-1 0-2 1-2 3h1zm47 0l1-3c1 1 0 3 2 2v3c-2 0-2-2-3-2zm-9-2v1-1zm-41 4v-2 2zm16-4h1v2l-1-2zm66 2v-2h-1l1 2zm-49 0h-1v-2h1v2zm6 4v-6 6zm-3 0l1-3 1 3h-2zm-22-4v-1 1zm35 3c0-2 0-4-1-3v2l-1-1 2-2v4zm-1 0v-1 1zm-4-3h1v1c-2 0-1 0-1-1zm2 2h-1l1-2v2zm30-2h-1v2h1v-2zm-59 1h1v2l-1-2zm40 2l2-1v1h-2zm-25 6c-1 1-1 0-2-1v-2l4-1v-3l2 1-1 3c-1 0-2 2-3 0v3zm11-2l1 12v-13l4 7v1h1l2 3v19c1 0 2-2 2-6h2v-1l-2-1 1-7 12 15h-1v1l1-1c44 54 72 84 128 202l3-11 1-1-1-1 1-1 2-1 28-55h-1l1-1 1-1 8-15v-1l1-1 7-12-1 1-1-2 2-2 1 2-1 1c9-16 19-29 28-41 11-15 22-27 34-41v1-2l1 12v-13l2-3v14c0-10 0 0-1-8v18l-5 6-3 3v-3h-1v4l-1 2v-4h-1v5s0-1 0 0l-6 8h-1c-16 21-29 41-40 60h-1c-38 62-52 108-52 108 26-68 66-127 107-178 0 6 0 9 1 7v-8 1-2l3-3 1 17c-1-2-1 3-2 4v-14 16l-1 1v-5l-1 6-8 11c0-3 0-6-1-5v6c-12 14-22 30-31 45v1-1c-11 16-21 33-31 52v2l-1 1-9 19 3 4v3l-1 1-2 2-1 1v-1l-2 2-1-1h-1l-6 11v1c-7 15-14 32-20 50-31-89-79-168-138-234-1-8-1-21-2-20v17l-9-10-1-16v14h-1v-5h-1v4l-4-5 1-10v-15 17c2 3 2-3 2-8l1 13v-19l1 1h-1c0 1 0 2 2 2v-1l16 22v4-3l4 4 6 9c0 4 0 9 1 7v-6c30 38 64 76 86 121-22-46-56-84-86-122v-5h-1v4l-2-4 1-5-1-2v7l-4-5-4-5v-2 1l-9-10v-2l-5-6v-1h-1l-2-4 2-1h-3v-2h-1v-9h1l-1-1v-4c0-3-1-2-1-2l-1 15-1-23h1l2-3v1l-1 1 1 1v3h2zm-1-4l1-8 1 11-1-1v-2h-1zm27-1c-2 0-2 1-2 2h2v-2zm12 2v-2h-2c0 1 0 2 2 2zm-82 2v-3h1v4c-1 0 0-2-1-1zm12-3h1v1c-1 1-1 0-1-1zm39 2h-1v-2h1v2zm-1 0v9l-1-1v-4l1-2h-1v-4h1v2zm37-1l-1-1v2l1-1zm-57 2v-2h1c1 1 0 2-1 2zm24-2h1v1h-1v-1zm-49 1l-1 1v-1h1zm43 1h-1v-1h1v1zm-39 2v6l1 2-2-2v-2 1l-1-2v-13l-1-4h1v13c1 1 1-5 1-13h1v14zm3-3c0 2-1 3-3 3v-2l3-1zm3 2c-1 0-1-2-2-1v3c1 0 2 0 2-2zm39 1c-2 0-2-1-2-2h2v2zm-2-2v3l-1-3h1zm17 3h-2v-2c1 0 2 0 2 2zm-31 0l-1-2h1v2zm10 0l1-2v2h-1zm38 0l1-2c1 0 2 1 1 2h-2zm-80-1h1v1l-1-1zm75 2c-2 0-3 0-3-2h2l1 2zm-62-2h1v2l-1-2zm2 1v16h1l-1 7-1-1 1-7c-1-2-1 4-1 7v-19h1v1-4zm-1 5l-1-1 1-3v4zm-20-3h-2c0-2 0-3 2-3v3zm23-3h2v1h-2v-1zm19 0h-2v2h2v-2zm20 5l-4 1v-2c2 0 2-1 2-3h1c-1 3 1 2 1 4zm-59-1v-2h2c0 2 0 2-2 2zm10-2v2h-2v-2h2zm16 0h2l-1 3-1-3zm23 2c-2 0-2-1-2-2h2v2zm6 0h-1v-1h1v1zm20 1c2 0 2 0 2-2-1 0-2 0-2 2zm-32-2c-1 2 1 2 1 1l-1-1zm27 3h-2v-3l1 1 1 1v1zm-39-1h-1v-1h1v1zm1 2v-3h1c0 1 1 4-1 3zm16-2h1v2l-1-2zm26 0c0 2 1 3 3 3v-2l-3-1zm-66 1v2h-1l-1-2h2zm45 2h-1v-2l1 2zm33-2v1l-7 4 3-9 3-1c30-10 43-41 47-54-1 32-1 68-26 52l6 15-20 11 13-30-18 11h-1zm1 2l-1-1 1-1v2zm-75-1h1c2 3-3 3-1 0zm24 2h-1v-1h1v1zm29-1h2c0 2-3 2-2 0zm-50 1h1v1h-1v-1zm28 0v2h1v-2h-1zm10 0h1l1 2c-1 0-2 0-2-2zm11 2h-1v-2h1v2zm-12 2l-1-1 1 1zm-1-1l-2-3v-2c1 2 2 4 2 1h1l-1 4zm11 1v-2 2zm6-1v1l-2-2 2 1zm-55 0h1v1h-1v-1zm30 3v-3h-1v3h1zm22-1h-1v-2l1 2zm-9 2h-2v-3h2v3zm7-1h-1v-2h1v2zm-19 1c2 0 2-1 2-3-2 0-3 1-2 3zm30-2v1-1h1v2h-1v-2zm-54 3c-1-1 1-3 2-1l-2 1zm-1-1v1l-1-1h1zm4 0h2v2l-2-2zm30 1c-1 1 1 2 1 1 1-1 0-1-1-1zm-27 1h2v1l-2-1zm20 1v-1h-2l1 1c-1 8 0 10 1 9v-7h1l-1-2zm-1 2v-3h1v3h-1zm-8 1c-2 0-1-2-3 0l-1-3h2v2c2 0 2-1 2-2v3zm-5 0c-2 0-2-1-2-2h3c0 1 0 3-1 2zm8 2l-1-1v-3 2l1 2zm11-2v-2 2zm-39 0h1-1zm10 1h-2v-1h2v1zm28-1v2h-1v-2h1zm-25 1h1v1c-1 1-3 0-1-1zm31 2l2-1h-3l1 1zm-14 0v1l-1-1h1zm24 0v3c-2 1-2-3 0-3zm-22 3l-1-1 1 1zm-26-1h1l-1 1v-1zm8 3h-1l1-2v2zm4 2v-3h2c1 3 0 3-2 3zm-7 1v-3 3zm4-3h1v3l-1-3zm1 0v-12l1-10 1 30-2-2v-3l1-1-1-2zm-3 3c-2 1 0-1 0-1v1zm7 3h1v2h-1v-2zm2 2v-2h2c0 2-1 2-2 2zm-4 0c0 2-2 1-2 0h2zm-3 3v-2 2zm0 4h-1c-1-1-1-4 2-3l-1 3zm10-3v3h1v-3h-1zm-1 1v3h-2v-3h2zM27 103l1 3v-3 8h-1v-2h1l-1-2-1 1v-5h1zm1 0h1-1zm0 0v-2 2zm5 3v-3l1 1v2h-1zm4-4h1l-1 9v2l1 3 1 22c-1 0-2-1-1-3h-1l1-4h-1l-1-7c-2 0-1-2-2-3v8h-1v-6l3-7 1-5v-9zm1 0l1-1h1l1-1v2h1-4zm3-1v-2 2zm-4-1v2l-1 1v-1l1-2zm-2 2l1-3c-2-1-2 1-2 2l2-5v6h-1zm4-4l-1-1c0-2 2-2 2-5l1 1v7-6l-2 7-2-1v-2h2zm2-5v-2 2zm-1-4v-1s0-1 0 0v1zm3 3h1v17l-1-3V91v1zm1 0l-1-5v4l-1-2 3-7c0 1 0 3 1 2 1 0 0-2 1-1 0 2 0 3-3 2v3h1c-2 0 0 1 0 1h-1c-1 2 1 1 1 3h-1zm7-4v-1h2l-1 1h-1zm-1-1v-5l1-4v9h-1zm4-6v-1l-1-1v-2l1-1v-1l-2-1v-4 1l1-1 1 2v2h1v2h-1l1 3v2c-1 0-1 3-2 2v-3l1 1zm4-7l-1-1 1 1zm3 3c1 1 3 2 5 1l-1 7-2-1c-2 1 0 2 2 2l-4 11v11l1-5v-9l2 2v-2l1-8v1l1 3v-6l2 2h-1l-1 3v1s0 1 0 0l-2 6-2 7-1 6v-1c0 6 0 13 2 19l3 2v-1c0-5 1-3 1 2 4 2 7 1 9-1h1v3l1 1h-1v3h1v4l1-2-2 2v7-6h-2l-1 1h-2l1 3v12h-1l-1-15-3 1c-3 0-6-1-8-3l1 5v19l-1-7-1 8 3 6v-2h1v-22c1-6 1 1 2-2l1 14c-1 4-1-6-1-7v14c0 16-1-2-2 3v3l5 7v-1h1v3l2 2-2 1v-3l-1-1v7c-1 0-3 0-3 2h-3c-1 1 0 3-1 2h1l-1 3v-7h-3v-9l1 3v-12h-1v7l-2-10v-5l-2-3v25-27l-4-7v1l1 31 2 5c-1-1-3-1-3-3v3c-1 0 0 3-3 3 0 2 3 1 2 3l-2-1v-6l-1-2 1-1c0-2-2-2-3-3l-1 2h-3l-2-2-1-2 1-11v-14h2c1 8 5 17 9 25v-30l-6-23c0-9 1-18 4-27-1 10 0 20 3 28v-14c-1-3-1 9-3 7v-12c2 2 0-14 2-7V88h2l1 9 1-12v1c0-2 1-3 2-3l-1 23c0 3 0-8-1-5l1 19v-4 18l6 6-1-12c1-6 1 5 2 4v-32l-1 12 1 12c-4-5-7-12-7-23l2-13v-8l1-1 1 3v-5l1-1h-1v-2l2 1v4l1-3v1zm-3 0h-1v-1h1v1zm15 0c0 1 0 2-1 1l-1 1 1 2-2-1v3l-1 1-1-2-1 1 6-6zm0 3v1-1zm6 6l-1 1 1-2v1zm-3 2v-6h1v3h-1v1h1l-1 2zm-10-6v-2 2zm-1 1v2-2zm11 19v4l1 1v2h-1v-8h1v2l-1-1zm1 7v2h-3v-1h-1v-2h2v2l2-1zm-4-1v2-2zm5 10l-1 2h2v3h-2l1-5zm-1 5v1h-1l1-1zm0 3l-1 3h-2c2-1 0-3 1-4l2 1zm0 6l2 2-1 2 1-4h-2zm2 2v2-2zm9 20v3h-1 1v-3zm0 2l5-1-4 4h-1v-3zm-2 2l2 1v1l1-1-1 1h-1l-1 2 1-1 1 4c0-1 1-4 3-2 0 2-2 1-2 4l-1-1v4l-2-1v1-12l-3 2h-1l1 1-3 9 2 9-1 2-1-1v-4l-1 1-1-7c0-5 1-11 6-14l2 1-1-2h1v-1 4zm0 12v1c-1 1-4 1-4-1l4 1v-1zm-5 11l1 2-2 1 1-3zm1 1c2 0 3 2 2 3l-2-2v-1zm-9-1v2c0-6 0-8 1-7v7l-1-2zm0 7l-2-3c1 1-1 2-2 1v-1l2-1v-1l1 1 1 1v-2l1 2v1l-1-1v3zm-12 6v2l-1-1 1-3v2zm-1-2l-1 1v-4l2 2v1h-1zm1-1v-1 1zm-7 1c-1-1-1 2-3 1l-1-2 4-3v4zm-8 0l-2-4h2-2c-1 1-1 3-3 3l2 2 1-2c1 1 0 3 3 2v6c-2-1-2-3-3-5v-2c-1-1-1 2-1 7l-2-1v-3l1-1c-1-1-1 1-2 1-1-2 1-6-1-6-1-1 0-2 1-2 1-1 0 2 1 1l1-2-1-4c2 0 2 1 2 3l2-1v1l2 7h-1zm-2 2v5-6 1zm-10-19v1-3 2zm-1 9l1-1v2l-3-5v4l1 1h-1v-1l-2-3v-1 1l2-2h2v-1l1 3-1 3zm-4-4v-1 1zm2-2v1l-2-3h2v2zm-2-2l-1 2v-3l-1-1 1-1 1 3zm7-4l-1-3-1-11h1l3-3-1 21h-2l1-4zm-5-8v-5 5zm1 2l1-1v1c-1 0-2 2-2-2l1 2zm1-1v-1 1zm-4-6l-1-1v-3h1v4zm4-5v-1h1v5l-1-1 1-3h-1zm5 1v-1 1zm-2 0v-3h2v2l-2 1zm4-3l-1-5h1l1 4-1 1zm-1-5h-1v-2h1v2zm0-2l-1-3v3l-1-3c-2 1 0 3 0 3 1 1 0 1-1 1l1 3h1v3l-2-1h-2v2-14l-1 3v-5h1v3l2-2 2 1 1 1 1 7h-1v-2zm-7 9h-1 1zm1-4v-3l1-1v4h-1zm-1-8h1v5l-2 2v-3l1-4zm0 0v-3l1 3h-1zm7-2v-1 1zm-3-6l-1 3h-1l1-3h-2v-3l1-2h2v2h1v4l-1-1zm-3 0v1l-2-1 1-7 1 2v5zm-1-19h1l-1 8v-8zm1 0v-3l1 4-1-1zm0-3l-1-3v-5c0 1 0 3 2 3l-1 5zm52 44h-1 1zm-2 5v-1l3-1v2c-2-1-2 0-2 2l-1-2zm1 4l-2 2c0-2 1-2 2-2zm-5 12l1 3-1 1v-4zm-2-40l-1-1c-1 1 1 2 1 1zm-2-24c2 1 2 3 1 5l-2-2h1v-1l-1-1 1-1zm-2 1v-1 1zm-3 65l1 1c-1 1-1-1-1-1zm-2-83l-1-2c0-1 2 0 1 2zm9-10v-1 1zm-17 2v-1s0 1 0 0v1zm0-1v-1h1l-1 1zm0-2v-2h1l-1-1v-3l-4 9v4c0 2 3 16 2 17 2-1 1-24 3-19v7l-1-11v-1zm0 98l1 3h1c0-3 5-1 5-2s-3 1-2-1h-5zm1-95l1-2-1 2v1-1zm0-8c1-1 2 2 3 1l-3-2v1zm-8 103h1v-1s0 2 2 1h-3zm3-104h-1v-3h1v3zm-3 4v2l-1-2h1zm-14 49h1c-1 2-1 0-1 0zm2 22v-2l1 2h-1zm1 15v3c1 0 2-3 0-3zm0-77l1 1-1 1v-2zm0 4l-1-1 1-1v2zm-1 32l2 1-1 2-1-1v-2zm0-1v-1 1zm0-1l-1-2 1 2zm-2-22h1v1h-1v-1zm-2 5c1 0 4 2 2 2l-2-2zm-3-1h1v1l-1 1v-2zm1-1v1l-1-2v-2l2-1v8c-1 2-1 0-1-2v-2zm42-18v-2h1l-1 3v-1zm-49 74v-1h-1c1 2-1 1-1 2 2 1 1-2 2-1zm51 34l-1-3 1 3zM43 47l2-1-1 4c-2-1 0-3-1-3zm32 143l1-1 2 2c-2 1-2-1-3-1zm-34-79c1-5 1-8 2-5l-2 5zm1-72V27v12zm4-5V23v11zm288 258c0 8-1 3-1 4l-1 7v-23h1v7c0 6 1-5 1 5zm-1-15c0 1 0-4-1-2v5l-1 2v-6l3-4v6l-1 2v-3zM39 29h1v12l-1-12zm22-2h-1 1zm-3 0V16l1 11-1 5v-5zm362 119l1 29c-3 10-7 21-13 31v-6h-1v7l-16 24-46 58v-7h-1v7l-3 4c0-2-1-1-1-1v2-20l2-4v5h1v-5l1-2v5h1v-5l12-15v1h1v-2l1-2 1 11v-12c22-27 38-57 48-91v2-4c4-37 2-74-17-100a86 86 0 00-49-38c0-14 0-19-1-14v14l-8-1V1l13 2v15V3c26 7 49 24 63 48v6h1v-5l5 9 1 3 1 1v2-2l2 3v1l1 2v17c0-9 1 2 1-10v15c-1-2 0 26-1 33v20zM334 19h7v7c1 1 1-4 1-3v-3c25 5 54 39 62 70l3 12v12-10l1 15v11c-7 40-23 77-46 108v-9 9l-4 7v-7h-1v8l-17 21v-13c-1 3-1-7-2-5l-2 21-2 2v-22l1-1v12l1-7c0-7 0-5-1-5l8-9 1-1c0 14 0 20 1 19l1-14-1-7 2-2 3-4 1 11v-12l1-1v2-2l7-10 1-1c59-86 30-152-11-172V33c0-5-1-10-2-7v19l-7-3V28c-1-1-1 4-2 2l1 12-6-1 1-15v-7zm-3 23v-2l2 1c-1 3-1 3-2 1zm0-2h-3c-1-5-1-2-2 0h-11c-16 3-32 10-45 21v1c-26 19-43 49-52 77l-1 7-2 6-1-6c-2-8-3-14-7-21-14-43-41-82-82-93-10-3-21-4-32-4v-3c-1-1-1 0-1 4v-7h-1v7l-13 2V20c-1 0-2 0-2 2v9l-6 2c0-13-2-19-3-23l7-3c0 11 0 17 1 15l1-9-1-7 3-1c-1 12 0 25 1 22V5l12-3 1 6V1l1 5V1h6l10-1c50 0 92 38 105 92l1 7 2-7 2-8c16-53 60-86 107-84v9h1V0h3v16h-6V9c0-2 0 3-1 2v5h-1c-23 1-43 11-58 21-22 17-30 37-33 44 19-39 57-59 92-59l7-3v4l1 17zM70 36l7-2c0 2 0 3 1 2v-2l13-2h1v-1 5h1v-5c11 0 21 1 31 4l1 1-10-1-14 1v-2c-1-3-1-2-2-2v5c-8 2-17 5-25 10 0-4 0-4-1-1v3l-7 6v-6c-1 1-2 1-2-10l6-3zm-1-2l-5 2v-4c-2 6-3-4-3-5V13h1s0 3 1 2v-3l2-1-1 11c0 7 1 11 2 10l-1-21 2-1 2 24zm17 108v1-1zm-2-38v-1 1zm-7-24v-1 1zM49 50h-2 2zm9-11l-1 1c0-5 0-7-1-6v6l-1 1v-7 7l-4 3V29l1-10 2-1v9c0-9 1-1 2-2v-9l1-1v19c1-2 1 0 1 5zM39 147l1 2-2 2 1-4zm13-12l1 15c0-3 0-8 1-5v13l1-6-1-7v-11l-4-9 2 10zm4-62v-3l1 6h-1v-3zm3 92l-1-2v3c0 2 1 1 1-1zm-2-13l-1 9 2 2-1-11zm2 46h1v3l-1 2v-5zm5 8l-1-1v1-2 1h1v1zm270 43v1l-2 2c1-8 2-13 2-3zm0 29h1l-1 2v-2zm2-1v-1 1zm4-4v1l-4 2v-6l4-3v6zM50 97c0 14 1 21 2 23 0-16 0-28-2-23zm2 23l1 10v-10h-1zm1-76v2-2zm15 67v17l-1-19c0-1 0 4 1 2zm-5 61l-1-1v5h1v-4zm0 29h1l-1 4v-4zm0-97v21c-1 1-1-7-2-9 1-7 1-14 2-12zm-2 35v-7 7zm6-9l-1-1c0 8 0 11 1 10v-9zm0 29h1v7h-1v-7zM86 15V8v7zm9 74h1v1h-1v-1zm-29-7l1 1-1 2v-3zm8 60l1-1-1-2v3zm0-86l-1-1v-6l1-2v9zm-1 19v-1 1zm0 31v2-2zm0 7v-3 3zm-1-21v-1 1zm-1 24l1-15h1v17c-1-1-3 18-3-2 1-3 1-3 1 0zm0 29v7h-1v-7h1zm1 31h-1c-1-7 0-17 1-10v10zm0-17h1v7h-1v-7zm5-18v-2 2zm4 14h-1v-8h1v8zM80 52h2v6l-2 1v-7zm3 46l1-1v1h-1zm1 41h1v3l-1-2v-1zm1 101v8-8zm3 34v7-7zm3-39v-5 5zm0-5l-1-1-3-3c5 2 7 1 9-1l2 2c22 26 43 52 63 80 0 6 1 14 5 23-24-35-48-69-75-100v-2 2zm3-205V15h-1c0 6 0 12 1 10zm0 39h-1l1 9v-9zm2 68h1v1h-1v-1zm1 81l7-1-6 12-2-2-2-7-1-1 3-1v8h1v-8zM96 92v-2l1-1c0 3 0 4-1 3zm2 38v2-2zm3-85c7-2 13-2 20-2 8 1 15 4 24 10l-15 4-1-12h-3l1 10c-10-6-18-8-24-9h-1l-7 1-8 3 13-5 1 1v-1zm1 71c0 8-2 6-1-2v-1l1 3zm242 71c4-4 7-10 8-17 0-6-3-12-8-15v-2c0-5-1-2-1 1h-1v-1 1h-1l-1-28-1 17 1 10-7-1c0-4-1-5-1-1v1h-2V95l11 3v2h1v-2c2 0 4 0 6-2 0 2 0 2 1 0l4-7-1-11c2 1 6 3 9 8 5 7 7 16 7 25l-2 16c-4 4-9 5-12 3v-9 9l-1-2c-2-4-7 4-3 10v8-8c2 3 5 4 11 5 16 0 25-28 19-52l1 2 3 13c2 10 1 25-5 41-2 8-14 26-24 41v-4 5l-4 5 1-5-1-10v16l-12 15-1-17v18h-3v-20l1 12 2-12 1-1v6c1 6 1 6 2 0v-7l2-1 1 1v-2zm-2-2l-1 1-1-11 2-2v12zm0-23l-1-3 1-2v3-3 5zm0-24c0-12 0-15-1-10 0 11 1 15 1 10zm0-31v31c1-7 2-9 2-26 0-4-1-6-2-5zm1-31l-1-3h1v3zm-3-31h1v10c-1 2-1-1-1-10zm0 67v9-9zm0-62l-1-8h1v8zm-5 50l1 12c0-12 0-18-1-12zm-1 9c0 15 1 12 1-2l-1 2zm0-59v3-3zm0 7v-4 4zm0 69v-7 7zm-12-67l3-1v2c-5 5-6 12-5 20l3 7v6h1v-5 24c-5-1-11 2-12 6 0 0 2-13-9-16 0 0 1 17-8 21-4 2-7-5-9-13 1-4 4-15 10-27 6-10 14-19 26-24v3-3zm-10 218v7-7zm1-4l-1-5v-3l1-1v9zm-1-8c-17 20-33 40-50 67 3-8 6-15 6-21l1 1 1-1-1-1c0 1 0 0 0 0h-1v-1l1-1 1-1h-1l4-7 1 1 1-1v-2l6-9 1-1v-1c16-21 33-41 51-61l1 10v1l-2 3v-2 4l-1-6v7l-2 1s0-5-1-2v3l-2 3v-10 11l-6 7-7 8-1 1zm-44 44l-1-1 1-2h1v1l-1 2zm45-221v7-7zm2 84v-15l1-1c0 13 0 24-1 16zm0-15c-22 7-31-30-11-35 18-3 19 15 12 23v-2 2l-3 1h2v11zm2-95v10-10zm2-8l3-1v3c-22 9-34 35-37 48-1-9 1-19 4-26 9-14 18-21 29-24v3h1v-3zm-1-7h1v7h-1v-7zm1 170l-20-12 12 29-9-4 1-1-1-2-1-2v-2h-1l-2-1h-3v1l-2 2-1-1 6-15-8 4-1-1-1-1h-1l-2 2c-10-4-10-28-12-51 5 14 18 41 46 49v4h1v-2 1-3 1l5 9-6-3v-1zm-8 17h1v1h-1v-1l1 1-1-1zm8-15v-2 2zm-34-38c-5-9-9-19-12-29 3 7 9 19 21 29 9 9 20 12 30 12h1l7-1v6c1 2 2-6 2 7l-2 6h-1l-3-1c0-2-1-2-1 0l-7-2v-4h-1l-1 1-1 1 1 1h1-1l1-1v1l-1 1c-15-5-25-16-33-27zm35 27h-1 1zm0 95v8-8zm0-110v8-8zm1 99h-1v-4h1v4zm1-58v-2 2zm0-1l-6 6-12-27 15 9c0 5 0 5 0 0l8 5v1l-5 5v-8 9zm1 56h-1v-3l1-1v4zm1-208v7l-1-1c0-5 0-7 1-6zm0-60l-1-5h1v5zm0 58c-2-4-2-8 1-12v12c0-4-1-3-1-3v3zm1 91v-10 10zm1 79c0 1 0 1 0 0v-1 1zm0 14v10-3l1-1h-1v-6zm1 21h1v2l-1 1v-3zm1-4v6-6zm1-26c1-1 1-5 1 0v1l-1 1v-2zm1-94l-2 12c-1-4-1-11-2-7v-12l4-1v8zm-6-48c2 1 5 3 6 8v10l-4 10-2-28zm2-70v-2h2v10h1v3h-4l1-11zm3 19l3-1v9-10l9-1 1 15-4 1-2 1c-6 4-4 14-4 15l-2-2v-5c1 2 0-12 1-19-1-5-1 1-2-2v-1zm3 190h-1v-8l1-1v9zm0-37v8l-3 3-1-1v-11h3v6h1v-5zm-1-2v-1h1v3l-1-1v-1zm1-157v5-5zm0 192v-7 7zm0-18v7-7zm1-7c0-1-1 7-1-2l3-6h-3v-3h3l-2 11zm1-57l1 12h-2c0-1 0 0 0 0h-1v-25h1l1 13zm1 12v1h1-1v4l-2 1-1-1v-3l-1 1v-2l1-1v2l3-1v-1zm4 0v10l-1 1v-4l-2-2-1 7v-7l1-2v-2l3-1zm-4 65c-1 1-1-3-1-5l1-1v6zm3-151V81c0-3 0-3 0 0v10zm2 136l3-2-1 4-7 7v-9h4c0 1 0 3 1 2v-2zm-2-5v-11l1-1 1 17h-1l-1-5zm2-50l1-5-1 5v3l-1 2 1-5zm1-26v-10c0-4-1-5-1 4l1 6zm1 101h-1c0 4 0 14 1 11v-11zm0 21h1v2h-1v-2zm2-2h1v2h-1v-2zm0-30l-1 4h-1v-11l4-4-1 12-1 2v-3zm-1-31c1 11 2 1 3 10v8l-3 2v-20zm11-91c0 1 0-4 1-2l-1-17v19zm0 17v-1 1zm-3-57l-5-1h-3V58l5 1 1 3v-3l7 4v13h1V63c7 5 14 13 16 26l1 12c0 11-2 18-5 23l2-13c0-9-2-19-8-27-4-5-8-8-12-9v-3 2zm0 7v-7 7zm0 115v-2 2zm-2-178h1c0-15-2-15-1 0zm-3 218v11h1c0-9 0-12-1-11zm1 30v2c0 9 0 13 1 12 0-10 0-15-1-14zm1-103l1 7c0 5-2 10-4 13l-1-25 3 5v11h1v-11zm0 0h-1 1zm0-77h1v10h-1V86zm1 187c-1-1-1 0-1 2v7h1v-9zm0-154h-1v7h1v-7zm-2-72v-2l2 1-1 13-1-12zm3 137h-1v7h1v-7zm0-166v-7 7zm1 248v9-9zm-1-42l1 5-1 2v-7zm2-45c0 11 0 15 1 10l-1-10zm2-31l-1-2v17l1-15zm1 90h-1v9h1v-9zm0-21c-1 1-1-4-1-14h1v14zm0-26v-3 3zm1-84v-9h-1c0 7 0 10 1 9zm1 10c0-7-1-6-1-3v10s1 1 1-7zm-1-55l1 1h-1v-1zm2 38c0-6-1-3-1 7 0-1 1 3 1-7zm0-5v10-10zm1 154h1l-1 1v-1zm4-2v7-7zm44-173l-1 2c0 14 1 12 1-2zm6-3h1v-7h-1v7zm-1 91v-9 9zm-4-43v14-14zm0 34v5-5zm0-86v9-9zm1 71h-1v-7h1v7zm1-67h-1v15h1V71zm2 99h-1c0 8 0 10 1 9v-9zm1-3h-1v7h1v-7zm0-62V95v10zm1 76h-1v7h1v-7zm-1-57v9h1l-1-9zm1 11v7-7zm1 3v13-13zm2-24v-9h-1c0 6 0 11 1 9zm0 46h-1v10c1 1 1-3 1-10zm1 10h-1c0 6 0 11 1 9v-9zm1-17h-1v12h1v-12zm1-60c0-4-1-2-1-3v24c1 4 2-11 1-21zm11 40l-1 5v3l-1-3v7l-2 7v-17 21l-1 4c0-8-1-4-1 4l-3 8 1-24v-41c1-2 0 12 1 14v-5c0-11 0-27-1-11V86l1 9 3-2v2-3l1 8v7c1 9 2 3 2 24 0 1 1-3 1 2zm-5-9c-1-1-2 11-2 29 1-3 0 6 1 5 0-11 0-4 1-5v-29zm1-24c-1 1-2-1-2 12 1-1 2 1 2-12zm0 12v19-19zm1-5v7-7zM43 199h1v5l-2-2 1-3zm-2 11v-1 1zm1 1v-1 1zm1-5l1 1v4l-1-5zM37 98h-1v-6h1v6zm4-5v-4 4zm-19 11h-1l1-5v5zm11 38h1-1zm5-90h-1v-3h-1v7h1v-4h1l1 4-4 4v-6h-1v8l-5 9V49v15c1 1 1-4 2-5 0-13-1-28-2-13v-7l5-5v2-3l3-2v8l1-9v22zM24 87v-2l1 1-1 1zm-9 79v2l-1-2h1zm13 24v2-8 6zm6-1l1 4h-1v-4zM5 99l-1-2c-1 8 1 10 1 2zm0 43H4v13h1v-13zm2-48H6v7h1v-7zm2 51v10-10zm4-36h-1v7h1v-7zm1 14v7-7zm8-41V68v14zm-6-2v12-12zm7 50h-1v-1h1v1zm0-5h1v2h-1v-2zm0 7v-1l1 1h-1zm12-45h3v1h-2l-1-1zm-3-33c1 0 2 1 2-13-1 2-2-1-2 13zm2 47v3-3zm-1-35v2l-2 3 2-5zm-1 54v7h-2c0-3 1-8 2-7zm-4 30v-1 1zm1 29v-1 1zm1-3l-1-4h2l-1 4zm-1-19c1-2 1 2 2 2h-2v-2zm4 19h-1l1-1v1zm1-10v1-1zm21 17v-14 14zm0 9l1 12c-1 1 0-8-1-12zM231 81v2-2zm98-24h2-2zm-13 99v-10l10-6v13l-6 2-2 1h-2zm-55 126l7 4h-1l1 1v-1l8 5-8 12h1l-4-8 3-1-1-1h-2v1l-4-12zm-26-80s-11 11-15-10c-3-21 14-34 24-27 5 4-6 12-6 12 7 6-1 15-1 15 10 7 27-27 13-36l-7-2 5-9c3-8 9-14 12-14s4 2 7 10l1 25-6 65-11 3c-12 0-20-10-25-19l-2-5c8 9 21 8 21 8-10 0-10-16-10-16zm39-99l2-9c2 36 15 34 15 34-4 32 16 31 16 31 9 14-10 13-16 7-21-19-20-48-17-63v1-1zm58 87l-8 1c-9 0-20-4-29-12-8-7-15-17-20-28 11 23 33 35 56 29l1 1v-1 1-1 10zm8-34v2l-5-3 5 1zm-54 65c-14 34-22 46-23 45-2-2 2-16 5-29l4-25c4 12 14 9 14 9zm15 27l-7-2h1s0-1 0 0l1-1h1v-2l1-1 3 6zm-18-5l7-15 5 7h-3l-1 1-1 2h-1v5l1-3h1l-1 3 2-1v1l-2 1v-1 1h1l1 1h-1l-8-2zm8 19l-15-6 6-10 9 16zm-9 13l-10-5h2l1-2v-2l-1-1h-2l-1 1-1 1h1l-1 1 1 1v-1l1-1v2l-1 1-2-2h1v-1l5-8 7 16zm-13-150l-1-1v9l-5-15 5 3 1 4zm-15-31l16 8-2 14-14-22zm13 177l6 15-9-5h1l-1-1h-1v1l-2-2 6-8zm3 1l15 7-3 5v-1l-1-1h-1l-1 1v2h2l-4 5-4-10v-2h-1l-2-6zm7-13l9 3v1l9 3-9 12-9-19zm8-13l21 6-11 13-10-19zm10-16v1l-2-4v-2l9 5-1 1v1-1 1l-5-3h1-2 1l-3-1 2 2zm20 10l-2 3v-3h-3l-1 2v2l1 2-1-1h1v-1h-1 1v-1 1h1v1l-1 1h1l-4 6-12-21v1h6l14 8zm13-14h-1v-5l1 3v6l-1 1v-4l1-1zm-1-13v8l-3-9 3 1zm-1-149l-1 3v-7l4-3v4l-3 3zm-23-12l8-2-8 4v-2zm-2 1v3l-2 1-4-2 6-2zm-10 4l5 2-8 7-1-7 4-2zm-6 3l2 8v1l-9-4 7-5zm-9 7l9 4-6 8-4-12h1zm-3 2l5 13-1 1-14-5 10-9zm3 16l-5 13-9-17 14 4zm-17-3l10 16-17-8 7-8zm-8 11l14 23-21-14 7-9zm4 19h-1l-9 3-1-10 11 7zm-13-6l1 8-6-1 5-7zm-6 9l7 1-6 5-1-5v-1zm-2 4l1 5c-4 4-6 10-9 16l8-21zm-13 41l6-15c6-16 17-30 27-30h3c4 1 6 7 8 17l-5-3c-5 0-10 7-14 13l-7 12c-8 0-15 6-20 12l2-6zm16 107c0 10-3 18-11 25-1-23-4-52-8-83 7 17 19 40 19 58zm-23-48s7 109-2 109c-12 1 2-109 2-109zm-9 73c-9-7-12-15-12-25 0-18 13-41 19-58-4 31-6 60-7 83zm5-100c-4 21-15 10-15 10s0 16-9 16c0 0 14 1 22-9l-3 6c-5 9-14 19-24 19-5 0-9-2-13-5l-1 1-5-62v-28c2-7 5-9 6-9 4 0 9 6 13 14l6 9-6 2c-14 9 3 43 12 36 0 0-7-9-1-15 0 0-10-8-4-12 8-7 25 6 22 27zm-50 110l-7-11 15-9-8 20zm2 1v1l-1-1h1zm-25-175s14 2 16-34c0 0 14 45-16 72-7 6-26 7-17-7 0 0 22 1 17-31zm-35-75v2l-10-2h10zm1 2v-2c14 1 25 8 35 25 4 7 5 17 5 25-4-13-15-41-40-48zm29 4l11-3-2 12-9-9zm11 12l13-5-6 15-7-10zm-2 150s12 3 15-9l5 25c2 13 7 27 5 29-2 1-10-11-25-45zm19 47l-13 7 7-17 6 10zm-8-13l-16 7 11-17 5 10zm-7-12l-19 5 11-21 8 16zm16-106v-16l1 1 3-3c-3 6-4 12-4 18zm0-19l-2-16 17-8-15 24zm-3-18l-5-15 16-4-11 19zm-35 112l-12 27-11-13 23-14zm11 16l-13 23-9-11 22-12zm8 18l-10 18-10-12 20-6zm8 13l-8 18-9-11 17-7zm8 13l-7 17-8-10 15-7zm-2 14l6-16 6 9-12 7zm32-132l-5-12c-4-6-9-13-15-13l-4 2c2-9 4-15 9-16h2c11 0 20 14 27 28l8 22c-4-7-13-12-22-11zm-12-42l11-7-2 11c-3-2-6-4-9-4zm31 36l1 5c-4-11-8-20-15-29h1l2-7c5 10 9 21 11 31zm-14-25l-6-6 7-2-1 8zm1-10l-7 1 2-11 5 10zm-6-12l-23 15 16-25 7 10zm-7-12l-19 9 11-20 8 11zm-9-12l-20 6 8-19 12 13zm-14-14l-15 6 4-15c4 2 8 5 11 9zm96 250c-5 7-10 18-15 31v1c-11 28-21 63-24 76l-2-2-9-32v-1c-8-25-19-57-29-73-5-10-9-13-12-12l7-19 21 21c-11-13-19-40-23-71 4 3 8 4 13 4 11 0 19-8 25-18-7 15-15 34-15 49 0 11 3 21 13 28l-1 37c0 25 6 36 13 34 3 0 6-4 9-11h-1l1-1s0 1 0 0v1l2-23-1-37c10-7 13-17 13-28 0-17-9-38-16-53 5 10 14 22 28 22 3 0 6 0 10-2l-4 20-1 10-1-1-2 2v1l1-1v1l1-1-4 15c-4 10-8 17-14 23l20-19v1l1-1 5 14v-1l-1 1v1l1 1h1l1 1c-2 0-7 3-11 12zm3-29v-1l1-1c0 1 0 1 0 0l1 2h-1v-1l-1 1zm89-59v-2l3-3-3 5zM333 17l1 2h-4v-3l3 1zM70 33l-1 3v-2l1-1zm-6 3v3l-6 3v-3l6-3zm2 49v2h-1v-1l1-1zm-16 95l-1-2 1 2zm0 0l1 1-1-1zm285 98c0-4 1-12 1-1l-1 1zM57 40v3h-1v-3h1zm4 191l1-1 1 3 1 1-3-3zM78 31v3h-1l-1-3h2zm4 227v-2 2zm9-226v-3h1v3h-1zm2-4v3h-1v-2l1-1zm-1 244v-1l1 1v1l-1-1zm4-59v-2h1v2h-1zm5-177v9h-1l-1-8 2-1zm1 21v-2h1v3l-1-1zm0-4v-7h1v7h-1zm241 135l-1-3 3-2-2 5zm-1-15v-11c2 3 2 7 0 11zm0-16l1-3 1 1-2 2zm0-139v2l-1-1v-1h1zm-13 36v-1h5v1h-5zm-4-1v2l-3 1v-3h3zm-10 93l1-1v1h-1zm4 65v-1h1v-1l-1 1v-2h1v3h-1zm6-131c0 6-1 5-1-1l1 1zm4 177l-1-12 1-1v13zm-5-168l1-8c1 3 3 6 5 7v7l-6-6zm1-31v-3l4-1v3l-4 1zm7 134v-2l3-1v2l-3 1zm3-1l3-3v3h-3zm4-1v-3l2-1v3l-2 1zm1-34v-3l1 1v2h-1zm2-2v3-3zm15 99v-7l1-1v7l-1 1zm-45-79h1-1zm-14 8h1l-1 1v-1zm20-8h-1l-1-1h1l1 1zm-5 12v-1 1zm-13 8h1l-1-1v1zm2-2h1-1zm27-13h1l-1 1v-1zm-72 45v-2 2zm44-25h-1c0 1 0 0 0 0h1zm-31 17h1-1zm-15 14l-1-1-1 1h2zm13-6v-1h1l-1 1zm-11 7v-2c0 1 0 1 0 0v2zm15-8h1v-1h-1v1zm77-43h1-1zm-75 46h-1l-1 1-1 1v1h1s-1 0 0 0v-1 2l1 1 2-1v-2l-1-1v-1zm3 0l1 1v-1h-1zm50-26v-1l-1 1h1zm-4 3l1-1h-1v1zm-51 28v1-1zm2 2l-1-1v1h1zm10-6h-1c1 0 1 0 0 0h1zm22-11l1-1h-1v1zm1-2v1-1zm-52 34h1l1-1h2v-2l-1-1h-1v2h-2v2zm2-2v-1 1zm85-49v-1 1zm-79 45v-2 2zm38-21v-1h-1c0 2 0 2 1 1zm-6 7v-2 2zm1 2h-1v-1 1-1l1 1zm0 0v-1 1zm0-2h-1v1l1-1zm-49 24h-1 1zm9 0h1v-1l-1-1h-2c1 0 0 0 0 0v2h2zm-7 4h-1 1zm24-14l-1 1v1c0-1 0-1 0 0h1v-2zm6 3v-1 1zm-19 15l-1-1h1v-1 1h-1l1-2 1-1h1l1 1v1c0 2-1 2-3 2zm-5 5l1-1v1h-1zm15-9v-1h-1l1 1zm-8 8l-1 1h-1v-1l1-1h1v1zm-11 12l1-1-1-1v-1l-2 1-1 1h1v1l1 1 1-1zm40-25h1-1zm-3 4v-1 1zm23-9l2-2v2h-2zm-48 24v-1 1zm-14 9v-1h-1l1 2v-1zm21-12l-1 1-1-1h1c1 0 0 0 0 0h1zm59-33v1-1zm-73 42v1-1zm43-23h-1v1h1v-1s0 1 0 0zm-37 24l-1-2h2v2h-1zm-8 6h-2l1-1-1-1h1v1h1v1zm32-20v-1h1l-1 1zm11-7v1h1v-1h-1zm-12 9h-2l1 1 1-1zm-30 19v1-1zm70-39h-1v1l1 1 1-1-1-1zm-62 36h1v1l-1-1zm14-8h-1 1zm42-23h-1 1zm-7 5v-1 1zm-40 23l1 2h-2v-2h1zm-2 5v-1 1zm-9 6l2-1v3h-2v-2zm20-4l1-1v1h-1zm-21 9v1h1l-1-1c0 1 0 0 0 0zm11-5h-1v2h2v-2h-1zm-3 2h-2v1l1 1h1v-2zm-3 3v1-1zm34-20v1s0-1 0 0l1-1h-1zm-9 8h1l-1-2h-1v2h1zm-19 13h-1l1-1-2-1 1 1v3l1-1v-1zm24-16v1-1zm-8 6h-1l1 1 1-1h-1zm-28 18l-2-1v1l1 1h1l1-1h-1zm36-18v-1h-1l1 1zm-8 4s-1 0 0 0c0 0 0 1 0 0zm-12 9l-2 2v-1 1l-1-1v-1l1-1h1l1 1zm-2 1h-1 1zm44-26h-1l-1 1v1h1v1h1l1-1-1-1v-1zm-54 31l1 1-1 1v-2zm63-35v1-1zm-47 28v1-1zm-10 6h1v1h-1v-1zm10-4v-1 1zm-3 3v-1 1zm7-3v1l1-1h-1zm36-20l-1 2v1l2-1c-1 0 0 0 0 0l-1-1v-1zm-48 28h-1c1 0 0 0 0 0v1l1 1 1-1v-1h-1zm24-14h1-1zm8-3l1-1h-1v1zm-10 6v-1 1zm-15 8h1v-1l-1 1zm-7 6h-1v1l1 1 1-1c-1 0 0 0 0 0l-1-1zm0 1l-1-1h1v1zm22-12l-1-1 1 1zm2-1v-1 1zm12-5v1-1zm-22 13h-1 1zm1 0v-1 1zm8-3l-1-1h-1l-1 1v2l1 1 1 1 2-1v-3h-1zm-2 2h-1l1-1v1zm-1-1h-1 1zm7-4v1h1l-1-1zm15-7h1-1zm-11 7h-1l1 2 1-1v-1h-1zm-14 17v1h1v-1h-1zm10-79v4l-3-7 1 1 1 2h1zm-7 7h1v1l-1-1zm1 0v1-1zm1 0v1l-1-1h1zm-8-1v1l-1 1h-1v-1 1l-1-2 3-1v1zm16 59v2h1v-1l-1-1zm-15-85l-2-3 1-2h5v5h-2v1h-1l-1-1zm0-2h1v-1s0 1 0 0h-1v1zm0 1h1l1-1h-1v1-1l-1 1zm-26 80v-1h-1l1 1zm22-9h-2l1-1h1v1zm-18 12l-1-2h1l1 1v1h-1zm55-92h-1 1zM59 65l-1 1v-1l1-1v1zm-9 4v-2 2zM39 81c0 2 0 5 0 0l1 1v5l-1-2v-4zm57 7h1v1h-1v-1zm-65 8h1v2h-1v-2zm50 7v-1 1zm-61 6v2h-1l1-2zm8 18l-2-1 2 1zm62 2h-1v-3h1v3zm-63-1l1 1-1-1zm-1 13v1-1zm62 13h-2 2zm-63 7h-1v-2l1-2v4zm4-2v1-1zm-17 23v-2 2zm16 11v1h-1v-7h1v6zm-1-6h-1v-3h1v3zm68 2h-1 1zm-54 21h1v4l-1-4zm34 8c-1-1 0-1 1-2l-1 2zm-33-2c3 0 3 3 0 3v-3zm31 30v-2 2zM34 101h-2v-1l1-2 1 3zm7-11v-2l1 1-1 1zm17-19l2 1v1l-2 1v-3zm28 87l1-1-1 1zm1 3v-1h1l-1 1zm-13 24v-2 2zm-39-2v2-2zm-2-4l-2-1 2 1zm1-12l1 2v3l-1 1v-6zm-1-3v-3 3zm0-3l-2-2 2-5v7zm4-31c-2-1-2-3-1-6l1 6zm20-51h-1v-2h1v2zm19 10h1l-1 1v-1zm-48 60v-1 1zm189 362h-1 1zm27-59l-2 1-2-1v-1c2 0 3-1 4 1zm3-10l-1-1v2h1v-1zm0 0l1 1v-1h-1zm-2 0l1-1s1 0 0 0h-1v1zm44-74h1l1 1h-1 1c0 1 0 0 0 0l1 1-1 1-1 2h-1l-1-1-1-1v-1l1-1 1-1zm0-5l2 3h-1l-1-1v-2zm-76 59l-1 1v-1h1zm6-6l-1-1h1v1zm9-21h-1v-1h1v1zm2-7l-1-1h1v1c0-1 0-1 0 0zm9-13l1 1-1 1h-1l-1-1 1-1h1zm-6 5l-1-1h1v1zm9-10l1-1 1 1h-2zm2-6h1l-1 1v-1zm-10 9l-1 1h-1v-1l1-1 1 1zm8-8v1l-2-1h2zm-37 35v-1 1zm49-49l-1-2c1 0 0 0 0 0v-1l2-1h1v1c1 0 0 0 0 0l1 1v1l-1 1h-2zm2-2h1v-1l-1 1zm-58 54l-1-1h1c1 0 0 0 0 0h1v1h-1zm62-61l-1 1v-1h1s-1 0 0 0zm-11 9h-1c1 0 1 0 0 0l1-1v1zm3-4v-1 1zm-15 11v-1 1zm6-6h1v1l-1-1zm12-14v-2h2v2l-1 1-1-1zm-7 7l-1-1 2 1h-1zm6-12s1 0 0 0l1-1h1l1 1v1h-1l-2-1zm2 1c0-1 0 0 0 0v-1h-1l1 1zm-37 24l-1-2 1-1 1 2-1 1s0-1 0 0zm-1-6h-1c0-1 0 0 0 0h1zm-9 160l-2-2v-3l3-2 1 1v1l1 1c0 1 0 0 0 0l-1-1 1-1c0 1 0 1 0 0l1 2v3l-2 1h-2zm10-158l-1-1v-1l1-1h1v1h1v1l-2 1zm29 10h3v1l-1 1h-1l-1-2zm11-28v-1l1-1 1 1-1 4h-1l-1-1 1-2zm-1-3l-1-1 1-1 1 1-1 1z" fill="#b30000"/></svg>
