<svg viewBox="0 0 426.9 512" xmlns="http://www.w3.org/2000/svg"><path d="M57 48c1 5 2 4 2 12l-2 2v-2h-2v3l-1-5h2c1-2-1-2-3-2v12l-1 1h-1v-6h1v-2h-2c0-3 0-5-1-3v8l-1-3V49l1-1h1v-1l2-1v5l-1 1h2v-2h-1v-4l3-3 1 1v-1l1-1v5h-2c0 1 1 2 2 1zm1 0h-1 1zm-11 1l-7 9-1-3 11-11v3l-1 1v-2l-1 2h-1v1zm14-1h2v2c-2 0-2-1-2-2zm-24 3zm3-2v2h-2zm27 2l-1-2v2zm-15-1zm8 5v-2zm-4-1zm14 1h-1v-1h1zm1-1h1c1 2-1 2-1 0zm-27 2h-2v-1h2zm2 0v2h-3c0-2 1-2 3-2zm7 2zm31 1v-2c7-1 13 1 16 6 10 11 0 22-4 25l1-1h-1v-6h-1v6c0-4 0-10-4-13l-5-2h-4v1h-4v-3c-1-4-1-6-2-5v9l-4 2-5 1-1 3v-3h-1v-1l1-2h-1v-6l5-5h2v-1l3-2-1 2h2v-3l1 2v-2l2-1 1 12h1V59h3zm0-3v1h-2l2-1zm-14 1c1 2-2 1-1 0h1zm-8 2h1v-1h-1zm14 0zm-1 0h1l-1 1v-1zm-23 2h1v-1h-1zm-8 1h-2v-1l2-1zm18-2v1h1v-1zm19 1h2v-1h-2zm-31 2l-1-1v-1h1l1 2zm19 0c-1-3 1-3 3-2v1l-2 1h-1zm-22-2v0zm9 2h-1v-2h1zm30-1v1h1zm-3 3h2v-2h-1l-1 2zm-25-2c1-4 1-4 1 0v-3l6-6v12l-1 3-3-1v2h2l-1 2v-1h-2l1 2-1 2c0-2 0-3-1-2v-2l-1-5v-3zm-1 2v5l-2-1 1-1v-1h-1v-3l2-2v3zm-15 0h-1v-1h1zm11 0v-1h-1c-1 1 0 1 1 1zm-31 1c0-2-1-2-2-2-1 2 1 2 2 2zm38 0v-2 2zm6 0h-1v-1h1zm-26-1zm0 2v5c0 1 1-3 1 2v2h-1l1 2v5h-1v-4l-1 1v-1 5h-1l-2-1-1 1v-3l4-2c-1-1-2-3-4-2 0-1 0-1 0 0v3l-1 2h1l-1 4v9h-1v2c0-2-1-1-1 2v4h-2l1-3h-3V89l1 4v-4l1-3h-1l-1-2 1-9 2-5v10h-2v2h2v3h-1l1 1v9h-1v2h1c0 1 0 2 1 1v-5h2v-4h-1V67l1-2c0 4 0 8 1 7v-3h1v-1h-1v-5l5-5v7l-1 2h1zm10 1h-1v-3l2 2-1 1zm35-2h-1v1h1zm-27 2h-1v-1l1-1zm-5 1v-2 2zm0-2v-1l2-2v6l-1 3-1-6zm7 2v-2 2zm-25-1zm11 0c0 2 0 3-2 3v-3h2zm18 3l-1-1 1-1zm-42-2h-1v1h1zm53 0h-2v2l2-2zm-56 0l-2 1v1h2zm21 0h1v2l-1-2zm-11 3v3l-4 9v-1h-1v-2l4-7v1-1l1-3v1zm1-1c1 1 0 1-1 1v-1zm41 2l-1-2h-3v1l4 1zm-9 0h-1l1-1zm-21-1h1v2l-1-2zm24 1h1v-1h-1zm16 2l1-2v-1h1v3zm-54-1h-1v-1h1zm35 0h-1v-1h1zm10-1v-6 6l-2 1v1c2 0 3 1 3-1l-1-1zm-44 1zm36 2l1-2v2h-1zm21-2v1h-1c0-1 0-2 1-1zm-37 0l2-3v1l1 1c0 3 0 4 1 1v2l-1 2h1v1l-1-2h-2v4l-1 5v1-2h-2l2-2v-6l-1 1v2h-2l2-3v-2h2l-1-1zm0 0zm29 0l-1 1 2-2v11c-1-1-2-1-1-3h-1l1-2-1-1 1-2-1 1v-1h1zm-1 1zm-32 0zm2 0h1v2l-1-2zm37 4l-4 1 1-5 3 1zm-42-3v2-2zm-6 1zm8 2v-2h3v2h-3zm-31 0l1-2c-1-1-2 1-1 2zm4-2h-1v7-6h1zm-1 1v-1 1zm61 1l-1 2-1-1c1 1 1 0 1-1h-3l4-2v2zm7-1h1v1h-1zm2 1l-1 2 1-2zm1 2c-1-3 3-3 2 0zm24-1v-1c-1 0-2 0-1 1zm-69 2v-2h2c0 1 0 2-2 2zm-9 0h-1 1zm10 1l-1 3v-3h1zm-1 3v1h-1v-1h1zm37-5v-1zm21-1h-2v3h2v-3zm-62 1h-1v1h1zm34 1v5-5zm0 0v-1 3h-2l1 3h1v3h-2l1 1h2v-1h-1v-3h2v-2h-2c2 0 1-2 1-3zm21 1h-1v-1h1zm-68 0zm1 2v-1zm14 1h-1v-2l1 2zm-4 1l-1-1 1 1zm-25-1v-3H8v3h2zm20 0v-2h-1l1 2zm48-1h4c0 3-2 3-2 4h-1v-3 2l-1-3zm-61 0h-1v2h2l-1-2zm15 0v2l-1-1v-1zm-6 1v2h-1v-2zm2 3l1-3v3h-1zm11 1l-1-1v-2h2l-1 3zm-1-1v1l-1-1h1zm0 2h-1l1-1v1zm-3-1l1-3-1 3zm59-2v-1h1l-1 1zm-66 0v-1zm60-1l3 1c0 2-1 1-3 2v-3zm-6 2v1h-1v-1zM9 91h2v-2H9zm23 2c-1-2 0-3 1-4v4c-1 0-1-2-1 0zm46-3v1h-1v-1zm-56 3v5-5zm0-1v1zm0 0l2-5 2 15h-1v3h1v16h-1v2l1-1v3l-1 2v3h2l-2 1v5h2v7h-1v-7 4l-1-1h-2v2h3v3h1v1c1 3 1-7 1-15v-12l2-1v-2c-2 0-2-1-2-2v-3h1c-1-3-1-5 1-7v6h2v9c-3 1-2 6-3 8h1v2h-1v1h1l-1 2v11h-1v-1 5h-1c1 2-2 2-2 4l3 1 1-3-1-1v-3h1v5c2 0 2-1 2-2h-1 1v3h-2v1l2 1v1h-2v-1c-1 0-2 0-1 2v6h1v4c-1-1-1 1-1 3h1v6l-1-1v-1l-1-4v-1l-3-7 1 1v-1l3-1v-3h-3v-5h-1l-1 3h1v5l-2-8v-1l-2-14-1-5c3 0 2-3 0-3v-12l1-1v-8h2V93l1-1zm57 3l2 2h1v6h1l1 1 1-3h-2v1-5c9 3 22-6 24-18 2-10-1-20-10-23h4l1 2v-1c14 4 22 15 29 25 4 8 8 17 10 26-1 9-5 16-9 14-10-4-9-21-9-21-10 3-7 16-7 16-3-5-11-9-16-5v1c-3 2-3 6-3 12v16-10c4 13 18 13 18 13-12-1-12-27 7-23l1 1h-1v1h2v-1c19 5 9 43-14 32l-1-1-9-2-2-2v-1h-1v2l-10 1v-1l-1-3 1-2h-1l-1-3v-1-3h-2v7h1v-4 1h1v10h-4c2 0 1-2 2-3 1 0 2 0 1-1l-2-1 1-5h-2l2-1c0-2-3 0-2-2 0 0 1 1 1-1l-2-2h-1l1-2 1 1c1-2 0-3-1-3 0-3-2-5-2-5v-9 1l-1-2h1v-5l-1-1 1 1v-3h2v1h1l1-1c-2-1 0-3-1-3v-2l-1-2h1v-1h-1v-1 6c-1 1-2 2-3 1l-1 3v-2l2-2-1-1-1 1v-4h1v-2h-1l-1-2v2h-3c0 2 2 2 2 3 1 1-2 2-2 2 1-2 0-5-1-6l1-4h-2l1-1c1-1-2 0-1-1v-2h-1l-2-4v-2l1-2 1 1v-2l2-2 1 2s0-2 2-1v5c1-1 0 1 1 1v1l-2 1v2l2-2 3 4h-1c-1-2-5-1-5 2 2 0 5-2 5 1h-2c0 2 2 1 3 1l1-2zm0-3v-4 5-1zm0 1l6 2-2 1h-1v1l-4-4 1-1v1zm5-1h1v1h-1zm-59 0h-2v1h2zm14 0v2h-1l1-2zm46 0h1v1h-1zm-50 1l-1 2v-2h1zm68 0h-1v1h1zm-81 1l1 2v-2zm68 1h-1v-1l1 1zm-77 0h-1v-2l-1 10h1v-7h1zm-1 1v-1 1zm87 2c3 0 3-4 0-3zm-84-2v2c2 2 2-4 0-2zm58 0h-1v1h1zm35 0l-3 1v2c2 0 2-1 3-3zm-88 0l-1 4v1l-1 9h-2v2h1v9h-1v2h1v8l2 10h-1v1h1l1 4h-1v1h1l2 10v2-1l2 6h-1v1h1l2 5v1h1l1 2v1l-2 4c2 0 1-2 2-1v-1l1 2-1 3v-2 3h-1l-1-3v3l-1 1v-2h-1v8c0 2 1 3 1 1v-1l1-1h-1v-3h1v10c1-2 1 8 1 14l-5-7h1v-4h-1v2l-1-1v-4h-1v3l-6-14 1-18h1v-2h-2v9l-3-1v2l3 1v8l-1-3v-2h-1l-3-9v-1 1c-6-18-9-34-9-44 0-16 3-32 8-46v-1l5-13v9h1v-9l5-11c0 2 0 3 1 1v-2l3-5v7c1 3 1-2 1-9l1-1-1 22v14l-4 15zm8 86v-1 1zm-6-86v1l-2 1v-2zm68 2c0 1-1 3 1 3v-3zm-52 1v2h-1v-2zm72 5c0 1 2 1 2-1s-3-2-2 1zm-33 0h1v-2h-1zm22-2c-1 2 0 3 2 2l-2-2zm-77 2v1-2 1zm-2 2v-3h1l-1 3zm-4 0v-2h-1c0 1 0 3 1 2zm64-2h1v1l-1-1zm5 1v-1zm-2-1c0 2 1 3 2 3v-3zm12 1v2l2-1-2-1zm-15 1h1l-1 4v-4zm-4 4zm20-2h1v-1h-1zm7 1v-2h-2c0 2 1 3 2 2zm-84-1v-8h1l-1 8zm-1 2v-2h1v2zm72 0v-2h-1l1 2zm-66 0h1v-1h-1zm60 0v-1 1zm0-1v-1h-1v7h1v-5h1v-1h-1zm1 0v1h2c0-1 0-2-2-1zm-2 0h-1v1h1zm-65 1c0 2 0 2 2 2l-1 2-2-2 1-2zm5 0c-1 0-2 1-2 3l2 1v-4zm-8 3h1v-2h-2l1 2zm13 5c-1-1 0-3-2-3v-3h2v6zm64-6l-1 2 1-2zm-81 3c0 4 0 5 1 4v-9h-1v4c-2-1-2 0-2 1zm0-1zm10 0v2zm0 0v-4h-1c0 6 0 11 1 10h1v-3h-1v-1h1v-2zm58 4l1-2 1 3c2-1 0-3 0-4h-3l1 3zm3-3v1c1 1 2-2 0-1zm5 1h1v-1h-1zm-69-1h1v1h-1zm-9 1H8v1c1 1 1 0 1-1zm7 2v-1h-1c-1 0 0 2 1 1zm81-1c2 0 3 1 3 3h-3v-3zm-76 0v3-3zm-17 2H3v2h1zm11 2h1v-2h-1zm13-2v1h-2l2-1zm56 0h-1c0 2-2 1-3 3l3 1 1-4zm-57 2l-1 1v-1zm-10 0v2-2zm-9 1c0 2 1 4 3 3 0-2-2-2-2-3zm81 3h3c2-4-4-5-3 0zm35-3h-1zm-101 4v4c-1 1 1 2 1 1v-5h1v-2h-2zm62-2h-1c-1 1 1 2 1 0zm-63 2v-2h-1l1 2zm82-2h1v1h-1zM3 125H2c-1 1 0 1 1 1zm74 1v-1h1v1h-1zm40 0h1v-1h-1zm-39 2l3-1-1-2c-1 0-2 1-2 3zm11-3v-3h-1v3l-1 3h1v1h1v-1h1l-1-3zm-3 0h-1v1h1zm5 1v2l1-2zm-15 0v2h2c0-1 0-2-2-2zm21 0v2-2zm-78 4v-1 1zm0-3zm4 2v-7h-1v6l1 1zm7 0v-1zm80 1v-2h-1c-1 0-1 2 1 2zm-100-2v2h1c1-2 0-2-1-2zm6 0h-1l1 2zm2 2v1h-1v-1zm76 0h-1v1l1-1zm-9 4l-1-4h-1v4zm10-2v6h1v-6l1-2h-2v2zm-68 4v-5 5zm51-4h2v2l-2-2zm31 0h-1v1h1zm-87 2h1v-1h-1zm65 0v-1h-1c-1 1 0 1 1 1zm-67 1c2 0 2 2 3 1 1-2-1-2-3-3zm13 0l-2 9-1 1 1-11v2l2-1zm-2-2zm3 1v2l-1-1 1-1zm57 1v-1h-2c0 1 0 2 2 1zm-84 2l1-2-3-1-1 2 3 1zm96-3h1v2l-1-2zm-84 1h1v1l-2 1 1-2zm69 0h-1v1h1zm-72 2h-1v2h1zm12 1v2l1-2zm84 3v-2h-1l1 2zm-20 1h2v-2h-2zm-73 0v-1zm72-1h-2v1h2zm6 2v-1h-2c0 1 0 2 2 1zm-69-1zm2 0v2h-1v-2zm-5 4v-3c-1-1-4-1-4 3h4zm1-3zm1 0zm61 2v-2h-1c-1 1 0 3 1 2zm-79 1v-2H7v2zm76 1l1-2v2h-1zm-73 0h2v-1h-2zm8 0v-1zm9 0h1v1h-1zm65 3v-3h-2c0 1 0 3 2 3zm15-1l-1-2c-1 2 0 2 1 2zm-94 1v-2h-1c-1 1-1 2 1 2zm6-1h1v1l-1-1zm89 1h1v-1h-1zm-21 1v-2h-1l1 2zm9 1l-1-2h1v2zm0-3v1l2 1v1h-2v-3zm-80 2h1v-1h-1zm68-1h1v2l-1-2zm-70 2v-1 1zm6 0h-1v-1h1zm3-1v2h-1l1-2zm-1 7zm71-4h1l-1 2v-2zm-3 1c0 2-2 1-2 0h2zm-76 2h2v-2h-1l-1 2zm75 1h-1v-1h1zm-69-1zm-13 1H8v2h1zm20 0v2-2zm1 0v2h-1v-2zm67 2v-1zm-76 4l1-4h-2l-2 2-1-2-1 3c3 0 3 3 5 1zm70-4h1v1h-1zm0 0v2-2zm2 1h4l-1 3c-2 0-2-2-3-3zm-91 1v2l-2-1v-1h2zm88 4v-3h2c1 2-1 3-2 3zm9-1h-2v-2c2 0 2 1 2 2zm-74-1l-1 1 1-1zm4 0zm-9 4h2v-3h-1c1 2-1 1-1 3zm76-3h1v1l-1-1zm11 1h-1v-1c1-1 1 0 1 1zm-73 0v-1h-1c0 1 0 2 1 1zm65-1h2v2c-2 0-2-1-2-2zm5 0c1 2 0 2-1 1v-1zm-16 0c2 0 1 2 2 3h-3l1-3zm-72 1v2zm10 0h1v2l-1-2zm6 3l-1 4v-9l1 1 1-1 1 1v8h-1v-6h-1v2zm1-2v2h-1v-2zm58 2c0-1 0-2 1-1l-1 1zm3 0h-2v-1h2zm-89-1h2v2H5zm17 1h-1v2h1zm67 3v-3h2v2c0 2-1 1-2 1zm-61-1h-1l-1-1c1-1 2 0 2 1zm58-1c2 0 3 2 3 4l-1-1-2-2v-1zm-80 1c0 2 0 3-2 3-1-1 0-3 2-3zm16 0l-1 2h1v-2zm-8 3zm80 0v-1h1v1zm-7 2l1-1-3-1 2 2zm-67-1v-1h-1v1zm82-1h1v2l-1-2zm-18 0c0 3 1 3 2 4l-1-4h-1zm7 0h1v2h-1v-2zm4 2c2 0 2 0 2 2l-2-2zm-7 1v2h1l-1-2zm8 2v-1l7 1c23 1 41-12 50-31l-2 4c-4 7-10 17-19 25-10 8-20 12-29 12l-9-2h1l-2-1v1l-5-2c2-1 2-3 1-4-2-1-2 1-2 3l-2-1v-1l-4-5v-2h2l1-2 1 1v-4l1 1 2 2 3 3h1l3 1c-1 0-2 1-1 2h2zm0-1l-1-1 1 1zm-78 8c2 0 3-2 3-5-2 0-1-1-1-3h-3v3h2v2c-2 0-2 2-1 3zm73-6v-2l-2 1 2 1zm-54 5l-1 4-2-5 1-1 1-1-1-1v-5 5h-1v-2l-1-3 1-2v-1l1 1 2 1c0 1 0 2-1 1l1 9zm4-5l-1 4-3 1-1-3c1-2 3-4 5-2zm69-1h-1l-1 3h2zm-86 1h-1v-4h-1v17l1-1v-11h1zm-2 1l1-1v1zm23-1c1-4 1-1 1 1l-1 1v-1h1v-1zm-1 1v-1h1v1zm-20 4l1-3v3h-1zm5-3h-1v-1l1 1zm58 3v-1l1 1h-1zm-71-4v1zm81 5l-2-4-4-1c0 3 4 1 3 4 2 0 1 2 3 1zm-13-4h1v1c0 1-2 1-1-1zm19 0h-2v2h2zm-87 1v0zm34 1c2 0 2 1 2 2-2 1-2 0-2-2zm-20 1c0 1 0 2-1 1l1 7h-1v-11l1 1h1v1l-1 1zm2-1v-1h2v4l-1-1v-2h-1zm1 2l-3-1 1-1h1l1 2zm44 1c2 1 1-1 1-3l-1 3zm-56 0h1v-2h-1zm52 0v-2l1 2h-1zm0-2v-3c1 1 0-2 1-1 2 0 1 2 2 2 2 0 3 2 5 0l2 1v-1c2 3 5 5 8 6v1h1l11 1c10 0 20-3 31-12 6-5 12-12 16-20-5 15-19 43-50 49h-2l-2 1v-2l-1 2h-4l-5-5-7-8-2-7v-3l-2 1h-1l1-2h-2zm31 1v-1h-1c0 1 0 2 1 1zm-34-1v5l-2-2v-3zm-2 3v2l-1 3v-5l1-3h-1l1 3zm-57-2c0 2 0 3-2 3l1-3zm24 2h-1v-1h1zm4-1l-1 2-2-1v-1h3zm16 0h-2v-1c3 1 0-4 3-3l1 2 1 2h-1v2l-2-1c0 2 1 3 3 3v2l-1 1-3-6h1zm-2 1v-1l1 1zm-29 0h1v1h-1v-1zm5 1h-1v-1h1zm1-1h1v1c-1 1-1 0-1-1zm36 1v-1h1v1zm11 0h1v-1h-1zm3-1v2l4 1c1-3-2-4-4-3zm12 0v2l-1-1v-1zm-84 2v-1c2-1 2 2 0 1zm14 0v-1h-1c-1 1 0 1 1 1zm48-1h2v1c-2 1-2 0-2-1zm-33 2v3h2v-1l3 7v3l-6-10v-1h1v-1zm-1 1v7h-1v1h1v9h-1c0 16 1 14 3 17l-4-6 2-26h-2v-1h1l1-1zm-2 1v-2 2zm3-4v2l-1-2-1 2 1-2h1zm29 0v1-1zm-38 1zm1 0v2h-1v-2zm-16 2h-1v-2l1 2zm60-2h1v2h-1zm9 0h-2c-1 3 3 3 2 0zm13 2v-2h-1c-1 1-1 2 1 2zm-73 0v-1h1v1zm5 0h-1v-1l1 1zm36 1h-1 1zm0 4v1h-1v-2 1h1zm-1-6h1v2h-1v3c-2-1-1-4 0-5zm9 0l-1 4c-2 0-1-3-1-4h2zm1 0v-3l1-4v6c-1-1-1 5-1 3v-2zm0 0v0zm20 3v-2l-2-1c0 2 1 3 2 3zm-88-1c1 1-1 1-1 1v-2l1 1zm24 1zm-1-2zm41 3l-3-1v-2l2 1h1zm-17-3l2 1c0 1-2 1-2-1zm-22 1zm1 0zm30 1zm-2 2l-1-2 1-1h1v3h-1zm48-2h1v-1h-1zm-17 2c-1-1-3-1-2-3h-2v3c2-1 3 3 4 0zm15-2c-1 1-1-1-2-1l1 4h1v-3zm-70 3l-2 3-1-5c2-1 1 1 2 1l1-2v3zm38-2l2-1 1 2v1c-2 0-3-1-3-2zm3 1v-6 8-2zm-57 1h-2v-2h2v2zm34 1l1 3-1 1-1-3c-2 1-2 3-4 3l1-2v-3l1-1 1 1v-2c3 1 3 2 4 0l-1 3zm3-3h1v2l-1-2zm25 1h1v-1h-1zm-21-1v2-2zm0 0l1-1v4-3zm42 2v-2h-1l1 2zm-22 1h-1v-1h1zm-54 2v5h-1l1 1v1h1v-7h-1l1-3c-1 0-2 1-2 3h1zm46 0l1-3c1 1 0 3 2 2v3c-2 0-2-2-3-2zm-25-2zm16 0v1zm1 0zm-41 4v-2 2zm16-4h1v2l-1-2zm65 2v-2h-1l1 2zm-49 0h-1v-2h1zm6 4v-6 6zm-3 0l1-3 1 3h-2zm-21-4v-1zm-21-1h1v1h-1zm55 4c0-2 0-4-1-3v2l-1-1 2-2v4zm-1 0v-1 1zm-4-3h1v1c-2 0-1 0-1-1zm2 2h-1l1-2zm30-2h-1v2h1v-2zm-58 1h1v2l-1-2zm39 2l2-1v1zm-25 6c-1 1-1 0-2-1v-2l4-1v-3l2 1-1 3c-1 0-2 2-3 0v3zm11-2l1 12v-13l4 7v1h1l2 3v19c1 0 2-2 2-6h2v-1l-2-1 1-7 12 15h-1v1l1-1c44 53 71 83 127 199l3-10 1-1-1-1 1-1 2-1 27-55h-1l1-1 1-1 8-15v-1l1-1 7-12-1 1-1-2 2-1 1 1-1 1c9-15 19-28 28-40 11-15 22-27 34-41v1-2l1 12v-13l2-3v14c0-10 0 0-1-8v18l-5 6-3 3v-3h-1v4l-1 2v-4h-1v5s0-1 0 0l-6 8h-1c-16 21-29 40-40 59h-1c-37 62-51 107-51 107 25-67 65-126 106-176 0 6 0 9 1 7v-8 1-2l3-3 1 17c-1-2-1 3-2 4v-14 16l-1 1v-5l-1 6-8 11c0-3 0-6-1-5v6c-12 14-22 29-31 44v1-1c-11 16-21 33-31 52v2l-1 1-9 18 3 4v3l-1 1-2 2-1 1v-1l-2 2-1-1h-1l-5 11v1c-7 15-14 32-20 50-31-88-78-167-137-232-1-8-1-21-2-20v17l-9-10-1-16v14h-1v-5h-1v4l-4-5 1-10v-14 16c2 3 2-3 2-7l1 12v-18l1 1h-1c0 1 0 2 2 2v-1l16 21v4-3l4 4 6 9c0 4 0 9 1 7v-6c30 38 63 75 85 120-22-46-55-83-85-121v-5h-1v4l-2-4 1-5-1-2v7l-4-5-4-5v-2 1l-9-10v-2l-5-5v-1h-1l-2-4 2-1h-3v-2h-1v-9h1l-1-1v-4c0-3-1-2-1-2l-1 15-1-23h1l2-3v1l-1 1 1 1v3h2zm-1-4l1-8 1 11-1-1v-2h-1zm27-1c-2 0-2 1-2 2h2zm12 2v-2h-2c0 1 0 2 2 2zm-81 2v-3h1v4c-1 0 0-2-1-1zm12-3h1v1c-1 1-1 0-1-1zm38 2h-1v-2h1zm-1 0v9l-1-1v-4l1-2h-1v-4h1v2zm37-1l-1-1v2l1-1zm-57 2v-2h1c1 1 0 2-1 2zm24-2h1v1h-1zm-48 1l-1 1v-1h1zm-15 0v2c-1 0-2 0-2-2h2zm57 1h-1v-1h1zm-38 2v6l1 2-2-2v-2 1l-1-2v-13l-1-4h1v13c1 1 1-5 1-13h1v12zm3-3c0 2-1 3-3 3v-2l3-1zm3 2c-1 0-1-2-2-1v3c1 0 2 0 2-2zm38 1c-2 0-2-1-2-2h2zm-2-2v3l-1-3h1zm17 3h-2v-2c1 0 2 0 2 2zm-31 0l-1-2h1zm10 0l1-2v2h-1zm38 0l1-2c1 0 2 1 1 2h-2zm-79-1h1v1l-1-1zm74 2c-2 0-3 0-3-2h2l1 2zm-60 0zm-1-2h1v2l-1-2zm2 1zm0 0v16h1l-1 7-1-1 1-7c-1-2-1 4-1 7v-19h1v1-4zm-1 5l-1-1 1-3v4zm-20-3h-2c0-2 0-3 2-3v3zm23-3h2v1h-2zm18 0h-2v2h2zm20 5l-4 1v-2c2 0 2-1 2-3h1c-1 3 1 2 1 4zm-58-1v-2h2c0 2 0 2-2 2zm10-2v2h-2v-2zm15 0h2l-1 3-1-3zm1 3zm22-1c-2 0-2-1-2-2h2zm-62-1h1v1h-1zm68 1h-1v-1h1zm20 1c2 0 2 0 2-2-1 0-2 0-2 2zm-32-2c-1 2 1 2 1 1l-1-1zm27 3h-2v-3l1 1 1 1v1zm-39-1h-1v-1h1zm1 2v-3h1c0 1 1 4-1 3zm-48-2h2v1l-2-1zm64 0h1v2l-1-2zm26 0c0 2 1 3 3 3v-2l-3-1zm-65 1v2h-1l-1-2zm44 2h-1v-2l1 2zm33-2v1l-7 4 3-9 3-1c30-10 42-41 46-54-1 32-1 68-25 52l6 15-20 11 13-30-18 11h-1zm1 2l-1-1 1-1zm-74-1h1c2 3-3 3-1 0zm23 2h-1v-1h1zm29-1h2c0 2-3 2-2 0zm-49 1h1v1h-1zm27 0v2h1v-2zm-52 2h-2l1-2c1 0 2 1 1 2zm62-2h1l1 2c-1 0-2 0-2-2zm-49 2h-1v-2h1zm60 0h-1v-2h1zm-25-1zm13 3l-1-1 1 1zm-1-1l-2-3v-2c1 2 2 4 2 1h1l-1 4zm11 1v-2 2zm6-1v1l-2-2 2 1zm-83-1h1v2H8zm13 2v-2l1 1-1 1zm16-1h1v1h-1zm29 3v-3h-1v3h1zm22-1h-1v-2l1 2zm-59-1h1v1h-1zm50 3h-2v-3h2zm7-1h-1v-2h1zm-19 1c2 0 2-1 2-3-2 0-3 1-2 3zm-39-2v2h-1c-1-1 0-3 1-2zm-6 3v-3h1l-1 3zm75-3v1-1h1v2h-1zm-53 3c-1-1 1-3 2-1l-2 1zm-1-1v1l-1-1zm4 0h1v2l-1-2zm-29 2h-1v-2l1 2zm8-2c-1 3-2 2-1 5h-3c0-3 3-2 2-5zm50 1c-1 1 1 2 1 1 1-1 0-1-1-1zm-27 1h2v1l-2-1zm20 1v-1h-2l1 1c-1 8 0 10 1 9v-7h1l-1-2zm-1 2v-3h1v3h-1zm-8 1c-2 0-1-2-3 0l-1-3h2v2c2 0 2-1 2-2v3zm0-3zm-5 3c-2 0-2-1-2-2h3c0 1 0 3-1 2zm8 2l-1-1v-3 2l1 2zm11-2v-2 2zm-38-1h1v1h-1zm10 2h-2v-1h2zm-32-1v2c-2 0-3 0-2-2h2zm59 0v2h-1v-2h1zm-25 1h1v1c-1 1-2 0-1-1zm31 2l2-1h-3l1 1zm-14 0v1l-1-1zm-52 1c0 1-2 1-2-1l2 1zm76-1v3c-2 1-2-3 0-3zm-82 2h1v1H7zm60 1l-1-1 1 1zm-25-1h1v1h-1zm7 3h-1l1-2zm38-2zm-15 1c-2 3 2 3 0 0zm-19 2v-2h2c1 2 0 2-2 2zm-11-1v2l-1-2h1zm5 2h-1v-2h1zm3-2h1v2l-1-2zm1 0v-12l1-10 1 29-2-2v-3l1-1-1-1zm-4 1h1v1c-1 1-1 0-1-1zm8 4h1v2h-1zm2 2v-2h2c0 2-1 2-2 2zm-16 0c1 1 0 2-1 1v-1zm12 0c0 2-2 1-2 0h2zm-6 1v2-2zm1 0h2v2h-2zm2 6h-1c-1-1-1-4 2-3l-1 3zm10-3v3h1v-3zm-1 1v3h-2v-3zM27 102l1 3v-3 8h-1v-2h1l-1-2-1 1v-5zm1 0h1-1zm0 0v-2 2zm6 4zm-1-1v-3l1 1v2h-1zm4-4h1l-1 9v2l1 3 1 22c-1 0-2-1-1-3h-1l1-4h-1l-1-7c-2 0-1-2-2-3v8h-1v-6l3-7 1-5v-9zm1 0l1-1h1l1-1v2h1-4zm3-1v-2 2zm-4-1v2l-1 1v-1l1-2zm-2 2l1-3c-2-1-2 1-2 2l2-5v6zm4-4l-1-1c0-2 2-2 2-5l1 1v7-6l-2 7-2-1v-2h2zm2-5v-2 2zm-1-4v-1s0-1 0 0v1zm3 3h1v17l-1-3V90v1zm1 0l-1-5v4l-1-2 3-7c0 1 0 3 1 2 1 0 0-2 1-1 0 2 0 3-3 2v3h1c-2 0 0 1 0 1h-1c-1 2 1 1 1 3zm1-11zm5 7v-1h2l-1 1h-1zm-1-1v-5l1-4v9h-1zm4-6v-1l-1-1v-2l1-1v-1l-2-1v-4 1l1-1 1 2v2h1v2h-1l1 3v2c-1 0-1 3-2 2v-3l1 1zm4-7l-1-1 1 1zm3 3c1 1 3 2 5 1l-1 7-2-1c-2 1 0 2 2 2l-4 11v11l1-5v-9l2 2v-2l1-8v1l1 3v-6l2 2h-1l-1 3v1s0 1 0 0l-2 6-2 7-1 6v-1c0 6 0 13 2 19l3 2v-1c0-5 1-3 1 2 4 2 7 1 9-1h1v3l1 1h-1v3h1v4l1-2-2 2v6-5h-2l-1 1h-2l1 2v12h-1l-1-14-3 1c-3 0-6-1-8-3l1 4v19l-1-7-1 8 3 6v-2h1v-22c1-5 1 1 2-2l1 14c-1 4-1-6-1-7v14c0 16-1-2-2 3v3l5 7v-1h1v3l2 2-2 1v-3l-1-1v7c-1 0-3 0-3 2h-3c-1 1 0 3-1 2h1l-1 3v-4-3h-3v-9l1 3v-12h-1v7l-2-10v-5l-2-3v25-27l-4-7v1l1 31 2 5c-1-1-3-1-3-3v3c-1 0 0 3-2 3 0 2 2 1 1 3l-1-1v-6l-1-2 1-1c0-2-2-2-3-3l-1 2h-3l-2-2-1-2 1-11v-14h2c1 8 5 17 8 25v-30l-5-22c0-9 1-18 4-27-1 10 0 20 2 28v-14c-1-3-1 9-2 7v-12c1 2 0-14 1-7V87h2l1 9 1-12v1c0-2 1-3 2-3l-1 23c0 3 0-8-1-5l1 19v-4 18l6 6-1-12c1-6 1 5 2 4V99l-1 12 1 12c-4-5-7-12-7-23l2-13v-8l1-1 1 3v-5l1-1h-1v-2l2 1v4l1-3v1zm-3 0h-1v-1h1v1zm15 0c0 1 0 2-1 1l-1 1 1 2-2-1v3l-1 1-1-2-1 1 6-6zm0 3v1-1zm6 6l-1 1 1-2v1zm-3 2v-6h1v3h-1v1h1l-1 2zm-10-6v-2 2zm0-2zm-1 3v2-2zm11 19v4l1 1v2h-1v-8h1v2l-1-1zm1 7v2h-3v-1h-1v-2h2v2l2-1zm-4-1v2-2zm5 10l-1 2h2v3h-2l1-5zm-1 5v1h-1l1-1zm0 3zm0 0l-1 3h-2c2-1 0-3 1-4l2 1zm0 6l2 2-1 2 1-4h-2zm2 2v2-2zm0 2zm9 17v3h-1 1v-3zm0 2l5-1-4 4h-1v-2zm-2 2l2 1v1l1-1-1 1h-1l-1 2 1-1 1 4c0-1 1-4 3-2 0 2-2 1-2 4l-1-1v4l-2-1v1-12l-3 2h-1l1 1-3 9 2 9-1 2-1-1v-4l-1 1-1-7c0-5 1-11 6-14l2 1-1-2h1v-1 4zm0 12v1c-1 1-4 1-4-1l4 1v-1zm0 1zm-5 10l1 2-2 1 1-3zm1 1c2 0 3 2 2 3l-2-2v-1zm-8 1zm-1-2v2c0-6 0-8 1-7v7l-1-2zm0 2zm0 5l-2-3c1 1-1 2-2 1v-1l2-1v-1l1 1 1 1v-2l1 2v1l-1-1v3zm-12 6v2l-1-1 1-3v2zm-1-2l-1 1v-4l2 2v1zm1-1v-1 1zm-7 1c-1-1-1 2-3 1l-1-2 4-3v1zm0-4zm-7 4l-2-4h2-2c-1 1-1 3-3 3l2 2 1-2c1 1 0 3 3 2v6c-2-1-2-3-3-5v-2c-1-1-1 2-1 7l-2-1v-3l1-1c-1-1-1 1-2 1-1-2 1-6-1-6-1-1 0-2 1-2 1-1 0 2 1 1l1-2-1-4c2 0 2 1 2 3l2-1v1l2 7h-1zm-2 2v5-6 1zm0 5zm-10-24v1-3 2zm-1 9l1-1v2l-3-5v4l1 1h-1v-1l-2-3v-1 1l2-2h2v-1l1 3-1 3zm-4-4v-1 1zm2-2v1l-2-3h2v2zm-2-2l-1 2v-3l-1-1 1-1 1 3zm7-4l-1-3-1-11h1l3-3-1 21h-2l1-4zm-6-8zm1 0v-5 5zm1 2l1-1v1c-1 0-2 2-2-2l1 2zm1-1v-1 1zm0-4zm-4-2l-1-1v-3h1v4zm4-5v-1h1v5l-1-1 1-3h-1zm5 1v-1 1zm-2 0v-3h2v2l-2 1zm4-3l-1-5h1l1 4-1 1zm-1-5h-1v-2h1v2zm0-2l-1-2v2l-1-2c-2 1 0 2 0 2 1 1 0 1-1 1l1 3h1v3l-2-1h-2v2-13l-1 3v-5h1v3l2-2 2 1 1 1 1 6h-1v-2zm-1 6zm-6 3h-1 1zm1-4v-3l1-1v4h-1zm-3-3zm2-4h1v4l-2 2v-3l1-3zm0 0v-3l1 3h-1zm7-2v-1 1zm-3-6l-1 3h-1l1-3h-2v-3l1-2h2v2h1v4l-1-1zm-3 0v1l-2-1 1-7 1 2v5zm3-10zm-4-9h1l-1 8v-8zm1 0v-3l1 4-1-1zm0-3l-1-3v-5c0 1 0 3 2 3l-1 5zm51 43h-1 1zm0-1zm-2 6v-1l3-1v2c-2-1-2 0-2 2l-1-2zm1 4l-2 2c0-2 1-2 2-2zm-5 12l1 3-1 1v-4zm-2-39l-1-1c-1 1 1 2 1 1zm-2-24c2 1 2 3 1 5l-2-2h1v-1l-1-1 1-1zm-2 1v-1 1zm-3 64l1 1c-1 1-1-1-1-1zm-1 5zm2-1zm-3-86l-1-2c0-1 2 0 1 2zm9-10v-1 1zm-17 2v-1s0 1 0 0v1zm0-1v-1h1l-1 1zm0-2v-2h1l-1-1v-3l-4 9v4c0 2 3 16 2 17 2-1 1-24 3-19v7l-1-11v-1zm0 97l1 3h1c0-3 5-1 5-2s-3 1-2-1h-5zm1-94l1-2-1 2v1-1zm0-8c1-1 2 2 3 1l-3-2v1zm-1 2zm-7 100h1v-1s0 2 2 1h-3zm4-103zm-1 0h-1v-3h1v3zm-3 4v2l-1-2h1zm-13 49h1c-1 2-1 0-1 0zm2 21v-2l1 2zm1 15v3c1 0 2-3 0-3zm0-76l1 1-1 1zm0 4l-1-1 1-1v2zm-1 32l2 1-1 2-1-1v-2zm0-1v-1 1zm0-1l-1-2 1 2zm-2-22h1v1h-1zm-2 5c1 0 4 2 2 2l-2-2zm-3-1h1v1l-1 1v-2zm1-1v1l-1-2v-2l2-1v8c-1 2-1 0-1-2v-2zm41-18v-2h1l-1 3v-1zm-48 73v-1h-1c1 2-1 1-1 2 2 1 1-2 2-1zm50 34l-1-3 1 3zM43 47l2-1-1 3c-2-1 0-2-1-2zm-15 99zm46 42l1-1 2 2c-2 1-2-1-3-1zm-33-78c1-5 1-8 2-5l-2 5zm1-71V27v12zm4-5V23v11zm285 255c0 8-1 3-1 4l-1 7v-23h1v7c0 6 1-5 1 5zm-1-15c0 1 0-4-1-2v5l-1 2v-6l3-4v6l-1 2v-3zM39 29h1v12l-1-12zm21-2h-1 1zm-3-12zm0 12V16l1 11-1 5v-5zm359 117l1 29c-3 10-7 21-13 31v-6h-1v7l-16 24-46 57v-7h-1v7l-3 4c0-2-1-1-1-1v2-20l2-4v5h1v-5l1-2v5h1v-5l12-15v1h1v-2l1-2 1 11v-12c22-26 38-56 48-90v2-4c4-36 2-73-17-99a85 85 0 00-49-37c0-14 0-19-1-14v14l-7-1V1l12 2v15V3c26 7 49 24 63 47v6h1v-5l5 9 1 3 1 1v2-2l2 3v1l1 2v17c0-9 1 2 1-10v15c-1-2 0 26-1 33v19zM331 19h6v7c1 1 1-4 1-3v-3c25 5 54 38 62 69l3 12v12-10l1 15v11a253 253 0 01-46 107v-9 9l-4 6v-6h-1v7l-17 21v-13c-1 3-1-7-2-5l-1 21-2 2v-22l1-1v12l1-7c0-7 0-5-1-5l7-8 1-1c0 13 0 19 1 18l1-14-1-6 2-2 3-4 1 10v-11l1-1v2-2l7-10 1-1c59-85 30-151-11-170V33c0-5-1-10-2-7v19l-7-3V28c-1-1-1 4-2 2l1 12-5-1 1-15v-7zm-3 23v-2l2 1c-1 3-1 3-2 1zm0-2h-3c-1-5-1-2-2 0h-11c-16 3-32 9-45 20v1c-26 19-42 49-51 77l-1 6-2 6-1-6c-2-7-3-13-7-20-14-43-41-81-81-92-10-3-21-4-32-4v-3c-1-1-1 0-1 4v-7h-1v7l-13 2V20c-1 0-2 0-2 2v9l-6 2c0-13-2-19-3-23l7-3c0 11 0 17 1 15l1-9-1-7 3-1c-1 12 0 25 1 22V5l12-3 1 6V1l1 5V1h6l10-1c49 0 91 38 104 91l1 7 2-7 2-8c16-52 59-85 106-83v9h1V0h3v16h-6V9c0-2 0 3-1 2v5h-1c-23 1-43 11-58 21-22 16-29 36-32 43 18-38 56-58 91-58l7-3v4l1 17zM69 36l7-2c0 2 0 3 1 2v-2l13-2h1v-1 5h1v-5c11 0 21 1 31 4l1 1-10-1-14 1v-2c-1-3-1-2-2-2v5c-8 2-17 5-25 10 0-4 0-4-1-1v2l-7 6v-6c-1 1-2 1-2-9l6-3zm-1-2l-5 2v-4c-2 6-3-4-3-5V13h1s0 3 1 2v-3l2-1-1 11c0 7 1 11 2 10l-1-21 2-1 2 24zm17 107v1-1zm-2-38v-1zm-7-24v-1 1zm-12 6zm-5 1c-1 0-1 0 0 0zM48 49h-1 1zm1 19zm8-29l-1 1c0-5 0-7-1-6v6l-1 1v-7 7l-4 3V29l1-10 2-1v9c0-9 1-1 2-2v-9l1-1v19c1-2 1 0 1 5zm-16 61zm-2 45l1 2-2 2 1-4zm9 31zm3-42l1 14c0-3 0-7 1-5v13l1-6-1-7v-10l-4-9 2 10zm4-62v-3l1 6h-1v-3zm3 91l-1-2v3c0 2 1 1 1-1zm-2-13l-1 9 2 2-1-11zm2 46h1v3l-1 2v-5zm5 8l-1-1v1-2 1h1v1zm268 42v1l-2 2c1-8 2-12 2-3zm0 29h1l-1 2v-2zm2-1v-1 1zm3-4v1l-3 2v-6l3-3v6zM49 96c0 14 1 21 2 23 0-16 0-28-2-23zm2 23l1 10v-10zm1-75v2zm2-3zm13 69v17l-1-19c0-1 0 4 1 2zm-5 60l-1-1v5h1zm0 29h1l-1 4v-1zm0-96v21c-1 1-1-7-2-9 1-7 1-14 2-12zm-2 35v-7 7zm6-9l-1-1c0 8 0 11 1 10v-9zm0 28h1v7h-1zM85 15V8zm9 73h1v1h-1v-1zm-29-7l1 1-1 2v-3zm8 60l1-1-1-2v3zm0-86l-1-1v-6l1-1v8zm-1 19v-1zm0 31v2zm0 7v-3zm-1-21v-1 1zm-1 24l1-15h1v17c-1-1-3 18-3-2 1-3 1-3 1 0zm0 26zm0 2v7h-1v-7zm1 31h-1c-1-7 0-17 1-10zm0-17h1v7h-1zm4 57zm1-74v-2zm4 13h-1v-8h1zM79 51h2v6l-2 1v-7zm3 46l1-1v1h-1zm1 41h1v3l-1-2zm1 100v7zm3 33v7zm3-38v-5zm0-5l-1-1-3-3c5 2 7 1 9-1l2 2c22 25 43 51 62 79 0 6 1 14 5 23-23-35-47-69-74-99v-2zm3-203V15h-1c0 6 0 12 1 10zm0 38h-1l1 9zm2 68h1v1h-1zm1 80l7-1-6 12-2-2-2-7-1-1 3-1v8h1v-8zM95 91v-2l1-1c0 3 0 4-1 3zm2 38v2-2zm3-84c7-2 13-2 20-2 8 1 15 4 23 9l-14 4-1-11h-3l1 9c-10-6-18-7-24-8h-1l-7 1-8 2 13-4 1 1zm1 70c0 8-2 6-1-2v-1l1 3zm239 70c4-4 7-10 8-17 0-6-3-12-8-15v-2c0-5-1-2-1 1h-1v-1 1h-1l-1-27-1 17 1 9-6-1c0-4-1-5-1-1v1h-2V94l10 3v2h1v-2c2 0 4 0 6-2 0 2 0 2 1 0l4-7-1-11c2 1 6 3 9 8 5 7 7 16 7 25l-2 16c-4 4-9 5-12 3v-9 9l-1-2c-2-4-7 4-3 10v7-7c2 3 5 4 11 5 16 0 25-28 19-52l1 2 3 13c2 10 1 25-5 40-2 8-14 26-24 41v-4 5l-4 5 1-5-1-10v16l-12 15-1-17v18h-2v-20l1 12 1-12 1-1v6c1 6 1 6 2 0v-7l2-1 1 1v-2zm-2-2l-1 1-1-11 2-2v12zm0-23l-1-3 1-2v3-3 5zm0-23c0-12 0-15-1-10 0 11 1 15 1 10zm0-57zm0 26v31c1-7 2-9 2-26 0-4-1-6-2-5zm1-59zm0 28l-1-3h1v3zm-3-30h1v9c-1 2-1-1-1-9zm0 66v9-9zm0-62l-1-7h1v7zm-4 50l1 12c0-12 0-18-1-12zm-1 9c0 15 1 12 1-2l-1 2zm0-59v3zm0 7v-4zm0 69v-7zm-6-90zm-6 17c0-3 0-5 0 0zm0 6l3-1v2c-5 5-6 12-5 20l3 7v6h1v-5 24c-5-1-11 2-12 6 0 0 2-13-9-16 0 0 1 17-8 21-4 2-7-5-9-13 1-4 4-15 10-27 6-10 14-19 26-24v3zm-10 216v7zm1-4l-1-5v-3l1-1v9zm-1-8c-17 20-33 40-50 67 3-8 6-15 6-21l1 1 1-1-1-1c0 1 0 0 0 0h-1v-1l1-1 1-1h-1l4-7 1 1 1-1v-2l6-9 1-1v-1c16-21 33-41 51-60l1 10v1l-2 3v-2 3l-1-5v6l-2 1s0-4-1-2v3l-2 3v-9 10l-6 7-7 8-1 1zm-44 44l-1-1 1-2h1v1l-1 2zm45-219v7zm2 83v-15l1-1c0 13 0 24-1 16zm0-15c-22 7-31-29-11-34 18-3 19 15 12 22v-1 1l-3 1h2v7zm2-94v10zm2-8l3-1v3c-22 9-34 35-37 48-1-9 1-19 4-26 9-14 18-21 29-24v3h1zm-1-6h1v6h-1zm1 168l-20-12 12 29-9-4 1-1-1-2-1-2v-2h-1l-2-1h-3v1l-2 2-1-1 6-15-8 4-1-1-1-1h-1l-2 2c-10-4-10-28-12-51 5 14 18 41 46 49v4h1v-2 1-3 1l5 9-6-3v-1zm-8 17h1v1h-1v-1l1 1zm8-15v-2 2zm0-11zm-34-27c-5-9-9-19-12-29 3 7 9 19 21 29 9 9 20 12 30 12h1l7-1v6c1 2 2-6 2 7l-2 6h-1l-3-1c0-2-1-2-1 0l-7-2v-4h-1l-1 1-1 1 1 1h1-1l1-1v1l-1 1c-15-5-25-16-33-27zm35 27h-1 1zm0 94v8zm0-109v8zm1 98h-1v-4h1zm1-57v-2 2zm0-1l-6 6-12-27 15 9c0 5 0 5 0 0l8 5v1l-5 5v-8zm1 55h-1v-3l1-1zm1-206v7l-1-1c0-5 0-7 1-6zm0-59l-1-5h1zm0 57c-2-4-2-8 1-12v12c0-4-1-3-1-3v3zm1 90v-10zm1 78c0 1 0 1 0 0v-1zm0 14v10-3l1-1h-1zm1 21h1v2l-1 1v-3zm1-4v6zm1-26c1-1 1-5 1 0v1l-1 1v-2zm1-93l-2 12c-1-4-1-11-2-7v-12l4-1v8zm-6-47c2 1 5 3 6 8v10l-4 10-2-28zm2-69v-2h2v9h1v3h-4l1-10zm3 18l3-1v9-10l8-1 1 15-4 1-1 1c-6 4-4 14-4 15l-2-2v-5c1 2 0-12 1-19-1-5-1 1-2-2zm3 188h-1v-8l1-1v9zm0-36v8l-3 3-1-1v-11h3v6h1v-5zm-1-2v-1h1v3l-1-1zm1-156v5-5zm0 190v-6zm0-17v7zm1-7c0-1-1 7-1-2l3-6h-3v-3h3l-2 11zm1-57l1 12h-2c0-1 0 0 0 0h-1v-25h1l1 13zm1 12v1h1-1v4l-2 1-1-1v-3l-1 1v-2l1-1v2l3-1v-1zm3 0v10l-1 1v-4l-1-2-1 7v-7l1-2v-2l2-1zm-3 64c-1 1-1-2-1-4l1-1v5zm2-149V80c0-3 0-3 0 0v10zm2 135l3-2-1 4-6 7v-9h3c0 1 0 3 1 2v-2zm-2-5v-11l1-1 1 17h-1l-1-5zm2-50l1-5-1 5v3l-1 2 1-5zm1-26v-9c0-4-1-5-1 4l1 5zm1 100h-1c0 4 0 14 1 11zm0 21h1v2h-1zm2-2h1v2h-1zm0-29l-1 4h-1v-11l4-4-1 12-1 2v-3zm-1-31c1 11 2 1 3 10v8l-3 2v-20zm11-90c0 1 0-4 1-2l-1-17v19zm0 17v-1zm-3-57l-5-1h-3V57l5 1 1 3v-3l7 4v13h1V62c7 5 14 13 16 26l1 12c0 11-2 18-5 23l2-13c0-9-2-19-8-27-4-5-8-8-12-9v-3 2zm0 7v-7 1zm0 114v-2 2zm-2-176h1c0-15-2-15-1 0zm-3 216v10h1c0-8 0-11-1-10zm1 29v2c0 9 0 13 1 12 0-10 0-15-1-14zm1-102l1 7c0 5-2 10-4 13l-1-25 3 5v11h1v-11zm0 0h-1zm0-76h1v10h-1V85zm1 185c-1-1-1 0-1 2v7h1zm0-152h-1v7h1zm-2-71v-2l2 1-1 12-1-11zm3 135h-1v7h1zm0-47zm0-117v-7zm1 245v9zm-1-41l1 5-1 2v-7zm2-2zm0-43c0 11 0 15 1 10l-1-10zm1-21zm1-10l-1-2v17l1-15zm1 90h-1v8h1zm0-21c-1 1-1-4-1-14h1zm0-26v-3zm1-83v-9h-1c0 7 0 10 1 9zm1 10c0-7-1-6-1-3v10s1 1 1-7zm-1-55l1 1h-1v-1zm2 38c0-6-1-3-1 7 0-1 1 3 1-7zm0-5v10zm1 121zm0 31h1l-1 1v-1zm3-10c0 1 0 1 0 0zm1 8v7zm44-171l-1 2c0 14 1 12 1-2zm0 28zm0 52zm6-83h1v-7h-1zm-1 90v-9 9zm-4-42v14-14zm0 33v5zm0-85v9zm1 71h-1v-7h1zm1-67h-1v15h1zm2 98h-1c0 8 0 10 1 9zm1-3h-1v7h1zm0-61V94v10zm1 75h-1v7h1zm-1-56v9h1l-1-9zm1 11v7zm1 3v12zm0 35zm2-59v-9h-1c0 6 0 11 1 9zm0 45h-1v10c1 1 1-3 1-10zm1 10h-1c0 6 0 11 1 9zm1-17h-1v12h1zm0-26zm1-33c0-4-1-2-1-3v24c1 4 2-11 1-21zm11 40l-1 5v3l-1-3v6l-2 7v-16 20l-1 4c0-8-1-4-1 4l-3 8 1-24v-40c1-2 0 12 1 14v-5c0-11 0-27-1-11V85l1 9 3-2v2-3l1 8v7c1 9 2 3 2 24 0 1 1-3 1 2zm-5-9c-1-1-2 11-2 28 1-3 0 6 1 5 0-11 0-4 1-5v-28zm1-24c-1 1-2-1-2 12 1-1 2 1 2-12zm0 12v19-19zm1-5v7zM43 197h1v5l-2-2 1-3zm-2 11v-1 1zm1 1v-1 1zm1-7zm0 2l1 1v4l-1-5zM37 97h-1v-6h1v6zm4-5v-4 4zm-19 11h-1l1-5zm11 38h1-1zm0 0zm5-90h-1v-3h-1v7h1v-4h1l1 4-4 4v-6h-1v8l-5 9V48v15c1 1 1-4 2-5 0-12-1-27-2-12v-7l5-5v2-3l3-2v8l1-9v21zM24 86v-2l1 1-1 1zm-9 78v2l-1-2zm13 24v2-8 6zm6-1l1 4h-1v-1-3zM5 98l-1-2c-1 8 1 10 1 2zm0 43H4v12h1zm2-48H6v7h1zm2 50v10zm4-35h-1v7h1zm1 14v7zm8-41V67zm-6-2v12zm1 36zm6 14h-1v-1h1zm0-5h1v2h-1zm0 7v-1l1 1zm2 69zM35 86h3v1h-2l-1-1zm-3-33c1 0 2 1 2-12-1 2-2-1-2 12zm2 47v3-3zm-1-35v2l-2 3 2-5zm-1 54v7h-2c0-3 1-8 2-7zm-4 29v-1zm1 30zm0-1v-1 1zm1-3l-1-4h2l-1 4zm-1-19c1-2 1 2 2 2h-2v-2zm4 19h-1l1-1zm1-10v1zm20 17v-14 14zm0 9l1 12c-1 1 0-8-1-12zm3-175zm3 214zm-11-18zM229 80v2-2zm97-24h2-2zm-13 98v-10l10-5v12l-6 2-2 1h-2zm-55 125l7 4h-1l1 1v-1l8 5-8 12h1l-4-8 3-1-1-1h-2v1zm-25-79s-11 11-15-10c-3-21 14-34 23-27 5 4-5 12-5 12 6 6-1 15-1 15 9 7 26-27 12-36l-7-2 5-9c3-7 9-13 12-13s4 2 7 10l1 24-6 65-11 3c-11 0-19-10-24-19l-2-5c8 9 20 8 20 8-9 0-9-16-9-16zm38-98l2-9c2 36 15 34 15 34-4 31 16 30 16 30 9 14-10 13-16 7-21-19-20-47-17-62v1zm58 86l-8 1c-9 0-20-4-29-12-8-7-15-17-20-28 11 23 33 35 56 29l1 1v-1 1-1 10zm7-34v2l-4-3 4 1zm-66-5zm13 70c-14 33-22 45-23 44-2-2 2-16 5-28l4-25c4 12 14 9 14 9zm15 26l-7-2h1s0-1 0 0l1-1h1v-2l1-1zm-18-5l7-14 5 7h-3l-1 1-1 2h-1v4l1-2h1l-1 2 2-1v1l-2 1v-1 1h1l1 1h-1zm8 19l-15-6 6-10zm-9 13l-10-5h2l1-2v-2l-1-1h-2l-1 1-1 1h1l-1 1 1 1v-1l1-1v2l-1 1-2-2h1v-1l5-8zm-13-148l-1-1v9l-5-15 5 3 1 4zm-15-31l16 8-2 14zm13 175l6 15-9-5h1l-1-1h-1v1l-2-2 6-8zm3 1l15 7-3 5v-1l-1-1h-1l-1 1v2h2l-4 5-4-10v-2h-1zm7-13l9 3v1l9 3-9 12zm8-13l21 6-11 13zm10-15v1l-2-4v-2l9 5-1 1v1-1 1l-5-3h1-2 1l-3-1zm20 10l-2 2v-2h-3l-1 1v2l1 2-1-1h1v-1h-1 1v-1 1h1v1l-1 1h1l-4 6-12-20v1h6zm13-14h-1v-5l1 3v6l-1 1v-4l1-1zm-1-13v8l-3-9 3 1zm-1-148l-1 3v-7l4-3v4l-3 3zm8-11zm-31-1l8-2-8 4zm-2 1v3l-2 1-4-2 6-2zm-10 4l5 2-8 7-1-7 4-2zm-6 3l2 8v1l-9-4 7-5zm-9 7l9 4-6 8-4-12h1zm-3 2l5 13-1 1-14-5 10-9zm3 16l-5 13-9-17zm-17-3l10 16-17-8 7-8zm-8 11l14 23-21-14 7-9zm4 19h-1l-9 3-1-10zm-13-6l1 8-5-1 4-7zm-5 9l6 1-5 5-1-5v-1zm-2 4l1 5c-4 4-6 10-9 16l8-21zm-13 40l6-15c6-15 16-29 26-29h3c4 1 6 7 8 17l-5-3c-5 0-10 7-14 13l-6 11c-8 0-15 6-20 12zm16 106c0 10-3 18-11 25-1-23-4-51-8-82 7 17 19 39 19 57zm-23-47s7 108-2 108c-12 1 2-108 2-108zm-9 72c-9-7-12-15-12-25 0-18 13-40 19-57-4 31-6 59-7 82zm5-99c-4 21-15 10-15 10s0 16-9 16c0 0 14 1 22-9l-3 6c-5 9-14 19-24 19-5 0-9-2-13-5l-1 1-5-62v-27c2-7 5-9 6-9 4 0 9 6 13 13l6 9-6 2c-14 9 3 43 12 36 0 0-7-9-1-15 0 0-10-8-4-12 8-7 25 6 22 27zm-50 109l-7-11 15-9zm2 1v1l-1-1zm-24-173s13 2 15-34c0 0 14 45-15 71-7 6-26 7-17-7 0 0 22 1 17-30zm-35-75v2l-10-2h10zm1 2v-2c14 1 25 8 35 25 4 7 5 17 5 25-4-13-15-41-40-48zm29 4l11-3-2 12-9-9zm11 12l12-5-6 15-6-10zm-2 149s11 3 14-9l5 25c2 12 7 26 5 28-2 1-10-11-24-44zm18 46l-13 7 7-17 6 10zm-8-13l-15 7 10-17 5 10zm-7-12l-18 5 11-20 7 15zm11-90zm5-14v-16l1 1 3-3c-3 6-4 12-4 18zm0-19l-2-16 17-8zm-3-18l-5-15 16-4zm-34 111l-12 27-11-13zm11 16l-13 22-9-10zm8 17l-10 18-10-12zm7 13l-7 18-9-11zm8 13l-7 17-7-10zm-2 14l6-16 6 9zm32-131l-5-11c-4-6-9-13-15-13l-4 2c2-9 4-15 9-16h2c11 0 20 14 27 28l8 21c-4-7-13-12-22-11zm-12-41l11-7-2 11c-3-2-6-4-9-4zm31 35l1 5c-4-10-8-19-15-28h1l2-7c5 10 9 21 11 30zm-14-24l-6-6 7-2zm1-10l-7 1 2-11 5 10zm-6-12l-23 15 16-25 7 10zm-7-12l-19 9 11-20 8 11zm-9-12l-20 6 8-19 12 13zm-14-14l-14 6 3-15c4 2 8 5 11 9zm95 248c-5 7-10 18-14 30v1c-11 28-21 63-24 76l-2-2-9-32v-1c-8-25-19-56-29-72-5-10-9-13-12-12l7-19 21 21c-11-13-19-40-23-70 4 3 8 4 13 4 11 0 19-8 25-18-7 15-15 33-15 48 0 11 3 21 13 28l-1 37c0 24 6 35 13 33 3 0 6-4 9-11h-1l1-1s0 1 0 0v1l2-22-1-37c10-7 13-17 13-28 0-17-9-37-16-52 5 10 14 22 27 22 3 0 6 0 10-2l-4 19-1 10-1-1-2 2v1l1-1v1l1-1-4 15c-4 10-8 17-13 23l19-19v1l1-1 5 14v-1l-1 1v1l1 1h1l1 1c-2 0-7 3-11 12zm3-29v-1l1-1c0 1 0 1 0 0l1 2h-1v-1l-1 1zm88-58v-2l3-3-3 5zM330 17l1 2h-4v-3l3 1zM69 33l-1 3v-2l1-1zm-6 3v3l-6 3v-3l6-3zm2 48v2h-1v-1l1-1zm-16 94l-1-2 1 2zm0 0l1 1-1-1zm283 97c0-4 1-12 1-1l-1 1zM56 40v3h-1v-3h1zm4 189l1-1 1 3 1 1-3-3zM77 31v3h-1l-1-3h2zm4 224v-2 2zm8 9c0 1 0 1 0 0zm1-232v-3h1v3h-1zm2-4v3h-1v-2l1-1zm-1 241v-1l1 1v1l-1-1zm4-58v-2h1v2h-1zm5-175v9h-1l-1-8 2-1zm1 20v-2h1v3l-1-1zm0-4v-6h1v6h-1zm238 134l-1-3 3-2-2 5zm-1-15v-11c2 3 2 7 0 11zm0-16l1-3 1 1-2 2zm0-137v2l-1-1v-1h1zm-12 35v-1h5v1h-5zm-4-1v2l-3 1v-3h3zm-3 3zm-7 89l1-1v1h-1zm4 65v-1h1v-1l-1 1v-2h1v3h-1zm6-130c0 6-1 5-1-1l1 1zm3 129zm1 46l-1-12 1-1v13zm-5-166l1-8c1 3 3 6 5 7v7l-6-6zm1-31v-3l4-1v3l-4 1zm7 133v-2l3-1v2l-3 1zm3-1l2-3v3h-2zm3-1v-3l2-1v3l-2 1zm1-34v-3l1 1v2h-1zm2-2v3-3zm15 98v-7l1-1v7l-1 1zM35 59zm274 113h1-1zm-14 8h1l-1 1v-1zm20-8h-1l-1-1h1l1 1zm-16 16zm-25 14zm36-18v-1zm-13 8h1l-1-1v1zm2-2h1-1zm27-13h1l-1 1zm-72 45v-2 2zm44-25h-1c0 1 0 0 0 0h1zm-31 17h1-1zm38-19zm-53 33l-1-1-1 1h2zm13-6v-1h1l-1 1zm-11 7v-2c0 1 0 1 0 0v2zm15-8h1v-1h-1zm76-43h1zm-74 46h-1l-1 1-1 1v1h1s-1 0 0 0v-1 2l1 1 2-1v-2l-1-1v-1zm3 0l1 1v-1h-1zm50-26v-1l-1 1zm-39 22zm30-14zm1 0zm4-5l1-1h-1zm-51 28v1-1zm39-21zm-37 23l-1-1v1h1zm10-6h-1c1 0 1 0 0 0h1zm22-11l1-1h-1zm1-2v1zm-52 33h1l1-1h2v-2l-1-1h-1v2h-2v2zm2-2v-1 1zm84-48v-1 1zm-78 44v-1 1zm38-20v-1h-1c0 2 0 2 1 1zm-6 7v-2 2zm0-1zm1 3h-1v-1 1-1l1 1zm0 0v-1zm0-2h-1v1l1-1zm23-18zm-72 41h-1 1zm9 0h1v-1l-1-1h-2c1 0 0 0 0 0v2h2zm64-37zm-73 41zm2 0h-1 1zm24-14l-1 1v1c0-1 0-1 0 0h1v-2zm-16 12zm22-9v-1 1zm-19 15l-1-1h1v-1 1h-1l1-2 1-1h1l1 1v1c0 2-1 2-3 2zm-5 5l1-1v1h-1zm15-9v-1h-1l1 1zm21-11zm-29 19l-1 1h-1v-1l1-1h1v1zm1-2zm-12 14l1-1-1-1v-1l-2 1-1 1h1v1l1 1 1-1zm40-25h1-1zm-3 4v-1 1zm23-9l2-2v2h-2zm2-6zm-50 30v-1 1zm-14 9v-1h-1l1 2v-1zm21-12l-1 1-1-1h1c1 0 0 0 0 0h1zm1 3zm5-5zm53-30v1-1zm-73 41v1zm-5 4zm48-27h-1v1h1v-1s0 1 0 0zm-37 24l-1-2h2v2h-1zm-8 6h-2l1-1-1-1h1v1h1zm32-20v-1h1zm11-7v1h1v-1h-1zm-12 9h-2l1 1 1-1zm-30 19v1-1zm70-39h-1v1l1 1 1-1-1-1zm-62 36h1v1l-1-1zm14-8h-1zm42-23h-1 1zm-7 5v-1 1zm-40 23l1 2h-2v-2h1zm-2 5v-1zm-9 6l2-1v3h-2v-2zm7-3zm14-6zm20-11zm-21 16l1-1v1h-1zm-21 9v1h1l-1-1c0 1 0 0 0 0zm11-5h-1v2h2v-2h-1zm0-1zm-3 3h-2v1l1 1h1v-2zm-3 3v1-1zm34-20v1s0-1 0 0l1-1h-1zm-9 8h1l-1-2h-1v2h1zm-19 13h-1l1-1-2-1 1 1v3l1-1v-1zm24-16v1-1zm-8 6h-1l1 1 1-1h-1zm-28 18l-2-1v1l1 1h1l1-1h-1zm25-14s-1 0 0 0zm11-4v-1h-1l1 1zm-8 4s-1 0 0 0c0 0 0 1 0 0zm33-19zm-45 28l-2 2v-1 1l-1-1v-1l1-1h1l1 1zm-2 1h-1 1zm44-26h-1l-1 1v1h1v1h1l1-1-1-1v-1zm-54 31l1 1-1 1v-2zm63-35v1-1zm-47 28v1-1zm-10 6h1v1h-1v-1zm10-4v-1 1zm-3 3v-1 1zm12-6zm-5 3v1l1-1h-1zm36-20l-1 2v1l2-1c-1 0 0 0 0 0l-1-1v-1zm-48 28h-1c1 0 0 0 0 0v1l1 1 1-1v-1h-1zm24-14h1zm8-3l1-1h-1zm-10 6v-1 1zm-15 8h1v-1zm-7 6h-1v1l1 1 1-1c-1 0 0 0 0 0l-1-1zm0 1l-1-1h1zm35-21s0 1 0 0zm-13 9l-1-1 1 1zm2-1v-1 1zm12-5v1-1zm-22 13h-1 1zm1 0v-1 1zm30-17zm-22 14l-1-1h-1l-1 1v2l1 1 1 1 2-1v-3h-1zm-2 2h-1l1-1v1zm-1-1h-1 1zm7-4v1h1l-1-1zm22-11zm-7 4h1-1zm-11 7h-1l1 2 1-1v-1h-1zm11-3zm-10 8zm-15 12v1h1v-1zm10-78v3l-3-6 1 1 1 2h1zm-7 6h1v1l-1-1zm1 0zm0 0v1zm1 0v1l-1-1h1zm0 1zm-8-2v1l-1 1h-1v-1 1l-1-2 3-1v1zm39 11zm-23 48v2h1v-1l-1-1zm-15-84l-2-3 1-2h5v5h-2v1h-1l-1-1zm0-2h1v-1s0 1 0 0h-1v1zm0 1h1l1-1h-1v1-1l-1 1zm-26 79v-1h-1zm22-9h-2l1-1h1v1zm-18 12l-1-2h1l1 1v1h-1zm-1-2zm5 12zm51-101h-1 1zM58 64l-1 1v-1l1-1v1zm-9 4v-2 2zm6-1zM39 80c0 2 0 5 0 0l1 1v5l-1-2v-4zm56 7h1v1h-1zm-64 8h1v2h-1v-2zm49 7v-1 1zm-60 6v2h-1l1-2zm-1 2zm9 16l-2-1 2 1zm61 2h-1v-3h1zm-70 1zm8-2l1 1-1-1zm-1 13v1zm61 12h-2 2zm-62 7h-1v-2l1-2zm4-2v1zM9 169zm3 11v-2 2zm16 11v1h-1v-7h1v6zm-1-6h-1v-3h1v3zm67 2h-1 1zm-31 6zm-24 0zm30 9zm-28 6h1v4l-1-4zm8 5zm25 3c-1-1 0-1 1-2l-1 2zm-32-2c3 0 3 3 0 3v-3zm30 29v-2 2zM34 100h-2v-1l1-2 1 3zm7-11v-2l1 1-1 1zm16-19l2 1v1l-2 1v-3zm15 9zm13 77l1-1-1 1zm1 3v-1h1l-1 1zm-13 24v-2 2zm-26 8zm-12-10v2zm-2-4zm0 0l-2-1 2 1zm1-12l1 2v3l-1 1v-6zm-1-3v-3 3zm0-3l-2-2 2-5v7zm4-25zm0-5zm0 0c-2-1-2-3-1-6l1 6zm47 24zM56 78h-1v-2h1v2zm19 10h1l-1 1v-1zm-47 59v-1zm209 360h-1v-1zm14-15c0 1 0 0 0 0zm-21 17v-1l1 1v1h-1v-1zm14-24v-1 1zm26-26h1zm-37 34v1-1zm14-14h-1v-1zm-4 3v-1zm-28 24h-1zm77-77v1l-1 1-1-2h2zm-48 44l1-1s0 1 0 0v1h-1zm32-30v-1h1s-1 0 0 0l-1 1zm-41 35zm57-58h1l-1 1v-1zm-14 12v1h-1l1-1zm11-11h1l-1 1h-1v-1l1-1v1zm-16 14l-1 1v-1zm-82 77v-1 1zm78-81l-1-1-1-1 1-2 2-1h1v2h1l-1-1h1v1h1l-1 2-1 1h-2zm-4 2l-1-1h1v1zm-11 8v-1 1zm16-16v-1l1 1h-1zm-1-2v1l-1-1h1zm-12 10h1v1h-1v-1zm31-31h-1l-1 1-1 2v1h-1l-1-1v-1l-1-1 2-1h1v-1h2l1 1zm-3 1v1-1zm-89 87v-1h1l-1 1zm83-80v1-1zm-38 37l-2 1-1-1v-1c1 0 2-1 3 1zm3-10l-1-1v2h1v-1zm0 0l1 1v-1zm-2 0l1-1s1 0 0 0h-1v1zm55-45l-1 1v-1h1zm-12 3h2l1 2-1 1h-2v-3zm9-7l1-1v1h-1zm-1 0v1h-1v-1h1zm-26 25v-2l1 1-1 1zm16-19h-1 1zm-24 18h1l-1 1v-1zm19-25l1 1-1 1s1 0 0 0l1 1v-2 3l-1 1h-2l-1-1c-1-2 1-4 3-4zm7-9v1l-1 3-1-1h-1v-1l2-1 1-1zm-17 18h-1l1-1v1zm7-13l1-1h1s0 1 0 0v2h-2v-1zm-2 3l1-1v1h-1zm13-22h1l1 1h-1 1c0 1 0 0 0 0l1 1-1 1-1 2h-1l-1-1-1-1v-1l1-1 1-1zm0-5l2 3h-1l-1-1v-2zm-75 59l-1 1v-1h1zm6-6l-1-1h1v1zm9-21h-1v-1h1v1zm2-7l-1-1h1v1c0-1 0-1 0 0zm9-13l1 1-1 1h-1l-1-1 1-1h1zm-6 5l-1-1h1v1zm8-10l1-1 1 1h-2zm2-6h1l-1 1v-1zm-9 9l-1 1h-1v-1l1-1 1 1zm7-8v1l-1-1h1zm-36 35v-1 1zm48-49l-1-2c1 0 0 0 0 0v-1l2-1h1v1c1 0 0 0 0 0l1 1v1l-1 1h-2zm2-2h1v-1l-1 1zm-57 54l-1-1h1c1 0 0 0 0 0h1v1h-1zm50-50zm11-11l-1 1v-1h1s-1 0 0 0zm-11 9h-1c1 0 1 0 0 0l1-1v1zm3-4v-1zm-14 11v-1 1zm5-6h1v1l-1-1zm12-14v-1h2v1l-1 1-1-1zm-7 7l-1-1 2 1zm6-11s1 0 0 0l1-1h1l1 1v1h-1l-2-1zm2 1c0-1 0 0 0 0v-1h-1zm-36 23l-1-2 1-1 1 2-1 1s0-1 0 0zm-1-6h-1c0-1 0 0 0 0zm-8 162l-2-2v-3l3-2 1 1v1l1 1c0 1 0 0 0 0l-1-1 1-1c0 1 0 1 0 0l1 2v3l-2 1h-2zm46-97zm-37-63l-1-1v-1l1-1h1v1h1v1l-2 1zm41 95l2 3v3l-1 1-1 1-1 1h-2l-1-1h-1v-1l-1-1v-3l1-1 1-1 1-1h3zm-1 3h-1v1l1-1v1c1 0 0 0 0 0v-1zm1-2h-1v1l-1-1-1 2h1v-1h1l1-1zm-13-86h3v1l-1 1h-1l-1-2zm11-27v-1l1-1 1 1-1 3h-1l-1-1 1-1zm-1-3l-1-1 1-1 1 1-1 1zm-12 104z" fill="#b30000"/></svg>
