<svg viewBox="0 0 416 512" xmlns="http://www.w3.org/2000/svg"><path d="M86 337h-1 1zm13-14v-1 1zm-6-11l-1-1h1zm-2 2l-1 1v-1zm-28 25zm18-27zm40-45v1h-1l1-1zm-81 80l-1-1-6-13c-3-19 2-42 19-52 6-3 12-5 19-5h4c0 10 1 18 2 12l1-10-1-1v-1h-2v-2l3-2v1h1l1-2h3l1-1v1h2l4 3v3l-1 1 9 4v-1h1l1-1h1l1 1 2 2v2l4 3s-3-14-19-25l-1 1v1l-1 1h-1l-1 1h-2v-1c-1 3-2 5-5 6v-4l-1-6 1-16v-2c4-1 6-3 7-8v-2c0-10 7-21 9-23l3-3 8-8h1v-1l5-5a86 86 0 00-18 46l1 12h1s0 1 0 0l1 1-1 1c4 13 12 24 25 33 4 3 6 6 6 9 0 4-3 7-9 7l-11-3-11-5 2 1-11-4v-9h-1v9l-10-1v-1 1l-12 1v-13h-1v14l-6 2v-5 5l-7 6c-9 9-11 20-9 30v9l1-5c3 11 12 19 24 19 9-1 10-10 3-15l-2-2v-3c0-3-1-2-1-2v4c-4-3-9-6-12-11h1v-9c-1-1-1 2-1 8-2-3-3-7-2-11 3-13 14-18 24-19l-1 16-3 4v-6h-1v7c-4 9-2 20 12 22 7 2 7 9 3 15v-5h-1v6c-4 5-9 7-15 7v-6 6c-10 0-18-2-24-7l-1-1-4-5zm73-85h1l-1 1 1 1v-1l1 1v1c5 8 13 15 22 18v-1s-19-20-4-42c6-8 14-11 22-11v2l1-2c9 2 17 8 21 19v3h1l2 13c-2 34-42 51-62 46 0 0 14 7 42-6 13-6 20-16 25-25v13c1 4 1-7 1-13h-1l8-13c0 8 0 16 1 15v-16l1-1v4l2-5c0 16 1 34 3 25l1-20-1-6v-16c-1-10-3-9-3 11v6l-2 1 2-5-1-8 1-17 6 18c2 12 3 23 2 34l-7 19 1-4-1-11-1 18-4 5v-5 6l-3 3v-1h-1v2c-3 4-6 7-10 9l-5 5c-1-1-1-1-1 1-3 3-3 7 0 8v5l-5 5-1 2-1 1h-1v1l-10 9c-13 11-33 22-57 24v-4s-1-1-1 2v3h-8c-1-2-5-5-12-8v-6h-1v5h-1v-9c-1 1-1-4-1-2v10l-17-7v-3 3l-5-3v-2h-1v2l-6-6v-6c5 4 12 7 20 8 43 7 50-47 27-57-6-3-11-2-15 0h-1v-14h6c8 1 15 3 23 7 5 3 9 4 12 4 7 0 10-4 10-9 0-3-2-7-6-10-18-13-26-28-26-46l2-15v-2h1l6-15v-1l9-13 2 6 4 12h1c-5 4-8 10-10 16l-2 8v14h1v1l4 10v1zm-16 16v-1h1zm-19 14v1l-1-1h1zm-1 1v1zm51-54v1l-1 1v2h-1v1h-1l-1-1-1-1h1l-1-1 1-1h2v-1l1-1h1v1zm-2 1zm-83 87l-1-1h1v1zm78-80l-1 1v-1h1zm-34 34h-1v2c0 5 1 5 2 5l-1-8v1zm0-6l-1-1v2h1v-1zm0 0h1zm-1-2v-1 1l-1-1h-1l2 1zm-2 1l1-1h-1zm1 1l1-1s1 0 0 0l-1 1zm51-45zm-10 3h2v3h-2l-1-1v-1l1-1zm8-7h1c-1 0-1 0 0 0h-1zm-1 0v1h-1v-1h1zm-8-19h1v1c10-7 24-10 37-6v3c0 1 0-4 1-2v-1h1c7 3 14 7 19 13 0 3 0 5 1 3v-3l7 11 2 3 1 33h-1v-3h-1v3h-6s1-18-11-30c0-3 0-4-1-3v2l-4-3c0-4 0-8-1-6v5l-2-1v-2h-1v1l-11-4v-14h-1v14c-34-6-39 38-46 19l2-12c3-7 7-13 13-18h-2v-1l-1 1-3-8h-1l-1-1h1l-2-5 23 4-13 7zm-52 44v-1h1v-3h-1 1v-3h1v30h-3l-1-15v16h-1c-15 0-28 9-35 22l7-17c0 2 0 4 1 3v-5l7-12 1 11v-13l6-9h1v-1l6-6v5h1v-6 6-6l3-2v1-1l4-1 2 15v-8h-1zm-28 19l-1-1 1-1v-3 3h1v1l-1 1zm6-8c1 0 0 0 0 0l-1-5h1v5zm53-63h-1v-2l1-1h1v1-3h1v5l-1 1v-1h-1zm-6 5v-1h1l-1 1zm-14 12v1l-1-1-8 9v-3 4l-2 1-1-5 1-4v-1l3-4v-1h1l4-5 1-1 6-6v11l-5 5h1zm9-16h1v-3h-1v3zm1 2h-1v1l1 2-5 5v-11l3-3h-1v-1l1-1h1v1s1 0 0 0l1 1v-2l4-4-1-1 1-1 1-1h1l3-4h-1l1-1 1-1 1 1c22-23 42-47 62-72l1 12a365 365 0 01-74 80zm-26 20l2-2v9c1 1 1-2 2-2v2l-9 11v-11h-1v12l-2 3h-1v1l-3 4v-7c-1-1-1 0-1 2v7l-10 14v-1 2c-20 32-27 65-8 99 8 13 17 22 29 28h1c5 3 11 4 17 6v5l1 4 1-9 11 1v10c1 2 1-3 2-2v-8c38-1 81-30 102-78a156 156 0 01-38 66c-24 23-61 28-94 20 32 9 70 5 95-19l15-16v2h1v-3l11-18v8h1v-9c6-12 11-25 14-39l1 9v-9h-1l2-5 2 10v4h1v-2l5 14c0 5 0 7 1 5v-2l11 23-1 1 2 1v-1c6 10 13 19 22 27 25 24 63 28 95 20-32 8-69 3-94-21l-12-13v-1c-15-19-24-41-29-64h1l16 32v1c12 19 27 39 46 48 15 7 28 11 41 11 28 0 54-16 66-41 5-9 8-18 9-27v1h1l-1-11c0-10-2-20-5-29 0-8-1-2-2-4-16-39-57-77-94-118-40-43-63-89-74-114v-8h-1v7l-3-11V32h-1v15l-2-5-6 17V45c-1-2 0 10-1 9v-8l2-8-2 7V17l8-17 1 4v6h1V5l1 2v16l1-14 9 20-1 3v11h1V30l15 28c47 87 99 129 141 175l10 12v7h1v-6l7 10-1 2v11c-1 2 0-7-1-4l1 13 1-7v-14l7 12v7-5l1 1 1 10v-7c3 4 4 9 6 14v9c1 2 1-4 1-7l2 6 1 40c1 3 1-5 1 0v2l-4 15v-28c-1-4-1 9-2 9v25l-1 3v-4l1-7c-1-1-2 9-3 7 1-17-1-21-2-26l1-5c0-8-1-2-2 0 0-12-1-24-5-35v-8c-1 4 0-2-1-9h-1v12c-8-22-23-40-37-56-32-37-63-70-86-100-19-23-33-44-42-62l-1-8-1 6-6-11V47h-1l1 8-4-8v-9 8l-8-20c4 16 11 31 18 45 1 4 1 6 2 5v-3c15 29 34 54 53 78l87 100c11 12 18 24 23 37l1 10v-7c7 17 9 35 6 53h-1v4l-4 12v-16l-2-5 2 22 4-11c0 6 0 11 1 9v-12l2-17c0 17 0 37-2 40v6c-19 31-52 51-90 51-24 0-45-8-62-22h-1 1c-9-7-18-16-24-26v-2s0 1 0 0l-1-1h-1l-1-3h1v-1l2 1 1-1h2l1-1 1-2v-1l-1-2-1-1-1-1-2-1-1 1v-1l-1 1v-2l-2 2v1l-1 1v2l1 3v2l-6-13 2-1v-4l-1-1h-3l-1-4v5l-1 2 1 3h1c2 31 6 69 21 93 19 30 80 59 80 59s-71-6-107-6h-18v-1h-1v1l-8 1v-8l24-1c0 5 0 8 1 7v-7c36 0 65 3 73 5-67-17-137-1-136-1 12-2 25-3 38-3l-1 8c-38 1-72 5-72 5s51-28 71-58v5h1v-6l10-21h2v-2h-1l2-2 1-1v-1l-1-1s0 1 0 0v-1 1h2v-1h-2l5-20h1v-1 2h2l1-2v-1s-1 0 0 0l-1-1v-1l-1 1h-1c3-17 5-34 5-51l-4 13v1l-3 5s0-1 0 0l-1 2-7 12v-1 2l-7 8v-1h-1v2c-20 23-50 36-81 34v-3 3l-12-2v-6 6l-9-2-1-6v6C33 411 0 370 0 321c3-36 19-69 45-94v4-5l3-2v-1l13-13c0 5 0 11 1 8v-9l7-7v14l-16 18c0-4 0-6-1-5v2l-1 6-7 9v-6h-1v7l-4 5c-23 31-29 64-26 85s10 31 10 33a96 96 0 01-5-72 179 179 0 0150-76zm10-15v1l-1-1-4 5-1-14 12-12v6h1v-6l2-2-1-1h-1l1-1h1l1 1 29-32v6c1 0 0-6 2-3v-5c15-18 29-38 44-61v5h1v-6l16-28 1 21s1 1 2-4v6l1-13-1-15 3-5 1 11v5l-1 12-1 2c0-6-1-7-1-3v5l-13 20c-14 20-31 39-47 57l-35 36s0-4-1-2l1 1-1 1v2l-10 11zm10-14v-1 1zm-17 9h-1 1zm-32 30v-2l1-1v1h1l-1 2h-1zm24-24l-1 1v-1zm-8 8l-1-1h1zm11-12l-1 1v-1zm13-14h-1 2zm6-10v-1h1l1 1s-1 0 0 0l-1 1-1-1zm1 0h-1zm-34 36v-1 1zm13-15zm-3 2zm-13 10v-1l1 1h-1zm22-23c0 1 0 1 0 0zm-1 1zm-31 30zm22-24l-2-1v-2l2-1h2l1 1v3l-1 1-1-1h-1zm2-2l1-1-1 1v-1h-1l1 1zm1 0h1zm-8 7v-1h2l-1 1h-1zm-21 21zm6-7h-1 1zm11-12l-1-1 1-1 1 1-1 1zm-13 8l1-1v1zm11-13l-1 1v-1zm12-18v-1zm-6 162v2c-1 1-1 0-1-4v-5h1v2l1-1 1-3v3l1 1h-1l1 1c0-1 0 0 0 0 1 0 0 0 0 0l1 1v-1h-1v-1h1l1 1v3l-1 1h-2v4l-1-4h-1zm24-78v3-3zm-28-64l-1-1v-1l1-1h1l-1 1h1v1l-1 1zm49 82v1h1l-1-1zm1-1h-1l-1 1h1v-1 1l1-1zM88 179v-1h2v1h-2zm152 142h1v-1h-1zm-14 7h1s-1 0 0 0h-1zm20-8v-1l-1 1h1zm-16 14h1v1l-1-1zm-25 13v1-1zm36-16l-4-4c-13-9-22-23-26-38-2-15-1-30 3-45l1 2v-4c6-19 21-36 41-40l9-1c23-1 41 17 42 40-7 16-12-26-45-20-35 7-32 41-32 41h-1v-7h-1v7c-4-1-8 1-8 1 8 1 12 29 37 41 28 13 42 6 42 6-20 5-60-12-62-46-1-34 32-45 47-24 12 18 1 36-2 41h-1l-1 1c15-5 22-16 25-25 3-6 4-12 3-18v-1l-1-8c-2-8-6-14-11-19l6-15c10 13 16 28 17 44 0 18-9 33-27 46-4 3-6 7-6 10 0 5 4 9 10 9 4 0 8-1 13-4 6-3 13-6 19-7 12-1 33-1 38 19 3 11-10 20-17 26-7 5-6 14 3 15 23 1 35-32 16-53-8-10-21-11-31-10-9 0-19 4-29 9l-12 3c-5 0-8-3-8-7 0-3 1-6 5-9 18-13 27-29 27-47v-3c-1-14-7-27-15-39l2 2 14 15c2 2 7 10 7 19 1 8 4 10 13 10 4 0 8 3 11 6 10 12 18 25 25 39l-11-9c-7-4-14-6-22-6-18-4-6-17-6-17-13 6-24 17-29 30l-1 1 1-1v1c10-8 21-11 29-12 9-1 19 0 27 5 18 10 22 33 19 52-7 20-18 28-37 27-15 0-24-20-12-23 26-4 12-39-10-29-23 10-16 64 27 57 17-3 27-12 31-22v2c-4 10-13 24-30 30-17 7-24 11-25 14l-9 1c-26 0-46-13-60-26l-12-13h2l1-1-1-2-1-1-1 1-1 1-5-7c4-1 6-6 0-11h1l-1-1zm0 0zm-13 7h1-1zm3-1v-1 1zm28-12h-1zm-76 39l1-1v2s0-1 0 0l-1-1zm45-21v-1 1zm-31 15zm40-17zm-57 30v-1h1v1h-1zm0 0v1l-1 1v-4h1v1zm15-7zm-11 7l1-1h-2v1h1zm16-8zm79-38v1h-1zm-78 43l1 1v1l-2 1h-1v-1h1v-1h-1l-1-1h1l1-1h1v1zm4-1v1h1l-1-1zm51-23l1-1h-1zm-40 19l-1 1v-1zm31-12v-1 1zm0-1v-1 1zm0 0l-1-1 1 1zm5-4v-1zm-52 26h-1v-1h1zm39-19s0-1 0 0zm-39 20v-1h1v1h-1zm12-5h-1 1zm23-11h-1zm1-1h-1l1 1zm-54 29v1-1h1v-1l1 1h1l1-1v-1l-1-1h-2v2h-1v-6l-1 6 1 1zm0 0v-1 1zm1-1l1-1v1zm87-43l1-1-1 1zm-80 39v-1 1zm39-19v0zm-6 11v-1h-1v-3h1-1v-4h2v5h-1 1v1h-1l1 1v1h-1zm0-4v1l1-1-1-1v1zm-1-1v1zm2 4v-1 1zm1-1h-1l1-1zm0-1h-1v-1zm23-17s0 1 0 0zm-75 37zm10 0v-2h-3v2h1l1 1 1-1zm65-33h1-1zm-75 36v1h1l-1-1zm2 1h-1 1zm25-12v1s0-1 0 0h-1v-1h1zm-16 10zm23-9h-1v1c0-1 0 0 0 0h1v-1zm-20 14h-1l1-1s0 1 0 0h-1v-2h3v1h1c0 2-2 3-3 2zm-8 5h1v-1l1-1h1v2h-3zm17-9h1l-1 1v-1zm23-9v-1 1zm-30 17h-2l1-1h1v1zm2-2h-1 1zm49-23c0-1 0 0 0 0v-1 1zm-64 36h-1v-3h3v1l1 1h-1v1h-2zm43-23zm-3 3h-1v1l1-1s1 0 0 0zm25-11l-1-1-1 1h-1v3h1v-1h-1l1-1v2h-1l1 1h2l1-1v-3h-1zm1-1h-1 1zm-52 26c0-1 0 0 0 0zm-15 9l-1-2 1 1h1l-1 1zm22-11s-1 0 0 0l-1 1h-1v-2h2zm1 0h1l-1 1v-3h1v2h-1zm5-2v-1 1zm55-27c-10-9-18-20-25-32l7 1c7 11 33 48 79 48h8c0 2 2 3 3 3h4c-6 2-12 3-19 3a81 81 0 01-57-23zm0 0zm-76 37zm-5 3zm50-24v1h-1v-1h1zm-39 21v-1l1-1 1 1v1h-2zm-7 6h-2l1-1-1-1h1v1zm33-18v-1zm12-6h-1 1zm-14 8v-1h-1l1 1zm-31 17zm3 0v-1l1-1 1 1-2 1zm70-35h-1v1h1v-1zm-64 32v-1h1l1 1h-2zm14-7zm43-20v-1 1zm-7 3h1-1c1 0 0 0 0 0zm-41 22v1h2l-1-2-1 1zm-2 3zm-9 6h2v1l-1 1h-1v-2zm6-2h0zm16-6s-1 0 0 0zm20-10h1l-1 1v-1zm-21 13l-1-1v-7l1-12c-1-1-1 0-1 2v-1l-1 7c0 11-3 32-11 51v-4c-1-1-1 1-1 6-7 14-17 27-33 34 0 0 16-3 37-3v2-2l16-1v3h1v-3c12 1 25 2 36 5 0 0-17-6-29-27v-3h-1v1c-7-13-12-27-13-42v-1-3zm-1 2c0-1 0-1 0 0l-1-1h-1l1-1 1-1c0 1 0 0 0 0v3zm-21 8zm12-5v2h-1l1-2zm0 1l1-8-1 6v1h-1l-1 1 1 1v2h-2v1l1 1h-1l1 1-11 25v1l-11 17-4 5 4-3v6l1-7 8-9v6h1v-8l5-9v1h1v-3l4-9h1v-1h-1l1-3 4-15zm0-2zm-6 3zm-1 3v-1l1-1-1 2zm35-18h1-1zm-9 7h1l-1-2h-1l1 2zm-20 12l-1 1 1-3v2zm25-15l1 1h-1v-1s0 1 0 0zm-9 5v1h1l-1-1zm-28 16l1 1c-1 0-1 0 0 0h-2l-1-1h2zm26-12h-1l1 1v-1zm10-4v-1l1 1-1 1v-1zm-7 5v-1h-1l1 1zm35-18zm-49 25h-1l-1 1 1 1v-1 1l1 1 1-1v-2h-1zm-1 1zm46-23l1 1-1 1h-2v-1l1-1h1zm-55 27v2h-1v-2h1zm0 2v-3h-1v1h-1v1l1 1v4h1v-4zm64-33v1l1-1v1-1h-1zm-48 25v1h-1c0-1 0 0 0 0l1-1zm-11 6h1-1zm10-4h1-1zm-3 3v-1zm13-6s0 1 0 0zm-5 3v1l1-1h-1zm37-17v1l-1 1v-1h-1l1-1h1zm-49 24h-1v1l1 1v-2zm25-12v-1 1zm7-4h1v1zm-10 6h-1zm-15 7l1 1-1-1zm-8 6h-1l1 1h1v-1h-1zm1 0l-1 1v-1zm35-18c0 1 0 0 0 0zm-14 7zm2 0h1zm1 0v-6h-1v6h1zm12-4h1-1v-1 1zm-23 11zm1 0zm32-15h-1 1zm-23 13l-1-1h-1l-1 1v1l1 1 1 1 1-1h1v-1l-1-1zm-2 2v-1h-1 1v1zm-1-2h-1l1 1v-1zm8-3v1h-1v-1h1zm22-10zm-6 3v1l-1-1h1zm-12 7v1h-1v-1h1zm12-3l-1 1v-1zm-12 7h1c0 1 0 0 0 0zm-15 11l1 1v-1zm48-124h-3l-1 1v1l1 2v-1s0-1 0 0c1 0 0 0 0 0l1 1h-1l1 1 3-1v-3l-1-1zm-38 57l-1 1v2h-1l-1 1-1-1-2 1 1-1h-2l1-1h-2v-1 1l2-1v-1l-2 1 1-2h-1l-1 2v-1h1l-1-1v-1s1 0 0 0l1-1 1-1 1-1h4v1l2 3v1zm-14 1l-2 1 1 1 1 1 1-1v-1l-1-1zm41 11h1l-1-1zm-23 42l1 1-1 1h-1v-1l-1 1 1-1 1-1zm-14-74h-2v-1l1-1h-1v-4l2 6zm-2-2h1v-1h-1v1zm0 0v1h-1l1-1zm-28 71h1l-1 1zm22-7h-1v-1l1-1 1 1v1h-1zm-19 10v-2h2l-1 2h-1zm1-1v-1zm6 8l-1 1-1-1 1-2h1v2zm-1 2v1zm3-388v-1l1 4-1-3zm0-2l-1 3 1-5v2zm-1 3l1-1-1 1zm-4 39v-2l3 5v19l-2-3v-5l1-9-2-5-2-1v9h-1l-1-5-3 7-1-10 4-7v-1l1 1 3-7v10l-1 1 1 1v2zm1-16l-1 2-1-12 4-8-1 14c-1-2-1 0-1 4zm2-20l-4 8c0-13 2-12 3-18l1-18 1 14-1 14zm-1-6h1v-6h-1zm7 9v-1 1zm-2 7v-4l1-2c0 3 0 7-1 6zm0-4l-1 2 2-11-1 9zm-1 4v10l-6 11 1-11 5-10zm0 22l1-3 1-6v7l-1 3h1v5c-1-5-2-1-2 4l-1 7h-1V95l1-2 1-4zm1-3l-1 3V77l2-5 1 6-1 2v-2c-1-2-1 4-1 8zm1 8h1v6l1-7 1-1v5h1l-1-5 3-1 1 13c1 3 1-5 2-4l1 19 1-25 3 4 1 15 1-4-10 116-6-69v-1l-3-49 1-7 2-4v-1zm-4 1l-1 1v-3l1-2v4zm-7 6l1 21h-1c0 7 0 14 1 13l1 18-3-5 1-11-2-18c1-5 2-9 1-17l1-1zm-1 49l1 2-2-4v-4l1 4v2zm1 4l2 3-1 1-1 2v-6zm-1 8l-1 1 1-1zm0 7c1-5 2-8 4-10 1 15 1 30-1 45-3-10-4-21-4-31l1 1v-5zm-2-3l-1 5-1-19v20l1 4v6l-4-24v-15l-2 7-1-8v-12l1 3v4h1v-3l4 9v3h1v-1 16l1 5zm-1-23c1-1 1 2 1 5l-1-3v-2zm1 5h0zm1-4l-2-2v-14h-1v11l1 3v3l-1-2v-4l-4-9-2-4 1-15 1 11c1 1 1-5 1-5v-8l4-6-1 5c2 1 1 21 2 20l1 16zm-3-51l-3 7c-1-2-1 0-1 1l-9 14v-12l13-21v-1l1-1-1 2v11zm-4 405zm223-170zM45 257v-6zm34 0l1 1v-1h-1zm-39 70h1l-1 4zm2 27s1-1 1 1h-1v-1zm1 1l1 1h-1v-1zm-1-85h1v8l-1 2v-10zm1-22v-1l1-1c0 3 0 3-1 2zm2 119c-1 2-1-6-1-5v-1l1 2v4zm13-119v7zm-3 11c0 9 1 10 1 3 0-5-1-1-1-3zm1 38v-2zm-7 28c-1 2-1-3-1-9h1zm1-11zm0 35v-15c0-3 1-3 1-2l-1 17zm2 24h-1v-4h1zm-1-133v-3l1-1-1 4zm2-2h-1v-3l1 3zm0 87v-1 1zm2 22h-1v-7h1zm1-96h-1l1-2zm1 148h-1v14c1 2 1-6 1-14zm0-24v-3zm2 16h-1v11h1zm1-5c-1 3-1-3-1-8h1zm0-135h-1v-6l1-1zm7-38h1v-6h-1zm-1 3h1v-7h-1zm-3 26c0 1-1 1-1-1l1 1zm1 4h1v1l-1 1zm1 0v1zm1 136h1v11h-1v-11zm1-66zm1-39h-1v11h1zm0-37v5zm1 164h-1v6h1zm0-42v-2 2zm2-46c-1 1-1 1-1-1l1-1zm4-87v-4zm-1 155v-5l1 1v2l-1 2zm2 9h-1c0-7 0-10 1-9zm-2-66l1 1c0 1-1 3-1-1zm0-13v-4l2-1v14l-2-1v-8zm2 9h8l4-2v2-3c3-3 3-6 3-6 13 14 9 27 4 35-3 4-8 7-8 7 5-4 8-12 7-18v-9h-1v6c-1-2-4-3-7-3l-11-4 1-1v-4zm1 59h-1v-2l1 1zm0-66l-1-8h1zm0-87c1-1 1 5 1 15l-1-15zm2 0v9h-1l1-9zm0 184v6zm1-38c0-3-1-2-1-2 0 8 1 10 1 2zm1 18l-1-9h1zm1-24h-1v6h1zm2-55zm1 40h-1v-1l1-1zm-1 41v4zm2 2zm2-81v5zm0-89zm0-14v-2l1-1c0 5-1 6-1 3zm2 9v9h1l-1-9zm2 51h-1v-7h1zm0-88v-2h-1c0 8 1 10 1 2zm0 50zm2 105c-1 2-1 0-1-5l1 3zm0-135v-1 1zm4 214h-1v7h1zm3-57l-1 2v9h1zm2-131h-1v7h1zm2 168zm1-144zm1 68h-1v6h1zm48-142v-9 9zm1-21l16 36-40-23 20-23 4 9v4zm0-3v3-1zm1-49l-1 9h1zm3 66h-1v7h1zm0-33l13-19 4 19-1 16c1 0 2-3 2-8l3 13v4l4 21-5-6v-7h-1v5l-11-13v-12h-1v11l-13-17 5-6v1h1zm-1-4h1v4l-1 1zm4 190zm0-128c-5-1-11-2-16-1l-16-23 41 23v4l-8-3v-5l-1 5zm17-95l1-3 1-1v9l-2 2v-7zm0 26h1v4l-1-1zm0 65l6-2v5h1v-5l1 4c0 8 1 10 2 7v9-6l2 6v6l-3-3v-7 6l-4-4c0-4 0-9-1-6v5l-8-6 1-5c0 5 0 7 1 6v-7l1-2v7l1-8zm1 53v7h-1v-7zm-2 14c0-5-1-1-1-3-1 9 1 10 1 3zm0-162c0-4 0-2-1-3 0 8 1 10 1 3zm-4-9c1 1 1-2 1-11h-1zm3 15l1 8-3 4 1-10 1-2zm-3 26l1-7-1-3 1 1v2l3 17-1 7-1-8-2-9zm-2-52h-1c0 14 2 14 1 0zm0 50zm-1-27l-1 2v-4l1-1v3zm0 14v-2 2zm-1-24zm-4 7c1 2 1-6 1-14h-1zm-2 59zm1 197l-1 1v-2l1-1v2zm0-82l1-7v3h1v-19h-1v4c-1-10-8-17-16-17l-6 1c-8 3-7 15-4 22 5 12 12 24-5 41 0 0 21-7 29-26v7l1-9zm-1-4h1v4l-1 2v-6zm2-30h-1v8c1 1 1 0 1-8zm1 127c-1 1-1-1-1-3l1-1v4zm-1-3c-21 20-46 31-68 31v-5c30-2 52-19 66-33 0 5 1 5 1-1l1-1v9zm0-107v-2l1 2zm0-26v-6l1 1v5zm0 33h1l-1 3zm1-95l2 2v16l-16-36 13 16 1 14v-12zm-1-61l1 1-1 1v-2zm1 14v-1 1zm2-36h-1c0 8 0 13 1 11zm1 86v1l-1-2 1 1zm0 20l-1-5 1 1v4zm-1 41v-6l1 1c0 4 0 7-1 5zm2 83h-1c0 6 0 11 1 9zm-1-149c3-22-2-25 0 0zm2 27v5l-1-1v-2h1-1l1-2zm0 5h1v4h-2 1zm-1 4v-1 1zm1 120v-9 9zm1 24l3-3v3-4h1v2-2h2c0 3 0 6 1 4v-4l6-3c-6 9-12 16-19 23v-9l5-6v1l1-2zm-1-13v-1l1-1v10l-1-1v-7zm1-77h-1v20c1 1 1-15 1-20zm1 110h-1v6h1zm-1-127c-1-9 0-8 1-9l-1 9zm0-169c0 8 0 15 1 13 0-8 0-15-1-13zm2 167h-1v-7l1 1v6zm0 87h1v-9c-1-1-1 2-1 9zm1 15v4zm0-144h1v2l-1 1v-3zm0 48l1-2v9l-1-3zm1 92zm1-46h-1v7h1zm1 44c1-3 1 4 1 9h-1v-9zm3-83h-1v-7h1zm0-99h-1c0 6 0 11 1 9zm-7 320v1l-1 1v-2zm8-11s1-1 1 1l-1 2zm2-7zm1 9h-1v7h1zm3-15h1v3l-1 2zm6 13h-1l1-5zm0-5c1 2 1-3 2-2l-1 9v2l-1-9zm3 29v4zm1-68l1 9c0-7 0-10-1-9zm2-4h-1v6h1zm2-20v-9h-1c0 7 0 10 1 9zm0 48v-9zm0-72v6zm19 106l9 10-17-1v-1 1l-34 1c7-6 12-13 16-20v-2c5-8 8-16 10-25 3 13 7 23 12 31 0 4 0 6 1 5v-4l2 3v5h1v-3zm-3-49h1v-7h-1zm-1 39h1v5l-1-1v-4zm-6 8l-6-17s-3 12-10 22h16v2c1 1 1 0 1-2h3l-3-3v-5h-1zm3-404v3zm0 4l3 5h-1l1 8v-7l5 9-6 10-1-3-1-6v-7c-1-3-1-8-2-6v5l-3-15 1-3 4 9v4zm0 86v-2l5 2c3 3 5 8 5 18 0 13-4 33-17 67l1-14v5c1 1 1-2 1-8l4-42c0-3 0-2-1-2l2-24v11h1v-11zm0 0zm-1-99l-1-2 1 1zm-4-37v2l1 1-1-1 1-4c0-3-1-2-1-2v4zm-4-13l1 28c0 2 0-3 1-2V10c-2 3-1 7-2 0zm2 44v13c-1 1-1-1-2-3v-3 1c0-17 1-13 2-8zm0 72h-1v9l1-9zm0 157v9c-1 2-1-3-1-9zm-2-116c0 9 0 10 1 9v-9zm0 18v7h1v-7zm1-77h-1c0 8 0 11 1 9zm-1-19h-1v-1h1zm-1-1h-2l-1-8-2 7 6-24v25-6h-1zm0-67V10h-1c0 9 0 12 1 11zm-5 46c1-5 2-7 2 1l-2 4v-5zm2 1l2-4-2 8v-4zm-1 14v-4l1-6-1 10zm-2 59c1-1 1 7 2 11l-1-24h-1v13zm0 16h1v8c-1 2-1-1-1-8zm-3 66l-2-7-1-58 4-1 7 77v11l-3-10v-6c-1-1-1 0-1 4l-1-4-2-5v-2h-1zm1 6h-1v-6l1 1zm-2-57h1c0-8 0-13-1-11v11zm-1-48h1v13l-1-13zm1 13l1 18-3 1v-19h-1l-1-21-1-15 2-8 1 19 2 27zm-3-18v-6zm-3 88zm0-15v-9h-1c0 6 0 11 1 9zm-3 0v1h-1v-1zm-1-16v-5 5zm-1-61v11l1-11zm-1-33v-1h1v1zm2 160l-1-13c-1 5 0 16 1 13zm-1 37zm2-33v7zm0 7h1v-7h-1zm1 79s1-1 1 2c0 8-2 6-1-2zm0-136l2 4v4l-2-8zm1 20v-1 1zm0 116v-14l1-1c0 8 0 17-1 15zm1-55h-1v11h1zm1-37h-1v6h1zm0-118v13-13zm0 232l1-1-1 1zm2-38v-3zm1-89v1l-2-2v-7l4 5-4-11v-9l3 12-1 11zm-1-81l-1-7-1-24 1 1 2 40-1 3v-13zm6 181c-1 0-2 5-2 0l-1-13 1-6 1-3 1 22zm1-11c-1 1-1-2-1-8h1zm1-72h-1v-15 3l1 12zm1-6h-1v-5l1 2zm1 24h-1v6h1zm0-171v2l-1 1 1-3zm3-57c0-3-1-2-1-2 0 8 1 10 1 2zm-1 462h1v2h-1v-2zm1-364h-1v7h1zm0-76h1v6h-1zm0 258zm1 33v7h1v-7zm-1 48v9h1c0-7 0-10-1-9zm1 13zm2 44h-1v7h1zm0-169c0-9 2-9 1 5l-1-5zm2 136h-1v7h1zm-1-103h1v5l-1-2zm0-89h1l-1 3zm0-14v-4l1-17 1 2c0 15-1 25-2 19zm-2-144l1 7v12h1v4l-3-1V73l1-4zm2 23l1 1-1 2v-3zm1-3l-1-1-1-12V63v2l1 6v-2l1 4h-1l1 16zm1-16v3l-1-3zm-2-17v13l-1-4 1-9zm1 13v-7 7zm0-15l-1-7 2 6v10l-1-2v-7zm1 168v9h1c0-7 0-10-1-9zm1-140c1 1 1 1 1-1l2 8-3 6v-5l2 2-2-7zm1 184v7zm0-83zm1 52v7l-1 2 1-9zm1 94h1v9l-1-3v-6zm0-135c0 10 0 12 1 11 0-9 0-13-1-11zm1-167c0 11 1 17 2 16V25c-1-1-1 4-2 2zm2 51zm0 19c0 2 1-2 1 2l-1 2 1 3c-1 2-1-1-1-7zm1 2l4-7-3 64-4-1 3-55v-1zm0-52v-1 1zm7 11h1v-7h-1zm-3 0v-3 2zm0 35c1-3 1-3 1 1v6h-1zm1 1l1-3 14 25-17 39 2-55h1l-1-6zm1 137h-1v7h1zm2-79c0-5-1-1-1-2-1 9 1 10 1 2zm0 48v-6zm1 66c-1 1-1-1-1-4h1v4zm1 63h-1v-6h1zm11-183c-1 1-1-3-2-3v14c2 0 1-6 2-3zm140 230l-1 3c0 13 2 10 1-3zm3-6l-1 9h1zm1-75c0 9-2 5-2-4l2 4zm0 18h1v9c-1 2-1-3-1-9zm1 42v6h1v-6zm1 19h-1v13h1zm1-30h-1v-7h1zm7-57c0-5 1-1 1 0v4l-1-4zm0 11v-9h-1c0 7 0 10 1 9zm-1-35v-7zm-3 30l1 16v-18c-1-1-1 0-1 2zm0-35h1v-6h-1zm0 2v-8h-1c0 5 0 11 1 8zm-1 64zm2 44v6zm1-68v-7zm1 26h-1v7h1zm0-6v-7zm1 4h-1v6h1zm3 39v7zm-1-72v-3l2 5v2c-1-5 0-2-2-4zm2 44zm2 31h-1v6h1zm3-77h-1v11h1v-11zm5 50c-1-5-2 14-1 13 1 2 1-8 1-13zm1-37h-1c0 8 0 15 1 13zm1 0h-1v7h1zm2 4v7zM281 503h-2 2zM24 370h-1 1zm147 107l-2 1 2-1zm37-76v-2 2zm185-32zm-1 1l1-1-1 1zM281 172l-40 24 20-48 20 24zm-48 21l-6-2 31-40-20 47-5-5zm5 13c-8 5-16 13-21 23l10-36 5 2c3 2 6 5 6 11zm-15-48l15-35-10 53c0-9-2-15-5-18zm57 17l-16 23-9 1-15 6-1-6zm-20-29l-32 41 13-69 19 28zm-84-28v2l-1-1 1-1zm3 75l1-1v3l-1 1v-3zm1-1v-8l6 7-6 1zm-9-4v-15l8 9v11l-4 5zm15 3zm-66-6l9-9 16 22-4 1-28-5 7-9zM97 390v5l-11-1h1c1 0 3-1 3-3h1l6-1zm58-169h1v8h-1v-8zm42 42zM73 244h-1v-15l1-2 1 17h-1zM42 355v4l-9-17c2 4 5 9 9 13zm132-10v-3l1 1-1 2zM74 322v4c-2-2-2-5-2-5l2 1zm256 34s-5-3-8-7c-5-8-9-21 4-35 0 0 2 16 19 7 0 0 0 10-14 11-13 1-8 18-1 24zm-52-156l22-4-6 14c-4-5-10-8-16-10zm22-6l-26 5-8-1 17-24 2 2 15 18zm-11 142c-6-16-25-15-28-2-5 15 6 38 57 41 0 0-19-8-29-39zm-10 13c5-2 3-8 3-8-5 7-17 1-15-6s14-9 18 2c3 12 11 24 11 24-9 0-22-11-17-12zm116 17l-1 1 1-1zm-1 1zm-267-31c-11 31-29 39-29 39 51-3 61-26 57-41-4-13-23-14-28 2zm7 5s-3 6 2 8c6 1-8 12-16 12 0 0 7-12 11-24 4-11 15-9 17-2s-9 13-14 6zm138-80c3-7 4-19-4-22l-5-1c-13 0-21 16-16 34 7 22 31 30 31 30-18-17-10-29-6-41zm-23 10c-3-9-1-19 3-25 3-3 6-5 11-5l4 1c2 0 3 1 4 3 2 4 1 11-1 15l-1 4c-4 9-8 19 0 31-7-5-16-12-20-24zm-104 24c7-12 3-22 0-31l-2-4c-2-4-3-11-1-15 1-2 2-3 4-3l5-1c4 0 8 2 10 5 5 6 6 16 3 25-3 12-12 19-19 24zm53-243v-1l3-6v1l-3 6zm-5 39v-3 3zm-1-26v0zm9-4zm-11 91zm0 0v2zm0 8l-1 2 1-2zm-2 3l1 6-1 4-1-7 1-3zM73 212v5l-3 3-1-4 4-4zM43 360c0 1-1 1-1-1l1 1zm1-4v-4l1 1-1 3zm19-64l-1 1 1-1zm3 45zm5-61v-1l1-1v2h-1zm4 18v-3l1 3h-1zm0-50c0-6 1-5 2 0h-2zm11 48h-1 1zm2-92v-4l1-2v5l-1 1zm9 200v-5h2l-2 5zm0-10l1-2 1 2h-2zm66-188v-3h1v3h-1zm16-20v-3l1 2v3zm0-56v4l-3-7v-3zm-11-5v-12l3-4 1 11-4 5zm-1 234v-2l1-2-1 4zm0-188v-2l1 1v3zm6 181v-2l1-1v2l-1 1zm9-190l-1 8v-4l-1-12zm41 308v9l-1-2v-9l1 2zm-8 18l1 4h-1v-4zm-1-9v3h-1v-5l1 2zm-3-450v-2 2zm-26 186v4h-1v-5l1 1zm8 55v-4h1v3l-1 1zm11-174zm7 1v-4h1v5l-1-1zm2-8v5l-1-1V76zm-2-24v1l-1-1v-1l1 1zm19 10v-3 3zm165 294zm6-15z"/></svg>
