<svg viewBox="0 0 60 90" xmlns="http://www.w3.org/2000/svg"><path d="M31.4 30.3c-4.2-1.1-4.2 3.2-1 3.3 3.5.3 5-5.7 3.4-8 0 0-1.5 4.4-2.4 4.7zm-27.7 24L0 56v-.8c8.9-4 17.7-8.1 26.2-12.6-1-1.3-1-4.4.9-5.6 2.2-1.3 4.8 0 5.1 2.5 1-.5 2.1-6.6 1.8-7.6-1.1 1.7-2.3 2.4-4 2-2.8-.3-3-3.8-.8-4.2.9-.1 2 .5 2.1.3 1-.4 1.7-3.5 1.9-4.5l.5-4.6v-4.6L20 0h1.3L34 15c0-.6 17.7-2.8 26-.3v.5c-9.6-.5-16.8-1.3-25.4 1 0 0-.2 3.4 0 3.5 0 .5.3.5.5.3 4-2.2 8.3-1.2 8.6 4.2.1 2-.6 3.5-.7 5.4-.1 1.7-1.5 4-.6 5.3l1.4.7c1.5.7 2 1.2 2.2 2.2.1.7-.3 1.1-.4.4 0-.4-.2-.8-2-1.4-1.7-.6-2.2-1.3-2.4-1.6-.2-.5-.2-1 0-1.7a19 19 0 001-4.3c0-.3-.3-.2-.8.2-.5.5-2.8 2-3 1.9l1.1-1.3 1.8-1.7c0-.3-.1-.2-1 0-1.2.4-2.7.4-3.7 0-1-.5-1.5-.7-1.6-.5a29 29 0 002.7 14.8c1.9 3.8 6 8.7 12.1 7.6A27.9 27.8 0 0060 45.6v1c-4.2 2.7-8 4.3-12 4.5 0 0 2.5 1.6 3 3.4-3-4.5-5.7-3.4-8.6-.7-3.5-1.8-5.8-1.4-11-6.3 0 0 8 3.8 13.6 2.8-5-2-8.9-6.6-10.6-16.2-.3 1.9-1 5.7-2.2 6.1-1.7-6.3-8.2-2.6-5.6 2.5C20 47.3 12 50 4.6 53.4c0 0-.8 2.6-4.6 6.4v-.6a20 20 0 003.6-5zM12 70.6c-1-1-2.4 2.2-2.4 2.2l-2 1.7c2.8 5 4.8 10.3 6 15.5H10A39.6 39.5 0 004.6 76L0 80v-2.7l2.2.1 1.4-4h4l.4-4 4.1-.5v-4.2l4-.5-.3-4.4 3.7-.8-.3-4 3.3-1-.1-3.5.6-.5-1.5-1.4-1.2.4v3.7l-3.3 1 .4 4-3.4.7v4.4l-3.8.3-.3 4-3.6.7-.6 3.6-3.7.3L1 75H0v-2.2a87.2 87.1 0 0020.3-26.2c.3.3 3.4 3.4 4.7 5.1L14 67.5c2.5 5 5 9.5 6.6 13.9.3.7 1 .6 1.1 1.2.2.6-.5 1.3-.4 2l1.2 5.3h-3.1A64.3 64.2 0 0012 70.5zm30.4-17l2-2.2A55.7 55.7 0 0134 49.2c2.7 2 5.5 3.2 8.3 4.3zm-22.1-7zm12.4 42.6c.2-1.3.5-3 2-4.9 1.8-2 3.8-4 5-5.8 1.8-2.2 2.7-4.2 2.3-5.2 2.5-.4 4.7-2.6 4.8-6.5a14 14 0 011.2-5.2s5.2-.2 12-2.2v1.6h-.2c-.2 0-.2.3-.2.3-.2.4 0 .5.3.5v1.1L33 90h-1zm1.6-1.7c.5-.5.6-.7.3-.9-.4-.4-1.2.4-1.2 1.1 0 .4.4.3.9-.2zm1.7-1.6c.3-.4.3-.7 0-1-.4-.4-1-.1-1.3.5-.2.8.7 1 1.3.5zm1.4-1.5l.3-.5c0-.2-.6-.7-.9-.7-.3 0-.8.5-.8.8 0 .3.5.8.8.8l.6-.4zm1.3-2.7c-.4-.4-.7-.4-1 0s-.4.8 0 1.2c.5.5.6.4 1.1 0 .5-.3.5-.7 0-1.2zm1.7-.2c.4-.5.3-.8-.2-1.3s-1-.6-1.3 0c-.2.2-.2.5-.2.5 0 .3 1 1 1.1 1l.6-.2zm1.4-1.6c.5-.4.4-.7-.1-1.3-.5-.5-.8-.5-1.3-.1-.4.4-.3.8.2 1.3s.9.6 1.3.1zm1.8-1.7c.3-.3.2-.3 0-.7-.3-.5-1.3-1.3-1.5-1.3-.3 0-.6.5-.6 1s.3.8 1 1.3c.4.3.2.3.6.2l.5-.5zm1.4-1.3c.6-.7.5-.8-1-2.4-.5-.6-.6-.6-1-.6s-.4.1-.5.5c-.4.7 0 1 .8 2 1 1 1.2 1.1 1.7.5zm1.5-1.7l.5-.5c0-.3-1.3-1.6-1.7-2-.3 0-.6 0-1 .4-.3.2-.3.2-.2.4 0 .4 1.6 2 1.9 2 0 0 .3 0 .5-.3zm1.6-1.4l.4-.7c0-.3-1.3-1.9-1.7-2.1-.4-.1-.6 0-.9.4-.4.6-.2.8.5 1.7l1.1 1.1.6-.4zm1.4-1.6c.3-.2.8-.6.6-1a27.1 27.1 0 00-2.8-3c-.4-.1-.4.2-.4 1.5v.6l1 1c1.5 1.5 1.3 1.2 1.6 1zm1.9-1.7l.3-.6c-1-1.2-3.6-4.8-4.2-4.7l-.1.2c-.2.3-.2 1 0 1.6.8 1 2.9 3.7 3.3 3.9.3 0 .4-.1.7-.4zm1.4-1.5c.2-.2.4-.4.4-.6l-.7-.8a98.2 98.1 0 01-1.4-1.8c-2.6-3.2-2.8-3.4-3.2-3.1-.3.2-.3 1-.2 1.2.3.5 3 4 4 4.8.6.6.8.7 1.1.3zm1.5-1.5c.3-.2.4-.5.4-.6a134.2 134 0 01-2.5-3.1c-1.1-1.5-1.1-1.5-2-1.7-1.3 0-1.1.3.3 2l1.6 1.8c1 1.4 1.6 2 1.8 2l.5-.4zm1.6-1.5c.7-.6.5-.7-1.7-3-.7-.8-.7-.9-1.3-.9s-.7.1-.7.4c0 .2 2.8 3.6 3 3.7.3.1.3.1.7-.2zm1.6-1.7l.3-.5c0-.3-.6-1-1.2-1.5-.3-.3-.6-.5-.8-.5-.4 0-1 .2-1.1.3-.1.2.7 1.2 1.6 2 .6.7.7.7 1.2.2zm1.4-1.4c.4-.3.4-.7 0-1.1-.3-.3-.4-.4-.9-.4-1 0-1 .3-.3 1.1.6.7.8.9 1.2.4zm-29.3 6.6V71c1-.7 4-2.6 5.3-3.7l.3-1.5-5.6 3.8zm8.3-8c0-.2-.3 0-.7.3l-6.6 5c-.5.2-1 .5-1 .7v1.3l6.1-4.2 2.2-3zM37.3 72s-5.9 7.1-7.8 10.7V89h-.4L29 76.2c-.2-16.8-.4-21-.4-21l-1.9-1.4v-.6s8.5 6 12.6 6.9c-3 4.7-5.8 6.6-2 12zm-7 8.5c.2-.3 0-.3-.2-.3s-.3.2-.3.4 0 .2.2.2l.3-.3zm1.5-2c.7-1.1 1.4-1.8 1.6-2.6a16 16 0 00-3.7 2.5c0 1.2-.3 1.3.8.8l1.2-.8zM32 76c.9-.8 4.3-2.6 4.6-3.5.2-.4-.3-.7-.4-.7 0 0-4.8 3-6.5 4.4-.2.2-.1.6 0 .8.2.5.5.1 2.2-1zm-1.1-1.5l3.9-2.6c1-.8 1.2-1 .9-1.5a.6.6 0 00-.8-.2c-2.8 2-3 2.4-5.2 3.8-.2.3-.1 1 .1 1.1l1.1-.5zm0-2.1l4.1-3c0-.3.2-1.2 0-1.3-1 .8-3.7 2.4-5.4 3.8v1c.4.2.5 0 1.3-.5zm-.4-6.8l5.7-4c1.7-1.1 2-1.4 1.3-1.7-.2-.1-.7-.3-1-.2-2.2 1.8-4.6 3.5-7 5.3v1c0 .4.4 0 1-.4zm-.2-2l2.2-1.6c2.9-2 3.2-2.2 3.2-2.5 0-.6-.8-.8-1.6-.1-1.4 1.1-4.6 3.2-4.6 3.4v1c.2.3.4 0 .7-.2zm.8-2.8c3-2 2.8-2 2.8-2.3 0-.3-.3-.2-.7-.2s-.5 0-1.3.7c-1.7 1.2-2.2 1.6-2.4 2v.7c.2.1.4 0 1.6-.9zm.2-2l1-1c.1-.2-.3-.5-.6-.5-.4 0-.6.1-1.5.9-.7.7-1 .5-.8.8l.1.8c.2.3.5 0 1.8-1zm-.8-2.4c-.5-.4-1-.5-1.2-.3-.2.2 0 1.3 0 1.5 0 .3.4.2 1-.2.5-.5.6-.6.2-1zm12.7-10c0-.3 1.1-1 2-1.2a5.1 5.1 0 013 .3c.9.4 1.7 1.3.4.7-1-.4-3.5-.5-4.4 0-.7.3-1 .4-1 .2zm-.7-4l1.7.4c1.6.4 2.9.2 4.5-.3.4 0 .6.1.4.4a6.2 6.2 0 01-3 1c-2 .1-4.2-.9-3.6-1.5zm-2.7-.2c.1-.7.7-1.3.8-2.1 0-.2 0-.4.5-.1.6.3.7 0 1.5-.2 1.1-.6 1.4-.5 2.3-.2.6.3.7.3 1.3 0 .8-.5 1.6-.6 2.2-.4 1 .4 1.3.5 2 .3.2-.2.5-.7.7-.7.3.6.3 1.6.5 2 .4 1 .3 1.7-.2 1.2-1.2-.9-2.1-.9-3.7-.5-1 .2-1.5.4-2.4.3-3.3-.4-3.5-.3-4.2.1-.6.4-1.1.4-1.3.3zm8.8-5.9c-1-.2-2-1-2.8-.8-1 0-1.5-1-1-1.7.8-.8 2.2 0 2.7.4 1 .7 1.2.9 1.7.9 1.8 0 1.4-1.8.5-2.4-.5-.5-.5-.9-.4-1 .1-.3.7 0 1.2.5 1.1 1 1.1 3.1-.2 3.7-.7.4-1 .6-1.7.4zm3.8-5.8c-.8-.8-2.4-2-2.7-2.6-.8-.8-1-1.3-1-2 0-.5.2-.8-.1-1-.3-.2-.8-1-.6-1.4 0-.1.4 0 .6.3.3 0 .3-.1.6-.4 3.5-2.3 6.3-1.9 9.6-.2l1.1.7v.6l-.8-.5c-3-1.4-6.1-2.2-8.7-.4-.4.3-.7.5-.4.5 1.5-.2 3-.9 4.4-.7 2.2 0 3.6 1 5.3 1.8l.2.2V27c-.8 0-1 0-1.4.3a8 8 0 01-4.9 1.2c-1.9-.1-2.1-.2-2.2 0 0 .2.5.5 1 1l1 1c.2.3-.5.2-1-.2zm-1.2-4.6c-.2-.2-.4-.1-1 .3-.3.3-.4.5 0 .7.8.7 1.7.8 1.7.5a3.7 3.7 0 00-.8-1.5zm3.5 1.6c.8-.3 1.5-1.6 1.2-2-.2-.3-.4 0-.7.7a3.7 3.7 0 01-.8.8c-.6.4-1.4 0-1.7-1-.2-.5-.5-.9-.8-.6-.3.3.1 1.8 1 2.1.5.3 1.2.3 1.8 0zm2.4-.2c.7-.2 1.1-.6 1-1 0-.2-.6-.5-1-.5l-.5.1-.8 1.5c.2.3.4.2 1.3 0zm2.7-5.8c-3.9-1.4-7-2-10.6-.5-1.2.5-1.9.6-2 .2 0-.3.9-1.4 1.8-1.9a9.5 9.5 0 018.2 0c.6.3 1.9 1.1 2.7 1.8v.5h-.1zm-21 6.3c.8-.3 1.5-1.4 1.3-2-.2-.3-.5 0-.8.4-.6.8-.7 1-1.2 1s-.7-.2-1.1-.9c-.2-.7-.5-.7-.7-.4v.7c.5 1.3 1.4 1.7 2.6 1.2zm2.3-.4c1-.3 1-.4 1-.7 0-.3-.7-.8-1.2-.7l-1 1.6c.2.2.5 0 1.2-.2zm-5.3-.5l-.1-.7c-.3-.3-1 0-1 .4 0 .3.6.7 1 .7.3 0 .2 0 .1-.4zm5.1-2.4c1.4.6 2 .6 1.4 0-1-1.1-5.5-2.4-7.9-.6V25c2-1.4 4.5-1.3 6.6-.6zM36.5 21c-1 .4-2 1-2.2 1.4-.2.9.2 1 1.6.4 1.8-.6 3.9-.3 5.5.6 1.2.9 1.5.6 1.3-.1-.7-2.4-4.4-2.8-6.2-2.3zM60 73.6C54.3 79 49.2 84.3 43.5 90h-1L60 72.7z" fill="#131f67"/><path d="M48 61.5c-.8 1.6-1.1 3.6-1.3 5.4.1 6.8-7.3 7.2-7.3 6.4 0 0-3.5 6.1-9.8 13.2-.2 0-.8-2.3 1-5.3 2.3-4 6.9-9 6.7-9.1-4.6-5.4 1-10 2-12a40.7 40.6 0 01-19.1-13.9c2.4-1 4.5-2.3 7-3-4.4-6 4.4-9.1 4.9-3 1.8-1 1.6-3.6 2.2-5.5 0 0 1.4 5.2 3.3 8.8 1.4 3.3 6.3 6.6 6.6 6.6-.5 1.5-12.2-1.5-12.4-3v1.1a48.9 48.8 0 0010.6 5.7c2-2 5.7-5.2 8.4.6 3.1 0 6.3-.9 9.2-2v7.7c-3.8 1-7.8 1.5-12 1.3zM33.7 26c1.6 2.5 0 7.3-3 7.6-3.6.2-3.6-5.3.6-2.7 1 0 2-4.8 2.4-4.9zm-29 27.6L20 46.4A68.6 68.5 0 010 72.7v-13c2-2.1 4.7-6 4.7-6zm21.7 33.7l2.8 2.6h-6.8c-.4-3.2-.8-5.5-1-5.5 1-1.2-.3-2.5-.4-4-.2-7.2-.2-22.2-.2-22.2l2.9-4.4s1 28.9 2.7 33.6zm23.9-4.6s5-5.1 9.5-9.4V90h-3.3a39.9 39.9 0 01-6.2-7.3z" fill="#e2cf00"/><path d="M0 90V79.2l4.6-3.7a56.3 56.3 0 015.7 14.3zM27.9 0l7 10.6 8.5-1L40.5 0H44l2.4 9.4c4.7.1 9.2.4 13.6.9v4.5c-8.8-1.9-23.2-.3-26 .7L21 .1zm20.8 6.5L47 .1h13v5.3l-.5 1.9a69 69 0 00-10.8-.8zm-9.3.3l-3.3.3-4.5-7h5.6zM50 83.2v-.7l10-10v1.3l-.2.2h.2v.6h-.7c-.8.5-1.6 1.4-1.6 1.4l2.3.4v.4c-1.5.2-3.1.2-3.1.2l-1.5 1.4s2.3.2 3.4.6c-1.2.5-3 .2-4.3.2l-1.4 1.4c1 .1 2.5 0 3.7.5-1.7.3-2.9 0-4.4.2-.5.2-1.6 1.6-1.6 1.6l5.5.2.2 5 1.5-1.7c.2-1.7-.1-3 .2-4.6.3.8.2 2.7.5 3.8.4-.2.9-.7 1.3-1.2v1l-.7.8.7.2v.6h-1.5L57 88.5l3.1.2V90H43.1l6.9-6.7zm-29.3.6l1-.3L21 82l-.5.3c-2-5.1-4.4-10-7-15 .1.2 7.3-9.3 10-14.3l.2.2 1-1.6-4.4-4.9A71.7 71.7 0 010 73.1v-.8c13.4-11 19.7-25.5 20-25.6l-3.3 1.6c-4.1 7-9.5 15.1-16.7 21.3v-.9a72.7 72.7 0 0015.6-20l-6.1 3A52.7 52.7 0 010 64.2v-1c5.2-4.7 8.2-11 8.2-11L4.8 54s-2 3.5-4.8 6.2v-.7c2.4-2.5 4.4-6 4.4-6 6.3-2.8 12.2-5.9 18.4-8.8l.2.2 1.3-.6v-.4l2.1-1.2c-2.8-4.7 3.7-8.4 5.4-3.7.3.7.3.8.6.7 1.3-.8 1.5-4.7 2-6.1 1.4 6.1 3.5 13.7 11 17-4.8.4-9.5-.6-13.6-3 2.5 2.7 7.2 5 10.7 6 1-1 1.5-1.9 2.8-2.4 3.7-1.4 5.5 3 5.5 3 2.7.3 6.1-.6 9.2-1.7v.5c-3 1-6.2 2-9 1.9l-.4 2c3 .2 6.3-.5 9.4-1.6v3.2c-3.5 1-7.2 1.5-11 1.2l-.7 1.6c3.9.4 7.8 0 11.7-1.1v.3c-3.9 1.1-8 1.5-12 1.2-.6 1.5-.9 3.2-1 5.1-.1 2.7-1 5.9-5 6.6.8 1.1-1.2 4-2.6 5.7-2.2 3-6.6 6.8-6.6 10.3l-.7.7H28V90l-4-.3c-.3-1.8-.4-5-.4-5h-1.9l1.4 5.3h-.8c-.4-2-1-4-1.6-6.1zm-7-16.4zm17.8-33.8c-.7.2-1.8.1-2.4-.2-1.1-.7-1.6-1.8-.7-3 .7-.8 2-.2 3-.2.8 0 1.5-4.3 2.4-5.4 1.6 3.3.5 7.8-2.3 8.8zm-.2-2.2c-.3-.6-1-1-1.5-1-1.5-.1-1.8 1.6-1 2.4 3 2.6 6.6-3.2 5-6.4-.4 0-1.5 5-2.5 5zm3.1 4.1c-.3 1.7-.6 3.7-2.1 5.2-1.1 1-2.7 1.7-4 .3-.7-.8-.6-2.2.8-2.7.4 0 .4.3 0 .6-.5.4-.7.5-.7 1 .2 2 4 1.5 3-1.2-1.5-4-7.7-.2-4.3 3.8.9 1 3 1.2 4.5.7 1.6-.8 3.4-2.8 3.6-4l-.8-3.7zm.8 5.2c-1.3 1.9-3 3.4-5.2 3.4h-1.8s.1.4.5.7c.4.5 1 .8 1.4.8l1-.3c2-.4 4.9-2.2 5-3.3.3-.6 0-1.9-.4-1.9l-.5.6zm.5 2.9a10 10 0 01-4.4 2.4c-.8.2-.8.5-.1.7.7.4 1.3.3 2.5-.2 2.2-1 3.5-2.2 3.5-3 0-.4-.2-.6-.5-.6-.2 0-.6.2-1 .7zm-10.4.4c4.1 5.5 9.8 9.6 16.3 11.8l.7-1.6c-6-2.2-11.4-6-15.7-10.8zm11.5 1.2l-2.2 1.5c-1.3.8-1.5 1-1 1.4.6.2 1.4 0 2.7-.6.9-.5 1.3-.8 1.6-1.3.3-.3.6-.7.6-.9 0-.1-.6-1-.8-1l-1 .8zm-16.2 1.2a40.6 40.6 0 0018.7 13.4l1-1.4a35.3 35.3 0 01-17.8-13zm17.4.4L36.5 48c-1 .6-1 .9-.5 1 .5.4.8.4 1.3 0 .6-.1 1.9-1.2 2.2-1.5l.2-.5c0-.3-.6-.9-.7-.9-.2 0-.5.3-1 .7zm1 1.8c-1.2 1-1.2 1.2-.1 1.3.4 0 .6 0 1-.5.8-.6 1-1 .8-1.3 0-.3-.2-.4-.4-.4-.3 0-.7.3-1.3.9zm2 .7c-.5.5-.5.6-.1.7.4.3 2.5.5 2.8.2.2-.1-.7-.5-1.4-1-.6-.3-.7-.6-1.3 0zm1.9 5c-1.1 2.9-2.7 5.5-4.7 7.7l1.7-.3.9 3.4s1.8-1.7 1.9-2.2l.3-2c.7-4.6 1.3-6.1 2.5-7 1.5-.8 2.8.3 2.8 1.5 0 1.4-1.3 3.7-3 5.5-1.3 1.4-2 2.4-2 2.4v3l2.2-2.1 1.2 1.1c.5-2.5.7-3.7 2-5.8 1.2-2.5 1.6-3.2 1.6-4.1 0-2.2-1.5-3.8-3.6-3.8-1.7 0-2.9 1-3.8 2.8zm-15.4 33l1.8 1.8v-6.6c2-3.5 4.2-5.7 6.5-8.8.7-1 1.3-1.6 1.1-2-4.8-5 2-10.7 2.2-11.6A45.2 45.2 0 0127 53.5zm18-32.4c-.6.5-1.1 1.6-1.3 2.5a60 60 0 00-.8 4.6s3.6-3.6 4.4-5.7c.5-1.2-1-3-2.4-1.4zM21 58.7l.4 22.6 2.5 2.6-.3-29.5zm18.5 3.8s-1.9.6-2.2 1a5.6 5.6 0 005.7 9.3c2.1-.7 3.4-3 3.5-5.3 0-1.1-.9-2.5-.9-2.5s-2.2 2-2.9 2.4V64l-2.3 2.3zm-27.9 6.7A64 64 0 0120 90H16c-1.2-6-3.6-12-6.8-18zm25.7 3.3c-2.7 3.6-5.2 6.3-7.2 10.1-.3.6-.5 1.2-.5 1.8 0 1 0 1.5.3 1.5.4-.1.6-1 .9-1.3 1.4-3.2 5.5-7.1 8-11zM60 70.2L40 89.9h-4.3L60 65.6z"/></svg>
