<?xml version="1.0" encoding="utf-8"?>
<svg viewBox="0 0 60 90" xmlns="http://www.w3.org/2000/svg">
  <path d="M29 13.6L22 0h38v13.5c-10-.4-20-.8-31 .1zM54.4 57l5.5-3.5v32.3c-.8-.4-1.6-.5-2.5-.7 0-5.2-6.2-4.6-5.2.4 0 0-2 0-3.3 1a144.4 144.7 0 00-11.2-37c-.3-.6 2-1.1 2.1-1.3A60.4 60.4 0 0054.4 57zm-35.3 8.4c1.4 0 2.8.1 3.8 1 0 0-3.5 3.7-2.8 4.4 8.3 4.4 10 14.3 3.4 19.3H9c-6-6-5.2-13.8 3.3-19.3.2-.3-2.8-4.4-2.8-4.4a10.4 10.5 0 013.7-1c1-1.1 1.7-2.4 3-3 1.4 1 2.1 2 3 3z" style="fill: rgb(196, 202, 206);"/>
  <path d="M30.8 17.3c10.1-2.2 21.5-2 29-1.3v2l-1.3-.2s.8 5 1 9.8l.4 5.3v5a30 30 0 01-.5-3l-.7-10.2c-.6-5.2-1-7-1-7l-1.5-.2c1 6.5 1.3 14.9 2.2 22 .2 1 .9 2.9 1.4 4.1v3c-4.7 9.6-14 .8-16.2-3.8-1.1 7.8-14.9 9.7-20 3.3 0 0-.5-.2-.6-.1-7 2.4-18.3 8.7-23 11.6v-1A120 120.2 0 0123.2 45v-.8c0-2.4 1.4-4.3 4-4.7 1.3-.3 2.7-.6 4-1.2 1.7-.4 2-.6 1.7-1.6l-.3-1.6c-.2-1.7-.2-2-1-.6a4 4 0 01-4.7 1.7c-2.6-1.1-1.2-6.8 2.5-3.7.7-.2 1.9-3.5 2-4.5 0-.5 0-.7-.2-.7-1.7 1.4-4 .5-4.1-1.4-.2-2.6 2.8-2.2 2.8-1.8.3-.7.7-1.3 1-2.7.4-1.2-.2-2.4-.2-2.4L20.3 0h1.6zm18 69.3c0-.1 2-1.6 3.5-1-.9-1.3.3-4.3 2.5-4.2 2.3.3 2.6 2.3 2.6 3.8 0-.1 1.3-.2 2.5.5v.8l-.6-.4-.8-.1c-.7 0-1.6.5-1.5.6l1.7 1.4-1.5 1.7.3.3h-2.2c.7-.2 1.4-1 1.3-1.8 0-1-.8-1.8-1.8-1.8a1.8 1.8 0 00-.4 3.5h-2l-1.6-1.7 1.6-1.6c.2 0-.4-.3-1-.3-.4 0-.8 0-1.2.3-1 .6-1.3 2.3-.7 3.2l.3.2h-.9c-1-1.4-.2-3.4-.1-3.4zm1.5-69.3c-5.2 0-13 .4-18.6 1.8l.5 1.2a7 7 0 015.9-.8c3 .9 4 3.2 2.9 7.4l-1.2 5.4c-.1.9.2.9.8 1.2.5.2 1.3.3 1.9.7.2.2.6.7.7 1.3v1l-.6-.9c-.1-.2-.3-.4-.8-.6-2.8-1-3-1.3-2.2-4.1l.7-3.1s-1.7 1.2-2.5 1.5c0 0 0-.2.2-.3.6-.7 1-.9 1.2-1.8-2.2.9-4.6.4-6.9-.5.3 3.2.4 6.1 1.2 9.3.8 3.6.3 7-1 9.2a5.8 5.8 0 01-5.3 2.7c-.4.3.7 1 2.4.9 2-.2 4.6-2.8 5.8-6.7l.5-1.5c.4 4-3.2 7.7-4.5 8.4 0 0 .5.4 1.4 0 3.3-1.5 5-7.1 5.1-6.6.1 1.4-1.6 4.5-2.6 5.5s-1 1.3-.1 1c1.2-.3 3-2.6 4-4.5l.6-2.4c.4 2.1-1.1 4.2-2.2 5.8-1 1 .4.6.9.1 1.7-1.5 2.6-4.4 3.1-5.7.2 1.6-.8 3.5-1 4.6.7 0 2.2-3.1 2.5-4.2.3-.7.7-.4 1 .2 0 .3 5.1 9.5 11.6 7.4 2-.5 4.3-2.8 4-5-.2-1.4-1.6-2.8-3.4-2.4-1.9.5-2.1 3.3-.7 4 .9.4 1.9.3 2.2-.7.1-.7-.2-1.3-1.3-1.2-1 .5-.3-1 .8-.7 2 .9.7 3.2-.7 4.2-2.4 1.8-5.5.7-8.8-2.3-1-1.2-2.5-3-2.4-3.7h.1c2.3 3.6 6.3 6.4 8.8 6.2 1.2 0 1.7-.5 1.7-.8 0-.3-.8-.7-1.8-.5-1.9.4-4.8-1.5-6.3-4 0 0-.2-.4 0-.2 1.8 2 4.4 4 6 3.6.5-.2.6-.6.2-1l-.9-.3c-1.5-.5-3.6-1.8-4.2-3.5 0-.2.2 0 .5.4 1.4 1.6 4.3 3.2 4.7 2.5.2-.7 0-.9-1.2-1.7-1.4-.8-2.8-2-2.5-2.2l.8.5c1.3 1.1 2.9 2 3.3 1.8.7-.4.4-1.1-.4-1.4-.5-.1-2.3-2-2.1-2.2l1 .7c2 1.7 2.7 2 3.6 1.8.4-.2.3-.4-1-1.6-1.2-1-2.5-2.5-2.1-2.7L55 39c1.4 1.4 3.3 3 3.5 3 .3-.2-.2-2-1-2.8-.4-.4-2.4-1.8-2.2-2.7l1.2 1c1.3 1.3 1.2 1.2.9-1.4l-.4-4.5-.4-5c0-.2-1.6-.6-2.3-.2a6.3 6.3 0 01-5.3.7c-.6-.2-1.4 0-.4.7L50 29l-3.6-1.7-.2-1.9-1.2-1.7 1.4.3c1.3-3 4.9-3.2 9-1 1 .5 1 .4 1-.2 0-.4 0-.4-.5-.8-1.8-1.4-6.8-2.4-9.3-1.1-1.6.8-1.7.3-1.4-.4.7-1.4 4.2-2 6.4-1.4 1.5.5 4.4 1.9 4.4 1.9-.2-1.2-.3-2.4-.6-3.5 0-.1-2-.2-5.1-.2zm-17.8 4.4c-.1.2 0 .5.1.7l1.2-.5a6.1 6.1 0 016.3 1c.2.2.5.3.4 0-.1-1.4-1.9-2.3-3.9-2.4-1 0-3.5.2-4 1.2zM30 25.4c-.2-1.2-1.3-1.5-2-.5-.8 1.5 1 2.8 2.3 2.1 1.1-.4 1.7-1.6 1.6-3.7l-.1-1.9zm3.2-2.2c-.6.5-.5.8 0 .7 2-1.4 4.3-1.2 6 0 1.2.5 1.3.7 1.4.4 0-.3-.6-1.1-2.1-1.7a6.1 6.1 0 00-2.5-.5 4.9 4.9 0 00-2.8 1zm13.7.5c0 .2 0 .4.3.4l.5-.1c2-1.4 4.3-1.6 7.7.5.5.4.7.6 1 .5.2 0 .2-.8-.1-1l-1.6-.8c-1.4-.7-3-1-4.4-1-1.1 0-2.5.5-3.4 1.5zM38.1 25h-.6c-.5 1-2 2.4-3-.2H34c-.4 2 3.2 3.8 4 .2zM49 25h-.6c1.3 3.2 3.8 1.6 3.9 0h-.4c-.7.9-1.6 2-2.9 0zm-16.4 1c.3.4 1.7 1.2 1.3.2-.1-.5-.1-1-.7-1.1-.3 0-1 .6-.6 1zm19.8.1c-.4 1 0 .8 1.4.3.8-.4.8-.7 0-1a2.8 2.8 0 00-.6-.2c-.4 0-.6.6-.8 1zm-4.9-.2c0 .6 1 1 1 .6s-.2-.7-.5-1h-.2l-.3.4zm-9.2.2c-.6.8-.2 1 .7.5.4-.4.5-.7-.2-1-.2 0-.3.2-.5.5zm7.6 4c.6 0 1.4.7 1.6 1.3.5 1.6-1.2 3.1-3.4 2.3-.7-.2-.7-.2-1 .1-.4.4-1.4 0-1.7-.5-.3-.7 0-1.3.7-1.4 1.3-.2 3 1.7 4.2 1 .9-.5.8-1.7-.3-2.1-.7-.3-.8-.7-.3-.7h.3zm-14.2.2c-.2.1-.3.7-.5 1-.5 1.4-1.8 2.5-2.3 2.7 0 0-.4-.3-.2-.7 0-1.4-2.1-1.3-2.4.2-.3 1.6 1.4 2.7 3 2 1.5-.8 2.7-2.6 2.7-4 0-.7-.1-1.3-.3-1.3zm19.5 2.2l.6.1c3 1.6 1 5.8-2.3 5.1l-4.3-1c-.4 0-.7-.8-.2-1.2.4-.5.7-.7 2.5 0 2.5.9 3.7 1.2 4.6.1 1-1.3-.9-3.3-2.3-1.6-.4.7-.7-.2-.4-.6.2-.5 1-1 1.8-1zm-13.7 1.5c.3.4.4 1.2.4 1.2l-.2-.3c-1.3-2-3.3-.1-2.1 1.4.4.7 1.4.8 2.4.2.4-.2 3.4-2 3.1 0 0 .5-1.4 1.2-2.7 1.6-.7.2-1.3.2-1.6.2-2-.3-3-3.3-1.7-4.5.3-.3.8-.4 1.3-.4.4 0 1 .2 1.1.6zm5.4 4.2c.8.5 1 .4 1.6 0 .7-.5 2 .5 2.9.4.3 0 .6-.2.7 0l.5 2c0 .3-.4-.2-1-.4-.7-.4-1.5-.4-2.6 0-1 .2-1.7.2-2.8 0-1.6-.3-1.8-.4-2.4 0-1.2.7-1.4.2-.8-1 .2-.4.4-.6.7-.5.5.1 1-.3 1.6-.4.3-.2.7-.3 1-.3l.6.2zm-10.7 1c.3.7.7 1 .7.6.2-.5.2-1.2-.3-1.2-.4 0-.6.2-.4.6zm-1.4 1c.3.2.7 1 .7 1.4.4.4.5-.9.4-1.3 0-.5-.4-1.1-1-1.1-.7 0-.7.5 0 1zm-1.6.6a5.6 5.6 0 01.9 1.2c.1 1 .3 1.6.9.7.3-1-.6-2.7-1.6-2.8H29c-.4 0-.3.2.2.9zm-3.7.1c-2.7 2.4-1.6 6 2 6.4 3.5.3 5.4-3.2 5.7-6 0-.6 0-.7-.5-.2l-2 2.8c-2 3.2-5.9 2.1-5-.9.2-.8 1.2-1 2-.7.4.4.6 1.1-.2.6-.6-.3-1.1 0-1.3.6-.4 1.8 2.5 2.2 3.2.4.5-1.8-.9-3.6-2.5-3.6-.4 0-1 .3-1.4.7zm20-.4c.4 0 .2.5 0 .7-1 .6-3.1 1-4.2 0-.4-.4-.4-.8.5-.4 1.2.5 2.4.3 3.7-.3zM13 54.6l2.5 3.2-2.4 1.5-2.2-1.5 2.3-6.7-.2 3.5zm7.3 5l2.5 3.1-2.4 1.6-2-1.6 2.1-6.5-.2 3.3zM5.7 60l2.4 3.2-2.3 1.4-2.3-1.5s2.3-6.7 2.4-6.5L5.7 60zm22.4 7.4l2.4 3.2-2.3 1.4-2.2-1.5s2.3-6.7 2.3-6.6l-.2 3.5zm4.2-.9h.2l.3 1.9.2 16.2c1 .5 2.4 1.2 2.3 3.6 1.8-.3 3.2.6 3.7 1.7h-.8a2 2 0 00-.9-1l-.7-.1c-.7 0-1.5.4-1.4.4l.6.7H34a1.7 1.7 0 00-2.4 0h-1.6l.5-.5c-.4-.3-.8-.4-1.2-.4l-.8.1-1 .7h-1.5c-.1-1 0-2.2.3-3.6.5.8 0 2 .7 2.8 0-.2 1-1 2.6-1 0-1.8.6-3.2 2.7-3.5l-.2-18zm.5 1.9zM6 72l2.4 3.3L6 76.7l-2.3-1.5s2.3-6.7 2.4-6.6L6 72.1zm21.8 9.7L30 85l-2.3 1.5-1.1-.8.1-4 1.2-3.3-.2 3.4zm25 1.9c-.5 1.4.4 2.3.4 2.3l1.5-1.4 1.5 1.3s.4 0 .5-.6c.2-.5.2-1 0-1.6a2 2 0 00-1.9-1.3c-.6 0-1.6.4-2 1.3zm-22.1 3.2c-.6 1.2.3 2.3.6 2.2l1.3-1.5 1.9 1.4s.2-.7.2-1.2c0-1.4-1-2.2-2-2.2-.8 0-1.6.4-2 1.3zm28.9 3.1l.3-.1v.2h-.4zM55 88.3a.3.3 0 11-.7 0 .3.3 0 01.7 0zM1 89.8a4.2 4.2 0 011.4.2H0l.9-.2z" fill="#131f67"/>
  <path d="M30.6 17.5l-3.7-7v-.3l-1-1.4v-.3l-.3-.7-.3-.2L21.6 0h.5c2.3 4.5 2.3 3.2 4.8 6.2 3.7-2 4.1 3.5 1 3.3 1.5 1 2.8.7 3.8-.4 1 .4 2.4 1.1 4.5-.8-1.8.3-2.8 0-3.2-1.3-.4-1 .5-2.6 1.9-2.5 0 0-.1-2 1.5-2.2 1.4-.2 2 1.2 2 2.1.7-.1 2.1.3 2.2 1.6.3 1.6-1 2.2-2.1 2.4 2 1.8 3.8.5 4.9-.5.8 1 3.4 2.3 5.1-.4-1.4.4-2.5.1-2.8-1.4-.3-1.2.7-2.2 2-2.3 0-1.2.6-2.2 2-2.3 1 0 1.8 1.1 1.9 2.3 1.3 0 2.2 1 2.2 2 0 1.5-1.3 2-2.6 2 2 1.9 3.6.9 4.6.1 1.4 1.3 3 1.3 4.1 1v1c-2.5 1.6-7.3 2-9.7-2.7 0-.2 0-.5.2-.7.3-.6.2-1-.3-1.3h-.5c-.7 0-1 .6-.7 1.3.1.3.2.6.1.9-1.7 5.5-9.7 4.3-11.5.4l.2-.5A1 1 0 0036.4 6c-.7.3-.7 1 0 1.8l.3.3c-.7 1.8-4.2 5.8-9.5 2 1.6 3.5 7.4 4.8 9.8-1 2.8 5.1 10.2 5 12.7-1 2.2 4.7 6.6 5.7 10.2 3.1v5c-11.3-1-27 .5-29.3 1.4zm29-13h.3v3.7c-2-.2-2.5-3.3-.2-3.8zm-33 4.1c.2 0 .5-1.2-.8-1.3zm17.7 34.8a29.3 29.3 0 004.4 5.2l2.1 1.4c4.7 1.8 8-.7 9-4v.9l.2-.3v8.2L58.2 56l.1 4 1.5-1v1L54 64.1 41.6 56l2 4.5 10.6 7 5.7-4.2v.7l-5.7 4.2L44 61.3l1.5 4.4 8.8 5.6 5.7-4v1l-5.5 3.9-8.6-5.4 1 3.8 7.4 5 5.7-4v.7l-5.7 4-7-4.7.8 3.9 6.4 4.4 5.5-4v.8l-5.5 4-6.3-4.4.6 4.5s2.2 1.5 3.4 2c1-1.7 3-2.4 4.8-.6l3-2v.9l-2.5 1.6s.2 1.4 0 2.3l2 .2.5-.5V86c-.9-.6-2-.7-3.1-.2.4-.7.7-2.8-1-3.8-1.2-.7-2.7 0-3.3.9-.7 1.4 0 3 0 3-1.5-.4-2.3-.3-3.6.8l.4 3.4H38.6c-.1-.5-.4-.9-.8-1.2l-1-.4a3 3 0 00-1.8.3c.2-1.9 0-3.5-2.4-3.9v-9.4-4c0-4.5 0-4-1.4-6A46.4 46.4 0 0013.4 50c2.7-1.6 10.4-4.6 10.4-4.6 1.6 3 5 5 10.4 4.1 4.2-.7 7.8-1.3 9.3-7 0 0 .6.5.8 1zm-.7-.3zM1 57L.8 89.4h7.1C.8 80 7.6 72.6 11.6 71c.2-1.3-1-2.5-1.7-3.4-.6-.7-1-.8-1-1 .4-.7 2-1.4 3-1.4s1.2 0 2-1.3c1.8-2.5 2.7-2.4 4.5 0 1 1.3.7 1.3 1.7 1.3 2.2-.4 3.5 1.5 3.3 1.5-1.8.9-3.2 3.8-3.2 3.8 5 2 10.3 8.7 6 16.7 0 1 .1 2 .3 2.9H23c1.5-1.2 2-2.4 1-3-1.4-.7-2 .4-2.6 1.6a7 7 0 01-.8 1.4h-.7c1.2-1.5 1.4-2.5.7-3.2a1 1 0 00-.7-.4c-1.4 0-1.8 2.3-2.1 3.6H17c.7-2.1.3-3.7-1-3.7s-1.7 1.2-1 3.7h-.6c-.2-1.1-.4-2.3-1-3.3-.3-.6-1.6-.3-2 .3-.2.7.1 1.7 1 3h-.7l-.9-1.1C10 87.5 9.5 87 9 87c-.6 0-1.2.7-1.1 1.4.1.5.7 1 1.4 1.6H.2V57.3zm25 30.8zM38 49.1l2.6 4.8v-4L39 48.7zm3.2 5.1l.4 1 3.6 2.3.2-4.5-4-2.7zm-14.4-2c-1.4 1.3.6 3.4 3.2 3.6 1.4.2 1.9 0 1.7-.4-.5-.8-2.6 0-3-2.8 0-.7-.4-1-.9-1-.3 0-.7.2-1 .5zm19.3 6l3.4 2v-4.5L46 53.4zm-13.9 5c2.4 1.2 4.9-.5 4-2.5-.7-1.2-2.3-1.4-2-.1.1.9-.7 1.1-1.3.5-2-1.5 0-4.4 2.7-4 3.8.7 7 10.4 3.5 11.4-1 .3-1.4-1-.4-1.5.6-.2.7-.7.1-1.1-1.1-1.2-3.2.7-2.7 2.5.4 1.6 2.3 2.1 4 1.3.5-.3.7-.3.6 0l-.1 1c0 1.2-.2 2.1-.6 3.7-.7 3.3-.7 5.5 0 7.1 1 2.3 3.2 3.2 4.9 2.3 1.4-.7 1.6-3 .2-3.7-1.1-.5-2.5.5-1.8 1.4.3.5.2.8-.3.7-2.4-1.2-1.4-6.5-1.4-7.4.3-1.3.3-1.3 1-.6 1.3 1.2 3 .6 3-.9 0-1.4-1.7-2.2-1.8-.9 0 .6-.2.7-.6.4-.6-.5-.7-1-.8-4.5 0-3.4-.1-4.1-.8-6.2-.9-3.2-3.5-6.8-7-6.8-3.6 0-6.5 5.5-2.4 8zm18-2.3l3.4 2v-4.5l-3.5-2.3zm4.2-2.3v4.5l3.3-2.5v-4.2zM14 64.7c-.6.8-.6.8-1.7 1-2 .2-2.5.6-1.6 1.7.6.6 1 1.3 1.4 2l.4.8h.8s-.4-2-1.4-2.9c-.7-.6-.3-.9.8-.8 1.5.1 1.4.1 1.7-.6 1.3-2.6 2-2.7 3.3 0 .4.7.5.7 1.7.6 1.6-.2 1.8 0 .7 1-.7 1-1.2 1.8-1 2.1.2.4.7.3.8 0 .6-1 .7-1.4 1.5-2.2.9-.8 1.2-1 1-1-.3-.5-1-.8-2.4-.9-1.2 0-1.2.2-1.8-.8-.9-1.4-1.5-2-2.1-2-.7 0-1.3.7-2.1 2zm19 20c.5 0 1 .3 1.3.5l-1.2-.6zM18.2 79l9 1.5-.2-1.2-7.8-1.3-.1-7.4-1-.3.1 8.8zm-5-8.2V78c-3.2.4-7.7 1.4-7.7 1.4v1.1c2.4-.6 8.7-1.5 8.9-1.5l-.2-8.5zm24 1c0 .8.6 1.4 1.3 1.4.7 0 1.3-.7 1.3-1.4s-.7-1.2-1.4-1.2-1.3.6-1.3 1.3zm-17.5 5.8l7.3 1.4-.2-1.2s-4.2-.7-6.2-1.2l-.2-5.5-.9-.3s0 4.4.2 6.8zm-7.8-6.4v5.6c-2.1.4-4.2.8-6 1.3l-.2.8 7-1.2V71zM15 73a1 1 0 102 0c0-.7-.4-1-1-1a1 1 0 00-1 1zm0 4.3c0 .5.6 1 1.1 1 .6 0 1-.5 1-1 0-.6-.4-1.1-1-1a1 1 0 00-1 1zm0 4a1 1 0 102 0c0-.6-.3-1-1-1-.5 0-1 .5-1 1zm4.3.2c0 .5.4 1 1 1s1-.5 1-1.1a1 1 0 10-2 0zm-8.4.2c0 .5.5 1 1 1 .6 0 1-.5 1-1 0-.6-.4-1.1-1-1.1s-1 .5-1 1zm12.5.3a1 1 0 102.1 0c0-.7-.4-1-1-1s-1 .4-1 1zm-16.9.2c0 .6.5 1 1 1 .7 0 1.1-.5 1.1-1 0-.6-.5-1-1-1a1 1 0 00-1 1zM49 86.4s1-1.2 3.1-1c-.3-1.1-.1-1.3-.1-2l-3.2-2zM6 84.7l.5 1.2a39 39 0 0119.7 0l.3-1.2c-6.7-2-13.8-2-20.5 0zm36.5 2.4a2 2 0 104.2 0 2 2 0 00-4.2 0z"/>
</svg>