<?xml version="1.0" encoding="utf-8"?>
<svg viewBox="0 0 60 90" xmlns="http://www.w3.org/2000/svg">
  <path d="M31 85.2l.7 4.8H21.4c2.7-2 5.9-3.6 9.6-4.8zM43.2 90h1.2-1.2zm-32-40.9c3.3 3.4 6.2 6.2 8.7 10.2L9.6 65.7c.5 1.5-.6 2.1 6 8.1.1-.4 2.3-1.6 2.7.2-.9 3.9.4 7.2.5 9.3-.8 1.2-2.9-.1-2.9-.1-1.3-1.4-6.3 5.4-7.8 6h-8v-33c3.7-2.5 7.4-4.8 11.2-7zm31 33.6A139.2 139.2 0 0039 69.4l21-20.7v15.4a280.5 280.5 0 01-17.8 18.6zM31.7 15.1L20.9.1H60v14.3c-9.4-.7-18.8-.7-28.3.7z" style="fill: rgb(196, 202, 206);"/>
  <path d="M33.4 16.5c-.1.8.2 3.7.5 3.5 5-1.8 8.9 1 8 6.1-.3 2.1-.6 3.9-1.3 6-.5 1.7-.5 1.7 1.4 2.8.9.5 1.3 1 1.3 1s-.8 0-1.5-.4l-1.4-.6c-.9-.4-.9-.7-.5-2 .2-1.2.8-3 .7-4.4-.2 0-.5.4-1.4 1.7a4.9 4.9 0 01-1.4 1.1c.2-.6.5-1.2 1-1.7 2.1-2.4 2.3-2.5.3-1.8-1.5.6-2.8.8-4.3-.1-.7-.6-.8-.7-1-.4-.2 2.6.2 5.3.5 7.6 0 .9.3 1.6.5 2.4.4 1.3.5 2.8 0 4.4-.9 3.7-3.4 4.3-6.2 3.7-.3.2.2.7 1 1.2 4.7 1.7 6-3.5 6.4-5.2.3-1.1.5-1.1.5.5 0 3.2-2.5 6-5.5 5.6-1.2-.1-1.5.2-.9.7l.7.4c4 .7 5.8-1.8 6.9-5.2.2-1 .4-1.6.5-1 .4 3.2-2.2 7-5 7-1.7 0-2.7.2-2 .7 1.3.8 3.6.7 5.2-.3 1.8-1.2 2.9-4 3.5-6 .2-.3.4 3-2.4 6-.2.5.1.6.9.5 1.6-.5 2.5-2.1 3.3-5.6.2-.5.2-1 .3-.8.4.8.2 2.5-.2 3.1-.3 1 .2 1.4 1 .7.5-.3.7-.8 1-2l.4-1.3c.1-.2 0 .7 0 1.6-.4 2-1.4 3-2.9 2.8-.5 0-.5.2-1.3.9-1 1-2 1.3-3 .9-.8-.3-1-.1-1.8.2-1 .9-4 0-4.2 0A86 86 0 0142.9 90h-.6a95.7 95.7 0 00-12.6-40.5c-1.7-3-2-3.4-4-6L21.3 45l1.8 1.7-1.6.2-.2 1.1-1.4-.2-.4 1.8-1.6-3-5.6 2.7c5.6 5.5 11 12.6 14.4 21 0-.2 2.5.6 4.8.7.2-1.3 0-2.8 0-4.2l5.1 5H35l-.5 1.8-1.3-1a1.4 1.4 0 01-.4.9c2.1.4 3.2.7 3.1 2.8.6.6 1.2 1.4.8 2.2a207 207 0 002.1 2.8l-2-.4-.5 1.6-1.2-1-.5.1-1 .7-.4 1c-.2.5-1.8 1.5-1.8 1.5.4 1.8.7 3.5.9 5.3h-.6c-.1-1.6-.4-3.2-.7-4.8.5-.3-4.9 1.6-9.7 4.8h-5l-.3-6.7c1.4.6 3.6 1 2.8-1.3-1-1.4-.5-8.4-.3-8.4-.6-.3-1.8-.9-2.8.3-.6-.2-.6-1-.6-1 1.6-.3 2.5-.6 4 .2 3.2-3 4.8-2.5 6.6-3 .3-3-4.9-10-4.9-10l-1-.3v-.6A44.4 44.4 0 0011.3 49S6 52.5.1 56.7v-1.2a83.7 83.7 0 0123.5-12.2c2.4-.7 2.4-.9 2.4-.9-.2-.7-.8-1.5-.3-2.1-1.4-3.9 2.8-6.6 4.4-2.8.7 0 1.8-2.3 2.3-5 .3-1.8.3-1.8-.7-1.2-2.1 1-4.2-.3-3.9-2.4.2-1.2 1.2-2 2.3-1.9 1.2.2 1.4-.4 2-3.3 1.1-5.1 1-5.7-3-10.8L19.6 0H21c3.5 5.6 8.2 12.3 12.4 16.5zm18.5 36c-2.7-.6-5.7-4.6-6.2-7.8l.5.8.7 1.5c1.4 2.7 3.7 5.4 7.2 5.4 1.8 0 4-1.9 4.6-3.3.7-3.3-3.5-4.4-4.5-2.4-1 2 .7 3.5 2.2 2.7 1.2-.5.1-2.6-.9-1.7-.5.4-.5-.4-.1-.7 1.6-1 3.3 2.2 1.4 3.5-3.2 2-7.8-.4-9.2-5-.6-1.8 0-1.6.4-.3.7 2 3.2 5.2 6.2 5 .1 0-.6-1-1.6-2l-1.6-.9a8.9 8.9 0 01-1.6-2.9c-.3-.9 0-1.2.5 0 .3.7 1.4 2 2 2.4.9 1 1.5.4.6-.6-.8-1-2-2.8-1.7-3 .2 0 .5.3 1.2 1.2.6 1 1 1.4 1.5 1.4.7 0 .7-.4-.1-1.4a6 6 0 01-1.2-2.1c-.1-.7.5-.2 1 .4.5 1 1.4 2.2 1.8 2.2.7 0 .9-.5.2-1.4l-1-1.8c-.5-1 .2-.9.8 0l.5 1c.5.8 1.3 2 1.8 2.4.7.5 1 .5 1.2 1.2.5.5.7.2.4-.7l-.3-1c0-.5-.4-.8-1.4-2a8 8 0 01-1.7-2.7c0-.7.4-.3.7.4.4.7 2 2.5 2.3 2.5.8 0 .8-.7.1-2-1.4-2.2-1.9-2.8-1.4-2.9.2 0 .7.4 1.4 1.7.7 1.2 1 1.7 1.4 1.8v1.4l-.1.1c-.5.8-.5 2.2.1 3.3v2.6c-2.5 2.5-4 4.7-8.1 3.8zm7-15.5c-.6-.7-.4-1.3 0-.9l1.1 1.4V39l-1.1-2zm.9-3l.2.1v.6c-.4-.7-.5-1-.2-.7zm0-11.7c-.7-2-1-4-1.5-6.3-.2-.2.7 0 .9.2.1 1.4.4 2.7.8 4V23l-.3-.7zm-1.3-.9c.6.5.5 1.3-.1 1-3-1.7-7.8-3.2-11-1.2-1.6.9-2.5 0-1.4-1a8 8 0 014.8-1.5c2.8 0 6 1.1 7.7 2.8zM34 22c-.4.7-.2.8.9.4.9-.4 2.3-.6 3.8-.2 2.2.7 2.6.7 1.2-.4a5.5 5.5 0 00-3-.8c-1.1 0-2.3.3-3 1zM57 23.3c.5.2 1.7 1.6 1.7 1.6l-1.1-.6c-2.6-1.6-5.9-3.5-10-1.3-1 .7-.6 1.1.5.5 1.8-1.2 4.6-1.2 7.2.2 1.2.8 2.5 1.2 3 1.7.4.3 0 1-1.3.7-.9-.3-1.3.3-2 .7a7.6 7.6 0 01-5.5.5c-.4-.2-.6-.2-.7 0-.2.2.7 1 2.1 2 .9.5 1.5 1.3 1.5 1.3s-.5 0-1.2-.3c-.5-.2-1.3-.9-2.8-2.4-.5-.3-.9-.7-1.2-.7-.5.1-.7-.2-.7-.8.1-.4-.2-.7-1.1-1.7-1-1.2-1.2-1.2-.3-1.4.6-.1 1 .5 1.2.2a6.3 6.3 0 015-2.3c1.9.1 3.8.9 5.7 2zm-23 .6c.1.1.5 0 1.7-.3a6.3 6.3 0 014.3.6c.5.3 1.2.7 1.2.2 0-.8-2.5-2-3.7-2-1.1 0-4 .6-3.5 1.5zm15.6.8h-.5c.1 3 3.7 3.6 4.2 0l-.6-.2c-.3 2.3-2.5 2.7-3 .2zm-18.2 3c0 .6 0 2.4-.7 1-.3-1.2-2-1-2.2.2-.3 3.1 4.1 2.4 4.3-1.2v-2.4l-.2-.7a16.8 16.8 0 01-1.2 3.1zm22.2-2c-.3.8 0 .8.8.4.7-.3.8-.5.5-.8-.2-.3-.6-.4-.7-.4-.3 0-.5.3-.6.8zm-5.4-.5c-.5.3-.5.6 0 1 .4.3.5.3.6.1 0-.2 0-1.2-.4-1.2l-.2.1zm-13.3.3c0 3 3.8 3 4 0h-.7c-.7 2-2.1 2.2-3-.1zm-1.2.2c-.3.4.3.7.3.7v-.8l-.3.1zm5.6.6c-.4.7-.1 1 .5.5.4-.4.5-.5.2-.7l-.5-.3s-.2.2-.2.5zm7.5 5.2c3.4 1.3.6 6.5-3.5 2.8-.5-.5-.8-.2-1.2 0-.4.3-.8-.5-.5-1 .7-1 1.7-1 2.8.3 2.4 2.6 5-.3 1.8-1.7-.4-.1 0-.5.4-.5l.2.1zM33 33c-.4 2-.7 3.2-1.2 4-.9 1.8-3 2.8-4 2.2-.8-.3-1-1.5-.2-1 1.7 1.3 2.6-.7 1.2-1.6-2-1.1-3.5 2.1-1.8 3.4 4 3.2 6-3.4 6.5-6.2.2-.5.2-1.9 0-2h-.1c-.2 0-.2.3-.4 1.2zm.1 5c-1.2 2.6-2.5 3.8-4.7 3.4-1.4-.2-1.6-.7-1.6-.3-.1 1 1.9 2 3.5 1.7 2.2-.5 3.7-4 3.4-6.1l-.6 1.2zm15.5 0c.2 1.8.6 2.3-.6 1.6-.6-.4-1.2-.4-2.4 0-1.3.6-2.4.7-3.5 0-1-.5-2-.2-2.7 0-1 .6-1 .2-.7-.7l.2-1.2c0-.5.3-.7.7-.3.5.3.8.6 1.8.2.5-.3.8-.4 1.2-.1.7.4 1.2.4 1.6 0 .3-.2 1.4-.4 2.1 0 .7.4 1.2.3 1.4 0l.5-.3c.2 0 .4.1.4.9zm-14.2 1.1l-.6 1c-1 3-3.3 4-5.4 3.3-1.4-.5-1.6 0-.2.8 3.2 1.7 5.9-.2 6.3-3.7l-.1-1.4zm7.1 1.6l.8.3c.6.2 1.5.4 2.8 0 .5 0 1.2-.2.8.4-1.1.7-3 .5-4 .1-.8-.4-1-.8-.4-.8zm18 7.5l.5-.5-.7-.5c.2.3.2.5.2 1zm-36.8.9c0 .5-.4.9-.9.9s-.8-.4-.8-1c0-.4.4-.8.8-.8s.9.4.9.9zm4.7.1c0 .5-.4 1-.9 1-.4 0-.8-.5-.8-1s.4-.8.8-.8c.5 0 1 .3 1 .8zm-24.9 40v.8h-.7v-.2H.1v-.5zM28 53.9l-1.4.5v1.5l-1.6-.4-1 1.2-1.5-6.7zm-7.2-.5c0 .5-.4.8-.8.8s-1-.3-1-.8.5-1 1-1c.4 0 .8.5.8 1zm7.4 3.5c0 .5-.3 1-.8 1s-1-.5-1-1 .5-.8 1-.8.8.3.8.8zm3.8.7c0 .6-.4 1-1 1-.3 0-.8-.4-.8-.9s.5-1 .9-1c.5 0 .9.5.9 1zm.5 5.9H31l-.4 1.5-1.4-.5-1 1.2-.6-7.6zM26 61c0 .5-.3 1-.8 1s-.8-.5-.8-1 .3-.9.8-.9.8.4.8 1zm6 5c0 .3-.4.8-1 .8-.4 0-.8-.4-.8-.9s.4-.9.9-.9.9.5.9 1zm-22 2s-.5-.9-1.6-1.3l1.3-1 .3 2.3zm26-.8c0 .5-.3.9-.8.9s-.9-.4-.9-1c0-.4.4-.8.9-.8s.8.4.8.9zm-6.2 1.2c0 .5-.3 1-.8 1s-1-.5-1-1 .5-.8 1-.8.8.3.8.8zm-4.6 2.7c-5.6.3-7.9 4.2-6 10.5.5 1.7 1.9 2.6 5.7 2.9h3c1.8-.3 2.6-.5 2.3-1.8-.2-.6-.3-.5-2-.6-2.8 0-1.9-.6.2-.6 1.6 0 2.6 0 3.1-.3.4-.2.3-.7.6-1 .4-.4 1-.4.2-.6-.8-.1-3.2-.4-3.6-.3-.6 0-2.2-.2-1.7-.4.2-.1 1-.5 2.7-.3 3.9.4 4.8.5 4.6-.6-.3-1.2-1-1.3-4.8-1.4l-2.6-.1c-.2-.2-.2-.4.1-.6h5.9c0-.5.1-.9-.1-1.4-.4-.7-1.4-.7-4-.9-2-.1-2.7-.4-1.4-.5 1.5-.3 3.2 0 2.4-.9-.5-.9-2.1-1.1-3.6-1.1h-1zm5.7.5c-.4 0-.4.9.1 1.1.4.1.8.3 1.2 0 .3 0 .5-.3.2-.6-.2-.3-.7-.5-1.1-.5a1.4 1.4 0 00-.4 0zM2.2 73l-2.1.7v-.4l1.4-1.4zm32 1.6c-.6.1-.8 1 0 1.3.5.2.8.2.9-.3.2-.4.1-.7-.1-.9l-.5-.1h-.4zm4.7 2.3c0 .5-.4 1-.9 1s-.8-.5-.8-1 .4-1 .8-1 .9.5.9 1zm-4.5.6c.2.7.6 1.1 1.2.8.6-.3.7-.7.3-1.2a1.4 1.4 0 00-1-.4c-.3 0-.6.3-.5.8zM32.6 81c.1.5 1 .8 1.5.2.4-.4.2-1.2-.5-1.3-.6 0-1 .5-1 1.1zm26.6 1.1a1 1 0 01-1-.9c0-.5.5-.8 1-.8.3 0 .7.2.8.6v.5c-.1.3-.5.6-.8.6zm.7 4.8l-1.6.7 1.7-2.8V87zm-29-3.7c.5.2.8.2 1.2-.1.5-.5.3-1-.4-1-.9 0-1.4.6-.7 1zm6.7.5c0 .4-.5.9-.9.9a1 1 0 01-.9-1c0-.4.4-.8.8-.8s1 .4 1 .9zm-.9 1l2.7 5.2h-4zm4.2 1.6c0 .5-.3.9-.8.9s-1-.4-1-.9.5-.9 1-.9.8.4.8 1zm-6 .4c0 .5-.5.9-1 .9s-.8-.4-.8-1c0-.4.3-.8.8-.8s1 .4 1 .9zm25 2.8l.1-.5v.8l-.1-.4zM0 0h8.8H0zm55.4 90c.4-8.3 2-16.6 4.5-24.8v3.3C57.9 76 56.7 83.1 56.3 90z" fill="#131f67"/>
  <path d="M2.4 89.5c2.3-.2 6.6-.2 6.6-.2 1.7-3.1 4.1-4.6 6.7-6.5L16 90H2.4zm40.7.3l-.6-5.3 16.5-16c-1.4 7-3 14-3.5 21.3zM15.8 73c-1.2.8-5.5-3.8-6.2-6.9 1.1-1.4 10.6-6.2 10.6-6.2s5.6 7.3 5.3 10.3c-2.4.7-4.6.8-6.5 2.9-1 0-1.4-1.2-3.2-.1zm-7.5-6.2c1.3.2.5 2.1.3 3.4l-7 2c2.4-2 4.1-3.8 6.7-5.4zm22.7-16c1.4 0 3 .6 4.1.2.4-.2 1.3-.5 2.1-.3 2.1.7 2.9-1.7 4.2-1.7 1.7 0 2.7-1.2 2.7-3.6 0-1 0-1.2.3-1.4.6-.3 1.2.2 1.3.7 1.2 4.6 4.4 8.6 9.3 8.4L39 69.6c-2-6.7-4.9-13-8-18.8z" fill="#d40000"/>
  <path d="M32.7 16.8L20.3 0h1.1L24.2 4c1.7-.7 3.2-.6 3 2 3.8-.9 3.5 3.2 1 3.6 1.7 1.5 3 .5 4.2-.2 1.7 1.3 4.3 0 4.1-1.4-3.4.9-3.2-4.2-.2-3.5-1.2-3.7 4.3-3.3 3.3 0 3.8-.2 2.8 5-.2 3.7.5 1.2 3.5 2.3 5.3.3.5 0 2.7 2.8 5.7-.2-3.3.9-4.2-3.9-.4-3.8-1.6-3.5 5.1-4.2 3 .3C57 3.3 57.4 9 53 8c.8 2 3.8 1.9 5.3.7.3.3.9.7 1.7.9v2a8 8 0 01-2.6 0c-3-.4-6.2-3.7-5-5.2.5-.7.3-1.6-.8-1.7-.7 0-1.4.8-.8 1.7.5.7.5.9.1 1.7-2 4.5-8.7 4.6-12 .3l-.7-1.3c-.2-.3.2-.7.4-1 .5-1.1-.3-1.7-1-1.6-.7 0-1.4.5-.8 1.7.2.5.7.5.6 1-.5 4.7-5.3 5.2-7.9 3.7-.4.4 5.3 6.2 8.5-2.4 7.3 10.5 13.8.5 13.6-.1 2.1 4 5.2 5.9 8.4 4.9v3a79.3 79.3 0 00-27.3.4zm19-8.4zm-25-.8c.2-.6 0-1-.5-1zm18.8 36.8l.2.2.3.8c1.8 6.4 7.8 9.4 11.6 5.6l2.4-2.5v.5L39.4 69.7l.3 1.4 20.3-20v.8L40 72.1l.4 1.4 2.4-2.1 2 2.2-1 1.2.7 1 2.4-2.2-3.2-3.4 3.9-3.9 2 2.3-1 1.2 1 1 2.3-2.3-3-3.3 3.8-3.9 2.1 2.2-1.2 1.4 1 1 2.3-2.4-3.3-3.4 4-4 2.4 2.3-1.5 1.5 1 1 .5-.5v1.3l-.7.5-2.1-2.3 1.5-1.5-1-1-2.6 2.8 3 3.2-3.6 3.8-2.2-2.1 1.3-1.6-1-1-2.5 2.6 3.1 3.3-3.8 3.7-2-2.3 1-1.3-.8-.8-2.5 2.4 3 3.5-3.6 3.4-2.1-2 1.3-1.5-.9-1-2.2 2.2.4 1.4 2.2 2.2-1.4 1.5.4 2L60 63.5v3.2A92.9 92.9 0 0055.7 90h-13a95.5 95.5 0 00-12.1-39.5s-.2-.2 1.4.2a4.9 4.9 0 003.3 0c.7-.4.9-.6 1.6-.2.9.4 1.6.3 2.8-.7.7-.7 1-1 1.4-1 2.1-.2 2.4-1 2.8-3.2l.2-1.2v1.1c.3 2.2-.7 3.7-2.4 3.7-.5 0-.7 0-1 .3-1.4 1.2-2.1 1.8-3.1 1.6-.5-.1-1.2-.5-1.8-.3-.7.3-1.7.7-2.8.5l-1.7-.3c5.2 9 7.8 18 7.8 18l15.7-15.9c-4.8.4-8-3.5-9.1-8.2l-.2-.5zm13.8 10.3l.7-.7v1.6zm-47.9-6c3.1 3.4 6.5 6.9 8.9 10.6l-.4.5h.7c1.7 2.8 3.3 4.6 5.1 9.3v1.3c-2.5.1-4.6 1.2-6.5 2.9h-.7s.2 0 .1.5l-.1 1c-.5 1.4-.4 5.3.3 7.1.5 1.3.4 1.6 0 2-.8.6-2.5.1-2.7-.4l.1 6.5h-.4l-.2-6.7c-.3 0-4.7 2.7-6.3 6.5H2.5v.2h-.3v-.4H.1V89h.2c2.4-2.3 4.6-4 7.4-5.3l.3-1.7-1-.4c-2.2 1.1-4.8 3-7 5v-1.1a33 33 0 016.5-4.4l-1.3-.9a22 22 0 00-5.1 3v-.9c1.4-1 2.8-1.7 4.2-2.6.1-1 .7-2 1-2.7a52 52 0 00-5.2 3.2v-.9l8.6-5-.2-1.4a60.8 60.8 0 00-8.4 4.2v-.9a34 34 0 018.2-3.9l-.1-1.7S3.7 72.2 0 74.5v-.9l1.8-1-.5-.5L0 73.5v-.7a84.1 84.1 0 0119.6-13.4l-.7-1.2C11.9 62 5.7 66 0 71v-5.2a81.1 81.1 0 0116.6-10.7l-1-1.2c-5.3 2.6-10.5 6-15.5 10V59a78 78 0 0113-8l-1.8-1.6C7.7 51.5 4.1 53.6.1 56.5V56c5.8-4.2 11-7 11.3-7.1zM31 84.9s.5 1.7.9 5.2h-6.7c1.8-1 3.8-2 5.8-2.7l-.3-1.7A34.4 34.4 0 0022 90h-1.2C24 88 27.3 86.5 31 84.8zM12.8 52.4c-.1 0 0 .3-.3.4-.5.3-.3-.4-.7 0-.2.5.3.1.4.7 0 .5-.5.2-.2.5.4.4.1-.1.7 0 .4 0 0 .5.4.3.5-.2 0-.2.2-.6.2-.4.5.1.4-.4 0-.5-.1 0-.5-.3-.3-.4.2-.5-.3-.6h-.2zm-3.5 2.3c-.4.2-.3-.5-.6 0-.2.4.3.1.3.6s-.5.2-.2.5c.4.5.2 0 .7 0 .4 0 0 .5.5.3.4-.2-.1-.2 0-.6.3-.4.6.1.6-.4s-.3.1-.6-.3c-.4-.4.3-.5-.2-.6h-.2s0 .3-.3.5zm-2.9 1.8c-.5.2-.3-.4-.6 0s.2 0 .3.6c0 .5-.5.2-.2.6.4.4.2-.2.7 0 .5 0 0 .5.5.2.5-.2-.2 0 .1-.6.3-.4.5.2.5-.3 0-.6-.2 0-.6-.4s.3-.4-.2-.5h-.3s.2.2-.2.4zm9 1.2c0 .5.4 1 1 1 .5 0 .9-.5.9-1 0-.6-.4-1-1-1a1 1 0 00-1 1zm-11.8.7c-.5.2-.4-.3-.7 0-.2.5.3.2.3.7 0 .5-.5.2-.1.6.3.3.1-.2.6-.1.5 0 0 .5.6.3.4-.2-.2-.1 0-.6.3-.4.6.1.5-.4 0-.5-.2.1-.5-.3-.4-.4.2-.4-.2-.6h-.3s.1.3-.2.4zm8.8 1c0 .4.4 1 .9 1s1-.6 1-1c0-.6-.5-1-1-1s-1 .4-1 1zM9.8 66c.9 4 5.7 7 5.7 7 1.8-1.2 2.3-.6 3.3 0 1.4-1 2.7-2.5 6.4-2.9v-.9a45.2 45.3 0 00-5-9c-3.8 1.7-7 3.7-10.4 5.8zM1 60s.1.3-.2.4c-.5.2-.4-.4-.7 0-.2.5.3.1.3.7 0 .5-.5.2-.1.5.3.4.1-.1.6 0 .5 0 0 .5.6.3.4-.2-.2-.2 0-.6.3-.4.6.1.5-.4 0-.5-.2 0-.5-.3s.2-.5-.2-.6H1zm8 1.1c0 .6.6 1 1 1 .6 0 1-.4 1-1 0-.5-.4-.9-1-.9-.4 0-1 .4-1 1zm-2.8 2c0 .6.4 1 .9 1s1-.4 1-1c0-.5-.5-1-1-1s-1 .5-1 1zm-3 2.2c0 .6.4 1 1 1 .5 0 .9-.4.9-1 0-.5-.4-1-1-1-.5 0-.9.5-.9 1zm5.3 1.2c.8.2.9.4 1.3 1.2L9.4 66zm-7.8.9c0 .4.4.9 1 .9.5 0 .9-.5.9-1s-.4-1-1-1a1 1 0 00-.9 1zm1 4.8l6.6-2.5.5-2.5-.5-.3c-2.4 1.4-4.5 3.4-6.6 5.3zm7.7-4c-1 .6 0 6.2 0 6.4-.2 0-3.5 1.7-4.2 4.4 1.2 1.2 2.8 2.2 4 2.7C8 83.3 8 87 8.6 88c1-2.7 2.1-5 3.3-7 0 0-3.2-1.4-3.6-2.8 0-.9 3-2.6 3.8-3a34 34 0 01-2.7-7zm0 6.4zm33.3 10.6l.4 4.2h12.1c.4-3.2.3-8.7 3.4-20.4zm-30-10.5l2.3-.3.3-.5c-2.4-2.1-5-4.7-5-4.7s.7 2 2.4 5.6zm4.4-2.1a.7.7 0 00-.5.2c.5 0 .9 0 1.4.2-.2-.2-.4-.4-.7-.4H17zm-1.5.8c.2 0 .3-.3.3-.3h-.8s.2.3.5.3zm.7.2c-2.5 2.6-.8 11.7 2 9.7.3-.3.2-.7-.2-2-.5-1.8-.5-4.4 0-6.9 0-.7-.3-1.3-.9-1.2-.3 0-.6.1-1 .4zm-1.5 1.7A9.8 9.8 0 009 78.2c.4 1.1 5.6 2.8 5.6 2.5v-1.1c-.3.3-3.5-1.2-3.3-1.3 1-.8 2.1-1.4 3.4-1.8v-1zm-.3 2c-1 0-1.4.4-2 .8.8.3 1.2.5 2 .5v-1.3zm27.1 1.2l.4-.3-.7-.7zm-31.7 8c1.6-1.4 3.2-2.8 5.1-4.1l-.2-1-2.3-.2c-1 1.5-2 3.5-2.6 5.4zm-8.4 2.5H4c1-1 2.2-2 3.6-2.8v-1.4c-2.6.8-4.4 2.5-6.1 4.2zm3.8 0H8l-.2-1.8c-1.3.4-1.8 1-2.4 1.8z"/>
</svg>