<?xml version="1.0" encoding="utf-8"?>
<svg viewBox="0 0 60 90" xmlns="http://www.w3.org/2000/svg">
  <path d="M20.3 43.6l.3.5S13 47.6 8.6 51c7.3 7.6 17.2 11.2 27 15.1l-.4-2.8L47 65.2s.2 17.1.5 24.8h-2a29.5 29.5 0 00-15.2-4.8c-1.4 0-2.2.2-2.4 0l.7 2c.3.3.4 1.5.5 2.8h-5.2c1.5-.5 1.9-1.1 1.5-2-.2-.5-.6-.7-1-.7-.8 0-1.7.4-2.6.9-1.7.8-2.2 1-1.7 1.1.4.2 1 .3 1 .7h-2.2a6.6 6.6 0 00-1.5-2.2l-.5 1.4.4.7h-1.5l1.1-3.9c3-8.6 10.4-13.5 18-17l-2-.5c-10.5 5.4-14.7 10.2-17.4 19l-.6 2.5h-.8c.7-3.7 1.8-7.2 3.7-10.2a33.2 33.1 0 0113.6-11.6l-1.7-.6-1.4 1-2.2-2.4-2.3-1-.6.6 2.7 4-5.5 4.6-2.8-2.6 2-2.3-.9-.9-3.6 3.9 3.7 3.7-3.5 5.3-3.3-1.7 1.1-2.5-1.1-.6-2.6 4.7 4.8 2.2-1.7 6.4H8.8l.2-3.2-1.3-.2-.4 3.4H6l.8-5.2 3.8.6-.3 3.6h1.1l1.2-4.5-5.1-2.3 4-7.4 3.6 2-1.2 2.4.8.3 2.2-3.4-3.8-3.5 5.6-5.7 2.8 2.8-2 1.9.9.9 3.7-3-2.8-4.2.8-1-1.7-1A77 77 0 015.9 52.7L0 57.2V56c5.1-3.8 11.3-7.8 20.3-12.5zM52 65.3c1.7 0 5.2-.4 8-.8v17L58 90h-3.3v-.4l-.8.4h-2.2c-.1-8.8.5-16.2.3-24.7zm6-58.5A20 20 0 0150.4.1h1a19.2 19.1 0 005.8 5.6l-1-1.8A16 16 0 0152.6.1h.8c1 .9 1.7 2.1 2.6 2.6L54.5.1h.2c.7 1.4 3.4 5.7 3.2 6.7zm.7 1.5c.3-.2.8 1 1.2 2v.7l-.6-1.5A20.7 20.7 0 0148.7.1h.7c2 3.7 5.4 6.7 9.3 8.2zm-22.2 1v2.1a6 6 0 017.2.5c2.2 2 2.4 4.5.7 11-.9 3.3-.9 3.5.2 4 .7.5.9.6 1 0 .2-.7 1.8-.5 3 .2.4.3 1 0 1 .4s-.5 1.4-2 .8c-.7-.4-1.3-.8-1.5-.2-.1.4.2 1.8.2 1.9 0 0-1.4-1.4-2.2-1.7-1.4-.8-1.5-1.5-1-3a33.6 33.5 0 001-4.5c.2-.5.3-1.7.3-1.7l-.6-.5c0-.2-.4 0-1.1.3a5.9 5.9 0 01-4.3.1c-1-.4-1.1-.4-1.1 2.4 0 4.4.6 8.6 2.4 13 3 7 7.5 9.1 13.6 6 2.3-1.5 4.6-3.2 6.6-5v1.1a32.5 32.4 0 01-7.8 5.2c-4.9 1.9-9.2.4-12.5-5.5l-6.2 2.3A38.1 38.1 0 0060 42.1v.3a38.2 38.2 0 01-27-3.8s-3.3 1.1-4.5 1.7l.1-.7c.5 0 1.3-.5 1.8-.7 1.3-4.8 3-8.7 6-12.8 0 0 0-1.5-.2-2.2.4-2.7.2-10.3-.7-11v-.4L35.9.1h.7v1.7A3.7 3.7 0 0037.9 0H39c-.7 1-1.6 1.8-2.5 2.6v1.6C38 3.3 39.4 2 40.7 0h1a23 23 0 01-5.2 5.3v1.2A17 17 0 0043.2.1h.7a18.1 18.1 0 01-7.4 7.3v1C40.2 6.7 43.1 4 45.2 0h.8a18.3 18.3 0 01-9.5 9.1zM46.3 30zm11.3-17.8c1.2.8 2.2 1.6 2.3 2v.4c-.1 0-.6 0-1.6-.7-3.3-1.7-6.4-2.3-9-1-1.6.7-2.4-.3-1.3-1.3a6.3 6.3 0 014-1.2c1.8 0 3.7.6 5.6 1.8zm-21 .8c0 .3 0 1.1.2 1.2 3-1.3 6-.7 7.4.5 0-1.3-2.7-2.3-4.9-2.3a4.4 4.4 0 00-2.6.7zm23 3.2s-.4 0-1.5-.6c-2.4-1.2-4.6-2.6-7.4-1l-.6.7c-.1.2.3.2 1-.2 1.7-.7 3.8-.5 6.5 1 1.4.7 2.2 1.2 2.3 1.5v.2c0 .2-.4.2-1 .2h-1a5.9 5.9 0 01-2.5 1.3c-1 .2-2.2 0-3.5-.2l-1.7-.5-.5.3c-.8 0-1-.5-.8-1 .3-.7.5-1.3.2-1.8-.8-1-.8-1.4-.2-1.3.4 0 .5 0 .8-.4.5-.7 1.9-1.1 3.3-1.1a9.6 9.6 0 016.6 2.9zm-21.9-1.7c-1.2.5-.8.9.2.5 3-1 3.6-.5 6 .7.5.1.7-.4.3-.6a8.3 8.3 0 00-3.7-1.1 6.6 6.6 0 00-2.8.5zm4.1 2c-.3 2.1-2.5 2.1-2.5 0h-.6c-.5 2.4 3 3.5 3.7 0zm13.8.1H55c-.2 1-1.7 2.5-2.7 0H52c-.3 3 3.5 2.6 3.7 0zm-13 1.2c.1.5 1-.3 1-.3.2-.2 0-.9-.4-.8-.3 0-.7.4-.5 1.1zm-4.7-1c-.6 0-.9.4-.7.9.1.2.8.4 1 .3.2-.4 0-1-.3-1.2zm18.4.2c-.1 0-.7 1-.3 1.2.2 0 1.1-.6 1.1-.7 0-.3-.6-.5-.7-.5h-.2zm-5.5.9l.7.2c.4-.6-.1-1-.2-1 0 0-.6.4-.5.7zM31 38.5l1.7-.6a38 38 0 014.1-9.2l-.4-1.9c-3 4-4.1 7.4-5.4 11.6zm2.5-1l1.7-.6c.6-2 1.5-3.9 2.4-5.5l-.4-1.6a26.6 26.5 0 00-3.7 7.8zM44 31.3c.5-.1 1-.5 1.6-.3 1.2.3 1.2.4 2.6 0 .5-.3 1.4.3 1.9.3l.7-.3c.6-.4.5-.3.8 1.3.3 1.3.5 1.5 0 1.4l-.9-.5c-.6-.3-1-.4-2.2-.2-.6.2-1.4.5-3.3-.1-.7-.2-.6-.2-1.2.1-.8.5-1 .5-1 .3v-2.7c.4 0 .7.7 1 .7zm-7.9 5.4l1.5-.6.8-2.2-.5-1.4c-.9 1.6-1.5 2.7-1.8 4.2zM50 34.4c-.2.5-1.7 1-3 .7-1.2-.3-1.9-.6-1.4-.7h1.6c1.2 0 1.8-.3 2.2-.3.5 0 .7.1.6.2zm-11.2 1.3l.6-.2-.4-.7zM50.2 37c.5.8 0 1-.8.3-1-.6-2.8-.7-3.9-.1-.8.4-1.6 0-1-.4.8-.6 1.8-.9 2.9-.9 1.2 0 2.3.4 2.8 1zM6.4 52.4a64.3 64.2 0 0029.5 16.2l-.3-2.2c-15.2-4.8-20-9-27.4-15.3zm34.7 15l5.4 2.6v-2l-5.7-3zm5.5-.2v-1.7l-4.2-.5zm5.9 1.5v1.9l5.9-3.4.1-1.9zm.1-3v2l3.5-2zm-11 4.6l4.9 2.7v-2l-5-2.7zm10.7 1.1v2.2l5.3-2.7.2-2.5zm-9.8 2.1l4.1 2.2V74l-4.5-2.4zm9.9.9v1.9l4.6-2.4.3-2zM43 76.6l3.6 2v-2l-4-2zm9.3.7V79l4.2-2.3.3-1.9zm-8.9 2.2l3.2 1.9v-2l-3.3-1.8zm8.9.3v1.9l3.8-2 .1-2zM44 82.6l2.6 1.6v-2L44 80.8zm8.3-.1v1.8l3.3-1.7.2-1.9zm-33.2.3c-1.3 2.2-1.7 3.7-.7 3 1.2-.8 2-1.3 3.1-2.6.4-.8-.1-1.3-.9-1.3a2 2 0 00-1.5.9zM52.4 85v2l3-1.5.2-2zm-7.8.6l2.2 1.2v-2l-2.5-1.2zm-23.6-1c-2.2 1.5-3 2.1-1.7 2.3.5 0 .4.3.3.6-.2.5 0 .9.6.6 1-.8 3.3-1.4 3.6-2.3.4-1-.3-1.6-1.3-1.6a3 3 0 00-1.5.4zM52.4 88v1.7l2.6-1.2.2-2zm-7.2.9l1.7.7-.1-1.9-2-1zm14.7-77.1A22.1 22 0 0146.6 0h.7c2.8 5.7 6.7 8.8 12.6 11z" fill="#131f67"/>
  <path d="M20 63.3A38.4 38.4 0 003.7 90H.1V59.8c9.6-2.2 19.9 2.4 20 3.5zM28.8 88c-.4-.7 2.7.2 7.2 2h-7zM52 65.3c.3 8.3 0 16.5-.2 24.7h-4.1L47 65.3A61 61 0 0111 49.5c6.6-4.9 14.3-7.9 21.8-11a39.3 39.3 0 0027.2 4v22c-4.7.8-8 1-8 .8z" style="fill: rgb(196, 202, 206);"/>
  <path d="M16.5 89.9l.2.1h-.2v-.1zm11-5.1a52.6 52.5 0 00-5.3-6.2 29.3 29.2 0 0114.5-9.3l3.9 17.5a28 28 0 00-13-2zM.5 69.3l1.4-1.8L3.6 69 2.2 71zm8.2-18.5l2-1.3a62.3 62.3 0 0024.4 13.8l.3 2.5a62 62 0 01-26.7-15zM60 .1v1.4L59.3 0zM60 90h-1.8l1.8-8.2z" fill="#d40000"/>
  <path d="M57.8 90h.6l1.6-6.8v-2.4L57.8 90zm-7.3-.7h-1.7v.7h1.7v-.7zm-34-.1l-.3.8h.7a8.9 8.8 0 00-.4-.8zm34-2h-1.7v1h1.7v-1zm-22.4 0l.5 2.8h.7v-.8h.6l.9-.3c.3 0 .7.3 1.9 1l.2.1h1.3c0-.2.3-.1.6 0h6c-3.6-1.8-7.4-3-11.4-3l-1.3.1zm22.4-2.1h-1.7v1h1.7v-1zm0-2.3h-1.7v1h1.7v-1zm0-2.2h-1.7v1h1.7v-1.1zm0-2.2h-1.7v1.1h1.7v-1.1zm0-2.2h-1.7v1h1.7v-1zm0-2.3h-1.7v1h1.7v-1zm0-2.2h-1.7v1h1.7v-1zm-49 8.6c0 .7-.7 1-1.4.9v1.7l1.7.4.7.2c1.2.8.8-.2.4-.6l-.8-.6.6-.4c.8-.4 1-2 .5-2.4-.6-.3-1.6.2-1.6.8zm20.9-1.7a29.7 29.6 0 0113.8-9l4 17c-4.4-1.7-8.8-3-12.6-2-1.8-2.8-3.2-4.2-5.2-6zm28-9.6h-1.6v1.3h1.7v-1.2zm-9.2 18.3l-4.5-18.6c-5.1 2.4-10.1 4.3-15 10 1.8 1.7 3.8 3.6 5.7 6.5 4.1-.6 8.8.2 13.8 2.1zM.6 69.3l1.2-1.5 1.7 1.1-1.3 1.7-1.6-1.4zm49.9-2.6h-1.7v1.2h1.7v-1.2zM4.8 68.9l-3-2.6L0 68.5V70l2.2 1.8 2.5-3zm5.4-8.1l-.8.3c-.2.3-.2 1.2 0 1.7.3.5.3.6 0 1-.6.5-.6 1.6 0 2 .5.4 1-.1 1-.8 0-1 .7-1 .7-1l3.9.1v-.5l-2.8-.2c-.5 0-.8 0-1.1-.3-.4-.2-.8-.6-.4-1 .5-.7 0-1.3-.5-1.3zm-.5-1.3c1 0 2.3.7 2.3 2 0 .8.1.9 1 .9l2.9.3V65h-2.2c-2.2-.1-2.1-.1-2.4.7 0 .4-.2.6-.7 1-1.8 1.1-3.7-1.1-2.5-3.2.4-.8.5-1 .2-1.4-.5-1.3.2-2.6 1.4-2.7zM48 60c0-.6.6-1.1 1.1-1.1a1.2 1.2 0 010 2.3c-.5 0-1-.6-1-1.2zm3 0c0-1-.8-1.7-1.8-1.7a1.7 1.7 0 000 3.4c.9 0 1.7-.7 1.7-1.7zm7.9-.5c0 .8.5 1.4 1 1.7v-.6a1.2 1.2 0 010-2v-.6c-.5.2-1 .9-1 1.5zm-22.6-1c0-.7.5-1.2 1.1-1.2a1.2 1.2 0 010 2.4c-.6 0-1-.5-1-1.2zm9.9 4.2l.4-5.6 5.5.3v5.6l-6-.3zm-7-4.2c0-1-.8-1.8-1.7-1.8a1.7 1.7 0 000 3.5c1 0 1.7-.7 1.7-1.7zm-5.5 1.7l1.9-5.2 5.1 1.3-1.1 5.4-5.9-1.4zm19.7-5.3c0-.7.5-1.2 1.1-1.2a1.2 1.2 0 010 2.4c-.6 0-1-.5-1-1.2zM43 54.4c0-.7.5-1.2 1.2-1.2a1.2 1.2 0 010 2.3c-.7 0-1.2-.5-1.2-1.1zm13.4.4c0-1-.7-1.7-1.7-1.7a1.7 1.7 0 000 3.5c1 0 1.7-.8 1.7-1.8zm-10.5-.4c0-1-.7-1.7-1.7-1.7a1.7 1.7 0 000 3.4c1 0 1.7-.7 1.7-1.7zM25 53.6c0-.7.5-1.2 1.1-1.2a1.2 1.2 0 010 2.3c-.6 0-1-.5-1-1zM6 52.4a81.5 81.5 0 00-6 4.2V65h.4l1.4-2.8 1.8 3.2h2.2l.1 2L8.6 69l-2.7 1.5-.1 2-2.1.2-1.8 2.4L0 72.8v7.3c.2 0 .4-.1.6-.6.5-1 1.7-1.4 2.7-1 1 .5 1.4 2.3.7 3.5-.3.3-.3.4-.2.7.2.5.4 1.8.2 2.2-.3.5-.6.8-1.3.2A7.4 7.4 0 00.1 84V90h4.2c.7-4.8 2-9.3 4-12.9C13.8 67.3 21 63.3 21 63.3s-9.6-6-15-10.9zm45.9-.3l4.8-.3.7 5.4-5.2.2-.3-5.3zm-24 1.5c0-1-.7-1.8-1.7-1.8a1.7 1.7 0 000 3.5c1 0 1.7-.7 1.7-1.7zm13 2.8l1-5.4 4.8.8-.1 5.3-5.6-.7zm-8.4-4.8c0-.8.6-1.2 1.2-1.2a1.2 1.2 0 010 2.3c-.6 0-1.2-.6-1.2-1.1zm-10.1 3.3l2.8-4.7 5 2.6-2.5 5-5.3-2.9zm13-3.3c0-1-.6-1.8-1.7-1.8-1 0-1.7.7-1.7 1.8a1.7 1.7 0 103.5 0zM9 50.8l1.7-1c6 5.7 14.4 10.7 24.4 13.6l.2 2.2A61.6 61.6 0 019 50.8zm21.3 2l2.3-4.9 4.8 1.9-1.8 5.2-5.3-2.2zm-14.5-5c0-.7.5-1.3 1.2-1.3a1.2 1.2 0 010 2.4c-.7 0-1.2-.5-1.2-1.2zM17 46l1.2-.7 2.3 2c-.7 1.5-3 4.4-3 4.4L13 48.2l2.3-1.3-.2.8A1.7 1.7 0 1017 46zm6.2.4c0-.6.6-1.1 1.2-1.1.7 0 1.2.5 1.2 1.1 0 .7-.5 1.2-1.2 1.2-.6 0-1.2-.5-1.2-1.2zm28.5-.2v-1.5h-1.6v1.5h1.6zm-25.5.2a1.8 1.8 0 10-3.5 0c0 1 .8 1.8 1.7 1.8 1 0 1.8-.8 1.8-1.8zm28.3-1.8h-1.7v1.5h1.7v-1.5zm-5.7 0l-1.6-.1V46l1.6.2v-1.5zm8.6 1.1l-.3-1.4-1.6.2.1 1.5 1.8-.3zm-11-1.4l-1.8-.2-.3 1.5 1.9.3.1-1.5zm12.3 1.3l1.3-.3v-1.6l-1.6.4.3 1.5zm-15.2-1.7l-1.8-.4-.3 1.4 1.8.5.3-1.5zm-23 3.4l3.3-4.4 4 2.7-2.9 4.6-4.4-3zm20.2-4l-1.7-.6-.3 1.5 1.7.5.3-1.5zm-2.7-1l-1.5-.6-.7 1.5 1.7.7.5-1.5zm-2.6-1l-1.5-.7-.7 1.5 1.6.7.6-1.4zM59.4.2h.6-5.5L60 11.4V1.1l-.6-1zm-7.2 65.4c.1 0 4.1-.1 7.8-.6v-.5a59.5 59.4 0 01-48.9-15l1.5-1A58 57.8 0 0060 62.9v-.6l-1.6.3-1-5.4 2.6-.5v-6a45.6 45.6 0 01-35.8-8.2l1.8-.7a44.7 44.6 0 0034 7.1v-.7a43 42.9 0 01-33.4-6.8l1.4-.6a43 43 0 0032 6.4v-.6a41.2 41.1 0 01-31.4-6c.7-.5 2.7-1 2.7-1l-.7.8 1.7 1 .8-1-1.3-1 1.1-.6a38.6 38.6 0 0027 3.9V42a36.7 36.7 0 01-27-3.7L28.7 40c.2-2.5 3.4-12.2 8.1-16.7v-4.8l-.1-2.3-.4-4.2a48.5 48.5 0 00-16.2 32s-6.4 3.2-11.8 6.9c.3 0 8.5 10 28.2 15.7l-1-3.2c3 .7 7.2 1.5 11.3 2l.5 24.6h.5l-.3-24.4 4 .1V90h.5l.2-24.5z"/>
  <path d="M60 0h-5.2L60 10.6V0zM20.9 43.4l3.7-1.7 3.5-1.4a39 39 0 018.1-17.1v-5.2l-.3-4.7a48 47.9 0 00-15 30.2z" fill="#d40000"/>
</svg>