<svg viewBox="0 0 60 90" xmlns="http://www.w3.org/2000/svg"><g transform="matrix(.71501 0 0 .7141 -2442 506.8)"><path d="M3448.4-650.5l.4.7s-10.1 4.7-16.2 9.3c9.9 10.4 23.2 15.3 36.5 20.6l-.5-3.9 16 2.6s.2 24.8.7 34.6l5 3h-1.2l-.4-.2-4.3-2.6a41.5 41.5 0 00-22.5-7.6c-1.8 0-2.9.2-3.2.1l1 2.6c.4.8.8 5.3 1 7.7h-4.7c1.4-1 .6-2.6-1-2.9-1.6 0-3.1.5-4.8.6-1.5.2-1.2.4-.6 1 .8.5.7.6.5.9 0 0-.4.2-.4.4h-2.3c-.1-2.6-1-5.2-3-6.9l-.6 1.9c1 1.9 1.5 3.6 1.6 5h-3.8c.5-3.6 1.2-6.6 2.2-9.3 4-11.7 14.1-18.4 24.4-23l-2.7-.8c-14.3 7.3-19.9 13.9-23.6 25.7a53 53 0 00-1.4 7.4h-1.2c.9-6.4 2.4-12.6 5.8-17.8a45 45 0 0118.4-15.7l-2.3-.8-2 1.3-2.9-3.2-3.2-1.5-.7.9 3.6 5.4-7.4 6.3-3.8-3.5 2.7-3.1-1.2-1.2-5 5.2 5.1 5-4.8 7.3-4.5-2.3 1.6-3.5-1.6-.7-3.5 6.3 6.5 3-2.3 9.4-5-.8.3-4.3-1.8-.2-.8 7.3 6.5.7v.5h-8.6l1.7-11 5.2.9-.5 4.8h1.6l1.6-6-7-3.2 5.5-10 4.8 2.6-1.6 3.3 1.1.5 3-4.7-5.2-4.7 7.6-7.7 3.8 3.7-2.7 2.6 1.2 1.2 5-4.1-3.8-5.7 1.2-1.3-2.4-1.4c-6.6-3.8-13.2-8.4-19.6-14.4 0 0-6.5 4.9-13.5 10.5v-1.5c8-6.6 17.3-13.2 33-21.3zm43 29.4c1.7 0 4.9-.3 8-.6v1.3l-7.3 4v2.6l7.2-4.1v31.4l-.6 2.9h-4.3v-1.1l-2 1.1h-1.3c-.5-13.8.5-24.6.3-37.5zm3.6-88.5c.8 1.6 3.8 6.4 4.3 8.5v.6c-5.4-2.8-8.5-6.9-10-9.1h-1.5c2.5 4.6 6.7 8.5 11.5 10.7v1.2c-5.3-2.5-10-7.1-12.4-12h-2a27.8 27.8 0 0014.4 13.9v1c-7.9-3.6-12.4-8.5-15.3-14.8h-.6a24.7 24.7 0 01-13 12.4v3a8.2 8.2 0 019.7.7c3 2.7 3.3 6 1 14.8-1.2 4.6-1.2 4.8.2 5.6 1 .6 1.2.7 1.4-.1.3-.9 2.8-.7 4 .3.5.4 1.2 0 1.4.7.3.6-.7 1.8-2.7.8-1-.4-1.8-1-2-.2-.2.6.3 2.5.3 2.6 0 0-1.9-1.8-3-2.3-2-1-2.1-2-1.5-4.1a45.5 45.5 0 001.4-6c.3-.8.5-2.3.5-2.3l-.8-.8c-.1-.2-.6 0-1.6.4a8 8 0 01-5.8.2c-1.4-.6-1.5-.5-1.5 3.2 0 6 .9 11.8 3.3 17.6 4 9.6 10.1 12.5 18.4 8.2a67 67 0 006.2-4.4v1.5c-2.3 1.8-5 3.3-7.8 4.7-6.6 2.6-12.4.5-17-7.5l-8.3 3.2a51.8 51.8 0 0033.1 5.4v.5a52.5 52.5 0 01-33.7-5.8s-4.5 1.5-6.1 2.3l.2-.9c.7-.1 1.7-.7 2.4-1 1.8-6.5 4-11.8 8-17.4 0 0 .1-2-.1-3 .5-3.6.2-14-1-14.9l.1-.5.3-17h-54 84zm-11.3 40.6zm-13.4-38.3a5 5 0 002-2.3h-2zm0 1.3v2.1c2.2-1.2 4-3 5.7-5.7h-2.2c-1 1.3-2.2 2.5-3.4 3.6zm0 3.6v1.7c3.6-1.8 6.4-4.7 9.1-9h-2a31 31 0 01-7 7.3zm0 2.7v1.3c5.1-2 9-5.9 11.8-11.2h-1.6c-2.1 3.5-4.6 7-10.2 10zm28.3-2.2l-1.3-2.5c-2-1.4-3.9-3.2-5.3-5.2h-1.4a26 26 0 008 7.7zm-1.9-4l-2-3.7h-1.6c1.2 1.2 2.3 2.9 3.6 3.6zm2.2 12.7l.4.3v1.8c-4.3-2.2-8.2-2.8-11.7-1.2-2.1 1-3.2-.3-1.7-1.6a8.5 8.5 0 015.4-1.7c2.5 0 5.1.8 7.6 2.4zm-28.3 1.2c-.1.4-.1 1.5.2 1.6 4-1.8 8-1 10 .7 0-1.8-3.6-3.1-6.6-3.2a6 6 0 00-3.6 1zm19 2.2c-.4.2-.7.6-.8.9-.2.3.4.2 1.4-.3 2.3-1 5.1-.7 8.8 1.3l.3.2v2.5a8 8 0 01-3.3 1.7c-1.4.3-3 0-4.7-.3l-2.4-.7s-.4.8-1.2.3c0 0-.8 0-.6-1.1.7-1 .8-1.8.3-2.5-1-1.4-1.1-2-.2-1.8.5.1.6 0 1-.5.8-1 2.6-1.6 4.5-1.6 2.3 0 4.6.8 6.6 2v1c-3.1-1.6-6-3.3-9.7-1.1zm-17.6 0c-1.6.6-1.1 1 .3.6 4-1.4 4.8-.7 8.2.9.6.2.9-.5.3-.8-1.6-.8-3.2-1.5-5-1.5a9 9 0 00-3.8.7zm5.6 2.6c-.5 2.9-3.4 2.9-3.5 0h-.8c-.6 3.3 4.2 4.7 5 0zm18.7.2h-1c-.3 1.4-2.3 3.3-3.6 0h-.4c-.5 4 4.7 3.5 5 0zm-17.6 1.6c.1.7 1.3-.5 1.3-.5.2-.2 0-1.1-.6-1-.3 0-.9.5-.7 1.5zm-6.5-1.5c-.8 0-1.1.7-.9 1.3.2.3 1.1.6 1.4.4.2-.5 0-1.3-.4-1.6h-.1zm25 .4c-.2 0-.9 1.3-.4 1.6.3.1 1.5-.8 1.5-.9 0-.4-.8-.7-1-.7h-.2zm-7.5 1.2s.9.4 1 .3c.5-.9-.2-1.3-.3-1.4-.1 0-.8.6-.7 1zm-26.7 28l2.3-.9c1.4-4.6 3.2-8.5 5.6-12.4l-.5-2.6c-4 5.5-5.6 10-7.4 15.8zm3.4-1.3l2.4-.9c.8-2.8 2-5.3 3.2-7.4l-.6-2.3a36 36 0 00-5 10.6zm14.3-8.6c.7-.2 1.4-.7 2.2-.5 1.6.4 1.6.6 3.4 0 .7-.3 1.9.5 2.6.5.3 0 .8-.4 1-.5.8-.5.6-.3 1 1.8.5 1.8.8 2.1.1 1.9l-1.2-.6c-.9-.5-1.5-.6-3-.3-.9.3-2 .6-4.5-.2-.9-.3-.8-.2-1.7.2-1 .6-1.4.7-1.4.4v-3.7c.6 0 1 1 1.5 1zM3470-660l2-.8 1.1-3-.7-1.9c-1.2 2.1-2 3.7-2.4 5.7zm18.5-3c-.2.7-2.3 1.4-4 1-1.7-.5-2.6-.9-1.9-1h2.1c1.7 0 2.5-.4 3-.4.7 0 .9.2.8.3zm-15.2 1.8l.8-.3-.5-1zm15.6 1.7c.7 1.1.1 1.3-1 .5-1.4-.9-3.8-1-5.3-.2-1.1.5-2.2 0-1.3-.6 1-.8 2.4-1.1 3.8-1.1 1.7 0 3.2.5 3.8 1.4zm-59.4 21a87.2 87.2 0 0040.1 22l-.5-3c-20.6-6.5-27-12.2-37.1-20.8zm47.1 20.2l7.3 3.7.1-2.8-7.8-4.1zm7.4-.1v-2.3l-5.6-.8zm8.2-2.2v2.8l4.7-2.8zm-14.8 6.3l6.5 3.7v-2.6l-6.7-3.7zm14.4 1.6l.1 3 7-3.8.4-3.3zm-13.3 2.8l5.6 3v-2.5l-6.1-3.2zm13.4 1.2v2.6l6.3-3.3.3-2.8zm-12.6 3l4.9 2.7v-2.8l-5.4-2.7zm12.6 1v2.2l5.7-3 .4-2.6zm-12 3l4.3 2.5v-2.6l-4.5-2.5zm12 .3v2.6l5.2-2.6.1-2.7zm-11.2 3.9l3.5 2.1v-2.6l-3.8-2.1zm11.2-.2v2.4l4.5-2.3.2-2.5zm-45 .4c-1.8 3-2.3 5-.9 4 1.6-1 2.7-1.7 4.2-3.4.5-1.1-.2-1.8-1.2-1.8-.7 0-1.6.4-2.1 1.2zm45 3.2v2.7l4-2.1.4-2.8zm-10.6.8l3 1.6v-2.7l-3.3-1.6zm-31.9-1.4c-3 2-4 2.9-2.3 3.1.6.1.5.4.4.8-.3.7 0 1.2.8.8 1.4-1 4.4-1.8 4.9-3 .5-1.4-.5-2.3-1.8-2.3-.6 0-1.3.2-2 .6zm42.5 4.5v2.3l3.5-1.7.3-2.7zm-9.8 1.2l2.4 1-.2-2.6-2.6-1.4zm-31.7-1c-2.3 1.1-3 1.2-2.2 1.5.5.2 1.4.3 1.1 1-.4 1-.4 1 2.4.3 3.2-.7 4.3-1.6 3.7-3-.4-.8-1-1-1.5-1.1-1 0-2.3.6-3.5 1.2zm41.4 3.5v2l3.2-1.5v-2.2z" fill="#131f67"/><path d="M3448.1-623.8c-13.5 8.6-20.3 22.7-23 40.2h-9.8v-43c14.3-6.7 32.8 1 32.8 2.8zm12.3 39.1l-.6-5.5c-.8-1.6 8.8 2.2 19 6.6h-16l-2.4-1zm31-36.3c.2 12.5-.3 25-.6 37.4h-.7l-4.7-2.9-.7-34.5a82.8 82.8 0 01-48.9-21.5c8.9-6.6 19.4-10.7 29.6-14.9 9 4.8 20.6 8.1 33.9 6v29.8c-4.8.7-8 .8-8 .6z" fill="#e2cf00"/><path d="M3499.3-583.6h-1l1-3.8zm-7.7-37.2l-.2 37.2h-1.4l-5-3-.7-34.3a115 115 0 01-15.2-2.7l1.2 4.3c-26.7-7.7-37.8-21.4-38.2-21.3 7.4-5 16-9.4 16-9.4a65.8 65.8 0 0122-43.4l.5 5.7.2 3v6.7a49.8 49.8 0 00-11 22.6l5.7-2.2a50 50 0 0033.8 5.7v.5c-12 2-23.7-.1-33.8-5.8l-1.5.8 1.7 1.3-1 1.6-2.3-1.5.9-1s-2.7.6-3.7 1.2a55.5 55.5 0 0039.7 8.7v.8a58.1 58.1 0 01-40.5-9.1l-1.8.8a58.1 58.1 0 0042.3 9.7v1a60.9 60.9 0 01-43.2-10.2l-2.4 1a61.8 61.8 0 0045.6 11.6v8.2l-.5.1.5 2.9v5.3a78.4 78.4 0 01-61.3-19.9l-2 1.3a80.7 80.7 0 0063.3 20.7v.6c-4 .4-7.6.6-7.7.5zm-22.7-32.7l-.8 2-2.1-1.2.8-2zm3.5 1.3l-.7 2-2.3-.9.9-2zm3.6 1.2l-.4 2-2.3-.7.5-2zm-27.2 5.5l6 4 4-6.3-5.6-3.8zm31-4.6l-.4 2-2.4-.6.4-2zm4 .6l-.3 2-2.5-.3.3-2zm14.9 2l-2.4.2-.2-2 2.2-.2zm-11.6-1.6v2l-2.2-.1v-2zm7.6 0v2h-2.2v-2h2.2zm-38.3 2.4c0 1.3-1 2.4-2.4 2.4-1.3 0-2.4-1-2.4-2.4 0-1.3 1.1-2.4 2.4-2.4 1.3 0 2.4 1 2.4 2.4zm34.6-.3h-2.2v-2h2.2zm-38.6.3c0 .9.7 1.6 1.6 1.6.9 0 1.6-.7 1.6-1.6a1.6 1.6 0 10-3.2 0zm-8.4-.5a2.3 2.3 0 01-.2 4.7 2.3 2.3 0 01-2-3.5l-3.1 1.8 5.8 4.7s3.2-4 4.2-6l-3.1-2.6zm-1.8 2.3a1.6 1.6 0 103.2 0c0-.8-.7-1.6-1.6-1.6-.9 0-1.6.8-1.6 1.6zm19.6 7l7.2 3 2.4-7.2-6.5-2.5zm7.2-1.8a2.3 2.3 0 11-4.7 0c0-1.3 1-2.4 2.3-2.4 1.3 0 2.4 1 2.4 2.4zm-17.8 4.6l7.2 3.9 3.4-6.8-6.8-3.6zm13.8-4.6a1.6 1.6 0 103.2 0c0-1-.7-1.6-1.6-1.6-.9 0-1.6.7-1.6 1.6zm11.4 6.6l7.6 1 .3-7.3-6.5-1s-1.1 4.8-1.4 7.3zm-17.7-3.8a2.3 2.3 0 11-4.7 0c0-1.3 1-2.4 2.4-2.4 1.3 0 2.3 1 2.3 2.4zm32.5-2l.4 7.2 7.1-.3-1-7.3zm-62.3.4c7.2 6.8 20.3 14.7 20.3 14.7 0 .1-9.6 5.5-17 18.8-3.2 6-5.1 13.4-6 21.4h-9.6v-1.1l3.5-2.5-4-3v-2.3h-.8v-8c1.4 2.8 2.1 4 5.6 4.7 2 .6 2.7.9 3.8 1.7.9.6 1.3.4 1.7-.3.3-.5.1-2.3-.2-3-.1-.4-.1-.5.2-1 1-1.6.5-4.1-1-4.7-1.2-.6-3 .1-3.5 1.4-1.1 2.3-2.6-.9-1.6-3.5l.5-1.3-3.1-1.7s0 .2-1 1.5a5 5 0 01-1.4 1.3v-10l2.9 2v2.6h2.7l2.5 3.2 2.5-3.2 2.8-.4.2-2.6 3.6-2.1-3.6-2.3-.2-2.6-3-.1-2.4-4.3-2 3.8-2.8.2v3l-3.2 1.8v-12a149 149 0 0113.6-10.1zm25.9 1.6a1.6 1.6 0 103.1 0c0-1-.7-1.6-1.6-1.6-.8 0-1.5.7-1.5 1.6zm28.2 1a2.3 2.3 0 11-4.7 0c0-1.3 1-2.3 2.3-2.3 1.3 0 2.4 1 2.4 2.3zm14.2.6a2.3 2.3 0 11-4.7 0c0-1.3 1-2.3 2.4-2.3 1.3 0 2.3 1 2.3 2.3zm-18.2-.6a1.6 1.6 0 103.2 0c0-.9-.7-1.6-1.6-1.6-.9 0-1.6.8-1.6 1.6zm14.3.6a1.6 1.6 0 103.1 0c0-.9-.7-1.6-1.6-1.6-.8 0-1.5.7-1.5 1.6zm-26.7 7.2l8 2.1 1.5-7.4-7-1.8zm7.4-2.3a2.3 2.3 0 11-4.7 0c0-1.3 1-2.4 2.4-2.4 1.3 0 2.3 1.1 2.3 2.4zm9.5 5.7l8 .4v-7.6l-7.5-.4zm-13.4-5.7a1.6 1.6 0 103.1 0c0-.9-.7-1.6-1.6-1.6-.8 0-1.5.7-1.5 1.6zm19.8 2a2.3 2.3 0 11-4.7 0c0-1.3 1-2.3 2.4-2.3 1.2 0 2.3 1 2.3 2.3zm-4 0a1.6 1.6 0 103.2 0c0-.8-.7-1.5-1.6-1.5-.8 0-1.5.7-1.5 1.5zm-51.8-.5c-1.7.1-2.7 2-2 3.6.4.6.3 1-.2 2-1.6 2.8.9 5.8 3.4 4.2.6-.4.8-.7.9-1.2.4-1.2.3-1.2 3.1-1h3.1v-3.3l-4-.4c-1 0-1.1-.1-1.2-1.3 0-1.7-1.7-2.6-3.1-2.6zm.6 1.7c.8 0 1.4.9.7 1.8-.5.6 0 1.1.5 1.4.4.3 1 .4 1.5.4l3.8.2v.8h-5.3s-.8 0-.8 1c0 1.1-.8 1.8-1.5 1.3-.8-.6-.8-2.1 0-2.9.5-.4.5-.6.1-1.2-.4-.7-.4-2 0-2.3.3-.3.7-.5 1-.5zm51 40.5l1.8 1.1h1.7v1.4h1.3l.3-36.3-5.5-.1zm-58.3-29.5l-3.4 4-4-3.4 3.3-4.1zm61.9-3v1.7h-2.3v-1.7zm-12.6 28c-6.8-2.6-13-3.6-18.7-2.8-2.5-4-5.2-6.5-7.8-8.8 6.7-7.8 13.6-10.3 20.4-13.6zm12.6-24.7v1.7h-2.3v-1.7zm-71.3 9.4l1.2.6s-1.9 4 .3 5.6c1.6 1.3 3.5 1.1 3.5-.4 0-.8 1.4-1.5 2.2-1 .8.4.4 2.7-.6 3.2l-.8.5 1 .8c.4.6 1 2-.6 1-.3-.3-.7-.3-.9-.4-3.8-.5-5.6-1.9-6.3-4.6-.4-1.6-.3-1.6-1.7-1.2v-1.5c1.7-.8 2.8-2.5 2.7-2.6zm71.3-5.8v1.4h-2.3v-1.5zm0 2.9v1.4h-2.3v-1.4zm0 3.1v1.5h-2.3v-1.5zm0 3v1.6h-2.3v-1.6zm0 3v1.4h-2.3v-1.5zm0 3v1.5h-2.3v-1.5zm0 3.1v1.4h-2.3v-1.4zm-30.3 2.8l1.7-.1c8-.2 15.4 3.5 22 7.9h-6.7l-.4-.4c-1.7-1.6-2.1-2-2.4-1.4-.3.9-.3 1.3-2.4-.4-1.8-.9-3.3-2.3-3.6-1.8.4 1.4-.7.8-2-.1-1.6-1-2.1-1.3-2.6-1.3-.4 0-1.2.4-1.2.4h-.9l.5 3.7s.8.3 1-.5c.4-.4.7 0 3.1 1.3l.9.5h-6c-.3-2.6-.5-5.2-1-7.8zm30.3.1v1.4h-2.3v-1.4zm-46 2.7s1.5 2.5 1.8 5h-3c.4-3.2 1-4.7 1.1-5zm46 .2v1.5h-2.3v-1.5zm10-121.2v9.4l-4.7-9.4zm-31.5 126c0-.4.3-.3 1 0z"/></g></svg>
