<svg viewBox="0 0 330 512" xmlns="http://www.w3.org/2000/svg"><path fill="#606FA0" d="M329.9 486.2c0 14-11.5 25.6-25.6 25.6H25.7A25.7 25.7 0 010 486.2V25.8A25.6 25.6 0 0125.6 0h278.7A25.7 25.7 0 01330 25.7l-.1 460.5z"/><path fill="#5BC4CC" d="M41.2 490.7l-4.2 4v-9l12.3 10.9 3.3-3 5.3 2.2v3l-5.1 2.4-4.4-3.5-11.2 10.6v-.7H37v-8l4 4 7-7-8.8-8 2 2zm.4 8.5l-2.3-2.4 2.3-2.5 2.6 2.5-2.6 2.4zm43-8.5l1.3-1.4-8 7.3.3.2H78l6.7 6.7 4-4 4.1 4 6.7-6.7-8.1-7.7 1.5 1.6-4.2 4-4-4zm-7.3 6.8l-3.5 3.2-5.3-2.1v-3l5.1-2.5 3.7 3 11.4-10.3v-.2h.1l12.1 11 3.5-3 5.2 2.2v3l-5.2 2.4-4.3-3.5-11.4 10.6-11.5-10.6zm4.4-.7l2.4-2.5 2.4 2.5-2.4 2.4-2.4-2.4zm-15.8.4c.4 2-1.5 3.6-3.4 3-1.3-.5-2-1.7-1.8-3a2.7 2.7 0 015.2 0zm2.5 10l-2.3-5.3 1-1 1.1-1.3 5.5 1.9.6 5.6h-5.9zm4.8-15l-5 2.4-1.3-1.2-1.3-1 2-5.3 6-.6-.4 5.8zm-6.3-5.4l-2.2 5.2h-3.3l-2.3-5 3.8-4.4 4 4.2zm-8.5.5l2.1 5.2-1 1.2-1.3 1-5.3-1.8-.4-5.8 5.9.2zM53 501.9l5.3-2 1 1 1.3 1-2 5.4-5.9.4.3-5.8zm6.1 5.7l2.5-5h3l2.5 5-3.8 4.4-4.1-4.4zm34.1-8.4l-2.4-2.4 2.4-2.5 2.5 2.5-2.5 2.4zm43-8.5l2.6-2.5-9.3 8.6h.2l6.6 6.7 4-4 4 4 6.9-6.7-8.1-7.5 1.2 1.4-4 4-4-4zm-7.3 6.8l-3.5 3.2-5.4-2.1v-3l5.1-2.5 3.5 3 11.5-10.3v-.2h.2l12.1 11 3.4-3 5.2 2.2v3l-5 2.4-4.4-3.5-11.3 10.6-11.4-10.6zm4.3-.7l2.5-2.5 2.4 2.5-2.4 2.4-2.5-2.4zm-15.8.4a2.6 2.6 0 01-5.3 0 2.6 2.6 0 015.3 0zm2.5 10l-2.3-5.3 1.2-1 1-1.3 5.3 1.9.7 5.6H120zm4.9-15l-5.2 2.4-1.1-1.2-1.2-1 1.8-5.3 5.9-.6-.2 5.8zm-6.3-5.4l-2.3 5.2h-3l-2.6-5 3.8-4.4 4.1 4.2zm-8.5.5l2.1 5.2-2.3 2.3-5.2-2-.5-5.7 5.9.2zm-5.4 14.6l5.2-2 1.3 1 1 1-2 5.4-5.8.4.3-5.8zm6 5.7l2.4-5h3.5l2.1 5-3.9 4.4-4-4.4zm34.2-8.4l-2.3-2.4 2.3-2.5 2.4 2.5-2.4 2.4zm43-8.5l1.3-1.4-8 7.3.2.2h-.2l6.7 6.7 4.1-4 4 4 6.8-6.7-8.2-7.7 1.6 1.6-4.2 4-4-4zm-7.4 6.8l-3.2 3.2-5.5-2.1v-3l5-2.5 3.7 3 11.5-10.3v-.2h.1l12 11 3.4-3 5.3 2.2v3l-5 2.4-4.4-3.5-11.5 10.6-11.4-10.6zm4.5-.7l2.4-2.5 2.4 2.5-2.4 2.4-2.4-2.4zm-15.8.4c.4 2-1.6 3.6-3.5 3-1.2-.5-2-1.7-1.7-3a2.7 2.7 0 015.2 0zm2.5 10l-2.3-5.3 1-1 1.1-1.3 5.5 1.9.6 5.6h-6zm5-15l-5.3 2.4-2.3-2.3 1.8-5.2 5.8-.6v5.8zm-6.5-5.4l-2.3 5.2h-3.2l-2.3-5 3.7-4.4 4 4.2zm-8.6.5l2.2 5.2-1 1.2-1.2 1-5.4-1.8-.4-5.8 5.8.2zm-5.2 14.6l5.2-2 1 1 1.4 1-2 5.4-6 .4.4-5.8zm6 5.7l2.6-5h3l2.5 5-4 4.4-4-4.4zm34.2-8.4l-2.5-2.4 2.5-2.5 2.5 2.5-2.5 2.4zm43-8.5l1.4-1.6-8 7.7h.1l6.5 6.7 4-4 4.2 4 6.7-6.7-6.6-6.1-4.2 4-4.2-4zm-7.4 7l-3.4 3-5.2-2.1-.2-1.5v-1.6l5-2.4 3.8 2.9 11.3-10.2v-.2h.2l12 11 3.4-3 5.3 2.2v3l-5 2.4-4.4-3.5-11.3 10.6-11.5-10.6zm4.4-1l2.4-2.4 2.5 2.5-2.5 2.4-2.4-2.4zm-15.9.5a2.6 2.6 0 01-5.2 0 2.6 2.6 0 015.2 0zm2.5 10l-2-5.3 1-1 1-1.3 5.3 1.9.8 5.6h-6.1zm5-15l-5.3 2.4-1-1.2-1.3-1 1.9-5.3 5.9-.6-.2 5.8zm-6.3-5.4l-2.4 5.2h-3l-2.6-5 3.9-4.4 4 4.2zm-8.6.5l2.2 5.2-2.4 2.3-5.2-2-.5-5.7 6 .2zm-5.3 14.6l5.3-2 2.2 2.2-2 5.2-6 .4.5-5.8zm6.2 5.7l2.4-5h3.2l2.2 5-3.9 4.4-3.9-4.4zm34-8.4l-2.4-2.4 2.5-2.5 2.3 2.5-2.3 2.4zm47.2-4.6l-4.2-4 2-2-8.7 8 .2.2h-.2l6.8 6.8 4-4v8h-.1v.7L284 497.7l-3.5 3-5.4-2.1v-3l5-2.5 3.7 3 11.6-10.5v9zm-7.1 2.2l2.4-2.5 2.3 2.5-2.3 2.4-2.4-2.4zm-15.9.4a2.6 2.6 0 01-5.3 0 2.6 2.6 0 015.3 0zm2.6 10l-2.4-5.3 1-1 1.2-1.3 5.4 1.9.7 5.6h-6zm4.8-15l-5.1 2.4-2.4-2.3 1.8-5.2 6-.6-.3 5.8zm-6.5-5.4l-2 5.2H268l-2.4-5 3.9-4.4 3.8 4.2zm-8.4.5l2 5.2-1 1.2-1 1-5.5-1.8-.4-5.8 6 .2zm-5.3 14.6l5.3-2 1.2 1 1 1-2 5.4-5.8.4.3-5.8zm6.3 5.7l2.4-5h3l2.3 5-3.8 4.4-3.9-4.4zm42.3-2.8l4 4h-9l11-12.2-2.9-3.2 2.3-5.2h3l2.4 5.2-3.6 4 6.8 7-.8.6-6.8-7-7.1 7.7.7-1zm8.7-.6l-2.3 2.5-2.5-2.5 2.3-2.4 2.5 2.4zm-8.7-42.2l6.2 6.4v-.2l.2.3 6.8-6.7-3.9-4 3.9-3.7-6.8-7-6.2 6.8 3.8 4-4 4zm7 7.2l3.4 3.3-2.2 5.3H313l-2.4-5 3-3.6-10.2-11.2h-.2v-.1l11-12-3-3.3 2.3-5.2h3l2.4 5-3.6 4.3 11 11.2-11 11.3zm-.8-4.3l-2.3-2.4 2.5-2.5 2.3 2.4-2.5 2.5zm3.2 18c.4 2-1.5 3.7-3.4 3-1.3-.4-2-1.6-1.8-3a2.7 2.7 0 015.2 0zm7.3-5l-5 2.4-1.3-1-1-1.3 1.6-5.2 6-.6-.3 5.8zm-14.8-4.8l2.1 5.2-1 1-1.1 1.3-5.3-1.8-.6-6 5.9.3zm-5.6 6.4l5.3 2.2v3l-5 2.4-4.7-3.6 4.4-4zm.4 8.3l5.3-2.2 1.1 1.2 1.2 1-2 5.3-5.9.5.3-5.8zm15 5.2l-2.3-5.2 2.3-2.3 5.3 2 .5 5.8-5.9-.3zm5.6-6.3l-5-2.2v-3.2l5-2.2 4.4 3.8-4.4 3.8zm-8.6-33.3l-2.3 2.2-2.5-2.2 2.3-2.5 2.5 2.5zm-8.7-42.4l6.2 6.5v-.1l.2.3 6.8-6.9-3.9-3.8 3.9-4-6.8-6.7-6.2 6.6 3.8 4.1-4 4zm7 7.1l3.4 3.4-2.2 5.3H313l-2.4-4.8 3-3.6-10.3-11.3h-.1v-.1l11.2-12-3.2-3.3 2.3-5.2h3l2.4 5-3.8 4.5 11.1 11.1-11.1 11zm-.8-4.2l-2.3-2.5 2.5-2.3 2.3 2.3-2.5 2.5zm3.2 18.1c.4 2-1.5 3.6-3.4 3-1.3-.5-2-1.7-1.8-3a2.7 2.7 0 015.2 0zm7.3-5l-5 2.3-1.3-1.1-1-1 1.6-5.4 6-.6-.3 5.8zm-14.8-5l2.1 5.3-1 1.2-1.1 1-5.3-1.8-.6-5.8 5.9.2zm-5.6 6.5l5.3 2v3.3l-5 2.3-4.7-3.6 4.4-4zm.4 8.4l5.3-2.1 1.1 1 1.2 1-2 5.4-5.9.5.3-5.8zm15 5.2l-2.3-5.2 1.3-1 1-1.3 5.3 2 .5 5.8-5.9-.3zm5.6-6.1l-5-2.5v-3l5-2.3 4.4 3.8-4.4 4zm-8.6-33.6l-2.3 2.5-2.5-2.5 2.3-2.4 2.5 2.4zm-8.7-42.2l6.2 6.4v-.1l.2.3 6.8-6.8-3.9-4 3.9-3.7-6.8-7-6.2 6.8 3.8 4-4 4.1zm7 7.2l3.4 3.3-2.2 5.2-1.6.2H313l-2.4-5 3-3.7-10.2-11.2h-.2v-.1l11-12-3-3.3 2.3-5.1h3l2.4 4.8-3.6 4.5 11 11-11 11.4zm-.8-4.5l-2.3-2.2 2.5-2.5 2.3 2.5-2.5 2.2zm3.4 18.3a2.6 2.6 0 01-5.3 0 2.6 2.6 0 015.3 0zm7.1-5l-5 2.1-1.3-1-1-1 1.6-5.3 6-.6-.3 5.8zm-14.8-4.9l2.1 5.2-1 1-1.1 1.3-5.3-1.8-.6-5.8 5.9.1zm-5.6 6.3l5.3 2.3v3l-5 2.5-4.7-3.9 4.4-4zm.4 8.4l5.3-2.2 1.1 1.3 1.2 1-2 5.2-5.9.6.3-6zm15 5.2l-2.3-5.2 1.3-1.1 1-1 5.3 2 .5 5.7-5.9-.4zm5.6-6.1l-5-2.3v-3.2l5-2.2 4.4 3.8-4.4 3.9zm-8.6-33.6l-2.3 2.5-2.5-2.5 2.3-2.3 2.5 2.3zm-4.7-46.3v.1l-4 4 6.2 6.5v-.1l.2.1 6.8-6.7-3.8-3.8v-.1l3.8-3.8-6.8-6.8-6.2 6.6 3.7 4h.1zm3 11.2l3.4 3.4-2.2 5.3H313l-2.4-4.8 3-3.7-10.3-11.3h-.1v-.1l11-12-3-3.3 2.3-5.2h3l2.4 5-3.6 4.3 11 11.3-11.2 11.1zm-.8-4.2l-2.3-2.5 2.5-2.2 2.3 2.2-2.5 2.5zm3.2 18.1c.4 2-1.5 3.6-3.4 3-1.3-.5-2-1.7-1.8-3a2.7 2.7 0 015.2 0zm7.3-5l-5 2.3-1.3-1-1-1.2 1.6-5.3 6-.6-.3 5.8zm-14.8-4.9l2.1 5.2-1 1.2-1.1 1-5.3-1.7-.6-5.8 5.9.1zm-5.6 6.4l5.3 2.1v3.3l-5 2.2-4.7-3.6 4.4-4zm.4 8.4l5.3-2.1 1.1 1 1.2 1.1-2 5.3-5.9.5.3-5.8zm15 5.2l-2.3-5.2 2.3-2.3 5.3 2 .5 5.8-5.9-.3zm5.6-6.3l-5-2.3v-3l5-2.3 4.4 3.8-4.4 3.8zm-8.6-33.4l-2.3 2.5-2.5-2.5 2.3-2.4 2.5 2.4zm-4.7-46.3l-4 4.1 6.2 6.4v-.1l.4.3 6.6-6.7-3.9-4h8.8l-11.1 11.3 3.4 3.3-2.2 5.2-1.6.2H313l-2.4-5 3-3.7-10.4-11.5 11-12.2-3-3.2 2.3-5.1h3l2.4 5.1-3.6 4.2 11 11.2h-8.9l3.9-4-6.8-6.6-6.2 6.5 3.8 4.1h-7.9v.2h8zm2.2 7L312 259l2.5-2.5 2.3 2.5-2.5 2.4zm3.2 18.2c.4 2-1.5 3.6-3.4 3-1.3-.5-2-1.7-1.8-3a2.7 2.7 0 015.2 0zm7.3-5.2l-5 2.3-1.3-1.1-1-1 1.6-5.3 6-.7-.3 5.8zm-14.8-4.8l2.1 5-2.1 2.5-5.3-1.8-.6-5.8 5.9.1zm-5.6 6.3l5.3 2.3v3l-5 2.5-4.7-3.8 4.4-4zm.4 8.4l5.3-2.2 1.1 1.3 1.2 1-2 5.2-5.9.5.3-5.8zm15 5.2l-2.3-5.2 1.3-1 1-1.3 5.3 2.1.5 5.7-5.9-.3zm5.6-6.1l-5-2.3V278l5-2.2 4.4 3.9-4.4 3.8zm-8.6-33.7l-2.3 2.4-2.5-2.4 2.3-2.5 2.5 2.5zm-8.7-42.3l6.4 6.6 6.8-6.7-3.9-4 3.9-3.8-6.8-6.9-6.2 6.8 3.8 4-4 4zm7 7.2l3.4 3.4-2.2 5.3H313l-2.4-5 3-3.5-10.3-11.3h-.1v-.2l11.2-12-3.2-3.2 2.3-5.2h3l2.4 5-3.8 4.3 11.1 11.1-11.1 11.3zm-.8-4.3l-2.3-2.4 2.5-2.4 2.3 2.4-2.5 2.4zm3.2 18.2c.4 2-1.5 3.6-3.4 3-1.3-.5-2-1.7-1.8-3a2.7 2.7 0 015.2 0zm7.3-5l-5 2.2-1.3-1-1-1.3 1.6-5.1 6-.6-.3 5.7zm-14.8-5l2.1 5.3-1 1-1.1 1.2-5.3-1.8-.6-5.8 5.9.2zm-5.6 6.5l5.3 2.1v3l-5 2.5-4.7-3.8 4.4-3.8zm.4 8.2l5.3-2 1.1 1 1.2 1.2-2 5.1-5.9.5.3-5.8zm15 5.3l-2.3-5.1 2.3-2.3 5.3 2 .5 5.7-5.9-.3zm5.6-6.2l-5-2.3v-3.2l5-2.1 4.4 3.8-4.4 3.8zm-8.6-33.4l-2.3 2.3-2.5-2.3 2.3-2.4 2.5 2.4zm-8.7-42.4l-.7-.7 6.9 7.3v-.2l.2.2 6.8-6.7-3.9-3.8 3.9-4-6.8-6.7-6.2 6.5 3.8 4.2-4 4zm7 7.3l3.4 3.2-2.2 5.4H313l-2.4-5 3-3.6-10.4-11.2 11-12.2-3-3 2.3-5.4h3l2.4 5.2-3.6 4 11 11.4-11 11.2zm-.8-4.4L312 157l2.5-2.3 2.3 2.3-2.5 2.4zm3.2 18.2c.4 2-1.5 3.6-3.4 3-1.3-.5-2-1.7-1.8-3a2.7 2.7 0 015.2 0zm7.3-5l-5 2.2-1.3-1-1-1.1 1.6-5.4 6-.6-.3 5.8zm-14.8-4.8l2.1 5-1 1.2-1.1 1.1-5.3-1.8-.6-5.8 5.9.3zm-5.6 6.2l5.3 2.2v3.2l-5 2.3-4.7-3.7 4.4-4zm.4 8.4l5.3-2.1 1.1 1 1.2 1.1-2 5.4-5.9.4.3-5.8zm15 5.2l-2.3-5.2 1.3-1 1-1.3 5.3 2 .5 5.8-5.9-.3zm5.6-6l-5-2.5v-3l5-2.4 4.4 3.9-4.4 4zM317 148l-2.3 2.4-2.5-2.4 2.3-2.5 2.5 2.5zm-8.7-42.3l6.2 6.5v-.2l.2.3 6.8-6.7-3.9-4h-.2l4-4-6.7-6.6-6.2 6.7 4 4h-.2l-4 4zm7 7.2l3.4 3.4-2.2 5.1-1.6.2H313l-2.4-5 3-3.7-10.2-11.1h-.2v-.2l11.2-11.9-3.2-3.3 2.3-5.2h3l2.4 5-3.5 4.3 10.8 11.1-11 11.3zm-.8-4.3l-2.3-2.4 2.5-2.4 2.3 2.4-2.5 2.4zm3.2 18.2c.4 2-1.5 3.6-3.4 3-1.3-.5-2-1.7-1.8-3a2.7 2.7 0 015.2 0zm7.3-5l-5 2.2-2.4-2.2 1.7-5.2 6-.6-.3 5.8zm-14.8-5l2.1 5.3-1 1-1.1 1.2-5.3-1.8-.6-5.8 5.9.2zm-5.6 6.3l5.3 2.3v3l-5 2.5-4.7-3.8 4.4-4zm.4 8.4l5.3-2.1 1.1 1.2 1.2 1-2 5.2-5.9.5.3-5.8zm15 5.5l-2.3-5.1 2.3-2.3 5.3 2 .5 5.8-5.9-.4zm5.6-6.2l-5-2.3v-3.2l5-2.1 4.4 3.6-4.4 4zM317 97.4l-2.4 2.3-2.5-2.3 2.5-2.4 2.4 2.4zM312.4 51l-4.2 4 6.2 6.5.2-.2.2.2 6.6-6.6-4.1-4h.2l3.9-3.9-6.8-6.7-6.2 6.5 3.8 4.2h.2zm3 11.2l3.1 3.2-2 5.4h-3.2l-2.5-4.9 3-3.7L303.6 51h-.1v-.2L314.3 39l-3-3.3 2.3-5.2h3l2.4 5-3.6 4.3 11 11.2-11 11.2zm-.8-4.4l-2.5-2.4 2.5-2.3 2.4 2.3-2.4 2.4zm.5 21a2.6 2.6 0 110-5.3 2.6 2.6 0 010 5v.2zm10-7.9l-5.3 2.3-1-1-1.3-1.1 1.8-5.3 5.8-.7V71zm-15-4.7l2.1 5-1 1.3-1.1 1-5.3-1.8-.6-5.8 5.9.3zm-5.6 6.3l5.3 2v3.3l-5 2.3-4.5-3.7 4.1-4zm.4 8.3l5.3-2 1.2 1 1.1 1-2 5.4-5.7.4.1-5.8zm15 5.2l-2.3-5.2 1.3-1 1-1.2 5.3 2 .5 5.7-5.9-.3zm5.6-6l-5-2.5v-3l5-2.3L330 76l-4.5 4zM317 46.4l-2.3 2.4-2.5-2.4 2.3-2.5 2.5 2.5zm-5-45.4l-3 3.5 5.5 6v-.2l.2.3 5.2-5.3.7.6-5.1 5.3 3.2 3.4-2.2 5.2-1.6.1H313l-2.4-5 3-3.7L303.2 0s4.6-.3 8.6 1.1zm2.5 6L312 4.5l2.5-2.4 2.3 2.4-2.5 2.5zm3.2 18.1c.4 2-1.5 3.6-3.4 3-1.3-.5-2-1.7-1.8-3a2.7 2.7 0 015.2 0zm7.3-5l-5 2.1-1.3-1-1-1.1 1.6-5.2 6-.6-.3 5.8zm-14.8-5l2.1 5.3-1 1-1.1 1.3-5.3-1.9-.6-5.8 5.9.2zm-5.6 6.3l5.3 2.3v3l-5 2.5-4.7-3.8 4.4-4zm.4 8.4l5.3-2.1 1.1 1.2 1.2 1-2 5.3-5.9.4.3-5.8zm15 5.2l-2.3-5.2 1.3-1 1-1.3 5.3 2.2.5 5.6-5.9-.3zm5.6-6l-5-2.4v-3.2l5-2.1 4.4 3.8-4.4 3.8zM17.4 508.7l4-3.8-7-7-6.5 6.8-.5-.6 6.8-7.6-3-3.2 2.3-5.2h3.3l2.3 5.2-3.8 4 11 11.4h-9zm-.5-4.6l-2.5 2.5-2.3-2.5 2.3-2.4L17 504zm-8.7-42.4l6.1 6.6v-.2l.2.2 6.7-6.7-3.8-3.8 4-3.8-7-7-6.2 6.8 4 4-4 4zm7.1 7.4l3 3.3-2 5.3h-3.1l-2.5-5 3-3.6L3.4 458H3v-.1l11-12-3-3.3 2.3-5.2h3.3l2.3 5-3.8 4.3L26.3 458l-11 11.3zm-1-4.3l-2.2-2.4 2.3-2.5 2.5 2.4-2.5 2.5zm3.4 18a2.6 2.6 0 01-5.3 0 2.6 2.6 0 015.3 0zm7.2-5l-5.1 2.4-1.2-1-1.2-1.3 1.8-5.2 5.7-.6v5.8zm-14.7-4.7l2 5.2-1 1-1 1.3-5.4-1.8-.5-6 5.9.3zm-5.7 6.4l5.3 2.2v3l-5 2.4-4.5-3.6 4-4zm.6 8.3l5-2.2 1.3 1.2 1.2 1-2 5.3-5.7.5.2-5.8zm14.7 5.3l-2-5.2 1-1.2 1.3-1 5.3 2 .3 5.7-5.9-.3zm5.9-6.3l-5.3-2.2v-3.2l5.3-2.2L30 483l-4.3 3.8zM17 453.5l-2.5 2.2-2.3-2.2 2.3-2.5 2.5 2.5zM8 411l6.2 6.5.2-.1.1.1 6.7-6.5-4-3.8 4-3.8-6.9-6.9-6.2 6.7 4 4-4.2 4zm7.1 7.3l3.3 3.2-2 5.3h-3.3l-2.5-5 3-3.5L3.6 407h-.2v-.1l11.1-12-3-3.3 2-5.2H17l2.3 5-4 4.5L26.4 407l-11.2 11.3zm-.7-4.4l-2.3-2.5 2.3-2.3 2.5 2.3-2.5 2.5zm3.3 18.1a2.6 2.6 0 01-5.3 0 2.6 2.6 0 015.3 0zm7.2-5l-5.1 2.3-2.4-2.2 1.8-5.3 5.7-.6v5.8zm-14.8-4.8l2 5.2-1 1.2-1 1-5.4-1.8L4 422l5.9.2zm-5.7 6.4l5.3 2v3.3l-5 2.3-4.5-3.6 4-4zM5 437l5-2.1 2.5 2-2 5.4-5.7.5.2-5.8zm14.7 5.2l-2-5.2 2.3-2.3 5.3 2 .3 5.8-5.9-.3zm5.9-6.1l-5.3-2.5v-3l5.3-2.3L30 432l-4.3 4zM17 402.5l-2.5 2.5-2.3-2.5 2.3-2.4 2.5 2.4zm-8.7-42.4l6.1 6.6v-.1h.2l6.7-6.5-3.8-4 4-3.7-7-6.9-6.2 6.7 4 4-4 4zm7.1 7.4l3 3.3-2 5.2-1.6.2h-1.6l-2.5-5 3-3.7-10.2-11.2h-.3v-.1l11-12-3-3.3 2.3-5.1h3.3l2.3 4.8-3.8 4.5 11 11-11 11.4zm-1-4.5l-2.2-2.2 2.3-2.5 2.5 2.5-2.5 2.2zm3.4 18.3a2.6 2.6 0 01-5.3 0 2.6 2.6 0 015.3 0zm7.2-5l-5.1 2-2.4-2 1.8-5.2 5.7-.6v5.8zm-14.8-5l2 5.3-1 1-1 1.3-5.4-1.8-.5-5.8h5.9zm-5.7 6.4l5.3 2.3v3l-5 2.5-4.5-3.9 4-4zM5 386l5-2.2 1.3 1.3 1.2 1-2 5.2-5.7.6.2-6zm14.7 5.2l-2-5.2 1-1.1 1.3-1 5.3 2 .3 5.7-5.9-.4zm5.9-6.1l-5.3-2.3v-3.2l5.3-2.2 4.3 3.8-4.3 3.9zM17 351.6l-2.5 2.5-2.3-2.5 2.3-2.3 2.5 2.3zm-4.8-46.3v.1l-4 4 6.1 6.5.2-.1.1.1 6.8-6.7-3.8-3.8h-.1v-.1l3.8-3.7-6.8-6.9-6.2 6.8 3.9 3.8zm3 11.4l3.2 3.2-2 5.3h-3.2l-2.5-4.8 3-3.7-10.2-11.3h-.3v-.1l11-12-3-3.3 2.3-5.2h3.3l2.3 5-3.8 4.3 11 11.3-11.2 11.3zm-.8-4.4l-2.3-2.5 2.3-2.2 2.5 2.2-2.5 2.5zm3.3 18a2.6 2.6 0 01-5.3 0 2.6 2.6 0 015.3 0zm7.2-4.9l-5.1 2.3-2.4-2.2 1.8-5.3 5.7-.6v5.8zm-14.7-4.9l2 5.2-1 1.2-1 1-5.4-1.7-.5-5.8 5.9.1zM4.4 327l5.3 2.1v3.3l-5 2.2L.2 331l4-4zm.6 8.4l5-2.1 2.5 2.1-2 5.3-5.7.5.2-5.8zm14.7 5.2l-2-5.2 1-1.2 1.3-1 5.3 1.9.3 5.8-5.9-.3zm5.9-6.3l-5.3-2.3v-3l5.3-2.3 4.3 3.8-4.3 3.8zm-8.7-33.4l-2.5 2.5-2.3-2.5 2.3-2.4 2.5 2.4zm-4.7-46.4l-4 4 6 6.7.2-.3.1.3 6.8-6.7-4-4h9.1l-11.2 11.3 3 3.2-2 5.2-1.6.2h-1.4l-2.5-5 3-3.7-10.5-11.5 11-12.1-3-3.2 2.3-5.1h3.3l2.3 5.1-3.8 4.2 11 11.2h-9l4.1-3.8-7-6.8-6.2 6.7 4 4h-8 8zm2.2 7l-2.3-2.4 2.3-2.5 2.5 2.5-2.5 2.4zm3.3 18.2a2.6 2.6 0 01-5.3 0 2.6 2.6 0 015.3 0zm7.2-5.2l-5.1 2.3-2.4-2.2 1.8-5.2 5.7-.7v5.8zm-14.7-4.8l2 5-2 2.5-5.4-1.8-.5-5.8 5.9.1zM4.4 276l5.3 2.3v3l-5 2.5L.2 280l4-4zm.6 8.4l5-2.2 1.3 1.3 1.2 1-2 5.2-5.7.5.2-5.8zm14.7 5.2l-2-5.2 2.3-2.3 5.3 2.1.3 5.7-5.9-.3zm5.9-6.1l-5.3-2.3V278l5.3-2.2 4.3 3.9-4.3 3.8zm-8.7-33.7l-2.5 2.4-2.3-2.4 2.3-2.5 2.5 2.5zm-8.7-42.4l6.1 6.7v-.2l7-6.5-4-4 4.1-3.8-7-6.9-6.2 6.8 4 4-4 3.9zm7 7.3l3.2 3.4-2 5.3h-3.2l-2.5-5 3-3.5-10.2-11.3h-.3v-.2l11.2-12-3-3.2 2-5.2h3.4l2.3 5-4 4.3 11.2 11.1-11.2 11.3zm-.8-4.3l-2.3-2.4 2.3-2.4L17 208l-2.5 2.4zm3.3 18.2a2.6 2.6 0 01-5.3 0 2.6 2.6 0 015.3 0zm7.2-5l-5.1 2.2-1.2-1-1.2-1.3 1.8-5.1 5.7-.6v5.7zm-14.8-5l2 5.4-1 1-1 1.2-5.4-1.8-.5-5.8 5.9.2zm-5.7 6.5l5.3 2.1v3l-5 2.5-4.5-3.8 4-3.8zm.6 8.2l5-2 2.5 2.2-2 5.1-5.7.5.2-5.8zm14.7 5.3l-2-5.1 1-1.3 1.3-1 5.3 2 .3 5.7-5.9-.3zm5.9-6.2l-5.3-2.4v-3.2l5.3-2.1 4.3 3.8-4.3 3.8zM16.9 199l-2.5 2.3-2.3-2.3 2.3-2.4L17 199zM8 156.6l6.2 6.6.2-.2.1.2 6.8-6.7-4-3.8 4-4-6.9-6.7-6.2 6.7 4 4-4.2 4zm7.3 7.3l3 3.2-2 5.4h-3.2l-2.5-5 3-3.6-10.5-11.2 11-12.2-3-3.2 2.3-5.2h3.3l2.3 5.2-3.8 4 11 11.4-11 11.2zm-1-4.4l-2.2-2.4 2.3-2.3 2.5 2.3-2.5 2.4zm3.4 18.2a2.6 2.6 0 01-5.3 0 2.6 2.6 0 015.3 0zm7.2-5l-5.1 2.2-2.4-2.1 1.8-5.4 5.7-.6v5.8zm-14.8-4.9l2 5-1 1.2-1 1.1-5.4-1.8-.5-5.8 5.9.3zM4.5 174l5.3 2.2v3.2l-5 2.3L.2 178l4-4zm.6 8.4l5-2.1 2.5 2.1-2 5.4-5.7.4.2-5.8zm14.7 5.2l-2-5.2 2.3-2.3 5.3 2 .3 5.8-5.9-.3zm5.9-6l-5.3-2.5v-3l5.3-2.4 4.3 3.9-4.3 4zM16.9 148l-2.5 2.4-2.3-2.4 2.3-2.5L17 148zm-8.7-42.4l6.1 6.5v-.1l.2.2 6.7-6.6-3.8-4 4-3.8-6.9-6.8-6 6.7 3.7 4-4 3.9zm7.1 7.3l3 3.4-2 5.1-1.6.2h-1.5l-2.5-5 3-3.7L3.4 102H3v-.2l11.2-11.9-3-3.3 2-5.2h3.4l2.3 5-3.8 4.3 11 11.1L15.3 113zm-1-4.3l-2.2-2.4 2.3-2.4 2.5 2.4-2.5 2.4zm3.4 18.2a2.6 2.6 0 01-5.3 0 2.6 2.6 0 015.3 0zm7.2-5l-5.1 2.2-1.2-1.2-1.2-1 1.8-5.2 5.7-.6v5.8zm-14.8-5l2 5.3-1 1-1 1.2-5.4-1.8-.5-5.8 5.9.2zm-5.7 6.3l5.3 2.3v3l-5 2.5-4.5-3.8 4-4zm.6 8.4l5-2.1 1.3 1.2 1.2 1-2 5.2-5.7.5.2-5.8zm14.7 5.3l-2-5.1 1-1.3 1.3-1 5.3 2 .3 5.8-5.9-.4zm5.9-6.2l-5.3-2.3v-3.2l5.3-2.1 4.3 3.6-4.3 4zm-8.7-33.4l-2.4 2.3-2.4-2.3 2.4-2.4 2.4 2.4zM92.7 21l6.8-6.7-6.6-6-4.2 3.7-4-4-6.7 6.2h.2l-.3.1 6.9 6.7 4-4 4 4zm-4-17.8h.1l12.1 11 3.5-3 5.2 2v3.3l-5.2 2.2-4.3-3.6-11.4 10.8L77.2 15l-3.5 3-5.3-2v-3.2l5.1-2.4 3.8 3L88.7 3.3v-.1zm4.7 13.3L91 14.2l2.4-2.4 2.6 2.4-2.6 2.3zm43-8.5l.8-.8-7.6 7 7 6.7 3.8-4 3.9 4 7-6.7-7-6.2-4 4-4-4zm-7.7 7l-3.2 3-5.4-2v-3.2l5.1-2.4 3.8 3 11.2-10.2v-.1h.2l12.1 11 3.4-3 5.2 2v3.3l-5 2.2-4.4-3.6-11.3 10.8L128.7 15zm4.6-.8l2.5-2.4 2.4 2.4-2.4 2.3-2.5-2.3zm-15.8.5a2.6 2.6 0 01-5.3 0 2.6 2.6 0 015.3 0zm2.5 9.7l-2.3-5 1.2-1.2 1-1.2 5.3 1.8.7 5.8-5.9-.2zM125 9.8l-5.2 2.1-1.1-1-1.2-1.1 1.8-5.3 5.9-.5-.2 5.8zm-6.3-5.5l-2.3 5.2h-3l-2.6-5 3.8-4.5 4.1 4.3zm-8.5.5l2.1 5.1L111 11l-1 1.2-5.3-2-.5-5.7 5.9.3zm-5.4 14.6l5.2-2.1 1.3 1 1 1.3-2 5.1-5.8.3.3-5.6zm6 5.6l2.4-5.1h3.5l2.1 5.1-3.9 4.3-4-4.3zm34.2-8.5l-2.3-2.3 2.3-2.4 2.4 2.4-2.4 2.3zm43-8.5l-6.7 6h.2l-.3.2 7 6.7 4-4 4 4 6.7-6.7-6.6-6-4.2 3.7-4-4zm-7.4 7l-3.2 3-5.5-2v-3.2l5-2.4 3.8 3L192 3.2v-.1h.1l12 11 3.4-3 5.3 2v3.3l-5 2.2-4.4-3.6-11.5 10.8L180.6 15zm4.5-.8l2.4-2.4 2.4 2.4-2.4 2.3-2.4-2.3zm-15.8.5c.4 2-1.6 3.6-3.5 3-1.2-.4-2-1.7-1.7-3a2.7 2.7 0 015.2 0zm2.5 9.7l-2.3-5 2.1-2.4 5.5 1.8.6 5.8-5.9-.2zm5-14.6l-5.3 2.1-1.2-1-1.1-1.1 1.8-5.3 5.8-.5v5.8zm-6.5-5.5l-2.3 5.2h-3.2l-2.3-5L166 0l4 4.3zm-8.6.5l2.2 5.1-1 1.1-1.2 1.2-5.4-2-.4-5.7 5.8.3zm-5.2 14.6l5.2-2.1 2.4 2.3-2 5.1-6 .3.4-5.6zm6 5.6l2.6-5.1h3l2.6 5.1-4 4.3-4-4.3zm34.2-8.5l-2.5-2.3 2.5-2.4 2.5 2.4-2.5 2.3zm43-8.5l-6.5 6h.1l-.3.2 6.7 6.8 4-4 4.2 4 6.7-6.7-6.9-6-4 3.7-4-4zm-7.5 7l-3.2 3-5.2-2-.2-1.6v-1.6l5-2.4 3.8 3 11.3-10.2v-.1h.2l12 11 3.4-3 5.3 2v3.3l-5 2.2-4.2-3.6-11.6 10.8L232 15.1zm4.6-.8l2.4-2.4 2.5 2.4-2.5 2.3-2.4-2.3zm-15.9.5a2.6 2.6 0 01-5.2 0 2.6 2.6 0 015.2 0zm2.5 9.7l-2-5 2-2.4 5.3 1.8.8 5.8-6.1-.2zm5-14.6l-5.3 2.1-1-1-1.3-1.1 1.9-5.3 5.9-.5-.2 5.8zM222 4.3l-2.4 5.2h-3l-2.6-5L218 0l4 4.3zm-8.6.5l2.2 5.1-1.4 1.1-1 1.2-5.3-2-.5-5.7 6 .3zm-5.2 14.6l5.2-2.1 1 1 1.2 1.3-2 5.1-6 .3.6-5.6zm6 5.6l2.4-5.1h3.2L222 25l-3.9 4.3-3.9-4.3zm34-8.5l-2.4-2.3 2.5-2.4 2.3 2.4-2.3 2.3zm47.3-4.5l-4.2-4-6.7 6.2h.2l-.3.1 7 6.7 4-4v8.3l-.2-.2v.8L283.8 15l-3.3 3-5.4-2v-3.2l5-2.4 3.8 3 11.6-10.2V12zm-7.1 2.3l2.4-2.4 2.3 2.4-2.3 2.3-2.4-2.3zm-15.9.5a2.6 2.6 0 01-5.3 0 2.6 2.6 0 015.3 0zm2.6 9.7l-2.4-5 2.2-2.4 5.4 1.8.7 5.8-6-.2zm4.8-14.6l-5.1 2.1-1.4-1-1-1.1 1.9-5.3 5.8-.5-.2 5.8zm-6.5-5.5l-2 5.2h-3.3l-2.4-5 3.9-4.5 3.8 4.3zm-8.4.5l2 5.1-1 1.1-1 1.2-5.5-2-.4-5.7 6 .3zm-5.3 14.6l5.3-2.1 1.2 1 1 1.3-2 5.1-5.8.3.3-5.6zm6.3 5.6l2.4-5.1h3l2.3 5.1-3.8 4.3L266 25zm-228.7.8V25l-.2.2V17l4 4 7-6.8L41.2 8 37 12V3L49 14l3.5-3 5.3 2.2v3.2l-5.1 2.2-4.4-3.6-11.2 10.8zm4.4-9.3l-2.3-2.3 2.3-2.4 2.6 2.4-2.6 2.3zm40.1-2.3l2.4-2.4 2.4 2.4-2.4 2.3-2.4-2.3zm-15.8.5c.4 2-1.5 3.6-3.4 3-1.3-.4-2-1.7-1.8-3a2.7 2.7 0 015.2 0zm2.5 9.7l-2.3-5 2.1-2.4 5.5 1.8.6 5.8-5.9-.2zm4.6-14.7l-5 2.1-2.6-2.1 2-5.3 6-.5-.4 5.8zm-6-5.5l-2.3 5.2h-3.3l-2.3-5L63 0l4 4.3zm-8.6.5l2.1 5.1-2.3 2.3-5.3-2-.4-5.7 5.9.3zm-5.3 14.6l5.3-2.1 2.3 2.3-2 5.1-5.9.3.3-5.6zm6.1 5.6l2.5-5.1h3l2.5 5.1-3.8 4.3-4.1-4.3zm-22 226.1v-8.8l12.4 10.8 3.2-3 5.3 2.3v3.2l-5.3 2.2-4.2-3.6-11.4 10.7v-8.6l3.8 3.8 7-6.8-6.7-6.1-4.1 4zm4.6 4.6l-2.5-2.4 2.5-2.3 2.5 2.3-2.5 2.4zm47-4.6v-.1l-4.1-3.8-6.7 6h.2l6.8 7 3.7-3.7v-.2h.1l4 3.8 7-6.8-6.8-6.1-4 3.8v.1zm-11.4 3l-3.4 3.1-5.5-2V252l5.1-2.5 3.7 3 11.4-10.1v-.2h.1L101 253l3.5-3 5.2 2.3v3.2l-5.1 2.2-4.4-3.6L89 264.8l-11.5-10.7zm4.3-.8l2.5-2.3 2.5 2.3-2.5 2.4-2.5-2.4zm-15.8.6c.4 2-1.5 3.6-3.4 3-1.3-.5-2-1.7-1.8-3a2.7 2.7 0 015.2 0zm2.5 9.7l-2.3-5 1-1.2 1.3-1.2 5.3 1.8.7 5.8-6-.2zm5-14.7L68 251l-2.3-2.2 1.8-5.2 6-.5-.2 5.7zm-6.5-5.5l-2.2 5.3h-3l-2.6-5 4-4.5 3.8 4.2zm-8.5.6l2.1 5-1 1.2-1.1 1-5.3-1.7-.5-5.8 5.8.3zm-5.3 14.5l5.3-2 1.2 1 1 1.1-2 5.3-5.8.4.3-5.8zm10.2.6l4 4.4-2.3 5h-3.3l-2.3-5.2 4-4.2zm47.7 5.2l2.5-5.2h3l2.4 5-3.9 4.4-4-4.2zm-6.1-5.8l5.2-2 1 1 1.3 1.1-2 5.3-6 .4.4-5.8zm5.2-14.5l2.1 5-1 1.2-1.3 1-5.2-1.7-.5-5.8 5.9.3zm8.5-.6l-2.1 5.3h-3.4l-2.2-5 3.8-4.5 3.9 4.2zm6.3 5.5l-5 2.2-1.3-1-1.2-1.2 2-5.2 5.8-.5-.3 5.7zm.6 8.3l-5.2-2V252l4.9-2.5 3.8 3 11.4-10.1v-.2h.1l12.2 10.8 3.4-3 5.2 2.3v3.2l-5.2 2.2-4.2-3.6-11.5 10.7-11.4-10.7-3.5 3zm10.9-10l.3-.3-7 6.2.2.2-.1.1 6.8 6.7 3.8-3.8 3.9 3.8 7-6.8-6.7-6.1-4.2 4-4-4zm-16.3 16.4l-2.3-5 2.2-2.4 5.4 1.8.6 5.8-5.9-.2zm-2.4-9.6a2.6 2.6 0 01-5.3 0 2.6 2.6 0 015.3 0zm15.6-.6l2.7-2.3 2.2 2.3-2.2 2.4-2.7-2.4zm-40 2.4l-2.3-2.4 2.3-2.4 2.6 2.3-2.6 2.4zm51.8 0l-2.5-2.4 2.5-2.3 2.4 2.3-2.4 2.4zm42.8-8.5l-6.7 6h.2l6.9 7 3.8-3.9 3.9 3.8 7-6.8-8.1-7.3 1.3 1.2-4 4-4.3-4zm-7.3 6.8l-3.3 3.2-5.3-2-.2-1.6V252l5-2.5 3.7 3 11.6-10.3 12.2 10.7 3.2-3 5.3 2.4v3.2l-5 2.2-4.4-3.6-11.3 10.7-11.5-10.7zm4.4-.7l2.4-2.3 2.6 2.3-2.6 2.4-2.4-2.4zm-15.8.6c.4 2-1.6 3.6-3.5 3-1.2-.5-2-1.7-1.7-3a2.7 2.7 0 015.2 0zm2.5 9.7l-2.3-5 1.2-1.2 1-1.2 5.4 1.8.6 5.8-5.9-.2zm4.9-14.7l-5.3 2.2-2.3-2.2 1.8-5.2 5.9-.5-.1 5.7zm-6.4-5.5l-2.4 5.3h-3l-2.5-5 3.8-4.5 4 4.2zm-8.6.6l2.3 5-2.4 2.3-5.2-1.8-.5-5.8 5.8.3zm-5.3 14.5l5.2-2 1.3 1 1 1.1-2 5.3-5.8.4.3-5.8zm6.3 5.8l2.3-5.2h3.2l2.3 5-4 4.4-3.8-4.2zm33.9-8.6l-2.4-2.4 2.4-2.3 2.5 2.3-2.5 2.4zm47.2-4.6h-.1v-.1l-4-3.8.4-.5-7 6.4V253.5l6.7 6.7 3.9-3.6v-.2.2l3.8 3.6 7-6.8-6.6-6.1-4.1 3.8v.1zm-11.5 3l-3.3 3.1-5.4-2V252l4.9-2.5 3.7 3 11.5-10.1v-.2L256 253l3.3-3 5.3 2.3v3.2l-5 2.2-4.4-3.6-11.5 10.7-11.4-10.7zm4.4-.8l2.5-2.3 2.3 2.3-2.4 2.4-2.4-2.4zm-15.8.6a2.6 2.6 0 01-5.2 0 2.6 2.6 0 015.2 0zm2.5 9.7l-2.4-5 2.2-2.4 5.5 1.8.6 5.8-6-.2zm5-14.7l-5.3 2.2-1.2-1-1-1.2 1.7-5.2 5.9-.5-.1 5.7zm-6.5-5.5l-2.3 5.3h-3.2l-2.3-5 3.7-4.5 4 4.2zm-8.6.6l2.2 5-1 1.2-1.2 1-5.4-1.7-.4-5.8 5.8.3zm-5.3 14.5l5.3-2 1 1 1.4 1.1-2 5.3-6.2.4.5-5.8zm6.4 5.8l2.3-5.2h3l2.5 5-3.9 4.4-3.9-4.2zm33.9-8.6l-2.5-2.4 2.5-2.3 2.5 2.3-2.5 2.4zm47-4.6l-4-4-6.6 6.2h.1v.1l6.7 6.7 3.9-3.8v8.6l-11.5-10.7-3.4 3-5.2-2-.2-1.6V252l5-2.5 3.8 3 11.5-10.3v8.8zm-7 2.2l2.4-2.3 2.5 2.3-2.5 2.4-2.4-2.4zm-15.9.6a2.6 2.6 0 01-5.3 0 2.6 2.6 0 015.3 0zm2.6 9.7l-2.3-5 2.3-2.4 5.2 1.8.7 5.8-6-.2zm4.8-14.7l-5.1 2.2-2.4-2.2 1.8-5.2 6-.5-.3 5.7zm-6.3-5.5l-2.3 5.3h-3l-2.6-5 3.9-4.5 4 4.2zm-8.5.6l2.1 5-2.2 2.3-5.3-1.8-.5-5.8 6 .3zm-5.3 14.5l5.3-2 2.1 2.1-2 5.3-5.8.4.4-5.8zm6.2 5.8l2.4-5.2h3.2l2.1 5-3.8 4.4-3.9-4.2zM8.2 54.9l6.1 6.6v-.2l.2.3 6.8-6.8-4-3.8 4-3.9-6.9-6.8L8.1 47l4 4-4 4zm7.1 7.3l3.3 3.2-2.2 5.4h-3.2l-2.5-4.9 3-3.8L3.6 51h-.2v-.2L14.2 39l-3-3.3 2.3-5.2h3.3l2.3 5-3.8 4.3 11 11.2-11 11.2zm-.8-4.4l-2.3-2.4 2.4-2.3 2.4 2.3-2.4 2.4zm.5 21a2.7 2.7 0 110-5.3 2.6 2.6 0 010 5v.2zm9.9-7.9l-5.1 2.3-1.2-1-1-1.1 1.6-5.3 5.9-.7-.2 5.8zm-14.7-4.7l2 5-1 1.3-1 1-5.4-1.8-.5-5.8 5.9.3zm-5.6 6.3l5.2 2v3.3l-5 2.3L0 76.4l4.5-4zm.5 8.3l5.3-2 1 1 1.2 1-2 5.4-5.8.4.3-5.8zM19.8 86l-2.1-5.2 2.3-2.2 5.3 2 .4 5.7-5.9-.3zm5.8-6l-5.3-2.6v-3l5.3-2.3 4.3 3.8-4.3 4zm-8.7-33.6l-2.5 2.4-2.3-2.4 2.3-2.5 2.5 2.5zM25.6 29l-5.3-2.3v-3.2l5.3-2.1 4.3 3.8-4.3 3.8zm-5.9 6.1l-2-5.2 2.3-2.3 5.3 2.2.3 5.6-5.9-.3zM5 30l5-2.1 1.3 1.2 1.2 1-2 5.3-5.7.4L5 30zm-.6-8.4l5.3 2.3v3l-5 2.5-4.5-3.8 4-4zm5.7-6.2l2 5.2-1 1-1 1.3L4.8 21l-.5-5.8 5.9.2zm8.3-.6l-2 5.2-1.7.1h-1.5l-2.5-5 3-3.7L9 6.2l.7-.4 4.6 5 .2-.3.1.3 6.2-6-3-3.4S22.9-.3 26.4 0l-5 5.2-6.2 6.1 3 3.4zm6.5 5.5l-5.1 2.1-2.4-2.1 1.8-5.2 5.7-.6v5.8zm-7.2 5a2.6 2.6 0 01-5.3 0 2.6 2.6 0 015.3 0zm-3-22.7l2.2 2.1-2.5 2.5-2.3-2.5L13.6 3l1-.4zm179.6 216.3a1.8 1.8 0 01-3.6 0 1.9 1.9 0 013.7 0zm30.2-14.2c-1 1-2.8.5-3.1-.8-.2-.7 0-1.3.5-1.8 1-1 2.7-.5 3 .8.3.7 0 1.3-.4 1.8zm-5-.9a2.8 2.8 0 01-5.8 0 2.8 2.8 0 015.6 0zm-27.7 21c0 3-3.2 4.8-5.8 3.3a3.8 3.8 0 010-6.6c.8-.4 1.8-.6 2.8-.4.4-2.4 0-5-1-7.2-2.8-5.2-8.6-7.6-8.6-7.6s2.2 2.3 2.3 4c.3 2-2.9 1.1-.6 3.4 2.6 2.3 3.8 7.2 1.5 9.2-2.4 2-5-1.5-5-1.5s1.7 5-1 7.6c-2.7 2.7-8.6 0-9.7-4.6v-.4l-.2.4c-1 4.6-6.9 7.3-9.5 4.6-2.9-2.6-1-7.6-1-7.6s-2.8 3.5-5 1.5-1-6.9 1.3-9.2c2.3-2.3-.7-1.5-.6-3.3.3-2 2.4-4.1 2.4-4.1s-5.8 2.4-8.4 7.6c-1 2.2-1.4 4.7-1 7.2h.7c3 .2 4.6 3.4 3 5.9a3.9 3.9 0 01-6.7-.4 3.8 3.8 0 012.6-5.4c-1-3.3-1.8-8 .8-11.4 0 0-5.6 3.3-8.2 7.6-2.7 4.3-3.9 5.5-5.6 4.9-1.7-.6-.8-4.6-.8-4.6s-4 7.6-8 7.2c-3.8-.3-4.5-5.8-1.3-8.1 3-2.3 5-2 5-2s-4.7-1-2.2-3.7c2.3-2.4 6.8-3 9.7-2 3 1 0-1.2 2.4-2 2-.5 5.3 2 9.3-.5 3.9-2.6 14.6-6.7 17.2-19.4 2.6-12.5-1.6-22.9-11.8-21.6-10.2 1.3-11.6 7.1-8.9 12.2 2.7 4.5 7 1.8 7.4 0 0 0-2 1.8-3.8.4-1.7-1.5-1.8-4 0-5.8 1.8-1.8 8.1-.4 7.1 5.5-.9 6-9.8 6.6-13.4.3-3.4-6.2.1-13.6 9.6-15.7 9.3-2.1 19.8 5.2 17.2 23-2.2 18-8.7 18.3-6.4 20.8 2.4 2.3 4.2 1.8 3 3.6-.6 1.5-2.4 1.2-3 1 1.5.5 7.7 2.7 6.8 5.7-1 3.2-5 3.2-5 3.2s4.7 0 5.1 3c.7-3 5.3-3 5.3-3s-3.9 0-4.9-3.2c-1-3 5.4-5.2 6.8-5.6-.7 0-2.3.3-3-1-1-2 .7-1.3 3-3.7 2.3-2.5-4-2.8-6.5-20.8-2.3-17.8 8-25.1 17.3-23 9.6 2.1 13.2 9.5 9.6 15.7-3.5 6.3-12.7 5.8-13.5-.3-.7-6 5.3-7.3 7.1-5.5 2 1.8 2 4.3 0 5.8-1.6 1.4-3.5-.4-3.5-.4.3 1.8 4.5 4.5 7.3 0 2.6-5 1.2-10.9-8.8-12.2-10.2-1.3-14.6 9.1-12 21.6 2.7 12.7 13.7 16.8 17.3 19.4 3.8 2.6 7 0 9.4.6 2.1.7-.8 2.9 2.1 2 3-1.1 7.4-.5 9.8 2 2.5 2.5-2.2 3.6-2.2 3.6s1.9-.3 5.1 2c3 2.3 2.3 7.8-1.5 8-3.8.5-7.7-7.1-7.7-7.1s.7 4-1 4.6c-1.7.6-2.8-.6-5.5-5-2.7-4.2-8.1-7.5-8.1-7.5 2.5 3.3 1.7 8 .7 11.4a4 4 0 012.7 3.7zm29.8-7.7c-3.1 1.8-7-.4-7-4 0-.9.2-1.8.8-2.6a32.3 32.3 0 00-4.5-3c-9.1-5-18.9-1-30-8.9-11.2-8-10-21.5-10-21.2-.1 4.6 6.5 15.8 16.5 19.6 10.2 4 29.8-1.1 33-3 3.3-2 7.3-9 10.4-7.7 3 1.2 1.5 4.6 1.5 4.6s2.3-3.7 9.2-1.9c7 1.7 8.8 8.9 5 11.5-3.4 2.4-10.1-2.8-10.1-2.8s1.8 2.6-.6 4.3c-2.5 1.7-7.6-2.1-15.3-3.7-7.5-1.8-15.8 4.3-15.8 4.3 5.7 1.2 9.2 4.1 11.4 7l.8-.4c3.3-1.4 6.9 1.2 6.5 4.7a4.6 4.6 0 01-1.8 3.2zM185.8 194l.2.2-.2-.2zm.2.2c.7.1 7 1.2 9.6-3 2.8-4.6.2-4.3 1-7.2.5-3 4.2-1.1 4.2-1.1s-.3-2.6 2.8-6.6c3-3.8 9.7 1.9 9.6 4.6-.2 2.8-5.9 3.5-6.2 3.5 0 0 2 0 2.7 3.5.6 4-6 2.8-6 2.8s3.6 1.2 2.2 3.8c-1.2 2.4-3 0-9.7 1.5-5.7 1-9.3-1.2-10.2-1.8zM142.6 219a1.8 1.8 0 01-3.7 0 1.8 1.8 0 013.7 0zm-30.8-15.7a1.9 1.9 0 01-3.8 0 1.9 1.9 0 013.8 0zm8 .6a2.8 2.8 0 01-5.7 0 2.8 2.8 0 015.6 0zm-1.1 9.3c0 3.5-4 5.7-7.1 3.8-3-1.8-3-6.2.2-8 1.7-.9 3.9-.6 5.4.7 2.8-3.7 6.9-6.2 11.4-7 0 0-8.3-6.1-15.9-4.3-7.6 1.5-12.6 5.3-15 3.6-2.5-1.6-.6-4.2-.6-4.2s-6.8 5.2-10.4 2.7c-3.5-2.4-2-9.7 5-11.4 7.2-1.8 9.4 1.8 9.4 1.8s-1.6-3.3 1.6-4.6c3-1.2 6.9 5.7 10.3 7.7 3.3 2 22.8 7.1 32.8 3 10.2-3.8 16.8-15 16.6-19.5 0-.3 1.4 13.1-9.8 21.2-11.3 8-21 3.8-30.1 8.8-1.7.9-3.3 1.9-4.7 3 .6.8 1 1.6 1 2.7zm28.4-18.8h-.2l.3-.1v.1zm-10 1.9c-6.7-1.6-8.5.9-9.9-1.6-1.3-2.6 2.3-3.8 2.3-3.8s-6.4 1.2-5.8-2.7c.5-3.4 2.2-3.5 2.6-3.5-.8 0-6-1-6.3-3.5-.2-2.8 6.6-8.4 9.8-4.6 3 4 2.6 6.5 2.6 6.5s3.7-1.8 4.3 1.1c.8 3-1.8 2.6 1 7.2 2.2 4 8 3.3 9.1 3-.7.8-4 3-9.6 1.9zm5.5 95.7a1.8 1.8 0 01-3.7 0 1.8 1.8 0 013.7 0zm-33.8 14a2 2 0 013.5.7 2 2 0 01-.8 2.3 2 2 0 01-3.2-1.5c0-.6.2-1.1.5-1.5zm11 1a2.8 2.8 0 01-5.7 0 2.8 2.8 0 015.6 0zm29.4-21a3.8 3.8 0 01-4.6 3.9c-.4 2.4 0 4.9 1 7.1 2 3.4 5 6 8.5 7.7 0 0-2-2.2-2.4-4.2-.1-1.8 3-1 .6-3.3-2.3-2.3-3.5-7.2-1.2-9.2 2.1-2 4.8 1.6 4.8 1.6s-1.6-5 1-7.7c2.7-2.7 8.6 0 9.6 4.6v.5l.2-.5c1-4.6 7-7.3 9.8-4.6 2.6 2.6 1 7.7 1 7.7s2.5-3.5 4.9-1.6c2 2 1 6.9-1.5 9.2-2.3 2.3.9 1.5.6 3.3 0 2-2.3 4.2-2.3 4.2s5.8-2.5 8.4-7.7c1.3-2.3 1.5-5 1-7.1a3.9 3.9 0 111.3-7.1 3.8 3.8 0 01-.8 6.9c1 3.4 1.8 8-.7 11.4 0 0 5.4-3.3 8-7.6 2.8-4.2 4-5.5 5.7-4.9 1.8.7.9 4.6.9 4.6s4-7.6 7.7-7.1c3.8.3 4.7 5.7 1.5 8-3.3 2.3-5 2-5 2s4.6 1 2 3.7c-2.4 2.6-6.5 3-9.7 2-3-1 0 1.2-2.1 2-2.3.5-5.6-2-9.4.5-3.6 2.6-14.6 6.8-17.2 19.3-2.7 12.5 1.6 23 11.9 21.8 10.1-1.4 11.4-7.4 8.8-12.2-2.6-5-7-1.9-7.3 0 0 0 2-1.9 3.5-.5 2 1.5 2 4 0 5.8-1.8 1.8-7.8.5-7-5.5.7-6 9.9-6.7 13.4-.3 3.6 6.3 0 13.6-9.6 15.7-9.6 2.1-19.6-5.2-17.3-23 2.5-18 8.8-18.3 6.5-20.7-2.2-2.3-4-1.9-3-3.7.7-1.5 2.3-1.2 3-1-1.6-.5-7.8-2.7-6.8-5.7s4.3-3.2 4.9-3.2c-.6 0-4.6-.2-5.3-3-.4 3-5 3-5 3s3.8 0 5 3.2c1 3-5.5 5.2-6.9 5.6.6 0 2.4-.3 3 1.1 1.2 1.8-.6 1.4-3 3.7-2.3 2.4 4.2 2.7 6.5 20.7 2.5 17.8-8 25.1-17.2 23-9.6-2.1-13.1-9.4-9.7-15.7 3.6-6.4 12.7-5.8 13.4.3 1 6-5.3 7.3-7.1 5.5-1.8-1.8-1.7-4.3 0-5.8 1.7-1.4 3.8.5 3.8.5-.3-1.9-4.7-4.6-7.4 0-2.7 4.8-1.4 10.8 8.9 12.2 10.1 1.2 14.2-9.3 11.8-21.8-2.6-12.5-13.6-16.8-17.3-19.3-3.9-2.5-7 .2-9.1-.6-2.5-.7.7-2.9-2.5-2-3 1.1-7.4.5-9.7-2-2.5-2.5 2.2-3.6 2.2-3.6s-2 .3-5-2c-3.2-2.3-2.5-7.7 1.4-8 3.7-.5 7.9 7.1 7.9 7.1s-1-4 .8-4.6c1.7-.6 3 .7 5.6 5 2.2 3 5 5.5 8 7.5-2.4-3.3-1.7-8-.6-11.4a3.8 3.8 0 01-1.5-6.4 3.9 3.9 0 016.5 2.8zm-30.5 11.8c0 1-.2 1.8-.7 2.6 1.4 1.1 2.9 2.1 4.5 3 9.2 5 18.8 1 30.1 8.9 11.2 8 9.8 21.5 9.8 21.2.2-4.6-6.5-15.7-16.6-19.5-10-4.2-29.5 1-32.8 3-3.4 2-7.3 8.8-10.3 7.6-3-1.2-1.6-4.7-1.6-4.7s-2.2 3.7-9.3 2c-7-1.7-8.6-9-5-11.5 3.5-2.4 10.3 2.8 10.3 2.8s-1.9-2.6.6-4.3c2.4-1.7 7.4 2.2 15 3.7 7.6 1.8 16-4.3 16-4.3-4.6-.8-8.7-3.3-11.5-7-2.7 2.4-7 1-7.7-2.4a4.6 4.6 0 016-5.4c1.8.6 3.2 2.3 3.2 4.3zm28.4 18.9l-.2-.2h.3v.2zm-.2-.2c-1.2-.3-7-1-9.3 3.1-2.7 4.6-.1 4.3-1 7.2-.5 2.9-4.2 1-4.2 1s.4 2.6-2.6 6.4c-3 4-10-1.6-9.8-4.5.3-2.6 6.1-3.4 6.5-3.4-.3 0-2.2 0-2.8-3.5-.6-4 5.8-2.7 5.8-2.7s-3.6-1.3-2.3-3.9c1.4-2.4 3 0 10-1.5 5.6-1 9 1 9.7 1.8zm47.5-24.5a1.9 1.9 0 01-3.7 0 1.9 1.9 0 013.7 0zm31 15.7a1.9 1.9 0 01-3.7 0 1.9 1.9 0 013.7 0zm-6-.6a2.8 2.8 0 01-5.7 0 2.8 2.8 0 015.6 0zm4.5-9.3a4.7 4.7 0 01-7.8 3.5 18.6 18.6 0 01-11.4 7s8.3 6.1 16 4.3c7.5-1.5 12.6-5.4 15-3.7 2.5 1.7.7 4.3.7 4.3s6.7-5.2 10.1-2.8c3.8 2.6 2 9.8-5 11.5-7 1.7-9.2-2-9.2-2s1.4 3.5-1.5 4.7c-3 1.2-7.1-5.6-10.4-7.6-3.4-2-23-7.2-33-3-10 3.8-16.6 14.9-16.5 19.5 0 .3-1.2-13.1 10-21.2 11.1-8.1 20.9-3.8 30-8.9 1.6-.9 3.1-1.9 4.6-3-2-3-.1-7 3.5-7.2 2.7-.2 5 2 5 4.6zM186 316.5l-.2.2.2-.2zm10.2-1.8c6.7 1.5 8.5-.9 9.7 1.5 1.4 2.6-2.1 3.9-2.1 3.9s6.3-1.3 5.9 2.7c-.6 3.7-2.6 3.5-2.9 3.5.5 0 6.2.8 6.4 3.4.1 2.9-6.5 8.5-9.6 4.5-3-3.8-2.8-6.4-2.8-6.4s-3.7 1.9-4.3-1c-.7-3 2-2.6-1-7.2-2.6-4.3-8.8-3.2-9.5-3 1-.7 4.5-3 10.2-1.9zm24.4-239.3c-1-2.6-2.4-3.4-5.3-3-2.3.2-4.5-.4-6.4-1.6-.4-.2-1-1.2-1-2 0-1 .7-1.5 1.6-1.8 1-.3 2.2-.3 3.2-.3 1.1-.2 2.6 0 3.6-.5 1.7-.6 3-.1 4.6.8 1.9.9 4 2 6.2 1.5l.6.3-.3 1-1.7 1.7c2.4 1.3 5 .8 7.5.8l-.2 3 1.6-.6 3-1.2c1.1-.4 1.5-.1 1.1 1v.9c2.9.6 4-2.2 6.4-3-.1 2-1 4-2.3 5.4l1.5.6c-2.6 2.3-6 3.7-9.4 3.8l1 3c-4-.5-7.1-1.5-9.2-4.5l-.7 1.7c-2.2-2.2-4.2-4-5.4-7zM96 76.4h-.2.2zm0 0c2 .5 4.1.4 6-.4 1-.5 1.3-1 .5-1.9l-1-1.1 8.8-3.3h6c1.3-.3 2.6 0 3.8.6 1.5.9 1.5 2.4 0 3.5-1.8 1.3-4 1.9-6.3 1.8-1 0-2.2.5-3 .8-1.6.6-2 2.1-2.6 3.6-.8 2.5-2.8 4-4.6 6.1l-.5-1.8c-2 3-5.4 5-9.2 5.2l1-3c-3.5 0-6.9-.5-9.3-3 1-1.2 1-1.2-.3-2.7-.8-1-1-2-.8-3.5a6.7 6.7 0 004.7 2.6c1 .1 1.7.1 1.5-1.4l.3-1c2 1.2 3.7 2 5.9 2l-1-3zm41.5-1.8l-2 .6c-2.8 2-3.5 6.9-1.6 9.6 3.7 4.9 10.4 4.6 14 2.4 2.6-1.4 5-3.5 6.6-6 .1-.4.8-.5 1.3-.8 0 .6.6 1 .6 1.5 0 .3-.3 1-.6 1l-2.3 3.1a14.6 14.6 0 01-9.7 5.7c-6.1 1-12.2-2.2-14.3-8a8.4 8.4 0 01-.3-5.1c.7-2.5 2.2-4.8 4.2-6.4L135 71c3-1.4 5.5-.6 7.9.9 5 3 3.8 9-.3 11.3-2 1.2-3.8.7-6.4-1.4-1.5-1.2-1.6-2.7-.6-4.3l2-2.7v-.3zM179.2 85l2.6 1.5c4 1.8 8 1 11.7-1.2 1.8-1.1 3-2.6 3.3-4.6.4-3-.6-5.7-3-7.3-.8-.5-1.4-.8-2.3 0l.6.3c1.5 1.2 2.7 2.4 2.3 4.6-.5 2.4-2.4 3.3-4.6 4-1.9.5-3.4-.4-4.4-2l-1.2-1.4c-1-1.6-1-3.4 0-5 .8-1.3 2-2.5 3-3.6a5 5 0 014.8-1.5c2.5.5 4.9 1.2 6.5 3.5 1.3 2.4 2.7 4.6 2 7.6a9.8 9.8 0 01-3 5.8 13.8 13.8 0 01-7.5 4.6c-3 .3-6 .1-8.6-1a23.2 23.2 0 01-7.8-7.3c-1-1.3-.8-1.9.6-2.5l5 5.4zm-71 31.8h-.6l-1 1.9-1.3 1.5a4 4 0 01-1.6-1.7c-.6-1.5.2-3 .7-4.6l1.5-6c.1-.5-.3-1.9 1-2 1.1-.4 1.3 1 1.6 1.8 1.8 4.7 3.6 9.4 6.6 13.5.6.8 1.4 1.7 1.4 2.5-.4 1.5.6 2.4 1 3.5l1 3.2c.5 1.4.2 2.7-.7 4.1-1.3-1.2-2.5-.8-3.7.3l-1 .8c-.6.4-1.3.9-2 1-.8.5-1.3-.3-1.2-1 .2-1 .3-2 .2-3-.2-1.9-.3-1.9-2.2-1.9l-.2-2c-.3-3.2-.8-6.2.3-9.3.3-.7 0-1.7 0-2.4v-.2zm114.9-3.2h-.3v2.8c0 2 .4 3.8.4 5.8v3.5c0 .7.2 1.3-1 1.3l-.6.8c-.4 1.2-.7 2.6 0 3.8v1.5c-.6.2-1.4.3-1.7.2a9 9 0 01-3-1.8c-1-.8-1.7-1.3-2.7-.5-1 .6-1.4 0-1.5-.6-.6-1.8-.5-3.8.6-5.5.4-1 1.2-2 1.2-3 0-1.4.6-2.8 1.3-3.9l4-7.1 2.8-7.6c.2-.5.6-.7 1-1 .3.3.7.7.7 1 .2 2.7 1.4 5.1 2.5 7.6 1 2 .4 4.2-1 5.8l-2.7-3zm-.2-19.6c-.1-1.9-.6-3.2-.6-4.6.2-1.8.8-3.7 0-5.5-.3-.8.2-1 1-.8l2 1.1 1.5.5c1.3-.7 1.7.1 2 .9.6 1.6 1.3 3.5 1.6 5.2.3 2.9.3 5.9.3 9 0 2.7 0 5.6 1.3 8.2a5.8 5.8 0 003.3 3.3l3.7 1.6c-.6.3-1.2 1-1.8 1-1.6 0-3.5.2-4.7-.6a11.6 11.6 0 01-5-6.2l-2-6.4s0 .3-.4.3h-1.5c-.2-.2-.4-1-.2-1.4.2-1 .6-1.8 1-2.7l2-3.9-3.4 1.1V94zm29.1 9l1-.5 13.2-4.3c2-.6 4-.4 6 .2 2.5.7 4.6 2.3 6 4.2 1.8 2.3 3.6 5 2 8.4a9.6 9.6 0 01-4.8 5.2c-2.4 1-4.3 0-6.8-2.1-1.5-1.2-1.6-3-1-4.6l1.3-2.3c.6-1 1.5-.9 2.6-.6-.3.3-.7.6-.7 1-.4.5-.7 1.3-.5 1.8.3.7 1 .9 2 .7.6-.1 1.5.2 2 .5l1.6 1.5c.3 0 .7.3.9 0 1.4-.3 2.7-3 2.3-4.6-.5.5-1 1-1.5 1.2-1 .7-1.4-.3-2-.9l1.4-1.3c1-1.1 1-2.3.3-3a23.2 23.2 0 00-4.3-3.6c-.6-.3-1.5-.6-2.6 0 1 1 2.2 1.8 1.6 3.4-1.4-.5-2.6.3-3.8 1-2 1.2-3.5 1.2-5.1-.3-2-2-5-2.4-7.6-1.2l-2.4.5h-1v-.3zM61 113c2.2 1.4 3.4 4 1.5 6.4-.8 1-1.7 1.8-2.6 2.6-1.2 1-2.7 1.8-4.4 1-1.5-1-3-2-4-3.6-1-.9-1.6-2.4-1.6-4 0-1.5.8-3 1.5-4.5 1-2.4 3-4.3 5.3-5.4 1.7-.7 3.4-1.1 5.2-1.3 1 0 1.8-.2 2.5 0l12.9 3.6.9.5v.4l-2.5-.3c-1-.1-2-.4-3.1-.4-1.4-.3-3 .2-4 1.2s-2.3 1.7-3.6 2.1c-.6.2-1.6 0-2.5-.4-1.4-.6-2.4-1.9-4.1-1l-.3-.4 1.6-3.5c-2.4.2-4 1.5-5.5 3.4-1.7 2.4-1.7 3.2.6 5v.4c-.5.2-.8.8-1.2.8l-2.5-1c.3 1 .5 1.8 1 2.5.7 2 2 2.3 3.4.8.3-.3.5-.6 1-.8.7-.1 1.4-.4 2-.4.8.1 1.4.7 1.7-.2.6-.6.6-1.4 0-2.1l-1.2-1.5c1 .1 1.7-.2 2 .1zm42.7-16.6c.4 2.9 3.3 4.9 3.1 8l-2.6-.4v1.7c.2 4.3-1.9 7.3-4.7 10.4a7.3 7.3 0 01-4 2.1c-1.7.3-2.6-.2-3.2-1 3.7-.8 7.4-3.6 7.4-8.2v-7.4c-.2-3.4-.2-6.6.7-9.6.2-1 .7-1.9 1.1-2.8.2-.3.6-.6 1-.6l2.8-.6 1.8-1-.3 2.4c.5 2.3.5 4.7.3 7-.2 1-.6 1.4-1.4 1l-1.5-1.2-.5.2zm109.6-20.9c0 2.1 1 3 3 3.4 1.2.3 2.3.9 3.1 1.3.4.2.4 1 .4 1.3.1.6.1 1 .4 1.5.2.4.8.9 1 1.5V88c0 .3-.3.6-.5.6-1-.1-2 .3-3.2.3-.8 0-1.5-.6-2.3-1-.8-.5-1-.3-1.3.4v2h-.5l-.4-.3c-1.5-1.8-3.2-3.5-4.3-5.7-1.3-2-2.2-4.4-.8-7 1-2 3.3-3.8 5.5-2.7v1zm-97 17.5l-.6-2.6c-1 .7-1.9 1.6-2.7 1.6-1.2.3-2.4 0-3.8 0l-.4-.5c-.2-1.5-.5-3 .5-4.4 1-1.5 1-1.5.2-3 1-1.3 2.6-2 4.1-2 1.8-.2 2.9-1.6 2.5-3.4-.3-1.2 0-1.5 1.3-1.5a4.6 4.6 0 014.8 4.3c.3 4.8-2.4 8.3-5.4 11.5h-.5zm88.7 57c1.8-1.2 4-1.3 5.9.2 1 1 2 2.1 3 3.4 1 1.2 1.3 2.7 1.3 4.2-.3 4-2.7 6.6-5.7 8.7-.8.5-2 .6-2.9 1v-.5l1.7-1.7 1.5-1.8c1.7-1.9.7-3.4-1-4.6-.8-.3-1.6-1-2-1.5-1.4-1.5-1.4-2.2.1-3.7l.5-.4c-2.9-2.8-4 .6-6 1.8 0-2.3 1.6-4.3 3.6-5.2zm-79.3 19.9l-.5-.2c-2.7-.4-4.6-2.3-6.5-4a7.5 7.5 0 01-1.5-7.3c.6-2.1 1.9-4 3.7-5.3.7-.6 1.7-1 2.7-1.2 2.6-.5 4.5.6 6 2.6l1.2 2.7h-.3c-1-.9-1.8-1.8-2.8-2.4-1-.6-2.3-.3-3 1.2 1.6 1.2 1.8 1.7.7 3.5a14 14 0 01-2.8 2.6c-1.6 1.5-1.7 2.4-.1 4l3.4 3.3-.2.5zm68.8-7.8a13 13 0 01-2.9-13l.8-.9.5 1c-.2 1.9.3 3.8 1.5 5.3l1.6 2c.5.4.6 1 .5 1.3-.6 1.6.4 2 1.5 2.2.8.3 1.5 0 2.3 0 1.5-.5 2.7-.5 3.9.4.6.6 1.5 1 2.3 1 1 0 1.2.7 1 1.6-1 3.2-4.2 5.2-8 3.2-1.2-.6-2.3-1.7-3.3-2.6l-1.7-1.5zm-58.7-3.3l1.2-1.6c1.4-1.8 2.5-3.8 2.2-6l.4-1.4.6.9c1 3.8 1.1 7.9-1.2 11.4-1.4 2-3.2 3.8-5.3 5.2-3.3 2.7-5.4 2.4-8.1 0-1.1-1-1-2-1-3 1-.4 2-.4 2.5-1 1.6-1.2 3.4-1.8 5.4-1.2 1.7.5 2.6 0 3.6-1.5-1-.5-.9-1.2-.3-1.8zm76.4-35.1l-.3 1-1.2 2.3c-1 2-1.1 4.4-.3 6.4.5 1.4 0 3-.8 3.2-1.2.2-1.2 1-1.2 1.7l.3 2.3c.2.8 0 1-1 1s-2-.2-3-.8c-1.1-.5-1.7-1.1-2.3.4-1.7-1.4-2-3-1.4-4.6 1-3 2.7-5.8 5.1-7.9l4-4 1.7-1.3.4.3zm-85.6 19.7l-.3.1c-1 1-2 1-3.5.6l.6-1.2c.3-1-.1-3-.6-3.4-1.9-1-2.2-1.8-1.6-3.6 1-2.6.4-5.4-1.4-7.5l-1-1.7.2-.3 4.7 3.7c2.6 2.3 5 4.7 6.4 8 .7 1.9.4 3.6-.3 5.6-1.2-1.9-2.3-1-3-.3zm-54.5-28.1c1.3-2.4 3-4.6 5.6-5.5 2.6-1 5.6-1.7 8.4-2.6l2.7-.9-3.3.3c-4 .6-6.7-1-9.1-3.6-.7-.8-.7-1.7 0-3.1l1.5 1.8c.6 1 1.2 2 2 2.6 3 2 6.1 2 9.3.5 1-.5 2.3-.6 3.5-.8v.3c-1.8 2-4 3.4-6.5 4.4l-4 1.3c-2 .9-4.1 2.1-4.3 4.5-.3 1.7-1 3.2-1.8 4.6-.8.8-1.2 1.7-.4 3-3-.7-4.6-4.8-3.6-6.8zm54-48.2c-.7 1-1.8 1.7-2.7 2.6l-.8-.3c-.5-1.2-1.7-1.4-2.8-1.4l-8.1-.7c.4-.5.7-1 1.1-1 1.1-.8 2.4-1.5 3.7-2 .4-.4 1.2-.4 1.8-.4l5 .8 1.2-.3V64l-3.6-1.4 2-1c3-1 5.5-1 8 1.2.7.6.7 1.3 0 2-.5.8-3 1-3.7.2l-1.3-.7c.1 1.2.4 2.1.1 2.7zm127.8 30c-2 3.1-5.7 5.5-9.8 4.6l-3.4-.6v.3l1.8.8 7 1.5c2.8.6 5.5 2 7.5 4a5 5 0 01-.8 7.9l-2-4c-.5-.7-.7-1.6-1-2.6-.3-.7-.4-1.6-.9-2.2-1-1.4-3-1.9-4.4-2.3-2.6-.8-4.8-1.4-7.2-2.3a6 6 0 01-2.8-2.3l.3-.3 1.3.8c0-1.3.7-1 1.2-.7 1.3.8 2.5 1.1 3.9 1.1 3.4.2 6.6-1.8 8.1-4.9l.5-.9c1 .8 1.3 1.4.6 2.2zm-118.5 57.4c-.8-1.4-1.2-2.3-2-3-1.2-1.4-1.2-3.1-.7-5 .7-2.3.4-4.7-.8-6.8l-1.2-2.9.3-.3 2.4 2 3.9 5.6c1.7 2.8 1.4 5.3-.1 8l-1.8 2.2v.2zm65.3-20.1l-1.2 3.6a8.3 8.3 0 00-.6 5.8c1 3.4-.8 5.8-2.4 8.4-2.7-1.7-3.9-4.9-3-7.3 1.2-4.3 3.9-7.6 7-10.7l.2.2zM178.8 92l-.3.3c-1.8 1-4 1.3-5.9.7-1-.4-2-.4-3-.6l-.8-.4a5.2 5.2 0 01-1.3-7c.3-.5 1-1 1.6-1 1.5-.3 2 1.1 2.7 2 1.1 1.4 1.6 3.2 3.5 4.1l3.5 1.7v.2zm-20.6-5.7l.5-.6c.4-.9 1-1.7 2-1.4.7.2 1.7 1 2 1.7 1 1.9 0 5-1.4 6.4l-.5.3-5 1.1c-1.8.2-3.6-.2-5.2-1.2 3.4-.8 6.3-3.1 7.6-6.3zm3.2-15.8c1.8-1.9 4.4-2.3 6-.8 1.8 1.7 2.3 4.3.7 5.8-2 2.1-4.3 2.4-6.1.6-2-1.7-2-4.1-.6-5.6zm57 30c-.4-2-1.4-4-2-6l-1-2c-.2-1.4.4-2.2 2-1.9 2.8.5 5.5 4.3 4.9 7 0 .3-.3.8-.4.8-1 0-1 .4-1 1l-.8 4.5c0 .9-.8 1.5-1.5 1.8-.2-1.8.1-3.7-.2-5.2zm-108.8 4c-.1-1 .2-2.5-1.6-2.8v-.3c0-1.3-.3-2.9.2-4 1-1.7 2.6-3.1 4.5-3.8 1-.3 2.1.4 1.8 1.6a5 5 0 01-.7 2.4c-1.6 3.5-3 7-1.7 10.8-1.7-.9-2.3-2.2-2.5-4zM217 64l-8.1 1.5-1.5.3c-1.5 1.4-1.5 1.4-3 0l-.7-.8c-.6-.4-1.2-1.2-.6-1.8.3-.6 1-1 1.9-1l5-1.1c.9 0 1.8-.3 2.4 0 1.7.6 3.3 1.7 5 2.4l-.4.5zm-34.5 14.3l-.3-.1c-1.9-3.6-2-7 .2-10.6 3-4.5 7.9-7.6 13.5-8.2h1a5.4 5.4 0 01-3 3l-4.7 1.6c-5.3 2.4-8.7 7.1-6.5 13l.3 1.6-.4-.3zm-48.9-17a22 22 0 0112.1 5.7c3.3 3 3.3 8.1 2 11.2l-.5.9v-1.3c1-5.4-1.2-9.1-5.9-11.5-1.8-1.1-4.1-1.4-6.2-2.2a3 3 0 01-1.5-.6c-.6-.6-1-1.4-1.6-2.3h1.6zM89 96.4c0 1.9 1.4 3.2 2.8 2.6 1.5-.6 3-1.2 3.5-3l1.7-4.6c.3-.9.8-1.7 2.2-2-1 4.2-2.5 8.2-4.2 12.2-1.3-.1-2.2-.6-3-.3-1.8 1-3 .2-4.6-1.2-.8-.8-.6-1.5-.3-2.4l1.5-1.6.3.3zm144.2-9.7l.8 3c.7 2 2 3.7 4.1 4.6 1.3.6 2.4.3 3-1v-1.6c1.6.8 2.4 1.5 2.4 2.3-.2 1.8-3 3.7-4.7 2.9-1.2-.6-2.1-.6-2.6 1h-.5l-.7-1.1-3.6-10.3V86c1-.4 1.5-.1 1.8.8zM171 71.4l-2.3-3c-1-1-2.3-1.5-3.7-1.5a7 7 0 00-5.9 4.4c-.5.8-1 1-1.5.8-.4-.2-.5-1-.4-1.4.5-2 2-3.4 3.4-4.6 2-1.5 6-1.7 7.7-.5 2 1.6 4.1 3.1 4.5 6.1l-1.8-.3zm62.4-5.9c.3-1 1-2 1.9-2.6 1.8-1 3.6-.3 5.2.6 2.4 1.2 4.1 5.2 2.4 7.2v-.6c0-1.6-.5-2.8-1.6-4-.7-.5-1-.6-1.9 0-.5.3-1.2 1-1.8 1-1.4-.2-2.5.2-3 1.8-1.7-.8-1.5-2.3-1.2-3.4zM164.7 81c-3.7 0-8-3.7-7.7-6.6 1-.6 1.7.2 2.1 1.1 2 3.4 6.5 4.7 9.7 1.5l1.7-2.3c.4-.6.9-1.2 1.8-.9.1 3.2-4 7.2-7.6 7.2zM93 71.7c-1.2.2-2.4-.2-3.3-1-.2 0-1-.2-1.3 0-.8.7-1.7 1.5-1.6 3v1.5c-.6-.3-.7-.8-.9-1-1-2.2 2.2-6 4.2-6.6 2.3-1 4.1-.5 5.5 1.5 1 1.2 1 2.9-.3 3.7-.9-.5-1.7-1.3-2.3-1.1zM71.2 92.6c-1-1.5-1-2.8.5-4.3 1-.9 2.1-.9 3 0 1.4 1 1.7 2.1 1.4 3.7l-1 5.8-4-5.2zm183.6-.8l-1-5.5c-.3-1.3.3-2.6 1.4-3.6.3-.3 1.2-.6 1.8-.6 1.4.1 2.6 2.3 2 3.5l-3.5 6.4-.7-.2zM81.2 96.2v1.6c-.6 1.3-1.6 2-3 1.6-1.2-.3-1.8-1.2-1.5-2.7l.9-2.3c1.4-2.6 3-3.5 5-3l-1.4 4.8zm66.1-35.5c2.9 2.6 4.7 6 5.5 9.6.4 1.9.3 4 .3 6l-.3.9c-.2.3-.6.3-.8.3a.8.8 0 01-.4-.8v-.6c.1-3.6 0-7.3-2.3-10.3l-3.3-4c-.3-.5-.3-1.2-.5-1.8l1.8.4v.3zM65.8 97c2-1.6 6.8-.7 8.1 1.5.7.9.5 2.4 0 3-.8.5-2.4.5-3.1-.1L69 99.7l-3.6-2.5s0-.3.3-.3zm187.6-4.6c-.2 1-.6 1.7-1.7 1.8-1 .3-3-1.5-3-2.7 0-1.9 0-3.7-2-5.2 3.6-.3 7.4 2.9 6.7 6zm-47 32.6l-.7.6c-2 1-4 2-6 2.8-1.7.6-3.4 1.2-5 1.3-2.4.5-4-1-5.5-2.6-.8-.7-1-2.1 0-2.9.3-.4 1-.6 1.5-.4.5 0 1 .7 1 1 .1 2 .6 2.8 2.4 3.1 2.5.3 5 0 7.1-1l5.1-2v.1zm-76.3 4.1c2 .9 4.3 1 6.6.5 1.5-.5 2.6-1.5 2.8-3 .1-.5.4-.8 1-1 .2-.3.6 0 1 0 1 .8 1.3 2.1.7 3a6.2 6.2 0 01-4.6 2.8c-4.1-.2-8.2-1.4-11.7-3.5l4 1.2zm131.6-35.7a12 12 0 00-2.6 2.5c-.6.6-1.4.4-2 0-.7-.5-2-1-1.2-2.3a9.7 9.7 0 013-3 5 5 0 015.8.7l-3 2.1zm-147 22.6c-.3-.3 0-1 0-1.5.5.3 1 .3 1.3.7.8.7 1.3 1.4 1.9 2.2.7.9 1.8.6 2.3-.6l.4-1.1a2 2 0 011-.5c.8.5 1.9.8 1.9 2a4 4 0 01-2.3 3c-2 .8-3.2-.5-4.5-1.6-.7-.8-1.5-1.7-2-2.6zm105.1-9.4c-3.3 4-8.4 5.8-11.1 1 .4-.3 1-.3 1.4-.7 1-.8 2-.6 3-.2 2 1 4 1.4 6.1-.1h.6zm-104.9 4l2.5-1c1.7-.6 2.8-.5 4.1 1-1.6 2.7-2.6 3.1-5.6 2.7-2-.4-3.8-1.5-5-3 1.2.7 2.7.8 4 .4zm6.3 12.7c1.5.8 2.7 1.2 4.2 1.6 1.4.1 2-.4 2.2-1.9l1-1.5c.8.5 1.7 1 2 1.5.4.3.4 1.4 0 1.9-.5 1.2-3.2 2-4.7 1.8-3-1-5.6-3-7.7-5.2 1 .6 2 1.4 3 1.8zm92-5.3l-2.4 2.4c-1.5 1.7-3.6 3-5.7 3.8-2.3.7-4.7-.6-5-2.7 0-.8 1-2.3 1.8-2.3 1 0 1.3.6 1.5 1.5 0 1 1.2 2.2 1.8 2l4.4-2c1.3-.7 2.4-2 3.6-2.9v.2zm-11.5-54.7h-1.5l-1.5-.3c-.8-.2-1.4-.8-.8-1.4 1.1-1.5 2.6-2.6 4.7-2.3l4.3.8-5.2 3.2zm14.5 48.4c-.6 1.3-1.2 2.5-2.2 3.7-1.8 2.6-4.1 2.6-6.2.2-.6-1-.3-2 .6-2.5.9-.6 1.5-.3 2 .8.4 1.5 1.2 1.8 2.4.7l1.2-1.2 1.8-1.8.4.1zm-25.7-28.2c-2.1 2.2-10.4.5-11.9-3.6.6-.8 1.2-.8 1.8 0a9.5 9.5 0 008.2 3.3l2 .2v.1zm-39.6-2.7c-2.1 4.7-9 6-11.6 4.1l2.4-.1c2.8-.4 5.4-1.6 7.5-3.7l1.5-.8.2.5zM167.3 97c-1 1-2.6 1.3-3.4.6-1.2-1.3-1.4-2.2-.3-3.4 1.2-1.2 1.5-1.2 2.7-.1 1.1 1 1.6 2.2 1 2.9zm45.7-3.4l2 3.8c.8 2 .5 3.5-1.5 4.6-.4.3-1.2.3-1.5 0-.4-.3-1-1-1-1.5-.1-.3 1-1 1.3-1 1-.3 1.7-.9 1.5-2l-.9-3.9h.2zm-96.3 5.3c-.6 2.3-.5 2.8 1.8 3.5 1.1.3 1.4 1.1.6 1.9-.4.4-1.5 1-2 .7-.7-.4-2-1.2-2-2 0-2 .4-4 2-5.3l-.4 1.2zM209 87.5v-.2l1 2 1 2.2c1.1 1.5 0 2.7-1 3.3-.6.3-1.6.2-2.2-.1-1-1.1.6-1.6 1-1.6 1.4-.4 1.5-1.3 1.2-2.4l-1.2-3.2h.2zm-97.7-7c-1.1-1-1.1-1.7 0-2.6.6-.8 1.8-.6 2.6 0 .6.8.7 1.7 0 2.4-1 .8-1.9 1-2.6 0v.2zm107-5.9c.6.6 1 1.7.6 2.1-.6 1-2.5 1-3 .3-.8-.7-.7-1.5 0-2.1 1-1 1.8-1.2 2.4-.3zm-98 17v.8c-.5 2-.2 2.5 1.6 3.4.3.1.7.9.7.9-.3.5-.8 1-1.3 1-1.2.4-3-1.6-2.4-3l1.2-3h.2zm5.6-2c-1 1.8-1.3 1.8-2.5.7-.8-.6-1-1.2-.8-2.1l.7-3.4c.4 1.8-.2 4.1 2.5 4.9zm80.2-7.5v.1-.1zm0 .1h.5c.2 1.5.6 3.2.6 4.7 0 .5-.6 1.1-1 1.6-.8.3-1.5.1-2-1 3-.9 2-3.2 1.8-5.3zm20 347.2l.7 1.5c2-3 5.2-4 9.2-4.4l-1 2.9a15 15 0 019.4 3.8l-1.5.6a9.3 9.3 0 012.3 5.3c-2.3-.7-3.5-3.5-6.5-2.7l.1.6c.4 1.2 0 1.5-1.2 1l-3-1.2-1.5-.4.2 2.9c-2.5 0-5-.5-7.5.7l1.7 2 .3.8-.6.3c-2.3-.3-4.3.6-6 1.7-1.7.9-3.1 1.2-4.8.6-1-.5-2.5-.3-3.6-.3l-3.2-.5c-1-.1-1.6-1-1.6-1.8 0-.6.6-1.7 1-2 1.9-1.2 4.1-1.7 6.4-1.5 3 .3 4.2-.5 5.3-3 1-3.1 3-5 5.4-7zm-130.3 6h.2-.2zm1-3.1c-2 0-4 .6-5.8 1.8l-.3-1c.2-1.3-.4-1.4-1.5-1.3-2 .3-3.6 1-4.7 2.6a4 4 0 01.8-3.5c1.2-1.5 1.2-1.5.3-2.8 2.5-2.4 5.8-3 9.3-3l-1-3c3.8.4 7.1 2.3 9.2 5.3 0-.6.3-1 .5-1.7 1.8 2 3.8 3.5 4.6 6.1.4 1.2 1 2.8 2.5 3.5 1 .3 2 .8 3 .8 2.3-.1 4.6.5 6.4 1.8 1.5 1 1.5 2.6 0 3.5-1.2.6-2.5.8-3.8.6h-6.1l-8.7-3.2 1-1.4c.8-1 .6-1.3-.5-1.8-2-.7-4-1-6-.3l1-3zm40.7 4.4l-2-2.6c-1-1.5-.9-3.2.6-4.6 2.6-2 4.3-2.3 6.4-1.2 4 2.4 5.3 8.2.3 11.4a7.8 7.8 0 01-7.9 1 13.7 13.7 0 01-5.7-7.7c-.6-1.8-.5-3.5.3-5.2 2-5.8 8-9.1 14.3-8a15 15 0 019.7 5.9l2.3 2.8.6 1.2c0 .6-.5.9-.6 1.5l-1.3-.8c-1.6-2.5-4-4.6-6.7-6-3.5-2.2-10.1-2.5-13.9 2.5-1.9 2.8-1.2 7.5 1.5 9.5l2 .6v-.3zm36.8-4.6c-1.4-.8-1.6-1.4-.6-2.6 2-2.6 4.3-5.5 7.7-7 2.7-1.4 5.6-1.5 8.6-1 3 .2 5.4 2.2 7.5 4.5 1.6 1.6 2.7 3.6 3 5.8.7 2.9-.7 5.2-2 7.5-1.6 2.3-4 3.2-6.5 3.6a6 6 0 01-4.7-1.5c-1-1.2-2.3-2.4-3-3.6a4.1 4.1 0 010-5l1.1-1.6c1-1.5 2.5-2.4 4.4-1.8 2.2.6 4.1 1.5 4.6 4 .4 2-.8 3.4-2.3 4.5l-.6.5c1 .6 1.5.3 2.1 0a7.2 7.2 0 003-7.4 6 6 0 00-3-4.5c-3.8-2.5-7.8-3-11.8-1.4l-2.6 1.5-4.9 5.5zM108 394.8c0-1 .3-2 0-2.6-1-3-.6-6.1-.3-9.3l.2-2c1.9 0 2 0 2.2-1.8 0-1 0-2-.2-3.1-.1-.8.4-1.4 1-1l2.2 1 1 1c1.2.8 2.4 1.3 3.7 0 1 1.4 1.2 2.8.8 4.3l-1 3c-.5 1.3-1.5 2.2-1.1 3.6 0 .8-.8 1.8-1.4 2.6a50 50 0 00-6.6 13.4c-.3.8-.5 2.1-1.7 1.8-1.2-.1-.8-1.3-1-2.1l-1.4-6c-.5-1.5-1.3-3-.7-4.5.4-.6 1-1 1.6-1.5l1.3 1.3 1 1.9h.4zm117.7.3c1.5 1.3 2 3.8 1 5.6-1 2.4-2.2 4.9-2.4 7.6 0 .3-.4.6-.7 1l-1-.8c-1-2.6-1.7-5.2-2.8-7.6-1.2-2.6-2.6-5-4-7.4a7.5 7.5 0 01-1.3-3.8c0-1-.8-2.1-1.2-3a6.2 6.2 0 01-.6-5.5c.1-.6.6-1.2 1.5-.6 1 .7 1.8.3 2.7-.5l3-1.8c.3-.2 1.1 0 1.7.3v1.2c-.7 1.5-.4 2.8 0 4l.7.7c1 0 1 .7 1 1.6v3.5l-.5 5.6v2.8h.3l2.6-3zm-2.8 22.5l3.4 1c-.6-1.3-1.4-2.5-1.8-4-.5-.8-1-1.7-1.1-2.6-.2-.5 0-1 .2-1.2.4-.3 1 0 1.5 0h.4l2-6.1a11 11 0 015-6.4c1.2-.8 3-.6 4.7-.6.6 0 1.2.7 1.8 1.2l-3.7 1.5a4.8 4.8 0 00-3.3 3.2c-1.2 2.6-1.2 5.5-1.3 8.2 0 3 0 6-.3 9-.3 1.7-1 3.5-1.6 5.2-.3.8-.7 1.5-2 1-.4 0-1 0-1.4.4l-2.2 1c-.7.4-1.2 0-1-.7.9-1.8.3-3.7 0-5.3 0-1.6.6-3 .7-4.8zm29.1-9.3h1l2.5.5a7 7 0 007.7-1.2c1.5-1.6 3-1.6 5-.3 1.2.7 2.4 1.5 3.8 1 .6 1.6-.6 2.3-1.6 3.4 1.1.7 2 .4 2.6 0 1.7-1 3-2.2 4.3-3.4.7-1 .7-2.1-.4-3l-1.2-1.5c.5-.7 1-1.4 1.9-1l1.5 1.3c.4-1.6-1-4.2-2.3-4.6-.2-.2-.6 0-1 .1-.4.5-.8 1-1.4 1.4-.6.3-1.5.6-2 .5-1 0-1.8 0-2.1.7-.2.5 0 1.2.5 1.9 0 .3.4.6.7.9-1 .3-2 .4-2.6-.6l-1.2-2.3c-.7-1.7-.6-3.2 1-4.6 2.4-2.1 4.3-3 6.7-2 2.3 1 3.8 2.8 4.8 5 1.6 3.4-.2 6.1-2 8.6-1.5 2-3.6 3.4-6 4-2 .7-4 .9-6 .3L253 409l-1-.5v-.3zM59 399l1.2-1.5c.6-1 .6-1.6 0-2.3-.3-.8-1-.2-1.5-.2-.8 0-1.5-.3-2.2-.4-.5 0-.7-.5-1-.8-1.5-1.5-2.7-1.2-3.5.8-.4.7-.6 1.5-1 2.5 1-.4 1.8-1 2.6-1 .4 0 .7.6 1.2.7v.5c-2.3 1.8-2.3 2.6-.6 5a7 7 0 005.5 3.4l-1.6-3.5.3-.3c1.7.7 2.7-.5 4-1.1 1-.5 2-.6 2.6-.3 1.3.4 2.5 1 3.5 2a5 5 0 004.1 1.4l3-.7 2.6-.1v.3l-1 .5-12.8 3.6a5 5 0 01-2.5 0c-1.8-.2-3.6-.7-5.2-1.4-2.4-1-4.3-3-5.3-5.3-.7-1.5-1.5-3-1.5-4.6 0-1.3.6-3 1.5-4 1.1-1.4 2.5-2.6 4.1-3.4 1.7-.8 3-.2 4.4.9 1 .7 1.8 1.5 2.6 2.6 1.9 2.4.7 5-1.5 6.4-.3.3-1 .1-2 .3zm45.2 16.6l1.5-1c.8-.5 1.3-.2 1.4.7.2 2.4.2 4.7-.3 7.2l.3 2-1.8-.8-2.8-.6c-.4 0-.8-.3-1-.6a25.7 25.7 0 01-1.8-12.2v-7.7c0-4.5-3.7-7.3-7.4-8.2.6-.8 1.5-1.2 3-1 1.6.5 3 1 4.2 2.4 2.8 2.9 4.9 6 4.7 10.2v1.7c1 0 1.7-.3 2.6-.5.1 3.4-2.7 5.2-3 8l.4.4zM213.4 437c-2.2 1.2-4.5-.8-5.5-2.8-1.4-2.4-.5-4.8.8-7 1-2 2.8-3.8 4.3-5.6l.4-.3h.5v2c.2.7.5.9 1.3.4.8-.4 1.5-1 2.3-1 1 0 2.1.4 3.2.3l.5.6v3.6c-.2.5-.8 1-1 1.6-.3.3-.3.9-.4 1.3 0 .3 0 1-.3 1.2-1 .5-2 1.3-3 1.4-2.3.3-3.2 1.2-3.2 3.4l.1.9zm-96.6-18.3c3 3 5.7 6.7 5.5 11.4 0 2.6-2.4 4.6-5 4.4-1.2 0-1.5-.4-1.2-1.5.4-2-.7-3.3-2.5-3.5-1.5 0-3-.7-4.1-2 .9-1.5.9-1.5-.2-3-1-1.4-.7-3-.5-4.4l.4-.5c1.4 0 2.6-.3 3.8 0 .8.2 1.5 1 2.7 1.5l.6-2.6h.5v.2zm84.5-62.2c2 1.2 3.2 4.6 6.1 2l-.5-.6c-1.5-1.6-1.5-2-.3-3.7.7-.6 1.4-1.1 2.3-1.5 1.6-1.2 2.6-2.8.9-4.6-.6-.5-1-1.2-1.5-1.8l-1.8-1.5.1-.7c1 .3 2 .5 2.9 1 3 2 5.4 4.7 5.7 8.8 0 1.5-.1 3-1.3 4.1l-3 3.4c-2 1.5-4 1.3-5.9.3-2.2-1-3.7-3-3.7-5.2zM126 342.3l-3.3 3.2c-1.6 1.5-1.5 2.6 0 4a9 9 0 012.9 2.7c1 1.5 1 2.2-.8 3.4.8 1.5 2 1.8 3 1.2 1.1-.5 2-1.5 2.9-2.4h.3l-1 2.7c-1.7 2-3.6 3-6.2 2.6-1-.2-1.9-.6-2.7-1a11 11 0 01-3.7-5.6 7.5 7.5 0 011.5-7.1c2-1.9 3.8-3.7 6.5-4.1h.5l.2.4zm70.4 5.7c1-1 2.1-2 3.3-2.6 3.8-2 7 0 8.1 3.3.1.8 0 1.4-1 1.5-.9 0-1.8.3-2.4 1-1.2.9-2.4.9-3.9.6-.8-.3-1.5-.5-2.3-.2-1 .2-2.1.6-1.5 2.1 0 .5 0 1.1-.5 1.6l-1.6 1.8a7.5 7.5 0 00-1.5 5.3l-.5 1c-.3-.4-.6-.5-.8-1-1.2-4.7-.6-9.1 3-12.8l1.6-1.5v-.1zm-60.1 3.2c-1-1.6-1.9-2.2-3.6-1.7-2 .6-3.8 0-5.4-1.2-.6-.5-1.6-.7-2.5-1 0-1-.1-2 1-3 2.7-2.4 4.8-2.8 8.1 0a22 22 0 015.3 5.3c2.3 3.5 2.1 7.3 1.2 11.3 0 .3-.3.5-.6 1l-.4-1.3c.3-2.4-.8-4.3-2.2-6l-1.2-1.6c-.5-.8-.7-1.5.3-1.8zm75.7 37l-1.6-1.4c-1.5-1.2-2.8-2.7-4-4-2.4-2.1-4.1-4.8-5.2-7.7-.7-1.8-.3-3.4 1.4-4.6.6 1.5 1.2.8 2.3.3 1-.6 2-.7 3-1 1 0 1 .6 1 1.3l-.3 2.2c0 .7 0 1.5 1.2 1.6.8.2 1.3 1.9.8 3.2-1 2.3-.6 4.3.3 6.4.3 1 .8 1.6 1.2 2.3l.3 1-.4.4zM130 368c.7 1.8 1 3.5.3 5.3-1.4 3.2-3.6 6-6.4 8l-4.7 3.8-.3-.4 1.1-1.6c1.8-2.1 2.3-5 1.4-7.5-.6-1.8-.3-2.6 1.6-3.7.5-.3 1-2.4.6-3.3l-.6-1.2c1.5-.3 2.4-.3 3.5.6l.3.3c1 .6 2 1.5 3-.3zm-54 21.3c-.9 1.2-.5 2.2.3 3 1 1.4 1.5 2.8 1.8 4.5.3 2.4 2.1 3.7 4.3 4.6l4.1 1.2c2.4 1 4.6 2.6 6.4 4.6-1.2 0-2.4 0-3.5-.5-3-1.5-6.1-1.7-9.3.5-.8.7-1.5 1.5-2 2.4l-1.5 1.8c-.7-1.3-.7-2.3 0-3 2.4-2.6 5.1-4.3 9.1-3.7l3.3.3-2.7-1-8.4-2.3a12.3 12.3 0 01-5.6-5.5c-1-2.2.7-6.1 3.6-7zm50.1 57.8l1.3-1c.8-.7 3-.5 3.8.4.6.6.6 1.4 0 2-2.6 2-5 2.3-8.1 1l-2-1 3.6-1.2v-.3c-.5 0-.8-.4-1.2-.2-1.7 0-3.5.5-5.1.6l-1.8-.1-3.6-2-1.2-1.2 8.2-.8c1 0 2.3-.2 2.8-1.4l.8-.3c1 1 2 1.5 2.6 2.6.3.6 0 1.5 0 2.9zm127.3-30.8l-.6-1a8.2 8.2 0 00-8.1-4.6c-1.3 0-2.5 0-3.8.9-.5.3-1.2.6-1.2-.6l-1.3.7-.3-.3c.6-.9 1.6-1.8 2.8-2.3 2.4-1 4.6-1.5 7.2-2.2 1.5-.5 3.3-.8 4.4-2.3.5-.6.6-1.6 1-2.3l.8-2.6 2-4c3 1.9 3.1 5.7.9 8-2 2-4.7 3.3-7.4 4l-7.1 1.4-1.8.8v.3l3.4-.6c4-.8 7.8 1.5 9.7 4.6.7.7.6 1.3-.6 2zM135.6 357l1.7 2.3c1.5 2.6 1.8 5.2 0 8l-3.8 5.6-2.4 2-.3-.2 1.2-3a8.9 8.9 0 00.8-7c-.5-1.8-.5-3.3.7-4.8.8-.8 1.2-1.7 2-3v.1zm65 20c-3.1-2.9-5.8-6.3-7.2-10.4a7 7 0 013-7.5c1.8 2.6 3.7 5 2.6 8.4-.6 2 0 4 .6 5.8l1.2 3.7h-.3zm-21.7 42.5l-3.5 1.7c-1.9.9-2.4 2.7-3.5 4.3-.7.9-1.2 2-2.7 1.8-.6 0-1.3-.5-1.6-1-1.6-2-.8-5.4 1.3-7l.7-.4c1 0 2.2-.2 3-.5a7 7 0 016 .8l.3.3zm-28.2-1c2-1 3.5-1.1 5.3-.8 1.6 0 3.2.6 5 .9l.4.3c1.6 1.5 2.5 4.6 1.6 6.4-.5.8-1.5 1.5-2.2 1.7-1 .3-1.6-.5-2-1.4l-.5-.6a10.8 10.8 0 00-7.6-6.3v-.1zm11.4 16.7c1.8-1.7 4-1.5 6 .6 1.7 1.5 1.2 4-.7 5.8-1.5 1.5-4.1 1-5.9-.7-1.5-1.6-1.4-4 .6-5.7zm56.6-29.6c.7.3 1.5 1 1.5 1.9l.8 4.5c0 .5 0 1 1 1 0 0 .4.4.4.7.6 3-2 6.6-5 7-1.5.3-2.1-.4-1.8-1.8.2-.8.6-1.5 1-2.1.5-2 1.5-3.8 2-6 .2-1.5 0-3.3 0-5.2zM112.1 403c-1.1 4 .2 7.5 1.8 11 .4.7.7 1.5.7 2.3.3 1.2-.7 1.8-1.8 1.5-2-.7-3.5-2-4.5-3.8-.5-1.1-.2-2.6-.3-4l.1-.3c1.8-.3 1.5-1.5 1.6-2.7a5 5 0 012.5-4zm105.4 44.8a34 34 0 01-5 2.5c-.6.3-1.5 0-2.3 0l-5-1c-1-.3-1.7-.6-2-1.2-.6-.6 0-1.4.6-1.8l.6-.8c1.6-1.3 1.6-1.2 3.1 0l1.5.5 8 1.4.5.4zm-34.4-15l-.3 1.4c-2.2 6 1.2 10.7 6.5 13.2l4.6 1.5c1.5.6 2.5 1.5 3 3h-1a18 18 0 01-13.4-8.2c-2.4-3.5-2-7-.2-10.4 0-.1 0-.3.3-.3l.5-.3zM132 450c.7-1 1-1.7 1.6-2.3.3-.3 1-.4 1.5-.6 2-.8 4.4-1 6.2-2.1 4.7-2.5 7-6.1 6-11.6v-1l.3.7c1.4 3 1.4 8.2-2 11-3.4 3-7.2 5.4-12 5.9H132zm-43.5-35l-1.5-1.4c-.3-1-.5-1.7.3-2.5 1.5-1.3 2.8-2.1 4.7-1.2.7.3 1.6 0 3-.3a75 75 0 014 12.2c-1.3-.3-1.8-1-2-2l-1.8-4.6c-.6-1.8-2-2.4-3.5-3-1.4-.5-2.9 1-2.9 2.6l-.3.3zm142.8 10.5v-.7l3.6-10.2.7-1.3h.5c.5 1.6 1.4 1.6 2.6 1 1.5-.7 4.5 1 4.7 3 0 .8-.8 1.6-2.4 2.2v-1.4c-.6-1.5-1.7-1.8-3-1.2-2 1-3.6 2.7-4 4.7l-.9 3c-.3.9-.8 1.2-1.8.9zm-58.6 14c-.4 3-2.5 4.6-4.5 6-1.8 1.5-5.6 1-7.7-.4a8.8 8.8 0 01-3.4-4.6c-.1-.4 0-1.2.4-1.2.4-.3 1 0 1.5.6a7 7 0 005.9 4.5c1.4 0 2.7-.5 3.7-1.6l2.3-3c.3-.2 1-.2 1.8-.3zm61.9 3c.4 1.4 1.5 1.9 2.9 1.9.6 0 1.3.4 1.8.9.8.4 1.2.3 1.9-.3a5 5 0 001.6-3.8v-.7c1.6 2 0 6-2.4 7.2-1.6 1-3.4 1.8-5.2.6a4.6 4.6 0 01-1.9-2.6c-.3-1-.5-2.6 1.3-3.2zm-62.3-5c-1 .3-1.4-.2-1.8-1l-1.7-2.2c-3-3.2-7.7-1.8-9.7 1.7-.4.7-1 1.5-2.1.9-.2-3 4-6.6 7.7-6.6 3.5 0 7.7 4.2 7.6 7.2zm-77 1c1.5.8 1.3 2.5.3 3.7-1.4 2-3.2 2.5-5.5 1.7-2-.6-5.1-4.6-4.1-6.6 0-.4.2-1 .7-1.2l.1 1.6c0 1.5.8 2.2 1.6 3 .3.2 1 .2 1.3 0 1-1 2-1.2 3.3-1 .6 0 1.4-.7 2.3-1.1zm-20.3-25l1 6c.4 1.5 0 2.6-1.3 3.7-.9.7-2 .9-3 0-1.5-2-1.5-3-.5-4.5l3.8-5.1zm180.5 5.9l3.5 6.4c.6 1.3-.6 3.3-2 3.5-.6 0-1.5-.2-1.8-.6-1-1.1-1.7-2.2-1.4-3.6l1-5.6.7-.1zm-172.8.7c-2.2.3-3.7-.6-5.1-3-.5-1-.8-1.6-1-2.5-.2-1.5.4-2.4 1.6-2.7 1.4-.3 2.4.4 3 1.7v1.5l1.5 5zm64.6 30.8l-1.8.6c.2-.7.2-1.5.5-2l3.3-4c2.3-3 2.4-6.5 2.3-10.1v-.8c0-.3.1-.6.4-.8.2 0 .6 0 .8.3l.3 1c0 2 .1 4-.3 6-.8 3.6-2.6 7-5.5 9.5v.3zM65.5 414l3.6-2.4 1.7-1.5c.7-.7 2.3-.7 3 0 .6.4.8 2 .2 3-1.4 2-6.2 3-8.2 1.5-.3-.1-.3-.4-.3-.4v-.2zm181.2 11.2h.2l-.2.2v-.1zm1.9-5.1c0-1.3 2-3 3.1-2.8 1 .2 1.5.8 1.7 1.9.7 3.3-3 6.2-6.5 6 1.8-1.5 1.8-3.2 1.8-5.1zm-42.3-33.4l-5-2.2c-2.4-.9-4.7-1.2-7.2-.9-1.8.5-2.3 1-2.5 3 0 .5-.4 1-1 1.3-.3 0-1.1-.3-1.4-.6-1-.8-.8-2.1 0-3 1.5-1.4 3-3 5.5-2.5 1.6.2 3.3.8 4.8 1.4 2.3.7 4.2 1.8 6.2 2.7l.6.6v.2zm-80.4-3a22 22 0 0111.7-3.4c2 0 3.4 1 4.6 2.6.6 1 .4 2.3-.8 3-.3.2-.7.3-1 .2-.5-.2-.8-.6-1-1.1 0-1.5-1.2-2.4-2.7-2.9-2.2-.6-4.5-.5-6.6.3-1.5.6-2.9.8-4.2 1.2zm138.8 36.5a5 5 0 01-5.7.8 9.2 9.2 0 01-3-3c-.8-1.3.4-1.7 1-2.4.7-.4 1.5-.6 2.1 0a10 10 0 002.6 2.5c.9.8 1.9 1.5 3 2zm-148-27.2c1.4-1 2.6-2.3 4.6-1.5 1.2.5 2 1.5 2.3 2.9 0 1.2-1.1 1.5-1.8 2a2 2 0 01-1-.5l-.5-1c-.5-1.3-1.6-1.6-2.3-.5-.6.6-1 1.5-2 2.1l-1.2.6c0-.4-.3-1 0-1.5.5-1 1.3-1.7 2-2.6zm102.6 12c-2-1.5-4-1.1-6 0-1.2.4-2.1.5-3.1-.2l-1.5-.8c2.8-4.7 7.9-2.9 11.2 1h-.6zM111 401.6c1.2-1.6 3-2.7 5-3 3-.7 4 0 5.6 2.5-1.3 1.4-2.4 1.5-4 1l-2.6-1a4.2 4.2 0 00-4 .5zm7.3-11.3c2-2.5 4.7-4.3 7.7-5.2 1.5-.5 4.2.5 4.8 1.7.3.6.3 1.5 0 1.8-.4.6-1.3 1-2.2 1.5 0 0-.8-1-1-1.5-.2-1.4-.7-2-2-1.8-1.6.3-2.8.9-4.3 1.5-1 .5-2 1.2-3 2zm94.8 3.5l-3.6-3c-1.5-.7-3-1.3-4.4-1.7-.6-.3-1.8.9-1.8 1.8-.2 1-.5 1.5-1.5 1.5-.8 0-2-1.5-1.8-2.3.3-2.1 2.7-3.3 5-2.6 2 .7 4 2 5.7 3.7l2.4 2.6zm-6.3 58l-4.3.7c-2 0-3.6-1-4.7-2.5-.6-.6 0-1.2.8-1.3l1.5-.3h1.5l5.2 3.3zm8.9-51.6c-.6-.8-1-1.5-1.8-2l-1.2-1.2c-1.2-1-2-.8-2.5.8-.4 1.2-1 1.5-2 .9-.8-.6-1-1.9-.5-2.6 2-2.5 4.4-2.5 6.2 0 1 1.4 1.6 2.6 2.2 3.8l-.4.3zm-25.3 28c-.7 0-1.5.4-2 .2-3.4-.3-6 1-8 3.4-.7.7-1.3.9-1.9 0 1.5-4.2 9.7-5.8 11.9-3.6zm-39.8 3.1l-1.5-.8c-2-2-4.6-3.3-7.5-3.6l-2.4-.2c2.6-2 9.5-.6 11.6 4.3l-.2.3zm15.6-13.7c-1.2 1-1.5 1-2.7-.2-1-1.2-1-2 .3-3.3.8-.6 2.4-.5 3.4.6.6.6.1 2-1 2.9zm46.7.4l.8-3.8c.2-1.2-.4-1.8-1.5-2.1-.4 0-1.3-.6-1.2-1 0-.4.5-1.1 1-1.5h1.4c2 1.3 2.3 2.6 1.5 4.6L213 418h-.2zm-96-4a6.5 6.5 0 01-1.9-5.3c0-1 1.3-1.6 2-2.1.5-.2 1.6.3 2.1.8.7.7.4 1.5-.7 1.8-2.3.8-2.4 1.2-1.8 3.6l.3 1zm91.8 10.1l1.2-3c.3-1.2.2-2-1-2.5-.6-.3-2-.6-1.2-1.5.6-.4 1.6-.6 2.2-.3 1 .6 2 2 1 3.5l-2 4-.2-.2zm-97.5 7.2c.7-.8 1.6-.8 2.6 0 .7.8.6 1.7 0 2.4-.8.8-2 .8-2.6 0-1.1-.9-1.1-1.5 0-2.4zm104.6 5.3c-.6-.6-.7-1.3 0-2.1.6-.8 2.5-.8 3 .3.4.5 0 1.5-.5 2-.6 1-1.3.9-2.5-.2zM120 419.9l-1.2-3c-.5-1.5 1.2-3.4 2.4-3.1l1.3 1s-.3.8-.7 1c-1.8.9-2 1.3-1.6 3.3v.8h-.2zm3 7l-.5-3.5c-.3-1 0-1.6.8-2.2 1.2-1 1.5-1 2.5.8-2.8.6-2.2 2.9-2.6 4.9zm83 2.4v.2-.2zm-2-5.2c.6-1.2 1.3-1.5 2.1-1 .4.4 1 1 1 1.6 0 1.6-.4 3-.6 4.6h-.6c.2-2.1 1.2-4.6-1.8-5.2z"/></svg>
