<svg viewBox="0 0 325 512" xmlns="http://www.w3.org/2000/svg"><path fill="#606FA0" d="M324.9 486.2c0 14-11.3 25.6-25.2 25.6H25.3c-14 0-25.3-11.5-25.3-25.6V25.8A25.4 25.4 0 0125.2 0h274.5A25.5 25.5 0 01325 25.7l-.1 460.5z"/><path fill="#5BC4CC" d="M40.6 490.7l-4.2 4v-9l12.2 10.9 3.2-3 5.2 2.2v3l-5 2.4-4.3-3.5-11.1 10.6v-.7l-.2.1v-8l4 4 6.9-7-8.7-8 2 2zm.4 8.5l-2.3-2.4 2.3-2.5 2.5 2.5-2.5 2.4zm42.4-8.5l1.2-1.4-7.8 7.3.2.2-.2.1 6.6 6.6 4-3.9 4 3.9 6.6-6.7-8-7.7 1.5 1.6-4.1 4-4-4zm-7.3 6.8l-3.4 3.2-5.2-2.1v-3l5-2.5 3.6 3 11.3-10.3v-.2h.1l11.9 11 3.4-3 5.1 2.2v3l-5.1 2.4-4.2-3.5-11.2 10.6L76 497.7zm4.4-.7l2.3-2.5 2.4 2.5-2.4 2.4-2.3-2.4zm-15.6.4a2.6 2.6 0 11-5.1 0 2.6 2.6 0 015.1 0zm2.5 10l-2.3-5.3 1-1 1.1-1.3 5.4 1.9.6 5.6h-5.8zm4.7-14.9l-5 2.3-1.2-1.2-1.3-1 2-5.3 5.8-.6-.3 5.8zm-6.2-5.5l-2.2 5.2h-3.2l-2.3-4.9 3.7-4.5 4 4.2zm-8.4.5l2.1 5.2-1 1.2-1.3 1-5.2-1.8-.4-5.8 5.8.2zm-5.2 14.6l5.2-2 1 1.1 1.3 1-2 5.3-5.8.4.3-5.8zm6 5.7l2.5-5h3l2.4 5-3.8 4.4-4-4.4zm33.6-8.4l-2.4-2.4 2.4-2.5 2.5 2.5-2.5 2.4zm42.4-8.5l2.5-2.5-9.2 8.6h.2l6.5 6.7 4-3.9 4 3.9 6.7-6.7-8-7.5 1.2 1.4-4 4-3.9-4zm-7.3 6.8l-3.4 3.2-5.3-2.1v-3l5-2.5 3.5 3 11.3-10.3v-.2h.2l11.9 11 3.3-3 5.2 2.2v3l-5 2.4-4.3-3.5-11.1 10.6-11.3-10.6zm4.3-.7l2.4-2.5 2.4 2.5-2.4 2.4-2.4-2.4zm-15.6.4a2.6 2.6 0 11-5.2 0 2.6 2.6 0 015.2 0zm2.5 10l-2.3-5.3 1.2-1 1-1.3 5.2 1.9.7 5.6h-5.8zm4.8-14.9l-5.1 2.3-1.1-1.2-1.2-1 1.8-5.3 5.8-.6-.2 5.8zm-6.2-5.5l-2.3 5.2h-3l-2.5-4.9 3.8-4.5 4 4.2zm-8.4.5l2.1 5.2-2.3 2.3-5.1-1.9-.5-5.8 5.8.2zm-5.3 14.6l5.1-2 1.3 1.1 1 1-2 5.3-5.7.4.3-5.8zm6 5.7l2.3-5h3.4l2.1 5-3.8 4.4-4-4.4zm33.6-8.4l-2.3-2.4 2.3-2.5 2.4 2.5-2.4 2.4zm42.4-8.5l1.2-1.4-7.8 7.3.2.2-.2.1 6.6 6.6 4-3.9 4 3.9 6.6-6.7-8-7.7 1.5 1.6-4.1 4-4-4zm-7.3 6.8l-3.2 3.2-5.4-2.1v-3l5-2.5 3.6 3 11.3-10.3v-.2h.1l11.9 11 3.3-3 5.2 2.2v3l-5 2.4-4.3-3.5-11.3 10.6-11.2-10.6zm4.4-.7l2.4-2.5 2.3 2.5-2.3 2.4-2.4-2.4zm-15.6.4a2.6 2.6 0 11-5.1 0 2.6 2.6 0 015.1 0zm2.5 10l-2.3-5.3 1-1 1.1-1.3 5.4 1.9.6 5.6H169zm4.9-14.9l-5.2 2.3-2.3-2.3 1.8-5.2 5.7-.6v5.8zm-6.4-5.5l-2.2 5.2h-3.2l-2.3-4.9 3.7-4.5 4 4.2zm-8.4.5l2.1 5.2-1 1.2-1.1 1-5.4-1.8-.4-5.8 5.8.2zm-5.2 14.6l5.2-2 1 1.1 1.3 1-2 5.3-5.8.4.3-5.8zm6 5.7l2.5-5h3l2.4 5-3.9 4.4-4-4.4zm33.6-8.4l-2.4-2.4 2.4-2.5 2.5 2.5-2.5 2.4zm42.3-8.5l1.5-1.6-8 7.7h.2l-.1.1 6.5 6.6 4-3.9 4 3.9 6.6-6.7-6.5-6.1-4.1 4-4.1-4zm-7.2 7l-3.4 3-5.1-2.1-.2-1.5v-1.6l5-2.4 3.7 2.9 11.1-10.2v-.2h.2l11.9 11 3.3-3 5.2 2.2v3l-4.9 2.4-4.4-3.5-11.1 10.6-11.3-10.6zm4.3-1l2.4-2.4 2.4 2.5-2.4 2.4-2.4-2.4zm-15.6.5a2.6 2.6 0 11-5.2 0 2.6 2.6 0 015.2 0zm2.4 10l-2-5.3 1-1 1-1.3 5.2 1.9.8 5.6h-6zm5-14.9l-5.3 2.3-1-1.2-1.2-1 1.8-5.3 5.8-.6-.2 5.8zm-6.3-5.5l-2.3 5.2h-3l-2.5-4.9 3.8-4.5 4 4.2zm-8.4.5l2.1 5.2-2.3 2.3-5.1-1.9-.5-5.8 5.8.2zm-5.2 14.6l5.2-2 2.1 2.2-2 5.2-5.8.4.5-5.8zm6.1 5.7l2.3-5h3.2l2.1 5-3.8 4.4-3.8-4.4zm33.5-8.4l-2.4-2.4 2.4-2.5 2.3 2.5-2.3 2.4zm46.4-4.6l-4.1-4 2-2-8.6 8 .2.2-.2.1 6.7 6.7 4-4v8.1l-.2-.1v.7l-11-10.6-3.4 3-5.4-2.1v-3l4.9-2.5 3.7 3 11.4-10.5v9zm-7 2.2l2.4-2.5 2.3 2.5-2.3 2.4-2.4-2.4zm-15.6.4a2.6 2.6 0 11-5.2 0 2.6 2.6 0 015.2 0zm2.5 10l-2.3-5.3 1-1 1.1-1.3 5.4 1.9.6 5.6h-5.8zm4.8-14.9l-5.1 2.3-2.3-2.3 1.8-5.2 5.8-.6-.2 5.8zm-6.4-5.5l-2 5.2h-3.3l-2.3-4.9 3.8-4.5 3.8 4.2zm-8.3.5l2 5.2-1 1.2-1 1-5.4-1.8-.4-5.8 5.8.2zm-5.2 14.6l5.2-2 1.2 1.1 1 1-2 5.3-5.7.4.3-5.8zm6.2 5.7l2.3-5h3l2.3 5-3.8 4.4-3.8-4.4zm41.6-2.8l4 4h-8.8l10.8-12.2-2.9-3.2 2.3-5.2h3l2.3 5.2-3.6 4.1 6.7 6.9-.8.6-6.7-6.9-7 7.6.7-.9zm8.6-.6l-2.3 2.5-2.4-2.5 2.2-2.4 2.5 2.4zm-8.6-42.2l6.1 6.4v-.2l.2.3 6.7-6.7-3.8-4 3.8-3.7-6.7-6.9-6.1 6.7 3.8 4-4 4zm7 7.2l3.3 3.3-2.2 5.3h-3.2l-2.4-5 2.9-3.6-10-11.2h-.2v-.1l10.8-12-2.9-3.3 2.3-5.2h3l2.3 5-3.6 4.3 10.8 11.2-10.8 11.3zm-.9-4.3l-2.2-2.4 2.4-2.5 2.3 2.4-2.5 2.5zm3.2 18.1a2.6 2.6 0 11-5.1 0 2.6 2.6 0 015.1 0zm7.2-5l-5 2.3-1.2-1-1.1-1.3 1.7-5.2 5.8-.6-.2 5.8zm-14.6-4.9l2.1 5.2-1 1-1.1 1.3-5.2-1.8-.6-6 5.8.3zm-5.5 6.4l5.2 2.2v3l-5 2.4-4.5-3.6 4.3-4zm.4 8.3l5.2-2.2 1.1 1.2 1.2 1.1-2 5.2-5.8.5.3-5.8zM315 493l-2.2-5.2 2.3-2.3 5.2 2 .5 5.8-5.8-.3zm5.6-6.3l-5-2.2v-3.2l5-2.2 4.3 3.8-4.3 3.8zm-8.5-33.3l-2.3 2.2-2.4-2.2 2.2-2.5 2.5 2.5zm-8.6-42.4l6.1 6.5v-.1l.2.3 6.7-6.9-3.8-3.8 3.8-4-6.7-6.7-6.1 6.6 3.8 4.1-4 4zm7 7.1l3.3 3.4-2.2 5.3h-3.2L306 422l3-3.6-10.2-11.3h-.1v-.1l11-12-3.1-3.3 2.3-5.2h3l2.3 5-3.8 4.5 11 11.1-11 11.1zm-.9-4.2l-2.2-2.5 2.4-2.3 2.3 2.3-2.5 2.5zm3.2 18.1a2.6 2.6 0 11-5.1 0 2.6 2.6 0 015.1 0zm7.2-5l-5 2.3-1.2-1.1-1.1-1 1.7-5.4 5.8-.6-.2 5.8zm-14.6-4.9l2.1 5.2-1 1.2-1.1 1-5.2-1.8-.6-5.8 5.8.2zm-5.5 6.4l5.2 2.1v3.2l-5 2.3-4.5-3.6 4.3-4zm.4 8.4l5.2-2.1 1.1 1 1.2 1-2 5.4-5.8.5.3-5.8zm14.7 5.2l-2.2-5.2 1.3-1 1-1.3 5.2 2 .5 5.8-5.8-.3zm5.6-6.1l-5-2.5v-3l5-2.3 4.3 3.8-4.3 4zm-8.5-33.6l-2.3 2.5-2.4-2.5 2.2-2.4 2.5 2.4zm-8.6-42.2l6.1 6.4v-.1l.2.3 6.7-6.8-3.8-4 3.8-3.7-6.7-6.9-6.1 6.7 3.8 4-4 4.1zm7 7.2l3.3 3.3-2.2 5.2-1.6.2h-1.6l-2.4-5 2.9-3.7-10-11.2h-.2v-.1l10.8-12-2.9-3.3 2.3-5.1h3l2.3 4.8-3.6 4.5 10.8 11-10.8 11.4zm-.9-4.5l-2.2-2.2 2.4-2.5 2.3 2.5-2.5 2.2zm3.4 18.3a2.6 2.6 0 11-5.2 0 2.6 2.6 0 015.2 0zm7-5l-5 2.1-1.2-1-1.1-1 1.7-5.3 5.8-.6-.2 5.8zm-14.6-4.9l2.1 5.2-1 1-1.1 1.3-5.2-1.8-.6-5.8 5.8.1zm-5.5 6.3l5.2 2.3v3l-5 2.5-4.5-3.9 4.3-4zm.4 8.4l5.2-2.2 1.1 1.3 1.2 1-2 5.2-5.8.6.3-6zm14.7 5.2l-2.2-5.2 1.3-1.1 1-1 5.2 2 .5 5.7-5.8-.4zm5.6-6.1l-5-2.3v-3.2l5-2.2 4.3 3.8-4.3 3.9zm-8.5-33.6l-2.3 2.5-2.4-2.5 2.2-2.3 2.5 2.3zm-4.6-46.3v.1h-.1l-3.9 4 6.1 6.5v-.1l.2.1 6.7-6.7-3.7-3.8h-.1v-.1h.1l3.7-3.8-6.7-6.8-6.1 6.6 3.7 4h.1zm3 11.2l3.3 3.4-2.2 5.3h-3.2l-2.4-4.8 3-3.7-10.2-11.3h-.1v-.1l10.8-12-2.9-3.3 2.3-5.2h3l2.3 5-3.6 4.3 10.8 11.3-11 11.1zm-.9-4.2l-2.2-2.5 2.4-2.2 2.3 2.2-2.5 2.5zm3.2 18.1a2.6 2.6 0 11-5.1 0 2.6 2.6 0 015.1 0zm7.2-5l-5 2.3-1.2-1-1.1-1.2 1.7-5.3 5.8-.6-.2 5.8zm-14.6-4.9l2.1 5.2-1 1.2-1.1 1-5.2-1.7-.6-5.8 5.8.1zm-5.5 6.4l5.2 2.1v3.3l-5 2.2-4.5-3.6 4.3-4zm.4 8.4l5.2-2.1 1.1 1 1.2 1.1-2 5.3-5.8.5.3-5.8zm14.7 5.2l-2.2-5.2 2.3-2.3 5.2 2 .5 5.8-5.8-.3zm5.6-6.3l-5-2.3v-3l5-2.3 4.3 3.8-4.3 3.8zm-8.5-33.4l-2.3 2.5-2.4-2.5 2.2-2.4 2.5 2.4zm-4.6-46.3l-4 4.1 6.1 6.4v-.1l.4.3 6.5-6.7-3.8-4h8.7l-11 11.3 3.4 3.3-2.2 5.2-1.6.2h-1.6l-2.4-5 3-3.7-10.3-11.5 10.8-12.2-2.9-3.2 2.3-5.1h3l2.3 5.1-3.6 4.2 10.8 11.2h-8.7l3.8-4-6.7-6.6-6.1 6.5 3.8 4.1h-7.8v.2h7.8zm2.1 7l-2.2-2.4 2.4-2.5 2.3 2.5-2.5 2.4zm3.2 18.2a2.6 2.6 0 11-5.1 0 2.6 2.6 0 015.1 0zm7.2-5.2l-5 2.3-1.2-1.1-1.1-1 1.7-5.3 5.8-.7-.2 5.8zm-14.6-4.8l2.1 5-2.1 2.5-5.2-1.8-.6-5.8 5.8.1zm-5.5 6.3l5.2 2.3v3l-5 2.5-4.5-3.8 4.3-4zm.4 8.4l5.2-2.2 1.1 1.3 1.2 1-2 5.2-5.8.5.3-5.8zm14.7 5.2l-2.2-5.2 1.3-1 1-1.3 5.2 2.1.5 5.7-5.8-.3zm5.6-6.1l-5-2.3V278l5-2.2 4.3 3.9-4.3 3.8zm-8.5-33.7l-2.3 2.4-2.4-2.4 2.2-2.5 2.5 2.5zm-8.6-42.3l6.3 6.6 6.7-6.7-3.8-4 3.8-3.8-6.7-6.9-6.1 6.8 3.8 4-4 4zm7 7.2l3.3 3.4-2.2 5.3h-3.2l-2.4-5 3-3.5-10.2-11.3h-.1v-.2l11-12-3.1-3.2 2.3-5.2h3l2.3 5-3.8 4.3 11 11.1-11 11.3zm-.9-4.3l-2.2-2.4 2.4-2.4 2.3 2.4-2.5 2.4zm3.2 18.2a2.6 2.6 0 11-5.1 0 2.6 2.6 0 015.1 0zm7.2-5l-5 2.2-1.2-1-1.1-1.3 1.7-5.1 5.8-.6-.2 5.7zm-14.6-5l2.1 5.3-1 1-1.1 1.2-5.2-1.8-.6-5.8 5.8.2zm-5.5 6.5l5.2 2.1v3l-5 2.5-4.5-3.8 4.3-3.8zm.4 8.2l5.2-2 1.1 1 1.2 1.2-2 5.1-5.8.5.3-5.8zm14.7 5.3l-2.2-5.1 2.3-2.3 5.2 2 .5 5.7-5.8-.3zm5.6-6.2l-5-2.3v-3.2l5-2.1 4.3 3.8-4.3 3.8zm-8.5-33.4l-2.3 2.3-2.4-2.3 2.2-2.4 2.5 2.4zm-8.6-42.4l-.7-.7 6.8 7.3v-.2l.2.2 6.7-6.7-3.8-3.8 3.8-4-6.7-6.7-6.1 6.5 3.8 4.2-4 4zm7 7.3l3.3 3.2-2.2 5.4h-3.2l-2.4-5 2.9-3.6-10.2-11.2 10.8-12.2-2.9-3 2.3-5.4h3l2.3 5.2-3.6 4 10.8 11.4-10.8 11.2zm-.9-4.4l-2.2-2.4 2.4-2.3 2.3 2.3-2.5 2.4zm3.2 18.2a2.6 2.6 0 11-5.1 0 2.6 2.6 0 015.1 0zm7.2-5l-5 2.2-1.2-1-1.1-1.1 1.7-5.4 5.8-.6-.2 5.8zm-14.6-4.8l2.1 5-1 1.2-1.1 1.1-5.2-1.8-.6-5.8 5.8.3zm-5.5 6.2l5.2 2.2v3.2l-5 2.3-4.5-3.7 4.3-4zm.4 8.4l5.2-2.1 1.1 1 1.2 1.1-2 5.4-5.8.4.3-5.8zm14.7 5.2l-2.2-5.2 1.3-1 1-1.3 5.2 2 .5 5.8-5.8-.3zm5.6-6l-5-2.5v-3l5-2.4 4.3 3.9-4.3 4zm-8.5-33.6l-2.3 2.4-2.4-2.4 2.2-2.5 2.5 2.5zm-8.6-42.3l6.1 6.5v-.2l.2.3 6.7-6.7-3.8-4h-.2l4-4-6.7-6.6-6.1 6.7 4 4h-.2l-4 4zm7 7.2l3.3 3.4-2.2 5.1-1.6.2h-1.6l-2.4-5 2.9-3.7-10-11.1h-.2v-.2l11-11.9-3.1-3.3 2.3-5.2h3l2.3 5-3.5 4.3 10.7 11.1-10.8 11.3zm-.9-4.3l-2.2-2.4 2.4-2.4 2.3 2.4-2.5 2.4zm3.2 18.2a2.6 2.6 0 11-5.1 0 2.6 2.6 0 015.1 0zm7.2-5l-5 2.2-2.3-2.2 1.7-5.2 5.8-.6-.2 5.8zm-14.6-5l2.1 5.3-1 1-1.1 1.2-5.2-1.8-.6-5.8 5.8.2zm-5.5 6.3l5.2 2.3v3l-5 2.5-4.5-3.8 4.3-4zm.4 8.4l5.2-2.1 1.1 1.2 1.2 1-2 5.2-5.8.5.3-5.8zM315 137l-2.2-5.1 2.3-2.3 5.2 2 .5 5.8-5.8-.4zm5.6-6.2l-5-2.3v-3.2l5-2.1 4.3 3.6-4.3 4zm-8.4-33.4l-2.4 2.3-2.4-2.3 2.4-2.4 2.4 2.4zM307.7 51l-4.2 4 6.1 6.5.2-.2.2.2 6.5-6.6-4-4h.2l3.8-3.9-6.7-6.7-6.1 6.5 3.8 4.2h.2zm3 11.2l3 3.2-2 5.4h-3.1l-2.5-4.9 3-3.7L298.9 51h-.1v-.2L309.5 39l-2.9-3.3 2.3-5.2h3l2.3 5-3.6 4.3L321.4 51l-10.7 11.2zm-.9-4.4l-2.4-2.4 2.4-2.3 2.4 2.3-2.4 2.4zm.5 21a2.6 2.6 0 010-5.3 2.6 2.6 0 010 5v.2zm9.9-7.9l-5.2 2.3-1-1-1.3-1.1 1.8-5.3 5.7-.7V71zm-14.8-4.7l2.1 5-1 1.3-1.1 1-5.2-1.8-.6-5.8 5.8.3zm-5.5 6.3l5.2 2v3.3l-5 2.3-4.3-3.7 4-4zm.4 8.3l5.2-2 1.2 1 1.1 1-2 5.4-5.6.4.1-5.8zM315 86l-2.2-5.2 1.3-1 1-1.2 5.2 2 .5 5.7-5.8-.3zm5.6-6l-5-2.5v-3l5-2.3L325 76l-4.4 4zm-8.5-33.6l-2.3 2.4-2.4-2.4 2.2-2.5 2.5 2.5zM307.2 1l-3 3.5 5.4 6v-.2l.2.3 5.2-5.3.6.6-5 5.3 3.2 3.4-2.2 5.2-1.6.1h-1.6l-2.4-5 2.9-3.7L298.7 0s4.5-.3 8.5 1.1zm2.4 6l-2.2-2.5 2.4-2.4 2.3 2.4-2.5 2.5zm3.2 18.1a2.6 2.6 0 11-5.1 0 2.6 2.6 0 015.1 0zm7.2-5l-5 2.1-1.2-1-1.1-1.1 1.7-5.2 5.8-.6-.2 5.8zm-14.6-5l2.1 5.3-1 1-1.1 1.3-5.2-1.9-.6-5.8 5.8.2zm-5.5 6.3l5.2 2.3v3l-5 2.5-4.5-3.8 4.3-4zm.4 8.4l5.2-2.1 1.1 1.2 1.2 1-2 5.3-5.8.4.3-5.8zm14.7 5.2l-2.2-5.2 1.3-1 1-1.3 5.2 2.2.5 5.6-5.8-.3zm5.6-6l-5-2.4v-3.2l5-2.1 4.3 3.8-4.3 3.8zM17.1 508.7l4-3.8-7-7-6.3 6.8-.5-.6 6.7-7.6-2.9-3.2 2.2-5.2h3.2l2.3 5.2-3.7 4.1 10.8 11.3h-8.8zm-.5-4.6l-2.4 2.5-2.3-2.5 2.3-2.4 2.4 2.4zm-8.5-42.4l6 6.6v-.2l.2.2 6.6-6.7-3.8-3.8 4-3.8-7-6.9-6 6.7 4 4-4 4zm7 7.4l3 3.3-2 5.3H13l-2.5-5 3-3.6L3.3 458h-.2v-.1l10.8-12-2.9-3.3 2.2-5.2h3.2l2.3 5-3.7 4.3L25.9 458l-10.8 11.3zm-1-4.3l-2.2-2.4 2.3-2.5 2.4 2.4-2.4 2.5zm3.3 18.1a2.6 2.6 0 11-5.2 0 2.6 2.6 0 015.2 0zm7.1-5l-5 2.3-1.2-1-1.2-1.3 1.8-5.2 5.6-.6v5.8zM10 473.1l2.1 5.2-1 1-1 1.3-5.4-1.8-.5-6 5.8.3zm-5.6 6.4l5.3 2.2v3l-5 2.4-4.4-3.6 4-4zm.6 8.3l5-2.2 1.2 1.2 1.2 1.1-2 5.2-5.6.5.2-5.8zm14.5 5.3l-2-5.2 1-1.2 1.3-1 5.2 2 .3 5.7-5.8-.3zm5.8-6.3l-5.2-2.2v-3.2l5.2-2.2 4.2 3.8-4.2 3.8zm-8.6-33.3l-2.4 2.2-2.3-2.2 2.3-2.5 2.4 2.5zM8 411l6.1 6.5.2-.1.1.1L21 411l-4-3.8 4-3.8-6.8-6.9-6.1 6.7 4 4-4.2 4zm7 7.3l3.2 3.2-2 5.3H13l-2.5-4.9 3-3.6L3.5 407h-.2v-.1l11-12-3-3.3 2-5.2h3.3l2.3 5-3.9 4.5L26 407l-11 11.3zm-.7-4.4l-2.3-2.5 2.3-2.3 2.4 2.3-2.4 2.5zm3.2 18.1a2.6 2.6 0 11-5.2 0 2.6 2.6 0 015.2 0zm7.1-5l-5 2.3-2.4-2.2 1.8-5.3 5.6-.6v5.8zM10 422.2l2.1 5.2-1 1.2-1 1-5.4-1.8L4 422l5.8.2zm-5.6 6.4l5.3 2.1v3.2l-5 2.3-4.4-3.6 4-4zm.6 8.4l5-2.1 2.4 2-2 5.4-5.6.5.2-5.8zm14.5 5.2l-2-5.2 2.3-2.3 5.2 2 .3 5.8-5.8-.3zm5.8-6.1l-5.2-2.5v-3l5.2-2.3 4.2 3.8-4.2 4zm-8.6-33.6l-2.4 2.5-2.3-2.5 2.3-2.4 2.4 2.4zm-8.5-42.4l6 6.6v-.1l.2.1 6.6-6.6-3.8-4 4-3.7-7-6.9-6 6.7 4 4-4 4zm7 7.4l3 3.3-2 5.2-1.6.2H13l-2.5-5 3-3.7-10.1-11.2h-.2v-.1l10.8-12-2.9-3.3 2.2-5.1h3.2l2.3 4.8-3.7 4.5 10.8 11-10.8 11.4zm-1-4.5l-2.2-2.2 2.3-2.5 2.4 2.5-2.4 2.2zm3.3 18.3a2.6 2.6 0 11-5.2 0 2.6 2.6 0 015.2 0zm7.1-5l-5 2.1-2.4-2 1.8-5.3 5.6-.6v5.8zM10 371.4l2.1 5.2-1 1-1 1.3-5.4-1.8-.5-5.8 5.8.1zm-5.6 6.3l5.3 2.3v3l-5 2.5-4.4-3.9 4-4zm.6 8.4l5-2.2 1.2 1.3 1.2 1-2 5.2-5.6.6.2-6zm14.5 5.2l-2-5.2 1-1.1 1.3-1 5.2 2 .3 5.7-5.8-.4zm5.8-6.1l-5.2-2.3v-3.2l5.2-2.2 4.2 3.8-4.2 3.9zm-8.6-33.6l-2.4 2.5-2.3-2.5 2.3-2.3 2.4 2.3zM12 305.3v.1H12l-4 4 6.1 6.5.2-.1.1.1 6.7-6.7-3.8-3.8h-.1v-.1h.1l3.7-3.7-6.7-6.9-6.1 6.8 3.8 3.8h.1zm3 11.4l3.1 3.2-2 5.3H13l-2.5-4.8 3-3.7-10.1-11.3h-.2v-.1l10.8-12-2.9-3.3 2.2-5.2h3.2l2.3 5-3.7 4.3 10.8 11.3-11 11.3zm-.8-4.4l-2.3-2.5 2.3-2.2 2.4 2.2-2.4 2.5zm3.2 18.1a2.6 2.6 0 11-5.2 0 2.6 2.6 0 015.2 0zm7.1-5l-5 2.3-2.4-2.2 1.8-5.3 5.6-.6v5.8zM10 320.5l2.1 5.2-1 1.2-1 1-5.4-1.7-.5-5.8 5.8.1zM4.3 327l5.3 2.1v3.3l-5 2.2L.2 331l4-4zm.6 8.4l5-2.1 2.4 2.1-2 5.3-5.6.5.2-5.8zm14.5 5.2l-2-5.2 1-1.2 1.3-1 5.2 1.9.3 5.8-5.8-.3zm5.8-6.3L20 332v-3l5.2-2.3 4.2 3.8-4.2 3.8zm-8.6-33.4l-2.4 2.5-2.3-2.5 2.3-2.4 2.4 2.4zM12 254.5l-4 4 6 6.7.2-.3.1.3 6.7-6.7-4-4h9l-11 11.3L18 269l-2 5.2-1.6.2H13l-2.5-5 3-3.7-10.3-11.5L14 242.1l-2.9-3.2 2.2-5.1h3.2l2.3 5.1-3.7 4.2 10.8 11.2h-8.8l4-3.8-7-6.8-6 6.7 4 4H4.2 12zm2.2 7l-2.3-2.4 2.3-2.5 2.4 2.5-2.4 2.4zm3.2 18.2a2.6 2.6 0 11-5.2 0 2.6 2.6 0 015.2 0zm7.1-5.2l-5 2.3-2.4-2.2 1.8-5.2 5.6-.7v5.8zM10 269.7l2.1 5-2 2.5-5.4-1.8-.5-5.8 5.8.1zM4.3 276l5.3 2.3v3l-5 2.5L.2 280l4-4zm.6 8.4l5-2.2 1.2 1.3 1.2 1-2 5.2-5.6.5.2-5.8zm14.5 5.2l-2-5.2 2.3-2.3 5.2 2.1.3 5.7-5.8-.3zm5.8-6.1l-5.2-2.3V278l5.2-2.2 4.2 3.9-4.2 3.8zm-8.6-33.7l-2.4 2.4-2.3-2.4 2.3-2.5 2.4 2.5zm-8.5-42.4l6 6.7v-.2l6.8-6.5-3.8-4 4-3.8-7-6.9-6 6.8 4 4-4 3.9zm6.8 7.3l3.2 3.4-2 5.3H13l-2.5-5 3-3.5-10.1-11.3h-.2v-.2l11-12-3-3.2 2-5.2h3.3l2.3 5-3.9 4.3 11 11.1-11 11.3zm-.7-4.3l-2.3-2.4 2.3-2.4 2.4 2.4-2.4 2.4zm3.2 18.2a2.6 2.6 0 11-5.2 0 2.6 2.6 0 015.2 0zm7.1-5l-5 2.2-1.2-1-1.2-1.3 1.8-5.1 5.6-.6v5.7zm-14.6-5L12 224l-1 1-1 1.2-5.4-1.8-.5-5.8 5.8.2zm-5.6 6.5l5.3 2.1v3l-5 2.5-4.4-3.8 4-3.8zm.6 8.2l5-2 2.4 2.2-2 5.1-5.6.5.2-5.8zm14.5 5.3l-2-5.1 1-1.3 1.3-1 5.2 2 .3 5.7-5.8-.3zm5.8-6.2L20 230v-3.2l5.2-2.1 4.2 3.8-4.2 3.8zM16.6 199l-2.4 2.3-2.3-2.3 2.3-2.4 2.4 2.4zM8 156.6l6.1 6.6.2-.2.1.2 6.7-6.7-4-3.8 4-4-6.8-6.7-6.1 6.7 4 4-4.2 4zm7.2 7.3l3 3.2-2 5.4H13l-2.5-5 3-3.6-10.3-11.2L14 140.5l-2.9-3.2 2.2-5.2h3.2l2.3 5.2-3.7 4 10.8 11.4-10.8 11.2zm-1-4.4l-2.2-2.4 2.3-2.3 2.4 2.3-2.4 2.4zm3.3 18.2a2.6 2.6 0 11-5.2 0 2.6 2.6 0 015.2 0zm7.1-5l-5 2.2-2.4-2.1 1.8-5.4 5.6-.6v5.8zM10 167.8l2.1 5-1 1.2-1 1.1-5.4-1.8-.5-5.8 5.8.3zm-5.6 6.2l5.3 2.2v3.2l-5 2.3L.2 178l4-4zm.6 8.4l5-2.1 2.4 2.1-2 5.4-5.6.4.2-5.8zm14.5 5.2l-2-5.2 2.3-2.3 5.2 2 .3 5.8-5.8-.3zm5.8-6l-5.2-2.5v-3l5.2-2.4 4.2 3.9-4.2 4zM16.6 148l-2.4 2.4-2.3-2.4 2.3-2.5 2.4 2.5zm-8.5-42.4l6 6.5v-.1l.2.2 6.6-6.6-3.8-4 4-3.8-6.8-6.8-6 6.7 3.7 4-4 3.9zm7 7.3l3 3.4-2 5.1-1.6.2H13l-2.5-5 3-3.7L3.3 102h-.2v-.2l11-11.9-3-3.3 2-5.2h3.3l2.3 5-3.7 4.3 10.8 11.1L15.1 113zm-1-4.3l-2.2-2.4 2.3-2.4 2.4 2.4-2.4 2.4zm3.3 18.2a2.6 2.6 0 11-5.2 0 2.6 2.6 0 015.2 0zm7.1-5l-5 2.2-1.2-1.2-1.2-1 1.8-5.2 5.6-.6v5.8zm-14.6-5l2.1 5.3-1 1-1 1.2-5.4-1.8-.5-5.8 5.8.2zm-5.6 6.3l5.3 2.3v3l-5 2.5-4.4-3.8 4-4zm.6 8.4l5-2.1 1.2 1.2 1.2 1-2 5.2-5.6.5.2-5.8zm14.5 5.3l-2-5.1 1-1.3 1.3-1 5.2 2 .3 5.8-5.8-.4zm5.8-6.2l-5.2-2.3v-3.2l5.2-2.1 4.2 3.6-4.2 4zm-8.6-33.4l-2.3 2.3-2.4-2.3 2.4-2.4 2.3 2.4zM91.3 21l6.7-6.7-6.5-6-4.1 3.7-4-4-6.6 6.2h.2l-.3.1 6.8 6.7 3.9-4 4 4zm-4-17.8h.2l11.9 11 3.4-3 5.1 2v3.3l-5.1 2.2-4.2-3.6-11.2 10.8L76 15l-3.4 3-5.2-2v-3.2l5-2.4 3.7 3L87.4 3.3v-.1zM92 16.5l-2.4-2.3 2.4-2.4 2.5 2.4-2.5 2.3zM134.3 8l.8-.8-7.5 7 6.9 6.7 3.8-4 3.8 4 6.9-6.7-6.8-6.2-4 4-3.9-4zm-7.5 7l-3.2 3-5.3-2v-3.2l5-2.4 3.7 3 11.1-10.2v-.1h.2l11.9 11 3.3-3 5.2 2v3.3l-5 2.2-4.3-3.6-11.1 10.8L126.8 15zm4.5-.8l2.4-2.4 2.4 2.4-2.4 2.3-2.4-2.3zm-15.6.5a2.6 2.6 0 11-5.2 0 2.6 2.6 0 015.2 0zm2.5 9.7l-2.3-5 1.2-1.2 1-1.2 5.2 1.8.7 5.8-5.8-.2zM123 9.8l-5.1 2.1-1.1-1-1.2-1.1 1.8-5.3 5.8-.5-.2 5.8zm-6.2-5.5l-2.3 5.2h-3l-2.5-5 3.8-4.5 4 4.3zm-8.4.5l2.1 5.1-1.2 1.1-1 1.2-5.2-2-.5-5.7 5.8.3zm-5.3 14.6l5.1-2.1 1.3 1 1 1.3-2 5.1-5.7.3.3-5.6zm6 5.6l2.3-5.1h3.4l2.1 5.1-3.8 4.3-4-4.3zm33.6-8.5l-2.3-2.3 2.3-2.4 2.4 2.4-2.4 2.3zM185.1 8l-6.6 6h.2l-.3.2 6.8 6.7 3.9-4 4 4 6.6-6.7-6.5-6-4.1 3.7-4-4zm-7.3 7l-3.2 3-5.4-2v-3.2l5-2.4 3.7 3 11.2-10.2v-.1h.1l11.9 11 3.3-3 5.2 2v3.3l-5 2.2-4.3-3.6L189 25.8 177.9 15zm4.4-.8l2.4-2.4 2.3 2.4-2.3 2.3-2.4-2.3zm-15.6.5a2.6 2.6 0 11-5.1 0 2.6 2.6 0 015.1 0zm2.5 9.7l-2.3-5 2.1-2.4 5.4 1.8.6 5.8-5.8-.2zM174 9.8l-5.2 2.1-1.2-1-1.1-1.1 1.8-5.3L174 4v5.8zm-6.4-5.5l-2.2 5.2h-3.2l-2.3-5 3.7-4.5 4 4.3zm-8.4.5l2.1 5.1-1 1.1-1.1 1.2-5.4-2-.4-5.7 5.8.3zM154 19.4l5.2-2.1 2.3 2.3-2 5.1-5.8.3.3-5.6zm6 5.6l2.5-5.1h3L168 25l-3.9 4.3-4-4.3zm33.6-8.5l-2.4-2.3 2.4-2.4 2.5 2.4-2.5 2.3zM236 8l-6.4 6h.1l-.3.2L236 21l4-4 4 4 6.6-6.7-6.7-6-4 3.7-4-4zm-7.4 7l-3.2 3-5.1-2-.2-1.6v-1.6l5-2.4 3.7 3 11.1-10.2v-.1h.2l11.9 11 3.3-3 5.2 2v3.3l-4.9 2.2-4.2-3.6L240 25.8l-11.5-10.7zm4.5-.8l2.4-2.4 2.4 2.4-2.4 2.3-2.4-2.3zm-15.6.5a2.6 2.6 0 11-5.2 0 2.6 2.6 0 015.2 0zm2.4 9.7l-2-5 2-2.4 5.2 1.8.8 5.8-6-.2zm5-14.6l-5.3 2.1-1-1-1.2-1.1 1.8-5.3 5.8-.5-.2 5.8zm-6.3-5.5l-2.3 5.2h-3l-2.5-5 3.8-4.5 4 4.3zm-8.4.5l2.1 5.1L211 11l-1 1.2-5.2-2-.5-5.7 5.8.3zm-5.2 14.6l5.2-2.1 1 1 1.1 1.3-2 5.1-5.8.3.5-5.6zM211 25l2.3-5.1h3.2l2.1 5.1-3.8 4.3L211 25zm33.5-8.5l-2.4-2.3 2.4-2.4 2.3 2.4-2.3 2.3zM291 12l-4.1-4-6.6 6.2h.2l-.3.1 6.8 6.7 4-4v8.3l-.2-.2v.8L279.5 15l-3.2 3-5.4-2v-3.2l4.9-2.4 3.8 3L291 3.2v8.8zm-7 2.3l2.4-2.4 2.3 2.4-2.3 2.3-2.4-2.3zm-15.6.5a2.6 2.6 0 11-5.2 0 2.6 2.6 0 015.2 0zm2.5 9.7l-2.3-5 2.1-2.4 5.4 1.8.6 5.8-5.8-.2zm4.8-14.6l-5.1 2.1-1.3-1-1-1.1 1.8-5.3 5.8-.5-.2 5.8zm-6.4-5.5l-2 5.2h-3.3l-2.3-5 3.8-4.5 3.8 4.3zm-8.3.5l2 5.1-1 1.1-1 1.2-5.4-2-.4-5.7 5.8.3zm-5.2 14.6l5.2-2.1 1.2 1 1 1.3-2 5.1-5.7.3.3-5.6zm6.2 5.6l2.3-5.1h3l2.3 5.1-3.8 4.3L262 25zm-225.3.8V25l-.2.2V17l4 4 6.9-6.8L40.6 8l-4.2 4V3l12 11 3.4-3 5.2 2.2v3.2l-5 2.2-4.3-3.6-11.1 10.8zm4.4-9.3l-2.3-2.3 2.3-2.4 2.5 2.4-2.5 2.3zm39.5-2.3l2.3-2.4 2.4 2.4-2.4 2.3-2.3-2.3zm-15.6.5a2.6 2.6 0 11-5.1 0 2.6 2.6 0 015.1 0zm2.5 9.7l-2.3-5 2.1-2.4 5.4 1.8.6 5.8-5.8-.2zM72 9.8l-5 2.1-2.5-2.1 2-5.3 5.8-.5-.3 5.8zM66 4.3l-2.2 5.2h-3.2l-2.3-5L62 0l4 4.3zm-8.4.5l2.1 5.1-2.3 2.3-5.2-2-.4-5.7 5.8.3zm-5.2 14.6l5.2-2.1 2.3 2.3-2 5.1-5.8.3.3-5.6zm6 5.6l2.5-5.1h3l2.4 5.1-3.8 4.3-4-4.3zM36.7 251.1v-8.8l12.2 10.8 3.2-3 5.2 2.3v3.2l-5.2 2.2-4.1-3.6-11.3 10.7v-8.6l3.8 3.8 6.9-6.8-6.6-6.1-4.1 4zm4.6 4.6l-2.5-2.4 2.5-2.3 2.4 2.3-2.4 2.4zm46.3-4.6h-.1v-.1l-4-3.8-6.6 6h.2l6.7 7 3.7-3.7v-.2h.1l3.8 3.8 6.9-6.8-6.6-6.1-4 3.8v.1zm-11.3 3l-3.3 3.1-5.4-2V252l5-2.5 3.6 3 11.3-10.1v-.2h.1l11.9 10.8 3.4-3 5.1 2.3v3.2l-5 2.2-4.3-3.6-11 10.7-11.4-10.7zm4.3-.8l2.4-2.3 2.5 2.3-2.5 2.4-2.4-2.4zm-15.6.6a2.6 2.6 0 11-5.1 0 2.6 2.6 0 015.1 0zm2.5 9.7l-2.3-5 1-1.2 1.3-1.2 5.2 1.8.7 5.8-6-.2zm4.9-14.7L67 251l-2.3-2.2 1.8-5.2 5.8-.5-.1 5.7zm-6.4-5.5l-2.2 5.3h-3l-2.5-5 3.9-4.5 3.8 4.2zm-8.4.6l2.1 5-1 1.2-1.1 1-5.2-1.7-.5-5.8 5.7.3zm-5.2 14.5l5.2-2 1.2 1 1 1.1-2 5.3-5.7.4.3-5.8zm10 .6l3.9 4.4-2.2 5h-3.2l-2.3-5.2 3.9-4.2zm47 5.2l2.5-5.2h3l2.3 5-3.8 4.4-4-4.2zm-6-5.8l5.1-2 1 1 1.3 1.1-2 5.3-5.8.4.3-5.8zm5.1-14.5l2.1 5-1 1.2-1.3 1-5.1-1.7-.5-5.8 5.8.3zm8.4-.6l-2.1 5.3h-3.3l-2.2-5 3.8-4.5 3.8 4.2zm6.2 5.5l-5 2.2-1.2-1-1.2-1.2 2-5.2 5.7-.5-.3 5.7zm.6 8.3l-5.1-2V252l4.8-2.5 3.7 3 11.3-10.1v-.2h.1l12 10.8 3.3-3 5.2 2.3v3.2l-5.2 2.2-4.1-3.6-11.3 10.7-11.3-10.7-3.4 3zm10.7-10l.3-.3-6.8 6.2.1.2-.1.1 6.7 6.7 3.8-3.8 3.8 3.8 6.9-6.8-6.6-6.1-4.1 4-4-4zm-16 16.4l-2.3-5 2.2-2.4 5.3 1.8.6 5.8-5.8-.2zM116 254a2.6 2.6 0 11-5.2 0 2.6 2.6 0 015.2 0zm15.4-.6l2.6-2.3 2.2 2.3-2.2 2.4-2.6-2.4zm-39.4 2.4l-2.3-2.4L92 251l2.5 2.3-2.5 2.4zm51 0l-2.5-2.4 2.5-2.3 2.4 2.3-2.4 2.4zm42.2-8.5l-6.6 6h.2l6.7 7 3.8-3.9 3.8 3.8 6.9-6.8-8-7.3 1.3 1.2-4 4-4.1-4zm-7.2 6.8l-3.3 3.2-5.2-2-.2-1.6V252l5-2.5 3.6 3 11.4-10.3 12 10.7 3.2-3 5.2 2.4v3.2l-5 2.2-4.3-3.6-11.1 10.7-11.3-10.7zm4.3-.7l2.4-2.3 2.5 2.3-2.5 2.4-2.4-2.4zm-15.6.6a2.6 2.6 0 11-5.1 0 2.6 2.6 0 015.1 0zm2.5 9.7l-2.3-5 1.2-1.2 1-1.2 5.3 1.8.6 5.8-5.8-.2zM174 249l-5.2 2.2-2.3-2.2 1.8-5.2 5.8-.5-.1 5.7zm-6.3-5.5l-2.3 5.3h-3l-2.5-5 3.8-4.5 4 4.2zm-8.4.6l2.2 5-2.3 2.3-5.2-1.8-.5-5.8 5.8.3zm-5.3 14.5l5.2-2 1.2 1 1 1.1-2 5.3-5.7.4.3-5.8zm6.2 5.8l2.3-5.2h3.2l2.2 5-3.9 4.4-3.8-4.2zm33.4-8.6l-2.3-2.4 2.3-2.3 2.5 2.3-2.5 2.4zm46.5-4.6h-.1v-.1l-4-3.8.5-.5-7 6.4.1.2-.1.1 6.7 6.7 3.8-3.6v-.2h.1v.2l3.7 3.6 6.8-6.8-6.5-6.1-4 3.8v.1zm-11.3 3l-3.3 3.1-5.3-2V252l4.8-2.5 3.7 3 11.3-10.1v-.2h.1l12 10.8 3.3-3 5.2 2.3v3.2l-5 2.2-4.3-3.6-11.3 10.7-11.2-10.7zm4.3-.8l2.5-2.3 2.2 2.3-2.3 2.4-2.4-2.4zm-15.5.6a2.6 2.6 0 11-5.2 0 2.6 2.6 0 015.2 0zm2.4 9.7l-2.3-5 2.1-2.4 5.4 1.8.6 5.8-5.8-.2zm4.9-14.7l-5.2 2.2-1.2-1-1-1.2 1.7-5.2 5.8-.5-.1 5.7zm-6.4-5.5l-2.2 5.3h-3.2l-2.2-5 3.6-4.5 4 4.2zm-8.4.6l2.1 5-1 1.2-1.1 1-5.3-1.7-.4-5.8 5.7.3zm-5.2 14.5l5.2-2 1 1 1.3 1.1-2 5.3-6 .4.5-5.8zm6.3 5.8l2.2-5.2h3l2.4 5-3.8 4.4-3.8-4.2zm33.3-8.6l-2.4-2.4 2.4-2.3 2.5 2.3-2.5 2.4zm46.4-4.6l-4.1-4-6.4 6.2h.1l-.1.1 6.7 6.7 3.8-3.8v8.6l-11.3-10.7-3.3 3-5.2-2-.2-1.6V252l5-2.5 3.7 3 11.3-10.3v8.8zm-7 2.2l2.4-2.3 2.5 2.3-2.5 2.4-2.4-2.4zm-15.6.6a2.6 2.6 0 11-5.2 0 2.6 2.6 0 015.2 0zm2.5 9.7l-2.2-5 2.2-2.4 5.2 1.8.6 5.8-5.8-.2zm4.8-14.7l-5.1 2.2-2.3-2.2 1.8-5.2 5.8-.5-.2 5.7zm-6.2-5.5l-2.3 5.3h-3l-2.5-5 3.8-4.5 4 4.2zm-8.4.6l2.1 5-2.2 2.3-5.2-1.8-.5-5.8 5.8.3zm-5.2 14.5l5.2-2 2.1 2.1-2 5.3-5.7.4.4-5.8zm6.1 5.8l2.3-5.2h3.2l2.1 5-3.8 4.4-3.8-4.2zM8.1 54.9l6 6.6v-.2l.2.3 6.7-6.8-4-3.8 4-3.9-6.8-6.8L8 47l4 4-4 4zm7 7.3l3.2 3.2-2.1 5.4H13l-2.5-4.9 3-3.8L3.5 51h-.2v-.2L14 39l-2.9-3.3 2.2-5.2h3.2l2.3 5-3.7 4.3L25.9 51 15.1 62.2zm-.8-4.4L12 55.4l2.4-2.3 2.3 2.3-2.3 2.4zm.5 21a2.6 2.6 0 110-5.3 2.6 2.6 0 010 5v.2zm9.7-7.9l-5 2.3-1.2-1-1-1.1 1.6-5.3 5.8-.7-.2 5.8zM10 66.2l2.1 5-1 1.3-1 1-5.4-1.8-.5-5.8 5.8.3zm-5.5 6.3l5.2 2v3.3l-5 2.3L0 76.4l4.4-4zm.5 8.3l5.2-2 1 1 1.2 1-2 5.4-5.7.4.3-5.8zM19.5 86l-2.1-5.2 2.3-2.2 5.2 2 .4 5.7-5.8-.3zm5.7-6L20 77.4v-3l5.2-2.3 4.2 3.8-4.2 4zm-8.6-33.6l-2.4 2.4-2.3-2.4 2.3-2.5 2.4 2.5zM25.2 29L20 26.7v-3.2l5.2-2.1 4.2 3.8-4.2 3.8zm-5.8 6.1l-2-5.2 2.3-2.3 5.2 2.2.3 5.6-5.8-.3zM4.9 30l5-2.1 1.2 1.2 1.2 1-2 5.3-5.6.4L5 30zm-.6-8.4l5.3 2.3v3l-5 2.5-4.4-3.8 4-4zm5.6-6.2l2.1 5.2-1 1-1 1.3-5.4-1.9-.5-5.8 5.8.2zm8.2-.6l-2 5.2-1.6.1H13l-2.5-5 3-3.7-4.7-5.2.7-.4 4.5 5 .2-.3.1.3 6.1-6-3-3.4S22.6-.3 26 0l-5 5.2-6 6.1 3 3.4zm6.4 5.5l-5 2.1-2.4-2.1 1.8-5.2 5.6-.6v5.8zm-7.1 5a2.6 2.6 0 11-5.2 0 2.6 2.6 0 015.2 0zm-3-22.7l2.2 2.1-2.4 2.5-2.3-2.5L13.4 3l1-.4zm177 216.3a1.8 1.8 0 11-3.6 0 1.8 1.8 0 013.7 0zm29.7-14.2a1.8 1.8 0 11-2.6-2.6 1.8 1.8 0 012.6 2.6zm-5-.9a2.7 2.7 0 11-5.6 0 2.7 2.7 0 015.5 0zm-27.2 21a3.8 3.8 0 11-3-3.7 12 12 0 00-1-7.2c-2.7-5.2-8.4-7.6-8.4-7.6s2.2 2.3 2.3 4c.2 2-2.9 1.1-.6 3.4 2.5 2.3 3.7 7.2 1.4 9.2-2.3 2-4.9-1.5-4.9-1.5s1.7 5-.9 7.6c-2.7 2.7-8.5 0-9.6-4.6v-.4l-.2.4c-1 4.6-6.8 7.3-9.4 4.6-2.8-2.6-1-7.6-1-7.6s-2.7 3.5-4.8 1.5c-2.3-2-1-6.9 1.2-9.2 2.3-2.3-.7-1.5-.6-3.3.3-2 2.4-4.1 2.4-4.1s-5.7 2.4-8.3 7.6c-1 2.2-1.4 4.7-1 7.2h.7a3.8 3.8 0 11-1.1.1c-1-3.3-1.8-8 .8-11.4 0 0-5.5 3.3-8.1 7.6-2.6 4.3-3.8 5.5-5.5 4.9-1.7-.6-.8-4.6-.8-4.6s-4 7.6-7.8 7.2c-3.8-.3-4.5-5.8-1.3-8.1 3-2.3 4.9-2 4.9-2s-4.6-1-2.2-3.7c2.3-2.4 6.7-3 9.6-2 3 1 0-1.2 2.3-2 2.1-.5 5.3 2 9.2-.5 3.8-2.6 14.4-6.7 16.9-19.4 2.6-12.5-1.5-22.9-11.6-21.6-10 1.3-11.4 7.1-8.7 12.2 2.6 4.5 6.9 1.8 7.2 0 0 0-2 1.8-3.7.4-1.7-1.5-1.8-4 0-5.8 1.8-1.8 8-.4 7 5.5-.9 6-9.7 6.6-13.2.3-3.4-6.2.1-13.6 9.4-15.7 9.2-2.1 19.5 5.2 17 23-2.2 18-8.6 18.3-6.3 20.8 2.3 2.3 4.1 1.8 3 3.6-.7 1.5-2.4 1.2-3 1 1.5.5 7.6 2.7 6.7 5.7-1 3.2-4.9 3.2-4.9 3.2s4.6 0 5 3c.7-3 5.2-3 5.2-3s-3.8 0-4.8-3.2c-1-3 5.3-5.2 6.7-5.6-.7 0-2.3.3-3-1-1-2 .7-1.3 3-3.7 2.2-2.5-4-2.8-6.4-20.8-2.3-17.8 7.9-25.1 17-23 9.5 2.1 13 9.5 9.5 15.7-3.5 6.3-12.5 5.8-13.3-.3-.7-6 5.2-7.3 7-5.5 1.9 1.8 1.9 4.3 0 5.8-1.6 1.4-3.5-.4-3.5-.4.3 1.8 4.4 4.5 7.2 0 2.6-5 1.2-10.9-8.7-12.2-10-1.3-14.3 9.1-11.7 21.6 2.6 12.7 13.4 16.8 17 19.4 3.7 2.6 6.9 0 9.2.6 2.1.7-.8 2.9 2.1 2 3-1.1 7.3-.5 9.6 2 2.5 2.5-2.1 3.6-2.1 3.6s1.8-.3 5 2c3 2.3 2.3 7.8-1.5 8-3.7.5-7.6-7.1-7.6-7.1s.7 4-1 4.6c-1.6.6-2.7-.6-5.4-5-2.6-4.2-8-7.5-8-7.5 2.5 3.3 1.7 8 .7 11.4a4 4 0 012.7 3.7zm29.3-7.7a4.6 4.6 0 01-6.1-6.6 31.8 31.8 0 00-4.4-3c-9-5-18.6-1-29.6-8.9-11-8-9.8-21.5-9.8-21.2-.1 4.6 6.4 15.8 16.3 19.6 10 4 29.3-1.1 32.5-3 3.2-2 7.2-9 10.2-7.7 3 1.2 1.5 4.6 1.5 4.6s2.2-3.7 9-1.9c6.9 1.7 8.7 8.9 5 11.5-3.4 2.4-10-2.8-10-2.8s1.8 2.6-.6 4.3c-2.4 1.7-7.5-2.1-15-3.7-7.4-1.8-15.6 4.3-15.6 4.3 5.6 1.2 9.1 4.1 11.2 7l.8-.4a4.6 4.6 0 014.6 7.9zM183 194l.2.2-.2-.2zm.2.2c.7.1 6.8 1.2 9.4-3 2.8-4.6.2-4.3 1-7.2.5-3 4.2-1.1 4.2-1.1s-.3-2.6 2.7-6.6c3-3.8 9.6 1.9 9.5 4.6-.2 2.8-5.8 3.5-6.1 3.5 0 0 2 0 2.6 3.5.6 4-5.8 2.8-5.8 2.8s3.5 1.2 2.1 3.8c-1.2 2.4-3 0-9.6 1.5-5.6 1-9.1-1.2-10-1.8zM140.4 219a1.8 1.8 0 11-3.6 0 1.8 1.8 0 013.6 0zm-30.3-15.7a1.8 1.8 0 11-3.7 0 1.8 1.8 0 013.7 0zm7.8.6a2.7 2.7 0 11-5.5 0 2.7 2.7 0 015.5 0zm-1 9.3a4.6 4.6 0 11-1.5-3.5c2.8-3.7 6.8-6.2 11.3-7 0 0-8.2-6.1-15.7-4.3-7.5 1.5-12.4 5.3-14.8 3.6-2.4-1.6-.6-4.2-.6-4.2s-6.7 5.2-10.2 2.7c-3.5-2.4-1.9-9.7 5-11.4 7-1.8 9.2 1.8 9.2 1.8s-1.6-3.3 1.5-4.6c3-1.2 6.8 5.7 10.2 7.7 3.2 2 22.4 7.1 32.3 3 10-3.8 16.5-15 16.3-19.5 0-.3 1.4 13.1-9.6 21.2-11.1 8-20.6 3.8-29.7 8.8a32 32 0 00-4.6 3c.6.8 1 1.6 1 2.7zm28-18.8h-.2l.3-.1v.1zm-9.8 1.9c-6.7-1.6-8.4.9-9.8-1.6-1.3-2.6 2.2-3.8 2.2-3.8s-6.3 1.2-5.7-2.7c.5-3.4 2.2-3.5 2.6-3.5-.8 0-6-1-6.2-3.5-.2-2.8 6.5-8.4 9.6-4.6 3 4 2.6 6.5 2.6 6.5s3.6-1.8 4.2 1.1c.8 3-1.7 2.6 1 7.2 2.2 4 7.9 3.3 9 3-.7.8-4 3-9.5 1.9zm5.3 95.7a1.8 1.8 0 11-3.6 0 1.8 1.8 0 013.6 0zm-33.2 14a2 2 0 112.6 3 2 2 0 01-2.6-3zm10.7 1a2.7 2.7 0 11-5.5 0 2.7 2.7 0 015.5 0zm29-21c.1 2.5-2.1 4.4-4.5 3.9a12 12 0 001 7.1c2 3.4 5 6 8.4 7.7 0 0-2-2.2-2.4-4.2-.1-1.8 3-1 .6-3.3-2.3-2.3-3.5-7.2-1.2-9.2 2.1-2 4.7 1.6 4.7 1.6s-1.5-5 1-7.7c2.7-2.7 8.5 0 9.5 4.6v.5l.2-.5c1-4.6 6.9-7.3 9.6-4.6 2.6 2.6 1 7.7 1 7.7s2.5-3.5 4.8-1.6c2.1 2 1 6.9-1.4 9.2-2.3 2.3.8 1.5.6 3.3-.1 2-2.3 4.2-2.3 4.2s5.7-2.5 8.3-7.7c1.2-2.3 1.4-5 .9-7.1a3.8 3.8 0 01-4.4-3.8 3.8 3.8 0 114.9 3.6c1 3.4 1.8 8-.7 11.4 0 0 5.4-3.3 8-7.6 2.7-4.2 3.8-5.5 5.5-4.9 1.8.7.9 4.6.9 4.6s4-7.6 7.6-7.1c3.8.3 4.6 5.7 1.5 8-3.3 2.3-5 2-5 2s4.6 1 2.1 3.7c-2.4 2.6-6.5 3-9.6 2-2.9-1 0 1.2-2.1 2-2.3.5-5.5-2-9.2.5-3.6 2.6-14.4 6.8-17 19.3-2.6 12.5 1.6 23 11.7 21.8 10-1.4 11.3-7.4 8.7-12.2-2.6-5-6.9-1.9-7.2 0 0 0 1.9-1.9 3.5-.5 1.9 1.5 1.9 4 0 5.8-1.8 1.8-7.7.5-7-5.5.8-6 9.8-6.7 13.3-.3 3.5 6.3 0 13.6-9.5 15.7-9.4 2.1-19.3-5.2-17-23 2.4-18 8.6-18.3 6.4-20.7-2.2-2.3-4-1.9-3-3.7.7-1.5 2.3-1.2 3-1-1.6-.5-7.7-2.7-6.7-5.7.9-3 4.2-3.2 4.8-3.2-.6 0-4.5-.2-5.2-3-.4 3-5 3-5 3s3.8 0 4.9 3.2c1 3-5.3 5.2-6.7 5.6.6 0 2.3-.3 3 1.1 1.1 1.8-.7 1.4-3 3.7-2.3 2.4 4.1 2.7 6.4 20.7 2.4 17.8-7.8 25.1-17 23-9.4-2.1-12.9-9.4-9.5-15.7 3.5-6.4 12.5-5.8 13.2.3 1 6-5.2 7.3-7 5.5-1.8-1.8-1.7-4.3 0-5.8 1.7-1.4 3.7.5 3.7.5-.3-1.9-4.6-4.6-7.2 0-2.7 4.8-1.4 10.8 8.7 12.2 10 1.2 14-9.3 11.6-21.8-2.5-12.5-13.4-16.8-17-19.3-3.8-2.5-6.8.2-9-.6-2.4-.7.7-2.9-2.4-2-2.9 1.1-7.3.5-9.6-2-2.4-2.5 2.2-3.6 2.2-3.6s-1.9.3-5-2-2.4-7.7 1.4-8c3.7-.5 7.8 7.1 7.8 7.1s-.9-4 .8-4.6c1.7-.6 2.9.7 5.5 5a28 28 0 008 7.5c-2.5-3.3-1.8-8-.7-11.4a3.8 3.8 0 114.9-3.6zm-30 11.8c0 1-.2 1.8-.7 2.6a32 32 0 004.4 3c9.1 5 18.6 1 29.7 8.9 11 8 9.6 21.5 9.6 21.2.2-4.6-6.4-15.7-16.3-19.5-9.9-4.2-29.1 1-32.3 3-3.4 2-7.2 8.8-10.2 7.6-3-1.2-1.5-4.7-1.5-4.7s-2.2 3.7-9.2 2c-6.9-1.7-8.5-9-5-11.5 3.5-2.4 10.2 2.8 10.2 2.8s-1.8-2.6.6-4.3c2.4-1.7 7.3 2.2 14.8 3.7 7.5 1.8 15.7-4.3 15.7-4.3-4.5-.8-8.5-3.3-11.3-7a4.6 4.6 0 111.5-3.5zm28 18.9l-.2-.2h.3v.2zm-.2-.2c-1.2-.3-6.9-1-9.2 3.1-2.6 4.6-.1 4.3-.9 7.2-.6 2.9-4.2 1-4.2 1s.4 2.6-2.6 6.4c-3 4-9.8-1.6-9.6-4.5.3-2.6 6-3.4 6.4-3.4-.3 0-2.2 0-2.8-3.5-.6-4 5.7-2.7 5.7-2.7s-3.5-1.3-2.2-3.9c1.4-2.4 3 0 9.8-1.5 5.5-1 8.8 1 9.6 1.8zm46.8-24.5a1.8 1.8 0 11-3.7 0 1.8 1.8 0 013.7 0zm30.5 15.7a1.8 1.8 0 11-3.7 0 1.8 1.8 0 013.7 0zm-6-.6a2.7 2.7 0 11-5.5 0 2.7 2.7 0 015.5 0zm4.5-9.3a4.6 4.6 0 01-7.7 3.5 18.3 18.3 0 01-11.2 7s8.2 6.1 15.7 4.3c7.4-1.5 12.5-5.4 14.9-3.7 2.4 1.7.6 4.3.6 4.3s6.6-5.2 10-2.8c3.7 2.6 1.9 9.8-5 11.5-6.8 1.7-9-2-9-2s1.4 3.5-1.5 4.7c-3 1.2-7-5.6-10.2-7.6-3.4-2-22.6-7.2-32.5-3-9.9 3.8-16.4 14.9-16.3 19.5 0 .3-1.2-13.1 9.8-21.2s20.6-3.8 29.6-8.9a32 32 0 004.5-3 4.6 4.6 0 118.4-2.6zm-37.2 18.7l-.2.2.2-.2zm10-1.8c6.6 1.5 8.4-.9 9.6 1.5 1.4 2.6-2.1 3.9-2.1 3.9s6.2-1.3 5.8 2.7c-.6 3.7-2.5 3.5-2.8 3.5.5 0 6.1.8 6.3 3.4.1 2.9-6.4 8.5-9.5 4.5-3-3.8-2.7-6.4-2.7-6.4s-3.7 1.9-4.3-1c-.7-3 1.9-2.6-.9-7.2-2.6-4.3-8.7-3.2-9.4-3 .9-.7 4.4-3 10-1.9zm24.1-239.3c-1-2.6-2.4-3.4-5.3-3a10 10 0 01-6.3-1.6c-.4-.2-.9-1.2-.9-2 0-1 .6-1.5 1.5-1.8 1.1-.3 2.2-.3 3.2-.3 1.1-.2 2.5 0 3.5-.5 1.7-.6 3-.1 4.6.8 1.8.9 3.8 2 6.1 1.5l.6.3-.3 1-1.7 1.7c2.3 1.3 5 .8 7.4.8l-.2 3 1.5-.6 3-1.2c1.1-.4 1.5-.1 1.1 1l-.1.9c2.9.6 4.1-2.2 6.4-3a9 9 0 01-2.3 5.4l1.5.6a14.8 14.8 0 01-9.3 3.8l1 3c-3.9-.5-7-1.5-9-4.5l-.7 1.7c-2.2-2.2-4.2-4-5.3-7zm-122.9 1h-.1.1zm0 0c2 .5 4.1.4 6-.4 1-.5 1.2-1 .4-1.9L100 73l8.6-3.3h5.9c1.3-.3 2.6 0 3.8.6 1.5.9 1.5 2.4 0 3.5a10 10 0 01-6.2 1.8c-1.1 0-2.2.5-3 .8-1.6.6-2 2.1-2.5 3.6-.8 2.5-2.8 4-4.6 6.1l-.5-1.8c-2 3-5.3 5-9 5.2l1-3c-3.5 0-6.8-.5-9.2-3 1-1.2 1-1.2-.3-2.7-.8-1-1-2-.8-3.5 1.1 1.5 2.8 2.4 4.6 2.6 1 .1 1.7.1 1.5-1.4l.3-1c2 1.2 3.7 2 5.8 2l-.9-3zm40.9-1.8l-2 .6c-2.7 2-3.4 6.9-1.5 9.6 3.6 4.9 10.2 4.6 13.7 2.4a18 18 0 006.6-6c.1-.4.7-.5 1.2-.8.1.6.6 1 .6 1.5 0 .3-.3 1-.6 1l-2.2 3.1a14.3 14.3 0 01-9.6 5.7c-6 1-12-2.2-14.1-8a8.5 8.5 0 01-.3-5.1c.7-2.5 2.2-4.8 4.2-6.4L133 71c3-1.4 5.4-.6 7.7.9 5 3 3.8 9-.3 11.3-2 1.2-3.7.7-6.3-1.4-1.4-1.2-1.5-2.7-.6-4.3l2-2.7v-.3zM176.5 85l2.5 1.5c4 1.8 8 1 11.6-1.2 1.7-1.1 3-2.6 3.2-4.6.4-3-.6-5.7-3-7.3-.7-.5-1.3-.8-2.2 0l.6.3c1.5 1.2 2.7 2.4 2.3 4.6-.5 2.4-2.4 3.3-4.6 4-1.8.5-3.3-.4-4.3-2l-1.2-1.4c-1-1.6-1-3.4 0-5 .8-1.3 2-2.5 3-3.6 1.2-1.3 3-1.9 4.7-1.5 2.5.5 4.8 1.2 6.4 3.5 1.3 2.4 2.7 4.6 2 7.6-.3 2.2-1.4 4.3-3 5.8-2.1 2.2-4.4 4.1-7.4 4.6-3 .3-5.8.1-8.4-1A23 23 0 01171 82c-1-1.3-.8-1.9.6-2.5l4.8 5.4zm-70 31.8h-.5l-1 1.9-1.3 1.5a4 4 0 01-1.6-1.7c-.6-1.5.2-3 .7-4.6l1.5-6c.1-.5-.3-1.9.9-2 1.2-.4 1.4 1 1.7 1.8 1.7 4.7 3.5 9.4 6.5 13.5.5.8 1.3 1.7 1.3 2.5-.4 1.5.6 2.4 1 3.5l1 3.2c.5 1.4.2 2.7-.7 4.1-1.3-1.2-2.4-.8-3.6.3l-1 .8c-.6.4-1.3.9-2 1-.8.5-1.3-.3-1.2-1 .2-1 .3-2 .2-3-.2-1.9-.3-1.9-2.1-1.9l-.2-2c-.3-3.2-.8-6.2.3-9.3.3-.7 0-1.7 0-2.4v-.2zm113.2-3.2h-.3v2.8c.1 2 .4 3.8.4 5.8v3.5c0 .7.2 1.3-.9 1.3l-.7.8c-.3 1.2-.6 2.6 0 3.8v1.5c-.5.2-1.3.3-1.6.2-1.2-.5-2.2-1-3-1.8-1-.8-1.7-1.3-2.6-.5-1 .6-1.4 0-1.5-.6-.6-1.8-.5-3.8.6-5.5.4-1 1.2-2 1.2-3 0-1.4.5-2.8 1.2-3.9l4-7.1 2.7-7.6c.2-.5.6-.7 1-1 .3.3.7.7.7 1 .2 2.7 1.4 5.1 2.5 7.6.9 2 .4 4.2-1.1 5.8l-2.6-3zm-.2-19.6c-.1-1.9-.6-3.2-.6-4.6.2-1.8.8-3.7 0-5.5-.3-.8.2-1 1-.8l2 1.1 1.5.5c1.2-.7 1.6.1 2 .9.5 1.6 1.2 3.5 1.5 5.2.3 2.9.3 5.9.3 9 .1 2.7.1 5.6 1.3 8.2a5.8 5.8 0 003.2 3.3l3.7 1.6c-.6.3-1.2 1-1.8 1-1.6 0-3.4.2-4.6-.6a11.6 11.6 0 01-5-6.2l-1.9-6.4s-.1.3-.4.3h-1.5c-.2-.2-.4-1-.2-1.4.2-1 .6-1.8 1-2.7L223 93l-3.4 1.1V94zm28.7 9l1-.5 13-4.3c1.9-.6 4-.4 5.8.2 2.5.7 4.6 2.3 6 4.2 1.8 2.3 3.5 5 2 8.4a9.6 9.6 0 01-4.8 5.2c-2.3 1-4.2 0-6.7-2.1-1.4-1.2-1.5-3-.9-4.6l1.2-2.3c.6-1 1.5-.9 2.6-.6-.3.3-.7.6-.7 1-.4.5-.7 1.3-.5 1.8.3.7 1 .9 2 .7.6-.1 1.5.2 2 .5l1.5 1.5c.3 0 .7.3.9 0 1.4-.3 2.7-3 2.3-4.6-.5.5-1 1-1.5 1.2-1 .7-1.4-.3-1.9-.9l1.3-1.3c1-1.1 1-2.3.3-3a22.9 22.9 0 00-4.2-3.6c-.6-.3-1.5-.6-2.6 0 1 1 2.2 1.8 1.6 3.4-1.4-.5-2.6.3-3.8 1-1.9 1.2-3.4 1.2-5-.3-2-2-5-2.4-7.5-1.2l-2.3.5h-1.1v-.3zM60.1 113c2.1 1.4 3.3 4 1.5 6.4-.8 1-1.7 1.8-2.6 2.6-1.2 1-2.7 1.8-4.3 1-1.5-1-3-2-4-3.6-1-.9-1.6-2.4-1.6-4 0-1.5.8-3 1.5-4.5 1-2.4 2.9-4.3 5.2-5.4a20 20 0 015.2-1.3c.9 0 1.7-.2 2.4 0l12.7 3.6.9.5v.4l-2.4-.3c-1.1-.1-2-.4-3.1-.4-1.4-.3-3 .2-4 1.2s-2.2 1.7-3.5 2.1c-.6.2-1.6 0-2.4-.4-1.4-.6-2.4-1.9-4.1-1l-.3-.4 1.6-3.5c-2.4.2-4 1.5-5.4 3.4-1.7 2.4-1.7 3.2.6 5v.4c-.5.2-.8.8-1.2.8l-2.5-1c.3 1 .5 1.8 1 2.5.7 2 2 2.3 3.4.8.3-.3.5-.6 1-.8.6-.1 1.3-.4 2-.4.7.1 1.3.7 1.6-.2.6-.6.6-1.4 0-2.1l-1.2-1.5c.9.1 1.7-.2 2 .1zm42-16.6c.4 2.9 3.3 4.9 3.1 8l-2.6-.4v1.7c.2 4.3-1.8 7.3-4.6 10.4a7.2 7.2 0 01-4 2.1c-1.6.3-2.5-.2-3.1-1 3.6-.8 7.3-3.6 7.3-8.2v-7.4c-.2-3.4-.2-6.6.7-9.6.2-1 .7-1.9 1.1-2.8.2-.3.6-.6 1-.6l2.7-.6 1.8-1-.3 2.4c.5 2.3.5 4.7.3 7-.2 1-.6 1.4-1.4 1l-1.5-1.2-.5.2zm108-20.9c0 2.1.9 3 3 3.4 1.1.3 2.2.9 3 1.3.4.2.4 1 .4 1.3.1.6.1 1 .4 1.5.2.4.8.9 1 1.5V88c0 .3-.3.6-.5.6-1-.1-2.1.3-3.2.3-.8 0-1.5-.6-2.3-1-.7-.5-1-.3-1.2.4v2h-.5l-.4-.3c-1.5-1.8-3.2-3.5-4.3-5.7-1.2-2-2.1-4.4-.7-7 .9-2 3.2-3.8 5.4-2.7l-.1 1zM114.5 93l-.6-2.6c-1 .7-1.8 1.6-2.6 1.6-1.2.3-2.4 0-3.8 0l-.3-.5c-.2-1.5-.5-3 .4-4.4 1.1-1.5 1.1-1.5.2-3 1-1.3 2.6-2 4.1-2 1.8-.2 2.8-1.6 2.4-3.4-.3-1.2 0-1.5 1.3-1.5a4.6 4.6 0 014.8 4.3c.2 4.8-2.4 8.3-5.4 11.5h-.5zm87.4 57c1.8-1.2 4-1.3 5.8.2 1 1 2 2.1 3 3.4 1 1.2 1.2 2.7 1.2 4.2-.3 4-2.6 6.6-5.6 8.7-.8.5-1.9.6-2.8 1l-.1-.5 1.7-1.7 1.5-1.8c1.7-1.9.7-3.4-1-4.6-.7-.3-1.5-1-2-1.5-1.3-1.5-1.3-2.2.2-3.7l.5-.4c-2.9-2.8-4 .6-6 1.8 0-2.3 1.6-4.3 3.6-5.2zm-78.1 19.9l-.5-.2c-2.7-.4-4.5-2.3-6.4-4a7.6 7.6 0 01-1.5-7.3c.6-2.1 1.9-4 3.7-5.3.7-.6 1.6-1 2.6-1.2 2.6-.5 4.5.6 6 2.6l1.1 2.7h-.3c-.9-.9-1.7-1.8-2.7-2.4-1-.6-2.3-.3-3 1.2 1.6 1.2 1.8 1.7.7 3.5-.8 1-1.7 1.8-2.8 2.6-1.5 1.5-1.6 2.4-.1 4l3.4 3.3-.2.5zm67.8-7.8a13.1 13.1 0 01-2.9-13l.8-.9.5 1c-.2 1.9.3 3.8 1.5 5.3l1.5 2c.5.4.6 1 .5 1.3-.6 1.6.4 2 1.5 2.2.8.3 1.5 0 2.3 0 1.4-.5 2.6-.5 3.8.4.6.6 1.5 1 2.3 1 1 0 1.2.7 1 1.6-1 3.2-4.2 5.2-7.9 3.2-1.2-.6-2.3-1.7-3.3-2.6l-1.6-1.5zm-57.9-3.3l1.2-1.6c1.4-1.8 2.5-3.8 2.2-6l.4-1.4.6.9c1 3.8 1.1 7.9-1.2 11.4a21 21 0 01-5.2 5.2c-3.3 2.7-5.3 2.4-8 0-1.1-1-1-2-1-3 1-.4 1.9-.4 2.5-1 1.6-1.2 3.3-1.8 5.3-1.2 1.7.5 2.6 0 3.5-1.5-.9-.5-.8-1.2-.3-1.8zm75.3-35.1l-.3 1-1.2 2.3c-1 2-1.1 4.4-.3 6.4.5 1.4 0 3-.8 3.2-1.2.2-1.2 1-1.2 1.7l.3 2.3c.2.8 0 1-.9 1-1 0-2.1-.2-3-.8-1.1-.5-1.7-1.1-2.3.4-1.6-1.4-2-3-1.3-4.6 1-3 2.6-5.8 5-7.9l4-4 1.6-1.3.4.3zm-84.3 19.7l-.3.1c-1 1-2 1-3.5.6l.6-1.2c.3-1-.1-3-.6-3.4-1.8-1-2.1-1.8-1.5-3.6.9-2.6.4-5.4-1.4-7.5l-1-1.7.2-.3 4.6 3.7c2.6 2.3 5 4.7 6.3 8 .7 1.9.4 3.6-.3 5.6-1.1-1.9-2.2-1-3-.3zM71 115.3c1.3-2.4 3-4.6 5.5-5.5 2.6-1 5.5-1.7 8.3-2.6l2.7-.9-3.3.3c-3.9.6-6.6-1-9-3.6-.6-.8-.6-1.7 0-3.1l1.5 1.8c.6 1 1.2 2 2 2.6 3 2 6 2 9.1.5 1-.5 2.3-.6 3.5-.8v.3c-1.8 2-4 3.4-6.4 4.4l-4 1.3c-2 .9-4 2.1-4.2 4.5-.3 1.7-.9 3.2-1.8 4.6-.7.8-1.1 1.7-.3 3-3-.7-4.6-4.8-3.6-6.8zm53.1-48.2c-.6 1-1.7 1.7-2.6 2.6l-.8-.3c-.4-1.2-1.6-1.4-2.7-1.4l-8-.7c.4-.5.7-1 1.1-1a16 16 0 013.6-2c.4-.4 1.2-.4 1.8-.4l4.9.8 1.2-.3V64l-3.5-1.4 2-1c2.9-1 5.4-1 7.9 1.2.6.6.6 1.3 0 2-.6.8-3 1-3.7.2l-1.3-.7c.1 1.2.4 2.1.1 2.7zm126 30c-2 3.1-5.7 5.5-9.7 4.6l-3.3-.6v.3l1.7.8 7 1.5c2.7.6 5.3 2 7.3 4a5 5 0 01-.8 7.9l-2-4c-.4-.7-.6-1.6-.9-2.6-.3-.7-.4-1.6-.9-2.2-1-1.4-2.9-1.9-4.4-2.3-2.5-.8-4.7-1.4-7-2.3a5.9 5.9 0 01-2.8-2.3l.3-.3 1.3.8c0-1.3.7-1 1.2-.7 1.2.8 2.4 1.1 3.8 1.1 3.3.2 6.5-1.8 8-4.9l.5-.9c1 .8 1.2 1.4.6 2.2zm-116.7 57.4c-.8-1.4-1.2-2.3-2-3-1.2-1.4-1.2-3.1-.7-5a9 9 0 00-.8-6.8l-1.2-2.9.3-.3 2.4 2 3.8 5.6c1.7 2.8 1.4 5.3-.1 8l-1.7 2.2v.2zm64.3-20.1l-1.2 3.6a8.4 8.4 0 00-.6 5.8c1 3.4-.8 5.8-2.4 8.4-2.6-1.7-3.8-4.9-3-7.3 1.3-4.3 3.9-7.6 7-10.7l.2.2zM176.1 92l-.3.3a7 7 0 01-5.8.7c-1-.4-2-.4-3-.6l-.8-.4a5.3 5.3 0 01-1.2-7c.3-.5.9-1 1.5-1 1.5-.3 2 1.1 2.7 2 1.1 1.4 1.6 3.2 3.4 4.1l3.5 1.7v.2zm-20.3-5.7l.5-.6c.4-.9 1-1.7 2-1.4.7.2 1.6 1 2 1.7 1 1.9 0 5-1.4 6.4l-.5.3-4.9 1.1c-1.8.2-3.6-.2-5.2-1.2 3.4-.8 6.2-3.1 7.5-6.3zm3.2-15.8c1.7-1.9 4.3-2.3 5.8-.8 1.8 1.7 2.3 4.3.8 5.8-2 2.1-4.3 2.4-6.1.6-1.9-1.7-2-4.1-.5-5.6zm56.1 30c-.4-2-1.4-4-2-6l-.9-2c-.3-1.4.3-2.2 1.9-1.9 2.8.5 5.4 4.3 4.8 7 0 .3-.3.8-.4.8-1 0-1 .4-1 1l-.7 4.5c0 .9-.8 1.5-1.5 1.8-.2-1.8.1-3.7-.2-5.2zm-107.2 4c-.1-1 .2-2.5-1.5-2.8l-.1-.3c.1-1.3-.2-2.9.3-4 .9-1.7 2.5-3.1 4.4-3.8 1-.3 2.1.4 1.8 1.6 0 .8-.3 1.7-.7 2.4-1.6 3.5-3 7-1.7 10.8-1.7-.9-2.3-2.2-2.5-4zM213.7 64l-8 1.5-1.4.3c-1.5 1.4-1.5 1.4-3 0l-.7-.8c-.6-.4-1.2-1.2-.6-1.8.3-.6 1-1 1.9-1l5-1.1c.8 0 1.7-.3 2.3 0 1.7.6 3.2 1.7 4.9 2.4l-.4.5zm-34 14.3l-.3-.1c-1.8-3.6-2-7 .2-10.6 3-4.5 7.8-7.6 13.3-8.2h1a5.4 5.4 0 01-3 3l-4.6 1.6c-5.2 2.4-8.5 7.1-6.4 13l.3 1.6-.4-.3zm-48.1-17c4.7.5 8.4 2.7 11.9 5.7 3.2 3 3.2 8.1 2 11.2l-.5.9v-1.3c1-5.4-1.2-9.1-5.8-11.5-1.8-1.1-4.1-1.4-6.1-2.2-.6-.1-1.2-.3-1.5-.6-.6-.6-1-1.4-1.6-2.3h1.6zm-44 35.1c0 1.9 1.3 3.2 2.7 2.6 1.5-.6 2.9-1.2 3.5-3l1.6-4.6c.3-.9.8-1.7 2.2-2a87.5 87.5 0 01-4.1 12.2c-1.3-.1-2.2-.6-3-.3-1.8 1-3 .2-4.5-1.2-.8-.8-.6-1.5-.3-2.4l1.5-1.6.3.3zm142-9.7l.8 3c.6 2 2 3.7 4 4.6 1.3.6 2.4.3 3-1v-1.6c1.5.8 2.3 1.5 2.3 2.3-.2 1.8-3 3.7-4.6 2.9-1.2-.6-2.1-.6-2.6 1h-.5l-.7-1.1-3.5-10.3V86c1-.4 1.5-.1 1.8.8zm-61.3-15.3l-2.3-3a5 5 0 00-3.6-1.5 7 7 0 00-5.8 4.4c-.5.8-1 1-1.5.8-.4-.2-.5-1-.4-1.4.5-2 1.9-3.4 3.4-4.6 2-1.5 5.8-1.7 7.6-.5 1.9 1.6 4 3.1 4.4 6.1l-1.8-.3zm61.5-5.9c.3-1 1-2 1.8-2.6 1.8-1 3.6-.3 5.2.6 2.3 1.2 4 5.2 2.3 7.2v-.6c0-1.6-.5-2.8-1.6-4-.6-.5-1-.6-1.8 0-.5.3-1.2 1-1.8 1-1.4-.2-2.5.2-3 1.8-1.6-.8-1.4-2.3-1.1-3.4zM162.2 81c-3.6 0-7.8-3.7-7.6-6.6 1-.6 1.7.2 2.1 1.1 2 3.4 6.4 4.7 9.5 1.5l1.7-2.3c.4-.6.9-1.2 1.8-.9.1 3.2-4 7.2-7.5 7.2zm-70.6-9.3a4 4 0 01-3.3-1c-.2 0-1-.2-1.2 0-.8.7-1.7 1.5-1.6 3l-.1 1.5c-.5-.3-.6-.8-.8-1-.9-2.2 2.2-6 4.1-6.6 2.3-1 4.1-.5 5.5 1.5 1 1.2 1 2.9-.3 3.7-.9-.5-1.7-1.3-2.3-1.1zM70.1 92.6c-1-1.5-1-2.8.5-4.3 1-.9 2.1-.9 3 0 1.3 1 1.6 2.1 1.3 3.7l-1 5.8-3.8-5.2zm180.8-.8l-.9-5.5c-.3-1.3.3-2.6 1.3-3.6.3-.3 1.2-.6 1.8-.6 1.4.1 2.6 2.3 2 3.5l-3.5 6.4-.7-.2zM80 96.2v1.6c-.6 1.3-1.6 2-3 1.6-1.2-.3-1.8-1.2-1.5-2.7l.9-2.3c1.4-2.6 2.9-3.5 5-3L80 96.2zm65.1-35.5c2.8 2.6 4.6 6 5.4 9.6.4 1.9.3 4 .3 6l-.3.9c-.2.3-.6.3-.8.3a.8.8 0 01-.4-.8v-.6c.1-3.6 0-7.3-2.3-10.3l-3.2-4c-.3-.5-.3-1.2-.5-1.8l1.8.4v.3zM64.8 97c2-1.6 6.7-.7 8 1.5.7.9.5 2.4 0 3-.8.5-2.4.5-3.1-.1L68 99.7l-3.6-2.5s0-.3.3-.3zm184.8-4.6c-.2 1-.6 1.7-1.7 1.8-1 .3-3-1.5-3-2.7 0-1.9 0-3.7-1.9-5.2 3.5-.3 7.3 2.9 6.6 6zm-46.4 32.6l-.6.6c-2 1-4 2-6 2.8-1.6.6-3.3 1.2-4.8 1.3-2.4.5-4-1-5.5-2.6-.8-.7-1-2.1 0-2.9.3-.4 1-.6 1.5-.4.5 0 1 .7 1 1 .1 2 .6 2.8 2.4 3.1 2.4.3 4.8 0 7-1l5-2v.1zm-75.1 4.1c2 .9 4.3 1 6.5.5 1.5-.5 2.6-1.5 2.8-3 .1-.5.4-.8.9-1 .3-.3.7 0 1 0 1.1.8 1.3 2.1.7 3a6.1 6.1 0 01-4.5 2.8 24 24 0 01-11.5-3.5l4 1.2zm129.6-35.7c-1 .7-1.8 1.6-2.5 2.5-.6.6-1.4.4-2 0-.7-.5-2-1-1.2-2.3a9.7 9.7 0 013-3c2-1.1 4.2-.7 5.7.7l-3 2.1zM113 116c-.3-.3 0-1 0-1.5.5.3 1 .3 1.2.7.8.7 1.3 1.4 1.9 2.2.7.9 1.8.6 2.3-.6l.4-1.1a2 2 0 011-.5c.7.5 1.8.8 1.8 2-.2 1.4-1.1 2.5-2.2 3-2 .8-3.2-.5-4.5-1.6-.7-.8-1.4-1.7-1.9-2.6zm103.5-9.4c-3.3 4-8.3 5.8-11 1 .4-.3 1-.3 1.4-.7 1-.8 1.9-.6 3-.2 2 1 4 1.4 6-.1h.6zm-103.3 4l2.4-1c1.7-.6 2.8-.5 4.1 1-1.6 2.7-2.6 3.1-5.6 2.7-2-.4-3.7-1.5-4.9-3a5 5 0 004 .4zm6.2 12.7c1.4.8 2.6 1.2 4.1 1.6 1.4.1 1.9-.4 2.2-1.9l.9-1.5c.8.5 1.7 1 2.1 1.5.3.3.3 1.4 0 1.9-.6 1.2-3.2 2-4.7 1.8-3-1-5.5-3-7.6-5.2 1 .6 2 1.4 3 1.8zM210 118l-2.4 2.4c-1.5 1.7-3.5 3-5.6 3.8-2.3.7-4.6-.6-5-2.7 0-.8 1.1-2.3 1.8-2.3 1 0 1.3.6 1.5 1.5 0 1 1.2 2.2 1.8 2l4.3-2c1.3-.7 2.4-2 3.6-2.9v.2zm-11.4-54.7h-1.4l-1.5-.3c-.8-.2-1.4-.8-.8-1.4 1.1-1.5 2.6-2.6 4.6-2.3l4.3.8-5.2 3.2zm14.3 48.4c-.6 1.3-1.2 2.5-2.1 3.7-1.8 2.6-4.1 2.6-6.1.2-.6-1-.3-2 .5-2.5.9-.6 1.5-.3 2 .8.4 1.5 1.2 1.8 2.4.7l1.2-1.2 1.7-1.8.4.1zm-25.3-28.2c-2.1 2.2-10.2.5-11.7-3.6.6-.8 1.2-.8 1.8 0 2.2 2.3 4.6 3.6 8 3.3l2 .2v.1zm-39-2.7c-2.1 4.7-8.8 6-11.4 4.1l2.4-.1c2.7-.4 5.3-1.6 7.3-3.7l1.5-.8.2.5zm16.2 16.2c-1 1-2.6 1.3-3.4.6-1.2-1.3-1.4-2.2-.3-3.4 1.2-1.2 1.5-1.2 2.7-.1 1.1 1 1.6 2.2 1 2.9zm45-3.4l2 3.8c.7 2 .4 3.5-1.5 4.6-.4.3-1.2.3-1.5 0-.4-.3-.9-1-.9-1.5-.2-.3.8-1 1.2-1 1-.3 1.7-.9 1.5-2l-.9-3.9h.2zm-94.9 5.3c-.6 2.3-.5 2.8 1.8 3.5 1.1.3 1.4 1.1.6 1.9-.4.4-1.5 1-2 .7-.7-.4-2-1.2-2-2 0-2 .5-4 2-5.3l-.4 1.2zm90.9-11.4v-.2l1 2 1.1 2.2c1 1.5 0 2.7-1 3.3-.7.3-1.7.2-2.2-.1-1-1.1.5-1.6 1-1.6 1.3-.4 1.4-1.3 1.1-2.4l-1.2-3.2h.2zm-96.2-7c-1.1-1-1.1-1.7 0-2.6.6-.8 1.8-.6 2.6 0 .6.8.7 1.7 0 2.4-1 .8-1.9 1-2.6 0v.2zM215 74.6c.6.6.9 1.7.6 2.1-.6 1-2.5 1-3 .3-.8-.7-.7-1.5 0-2.1 1.1-1 1.8-1.2 2.4-.3zm-96.5 17v.8c-.5 2-.2 2.5 1.6 3.4.3.1.6.9.6.9-.3.5-.7 1-1.2 1-1.2.4-2.9-1.6-2.4-3l1.2-3h.2zm5.5-2c-1 1.8-1.3 1.8-2.5.7-.8-.6-1-1.2-.8-2.1l.7-3.4c.4 1.8-.2 4.1 2.5 4.9zm79-7.5v.1-.1zm0 .1h.5c.2 1.5.6 3.2.6 4.7 0 .5-.6 1.1-1 1.6-.8.3-1.5.1-2-1 3-.9 2-3.2 1.8-5.3zm19.7 347.2l.7 1.5c2-3 5.1-4 9-4.4l-1 2.9c3.5 0 6.4 1.5 9.3 3.8l-1.5.6a9.4 9.4 0 012.3 5.3c-2.3-.7-3.5-3.5-6.4-2.7l.1.6c.4 1.2 0 1.5-1.2 1l-2.9-1.2-1.5-.4.2 2.9c-2.5 0-5-.5-7.4.7l1.7 2 .3.8-.6.3c-2.3-.3-4.3.6-6 1.7-1.6.9-3 1.2-4.7.6-1-.5-2.4-.3-3.5-.3l-3.2-.5c-.9-.1-1.5-.9-1.5-1.8 0-.6.5-1.7 1-2 1.8-1.2 4-1.7 6.2-1.5 2.9.3 4.2-.5 5.3-3 1-3.1 3-5 5.3-7zm-128.3 6h.1-.1zm1-3.1c-2 0-4 .6-5.8 1.8l-.3-1c.2-1.3-.4-1.4-1.5-1.3-2 .3-3.5 1-4.6 2.6a4 4 0 01.8-3.5c1.2-1.5 1.2-1.5.3-2.8 2.5-2.4 5.7-2.9 9.2-3l-1-2.9c3.7.3 7 2.2 9 5.2 0-.6.3-1 .5-1.7 1.8 2 3.8 3.5 4.6 6.1.4 1.2.9 2.8 2.4 3.5 1 .3 2 .8 3 .8a10 10 0 016.3 1.8c1.5 1 1.5 2.6 0 3.5-1.2.6-2.5.8-3.8.6h-6l-8.5-3.2 1-1.4c.7-.9.5-1.3-.5-1.8-2-.7-4-.9-6-.3l1-3zm40 4.4l-2-2.6c-1-1.5-.8-3.2.6-4.6 2.6-2 4.3-2.3 6.3-1.2 4 2.4 5.3 8.2.3 11.4-2.3 1.6-4.8 2.2-7.7 1a13.7 13.7 0 01-5.7-7.7c-.5-1.8-.4-3.5.3-5.2 2-5.8 8-9.1 14.1-7.9 3.8.6 7.2 2.6 9.6 5.8l2.2 2.8.6 1.2c0 .6-.5.9-.6 1.5-.5-.3-1-.5-1.2-.8a18 18 0 00-6.6-6c-3.5-2.2-10-2.5-13.7 2.5-1.9 2.8-1.2 7.5 1.5 9.5l2 .6v-.3zm36.3-4.6c-1.4-.8-1.6-1.4-.6-2.6 2-2.6 4.2-5.5 7.6-7 2.6-1.4 5.5-1.5 8.4-1 3 .2 5.3 2.2 7.4 4.5 1.6 1.6 2.7 3.6 3 5.8.7 2.9-.7 5.2-2 7.5-1.6 2.3-3.9 3.2-6.4 3.6-1.7.2-3.4-.4-4.6-1.5-1-1.2-2.3-2.4-3-3.6-1.1-1.6-1.1-3.6 0-5l1.1-1.6c1-1.5 2.5-2.4 4.3-1.8 2.2.6 4.1 1.5 4.6 4 .4 2-.8 3.4-2.3 4.5l-.6.5c1 .6 1.5.3 2.1 0a7.3 7.3 0 003-7.4 6 6 0 00-3.1-4.5c-3.7-2.5-7.6-3-11.6-1.4l-2.5 1.5-4.8 5.5zm-65.3-37.3c0-1 .3-1.9 0-2.6-1-3-.6-6.1-.3-9.3l.2-2c1.8 0 2 0 2.1-1.8 0-1 0-2-.2-3.1-.1-.8.4-1.4 1.1-1l2.1 1 1 1c1.2.8 2.3 1.3 3.6 0 1 1.4 1.2 2.8.8 4.3l-1 3c-.5 1.3-1.5 2.2-1.1 3.6 0 .8-.8 1.8-1.3 2.6-3 4-4.8 8.7-6.5 13.4-.3.8-.5 2.1-1.7 1.8-1.2-.1-.8-1.3-1-2.1l-1.4-6c-.5-1.5-1.3-3-.7-4.5.4-.6 1-1 1.6-1.5l1.3 1.3 1 1.9h.4zm115.9.3c1.5 1.3 2 3.8 1 5.6-1 2.4-2.2 4.9-2.4 7.6 0 .3-.4.6-.7 1l-1-.8c-.9-2.6-1.6-5.2-2.7-7.6-1.2-2.6-2.6-5-4-7.4a7.6 7.6 0 01-1.2-3.8c0-1-.8-2.1-1.2-3a6.3 6.3 0 01-.6-5.5c.1-.6.6-1.2 1.5-.6 1 .7 1.7.3 2.6-.5l3-1.8c.3-.2 1.1 0 1.6.3v1.2c-.6 1.5-.3 2.8 0 4.1l.7.6c1.1 0 1 .7 1 1.6v3.5l-.5 5.6v2.8h.3l2.6-3zm-2.8 22.5l3.4 1c-.6-1.3-1.4-2.5-1.8-3.9-.5-.9-1-1.8-1.1-2.7-.2-.5 0-1 .2-1.2.4-.3 1 0 1.5 0l.4.1 1.9-6.2c.8-2.7 2.6-5 5-6.4 1.2-.8 3-.6 4.6-.6.6 0 1.2.7 1.8 1.2l-3.7 1.5a4.8 4.8 0 00-3.2 3.2c-1.2 2.6-1.2 5.5-1.3 8.2 0 3 0 6.1-.3 9-.3 1.7-1 3.5-1.6 5.2-.3.8-.7 1.5-2 1-.3 0-.9 0-1.3.4l-2.2 1c-.7.4-1.2 0-.9-.7.8-1.8.2-3.7 0-5.3 0-1.6.5-3 .6-4.8zm28.7-9.3h1l2.4.5c2.9 1.2 5.3.7 7.6-1.2 1.5-1.6 3-1.6 4.9-.3 1.2.7 2.4 1.5 3.8 1 .6 1.6-.6 2.3-1.6 3.4 1.1.7 2 .4 2.6 0 1.6-1 3-2.2 4.2-3.4.7-.9.7-2.1-.4-3l-1.2-1.5c.5-.7 1-1.4 1.9-1l1.5 1.3c.4-1.6-1-4.2-2.3-4.6-.2-.2-.6 0-1 .1-.4.5-.8 1.1-1.4 1.4-.5.3-1.4.6-2 .5-1 0-1.7 0-2 .7-.2.5.1 1.2.5 1.9 0 .3.4.6.7.9-1 .3-2 .4-2.6-.6l-1.2-2.3c-.6-1.7-.5-3.2 1-4.6 2.4-2.1 4.3-3 6.6-2s3.8 2.8 4.8 5c1.5 3.4-.2 6.1-2 8.6-1.5 2-3.6 3.4-6 4.1-1.8.6-3.8.8-5.8.2l-13-4.3-1-.5v-.3zM58.1 399l1.2-1.5c.6-1 .6-1.6 0-2.3-.3-.8-1-.2-1.5-.2-.8 0-1.5-.3-2.2-.4-.4 0-.6-.5-.9-.8-1.5-1.5-2.7-1.2-3.5.8-.4.7-.6 1.5-.9 2.5 1-.4 1.7-.9 2.5-1 .4 0 .7.6 1.2.7v.5c-2.3 1.8-2.3 2.6-.6 5 1.3 2 3 3.2 5.4 3.4l-1.6-3.5.3-.3c1.7.7 2.7-.5 4-1.1.9-.5 2-.6 2.5-.3 1.3.4 2.5 1 3.5 2s2.5 1.6 4 1.4l3-.7 2.5-.1v.3l-1 .5-12.6 3.6c-.7.2-1.5.2-2.4 0a20 20 0 01-5.2-1.4c-2.3-1-4.2-3-5.2-5.3-.7-1.5-1.5-3-1.5-4.6 0-1.3.6-3 1.5-4a13 13 0 014.1-3.4c1.6-.8 3-.2 4.3.9 1 .7 1.8 1.5 2.6 2.6 1.8 2.4.6 5-1.5 6.4-.3.3-1.1.1-2 .3zm44.5 16.6l1.5-1c.8-.5 1.3-.2 1.4.7.2 2.4.2 4.7-.3 7.2l.3 2-1.8-.8-2.8-.6c-.3 0-.7-.3-.9-.6-.5-.8-.9-1.7-1-2.6-1-3.2-1-6.4-.8-9.6v-7.7c0-4.5-3.7-7.3-7.3-8.2.6-.8 1.5-1.2 3-1 1.5.5 3 1 4.1 2.4 2.8 2.9 4.8 6 4.6 10.2v1.7c1 0 1.7-.3 2.6-.5.1 3.4-2.7 5.2-3 8l.4.4zM210.2 437c-2.2 1.2-4.5-.8-5.4-2.8-1.4-2.4-.5-4.8.7-7 1-2 2.8-3.8 4.3-5.6l.4-.3h.5v2c.2.7.5.9 1.2.4.8-.4 1.5-1 2.3-1 1 .1 2.1.4 3.2.3l.5.6v3.6c-.2.5-.8 1-1 1.6-.3.3-.3.9-.4 1.3 0 .3 0 1.1-.3 1.2-1 .5-2 1.3-3 1.4-2.2.3-3.1 1.2-3.1 3.4l.1.9zM115 418.7c3 3 5.6 6.7 5.4 11.4 0 2.6-2.3 4.6-4.8 4.4-1.3 0-1.6-.4-1.3-1.5.4-2-.6-3.3-2.4-3.5-1.5 0-3-.7-4.1-2 .9-1.5.9-1.5-.2-3-.9-1.4-.6-3-.4-4.4l.3-.5c1.4 0 2.6-.3 3.8 0 .8.2 1.5 1 2.6 1.5l.6-2.6h.5v.2zm83.3-62.2c2 1.2 3.1 4.6 6 2l-.5-.6c-1.5-1.6-1.5-2-.3-3.7.7-.6 1.4-1.1 2.2-1.5 1.6-1.2 2.6-2.8.9-4.6-.6-.5-1-1.2-1.5-1.8l-1.7-1.5.1-.7c1 .3 2 .5 2.8 1 3 2 5.3 4.7 5.6 8.8 0 1.5-.1 3-1.2 4.1l-3 3.4c-1.9 1.5-4 1.3-5.8.3-2.2-1-3.6-3-3.6-5.2zM124 342.3l-3.3 3.2c-1.5 1.5-1.4 2.6.1 4 1.1.7 2 1.5 2.8 2.7 1 1.5 1 2.2-.8 3.4.8 1.5 2 1.8 3 1.2 1.1-.5 2-1.5 2.8-2.4h.3l-1 2.7c-1.6 2-3.5 3-6.1 2.6-1-.2-1.8-.6-2.6-1-1.9-1.6-3-3.3-3.7-5.6a7.6 7.6 0 011.5-7.1c1.9-1.9 3.7-3.7 6.4-4.1h.5l.2.4zm69.3 5.7c1-1 2.1-2 3.3-2.6 3.7-2 6.9 0 8 3.3.1.8 0 1.4-1.1 1.5-.8 0-1.7.3-2.3 1-1.2.9-2.4.9-3.8.6-.8-.3-1.5-.5-2.3-.2-1 .2-2.1.6-1.5 2.1.1.5 0 1.1-.5 1.6l-1.5 1.8a7.6 7.6 0 00-1.5 5.3l-.5 1c-.3-.4-.6-.5-.8-1-1.2-4.7-.6-9.1 3-12.8l1.5-1.5v-.1zm-59.2 3.2c-.9-1.6-1.8-2.2-3.5-1.7-2 .6-3.7 0-5.3-1.2-.6-.5-1.6-.7-2.5-1 0-1-.1-2 1-3 2.7-2.4 4.7-2.8 8 0 2 1.5 3.8 3.2 5.2 5.3 2.3 3.5 2.1 7.3 1.2 11.3 0 .3-.3.5-.6 1l-.4-1.3c.3-2.4-.8-4.3-2.2-6l-1.2-1.6c-.4-.8-.6-1.5.3-1.8zm74.6 37l-1.6-1.4c-1.5-1.2-2.7-2.7-4-4a19.4 19.4 0 01-5-7.7c-.7-1.8-.3-3.4 1.3-4.6.6 1.5 1.2.8 2.3.3.9-.6 2-.7 3-.9 1 0 1 .5 1 1.2l-.4 2.2c0 .7 0 1.5 1.2 1.6.8.2 1.3 1.9.8 3.2-1 2.3-.6 4.3.3 6.4.3 1 .8 1.6 1.2 2.3l.3 1.1-.4.3zm-80.8-20.1c.7 1.8 1 3.5.3 5.3a20.3 20.3 0 01-6.3 8l-4.6 3.8-.3-.4 1.1-1.6c1.8-2.1 2.3-5 1.4-7.5-.6-1.8-.3-2.6 1.5-3.7.5-.3 1-2.4.6-3.3l-.6-1.2c1.5-.3 2.4-.3 3.5.6l.3.3c1 .6 2 1.5 3-.3zm-53.2 21.3c-.8 1.2-.4 2.2.3 3 1 1.4 1.5 2.8 1.8 4.5.3 2.4 2.1 3.7 4.3 4.6l4 1.2a19 19 0 016.3 4.6v.1c-1.2-.1-2.4-.1-3.5-.6-3-1.5-6-1.7-9.1.5-.8.7-1.5 1.5-2 2.4l-1.5 1.8c-.6-1.3-.6-2.3 0-3 2.4-2.6 5.1-4.3 9-3.7l3.3.3-2.7-.9-8.3-2.4c-2.4-1.2-4.3-3.1-5.5-5.5-1-2.2.7-6.1 3.6-6.9zm49.4 57.8l1.3-1c.8-.7 3-.5 3.7.4.6.6.6 1.4 0 2-2.5 2.1-5 2.3-8 1l-2-.9 3.6-1.3v-.3c-.5 0-.8-.4-1.2-.2-1.6 0-3.4.5-5 .6l-1.8-.1-3.5-2-1.2-1.2 8.1-.8c1 0 2.3-.2 2.7-1.4l.8-.3c1 1 2 1.5 2.6 2.6.3.6 0 1.5-.1 2.9zm125.4-30.8l-.6-1a8.1 8.1 0 00-8-4.6c-1.3 0-2.5 0-3.7.9-.5.3-1.2.6-1.2-.6l-1.3.7-.3-.3c.6-.9 1.6-1.8 2.8-2.3 2.3-.9 4.5-1.5 7-2.2 1.5-.5 3.3-.8 4.4-2.3.5-.6.6-1.6 1-2.3l.8-2.6 2-4c2.8 1.9 3 5.7.8 8-2 2-4.6 3.3-7.3 4l-7 1.4-1.7.8v.3l3.3-.6c4-.8 7.7 1.5 9.6 4.6.6.7.5 1.3-.6 2.1zm-116-59.3l1.7 2.3c1.5 2.6 1.8 5.2.1 8l-3.8 5.6-2.4 2-.3-.2 1.2-3a9 9 0 00.8-7c-.5-1.8-.5-3.3.7-4.8.8-.8 1.2-1.7 2-3v.1zm64 20.1c-3-3-5.6-6.4-7-10.5a7 7 0 013-7.5c1.7 2.6 3.6 5 2.5 8.4-.6 2-.1 4 .6 5.8l1.2 3.7-.3.1zm-21.3 42.4l-3.5 1.7c-1.8.9-2.3 2.7-3.4 4.3-.7.9-1.2 2-2.7 1.8-.6 0-1.2-.5-1.5-1-1.6-2-.8-5.4 1.2-7l.7-.4c1.1 0 2.2-.2 3-.5 2.2-.7 4-.3 5.9.8l.3.3zm-27.8-1c1.9-1 3.5-1.1 5.2-.8 1.6 0 3.2.6 5 .9l.4.3c1.5 1.5 2.4 4.6 1.5 6.4-.5.8-1.4 1.5-2.1 1.7-1 .3-1.6-.5-2-1.4l-.5-.6a10.7 10.7 0 00-7.5-6.3v-.1zm11.2 16.7c1.8-1.7 4-1.5 6 .6 1.6 1.5 1.1 4.1-.7 5.8-1.5 1.5-4.1 1-5.8-.7-1.5-1.6-1.4-4 .5-5.7zm55.8-29.6c.7.3 1.5 1 1.5 1.9l.8 4.5c0 .5 0 1 .9 1 .1 0 .4.4.4.7.6 3-2 6.6-4.8 7-1.6.3-2.2-.4-1.9-1.8.2-.8.6-1.5 1-2.1.5-2 1.5-3.8 2-6 .2-1.5 0-3.3 0-5.2zm-105-2.7c-1.1 4 .2 7.5 1.8 11 .4.7.7 1.5.7 2.3.3 1.2-.7 1.8-1.8 1.5-2-.7-3.5-2-4.4-3.8-.5-1.1-.2-2.6-.3-4l.1-.3c1.7-.3 1.4-1.5 1.5-2.7.2-1.6.8-3 2.5-4zm103.8 44.8c-1.7 1-3.2 1.8-5 2.5-.5.3-1.4 0-2.2 0l-5-1c-.8-.3-1.6-.6-1.9-1.2-.6-.6 0-1.4.6-1.8l.6-.8c1.6-1.3 1.6-1.2 3.1 0l1.4.5 8 1.4.4.4zm-33.9-15l-.3 1.4c-2.1 6.1 1.2 10.7 6.4 13.2l4.6 1.5c1.4.6 2.4 1.5 3 3h-1a17.6 17.6 0 01-13.3-8.2c-2.3-3.5-2-7-.2-10.4 0-.1 0-.3.3-.3l.5-.3zM130 450c.7-1 1-1.7 1.6-2.3.3-.3.9-.4 1.5-.6 2-.8 4.3-1 6.1-2.1 4.6-2.5 6.9-6.1 5.8-11.6v-1l.4.7c1.3 3 1.3 8.2-2 11.1-3.4 3-7.1 5.3-11.8 5.8H130zm-42.8-35l-1.5-1.4c-.3-1-.5-1.7.3-2.5 1.5-1.3 2.7-2.1 4.6-1.2.7.3 1.6 0 2.9-.3 1.5 3.5 2.9 7.6 4 12.2-1.3-.3-1.8-1-2-2l-1.7-4.6c-.6-1.8-2-2.4-3.5-3-1.4-.5-2.8 1-2.8 2.6l-.3.3zm140.6 10.5v-.7l3.5-10.2.7-1.3.5.1c.5 1.5 1.4 1.5 2.6 1 1.5-.8 4.4 1 4.6 3 0 .7-.8 1.5-2.3 2.1v-1.4c-.6-1.5-1.7-1.8-3-1.2-2 1-3.5 2.7-4 4.7l-.8 3c-.3.9-.8 1.2-1.8.9zm-57.7 14c-.4 3-2.5 4.6-4.4 6-1.8 1.5-5.6 1.1-7.6-.4-1.5-1.2-2.9-2.6-3.4-4.6-.1-.4 0-1.2.4-1.2.4-.3 1 0 1.5.6a7 7 0 005.8 4.5c1.4 0 2.7-.5 3.6-1.6l2.3-2.9c.3-.3 1-.3 1.8-.4zm60.9 3c.4 1.4 1.5 1.9 2.9 1.9.6 0 1.3.4 1.8.9.8.4 1.2.3 1.8-.3a5 5 0 001.6-3.8v-.7c1.6 2 0 6-2.3 7.2-1.6 1-3.4 1.8-5.2.6a4.6 4.6 0 01-1.8-2.6c-.3-1-.5-2.6 1.2-3.2zm-61.3-5c-1 .3-1.4-.2-1.8-1l-1.7-2.2c-3-3.2-7.5-1.8-9.5 1.7-.4.7-1 1.5-2.1.9-.2-3 4-6.6 7.6-6.6 3.5 0 7.6 4.2 7.5 7.2zm-75.8 1c1.4.8 1.2 2.5.3 3.7-1.4 2-3.2 2.5-5.5 1.7-2-.6-5-4.6-4-6.6 0-.4.2-.9.7-1.2l.1 1.6c-.1 1.5.8 2.2 1.6 3 .3.2 1 .2 1.2 0 1-1 2-1.2 3.3-1 .6 0 1.4-.7 2.3-1.1zm-20-25l1 6c.3 1.5 0 2.6-1.3 3.7-.9.7-2 .9-3 0-1.5-1.9-1.5-3-.5-4.5l3.8-5.1zm177.7 5.9l3.5 6.4c.6 1.3-.6 3.3-2 3.5-.6 0-1.5-.2-1.8-.6-1-1.1-1.6-2.2-1.3-3.6l1-5.6.6-.1zm-170.2.7c-2.1.3-3.6-.6-5-3-.5-1-.8-1.6-1-2.5-.2-1.5.4-2.4 1.6-2.7 1.4-.3 2.4.4 3 1.7v1.5l1.4 5zm63.7 30.8l-1.8.6c.2-.7.2-1.5.5-2l3.2-4c2.3-3 2.4-6.5 2.3-10.1v-.8c0-.3.1-.6.4-.8.2 0 .6 0 .8.3l.3 1c0 2 .1 4-.3 6-.8 3.6-2.6 7-5.4 9.5v.3zm-80.6-36.9l3.6-2.4 1.6-1.5c.7-.7 2.3-.7 3 0 .6.4.8 2 .2 3-1.4 2.1-6.1 3-8.1 1.5-.3-.1-.3-.4-.3-.4v-.2zM243 425.2h.2l-.2.2v-.1zm1.8-5.1c0-1.3 2-3 3.1-2.8 1 .2 1.5.8 1.7 1.9.7 3.3-3 6.2-6.4 6 1.7-1.5 1.7-3.2 1.7-5.1zm-41.6-33.4l-5-2.2c-2.3-.9-4.6-1.2-7-.9-1.8.5-2.3 1.1-2.5 3 0 .5-.4 1.1-.9 1.3-.4 0-1.2-.3-1.5-.6-1-.8-.8-2.1 0-3 1.5-1.4 3-3 5.5-2.5 1.5.2 3.2.8 4.7 1.4 2.2.7 4.1 1.8 6.1 2.7l.6.6v.2zm-79.2-3c3.6-1.9 7.3-3.7 11.5-3.4 1.9 0 3.4 1 4.5 2.6.6 1 .4 2.3-.7 3-.3.2-.7.3-1 .2-.5-.2-.8-.6-1-1.1 0-1.5-1.2-2.4-2.7-2.9-2.1-.6-4.4-.5-6.5.3-1.4.6-2.8.8-4.1 1.2zm136.7 36.5a4.8 4.8 0 01-5.6.8 9.1 9.1 0 01-3-3c-.8-1.3.4-1.7 1.1-2.4.6-.4 1.4-.6 2 0 .7 1 1.5 1.8 2.5 2.5.9.8 1.9 1.5 3 2.1zM115 393c1.3-1 2.5-2.3 4.5-1.5 1.1.5 2 1.5 2.2 2.9 0 1.2-1.1 1.5-1.7 2a2 2 0 01-1-.5l-.5-1c-.5-1.3-1.6-1.6-2.3-.5-.6.6-1 1.5-1.9 2.1l-1.2.6c0-.4-.3-1 0-1.5.5-.9 1.2-1.7 1.9-2.6zm101 12c-2-1.5-4-1.1-6 0-1.1.4-2 .5-3-.2l-1.5-.8c2.8-4.7 7.8-2.9 11.1 1h-.6zm-106.7-3.4c1.2-1.6 3-2.7 4.9-3 3-.7 4 0 5.6 2.5-1.3 1.4-2.4 1.5-4 1l-2.5-1c-1.5-.6-2.8-.3-4 .5zm7.2-11.3c2-2.5 4.6-4.3 7.6-5.2 1.5-.5 4.1.5 4.7 1.7.3.6.3 1.5 0 1.8-.4.6-1.3 1-2.1 1.5 0 0-.8-.9-1-1.5-.2-1.4-.7-2-2-1.8-1.6.3-2.8.9-4.2 1.5-1 .5-2 1.2-3 2zm93.4 3.5l-3.6-3c-1.4-.7-3-1.3-4.3-1.7-.6-.3-1.8.9-1.8 1.8-.2 1-.5 1.5-1.5 1.5-.7 0-1.9-1.5-1.7-2.3.3-2.1 2.6-3.3 4.9-2.6 2 .7 4 2 5.6 3.7l2.4 2.6zm-6.2 58l-4.3.7c-2 0-3.5-1-4.6-2.5-.6-.6 0-1.2.8-1.3l1.5-.3h1.4l5.2 3.3zm8.7-51.6c-.6-.8-1-1.5-1.7-2l-1.2-1.2c-1.2-1-2-.8-2.5.8-.4 1.2-1 1.5-2 .9-.7-.6-1-1.9-.4-2.6 2-2.5 4.3-2.5 6.1.1 1 1.3 1.5 2.5 2.1 3.7l-.4.3zm-24.9 28c-.7 0-1.5.4-2 .2-3.3-.3-5.8 1-7.9 3.4-.6.7-1.2.9-1.8 0 1.5-4.2 9.6-5.8 11.7-3.6zm-39.2 3.1l-1.5-.8c-2-2-4.5-3.3-7.3-3.6l-2.4-.2c2.6-2 9.3-.6 11.4 4.3l-.2.3zm15.4-13.7c-1.2 1-1.5 1-2.7-.2-1-1.2-1-2 .3-3.3.8-.6 2.4-.5 3.4.6.6.6.1 2-1 2.9zm46 .4l.8-3.8c.2-1.2-.4-1.8-1.5-2.1-.4 0-1.3-.6-1.2-1 0-.4.5-1.1 1-1.5h1.4c1.9 1.3 2.2 2.6 1.4 4.6l-1.8 3.8h-.2zm-94.6-4a6.6 6.6 0 01-1.8-5.3c0-.9 1.2-1.6 2-2.1.4-.2 1.5.3 2 .8.7.7.4 1.5-.7 1.8-2.3.8-2.4 1.2-1.8 3.6l.3 1.1zm90.4 10.1l1.2-3c.3-1.2.2-2-1-2.5-.6-.3-2-.6-1.1-1.5.5-.4 1.5-.6 2.1-.3 1.1.6 2 2 1.1 3.5l-2.1 4-.2-.2zm-96 7.2c.7-.8 1.6-.8 2.6.1.7.7.6 1.6 0 2.3-.8.8-2 .8-2.6 0-1.1-.9-1.1-1.5 0-2.4zm103 5.3c-.6-.6-.7-1.3 0-2.1.6-.8 2.5-.8 3 .3.4.5 0 1.5-.5 2.1-.6 1-1.3.8-2.5-.3zm-94.2-16.7l-1.2-3c-.5-1.5 1.2-3.4 2.4-3.1l1.2 1s-.3.8-.6 1c-1.8.9-2.1 1.3-1.6 3.3v.8h-.2zm3 7l-.6-3.5c-.3-1 0-1.6.8-2.2 1.2-1 1.5-1 2.5.8-2.8.6-2.2 2.9-2.6 4.9zm81.6 2.4v.2-.2zm-1.8-5.2c.5-1.2 1.2-1.5 2-.9.4.3 1 1 1 1.5 0 1.6-.4 3-.6 4.6h-.6c.2-2.1 1.2-4.6-1.8-5.2z"/></svg>
